<?xml version="1.0" standalone="no"?>
<!DOCTYPE svg PUBLIC "-//W3C//DTD SVG 1.1//EN" "http://www.w3.org/Graphics/SVG/1.1/DTD/svg11.dtd" >
<svg xmlns="http://www.w3.org/2000/svg" xmlns:xlink="http://www.w3.org/1999/xlink" version="1.1">
<metadata>
Created by FontForge 20201107 at Thu Jul 14 17:29:57 2022
 By 
Copyright 2022 The PinyonScript Project Authors (https://github.com/SorkinType/Pinyon)
</metadata>
<defs>
<font id="PinyonScript-Regular" horiz-adv-x="0" >
  <font-face 
    font-family="Pinyon Script"
    font-weight="400"
    font-stretch="normal"
    units-per-em="2048"
    panose-1="0 0 0 0 0 0 0 0 0 0"
    ascent="1638"
    descent="-410"
    x-height="679"
    cap-height="1392"
    bbox="-1151 -963 3473 2147"
    underline-thickness="44"
    underline-position="-127"
    unicode-range="U+000D-FB01"
  />
<missing-glyph horiz-adv-x="2116" 
d="M30 -206q568 820 615 889q396 586 483 718l1381 -4q-568 -820 -615 -889q-69 -102 -158 -232.5t-163 -240t-162 -241.5h-1381zM201 -179h1080q270 361 524 741q40 60 115.5 170.5t110 161.5t90.5 136t107 164.5t110 175.5h-247l-2 1l-1 -1l-831 4q-245 -331 -523 -745
q-38 -56 -115.5 -170t-111 -163t-90.5 -135t-107 -165.5t-109 -174.5z" />
    <glyph glyph-name="fi" unicode="fi" horiz-adv-x="1135" 
d="M-296 -787q-41 0 -69 27.5t-29 69.5q-3 57 32 138t128.5 233t301.5 466l91 137q-28 43 -40 90.5t-8 78.5q5 33 22.5 53t42.5 20q23 0 38.5 -16.5t15.5 -44.5q0 -23 -20.5 -53.5t-44.5 -43.5q4 -22 17 -49q164 250 287.5 442.5t168.5 263.5t64 98q149 213 270.5 334.5
t195.5 121.5q41 0 63 -24t23 -62q4 -102 -84 -262.5t-226 -322.5t-307 -316t-322 -250l-71 -110q47 -41 111 -45q215 -14 374 145q91 121 283 346q18 -3 96 -3q20 0 42 2q-294 -346 -381.5 -461t-87.5 -156q0 -34 73 -34q29 0 63.5 12t69.5 34t70.5 48t70.5 58t65 61
t58.5 60t47 51t33.5 38l16 19l20 -18q-3 -3 -37 -41.5t-69.5 -77.5t-91 -90.5t-107.5 -89.5t-113 -65t-113 -27q-62 0 -99 22.5t-37 60.5q0 63 67 165q-142 -102 -314 -84q-71 7 -125 46l-41 -64q-17 -232 -87 -446t-177 -349.5t-220 -135.5zM351 398q137 93 291 241.5
t280 305t208 309t79 245.5q-1 27 -14 42t-32 15q-36 0 -97 -67.5t-173 -243.5q-166 -264 -542 -847zM1248 876q-27 0 -44 17.5t-17 44.5q0 35 30 64.5t70 29.5q27 0 44 -18t17 -45q0 -36 -31.5 -64.5t-68.5 -28.5zM-289 -762q45 0 112 63.5t135 170.5t124 274t73 348
q-35 -53 -103.5 -156.5t-103 -156.5t-88 -136t-81.5 -129.5t-58 -100t-42.5 -85.5t-12.5 -50q0 -17 12.5 -29.5t32.5 -12.5z" />
    <glyph glyph-name="f_f" unicode="ff" horiz-adv-x="1236" 
d="M-296 -787q-41 0 -69 27.5t-29 69.5q-5 82 79.5 235t382.5 602l91 137q-28 43 -40 90.5t-8 78.5q5 33 22.5 53t42.5 20q23 0 38.5 -16.5t15.5 -44.5q0 -23 -20.5 -53.5t-44.5 -43.5q4 -22 17 -49q164 250 287.5 442.5t168.5 263.5t64 98q149 213 270.5 334.5t195.5 121.5
q41 0 63 -24t23 -62q4 -102 -84 -262.5t-226 -322.5t-307 -316t-322 -250l-71 -110q47 -41 111 -45q198 -14 345 118q-45 84 -35 148q5 33 22.5 53t42.5 20q23 0 38.5 -16.5t15.5 -44.5q0 -23 -20.5 -53.5t-44.5 -43.5q4 -20 10 -35q31 31 59 66q147 223 256.5 394t152 238
t59.5 92q149 213 270.5 334.5t195.5 121.5q41 0 63 -24t23 -62q4 -102 -84 -262.5t-226 -322.5t-307 -316t-322 -250l-71 -110q47 -41 111 -45q70 -5 133.5 9.5t105.5 35t86 57t63.5 58.5t49.5 58l23 -16q-5 -5 -29.5 -32.5t-48 -51.5t-65.5 -55t-85.5 -51.5t-105.5 -32
t-128 -4.5q-71 7 -125 46l-42 -64q-17 -232 -87 -446t-176.5 -349.5t-219.5 -135.5q-41 0 -69 27.5t-29 69.5q-3 57 32 138t128.5 233t301.5 466l86 130q-158 -136 -354 -115q-71 7 -125 46l-41 -64q-17 -232 -87 -446t-177 -349.5t-220 -135.5zM351 398q137 93 291 241.5
t280 305t208 309t79 245.5q-1 27 -14 42t-32 15q-36 0 -97 -67.5t-173 -243.5q-166 -264 -542 -847zM905 398q137 93 291 241.5t280 305t208 309t79 245.5q-1 27 -14 42t-32 15q-36 0 -97 -67.5t-173 -243.5q-166 -264 -542 -847zM-289 -762q45 0 112 63.5t135 170.5
t124 274t73 348q-35 -53 -103.5 -156.5t-103 -156.5t-88 -136t-81.5 -129.5t-58 -100t-42.5 -85.5t-12.5 -50q0 -17 12.5 -29.5t32.5 -12.5zM265 -762q45 0 112 63.5t135 170.5t124 274t73 348q-35 -53 -103.5 -156.5t-103 -156.5t-88 -136t-81.5 -129.5t-58 -100
t-42.5 -85.5t-12.5 -50q0 -17 12.5 -29.5t32.5 -12.5z" />
    <glyph glyph-name="lslash_lslash" unicode="&#x142;&#x142;" horiz-adv-x="912" 
d="M1545 1685q-89 0 -258 46q-159 43 -249 42q-78 -2 -127 -55q-12 -12 -26 -10q-13 0 -16 8q3 24 76 60q90 44 160 44q96 0 258 -45q59 -17 139 -30t110 -13q77 0 127 55q11 13 26 11q12 0 16 -8q-3 -25 -75 -60q-90 -45 -161 -45zM40 -2q-42 0 -69.5 23t-27.5 58
q0 54 36.5 120t192.5 291l773 1105q51 -6 97 -4q8 0 42 4l-822 -1141q-118 -164 -172.5 -245.5t-67 -106.5t-12.5 -43q0 -15 13 -24t34 -9q55 0 123.5 34.5t132.5 89.5t114.5 104.5t94.5 98.5t48 53q19 26 58 84l773 1105q51 -6 97 -4q8 0 42 4l-822 -1141
q-118 -164 -172.5 -245.5t-67 -106.5t-12.5 -43q0 -15 13 -24t34 -9q55 0 123.5 34.5t132.5 89.5t114.5 104.5t94.5 98.5t48 53l20 -17q-1 -1 -50 -55t-100 -102.5t-120.5 -106t-143 -92.5t-136.5 -35q-42 0 -69.5 23t-27.5 58q0 39 14.5 76t65.5 115q-267 -272 -439 -272z
" />
    <glyph glyph-name=".notdef" horiz-adv-x="2116" 
d="M30 -206q568 820 615 889q396 586 483 718l1381 -4q-568 -820 -615 -889q-69 -102 -158 -232.5t-163 -240t-162 -241.5h-1381zM201 -179h1080q270 361 524 741q40 60 115.5 170.5t110 161.5t90.5 136t107 164.5t110 175.5h-247l-2 1l-1 -1l-831 4q-245 -331 -523 -745
q-38 -56 -115.5 -170t-111 -163t-90.5 -135t-107 -165.5t-109 -174.5z" />
    <glyph glyph-name=".null" 
 />
    <glyph glyph-name="nonmarkingreturn" horiz-adv-x="682" 
 />
    <glyph glyph-name="CR" unicode="&#xd;" 
 />
    <glyph glyph-name="space" unicode=" " horiz-adv-x="503" 
 />
    <glyph glyph-name="exclam" unicode="!" horiz-adv-x="370" 
d="M224 315q-10 0 -10 11q0 12 18 44q87 161 262 449t251 400l41 60q36 -7 107 -4q44 0 67 4q-38 -42 -72.5 -82.5t-70 -84.5t-60 -73.5t-60 -77.5t-51 -67.5t-52.5 -71.5t-44 -62t-47 -67t-42 -59q-50 -70 -99 -139.5t-77.5 -109.5t-38.5 -54q-11 -16 -22 -16zM82 -2
q-28 0 -45 18t-17 46q0 35 30.5 63.5t70.5 28.5q28 0 44.5 -17t16.5 -46q0 -36 -31.5 -64.5t-68.5 -28.5z" />
    <glyph glyph-name="quotedbl" unicode="&#x22;" horiz-adv-x="736" 
d="M769 1164q-12 0 -12 11q0 9 21 45q146 273 147 275q49 91 81.5 119.5t79.5 30.5q50 1 50 -40q0 -24 -19.5 -51.5t-101.5 -122.5q-31 -36 -50 -58q-179 -209 -196 -209zM412 1164q-12 0 -12 11q0 8 20 45q145 269 148 275q49 91 81.5 119.5t79.5 30.5q49 1 49 -40
q0 -24 -18.5 -50t-100.5 -122q-32 -38 -51 -60q-178 -209 -196 -209z" />
    <glyph glyph-name="numbersign" unicode="#" horiz-adv-x="880" 
d="M0 22l363 509h-191q28 31 40 53h189l170 239h-219q33 40 41 53h216l354 497q15 -5 32 -5q25 0 37 3l-353 -495h221l355 497q15 -5 34 -5q23 0 35 3l-353 -495h180q-24 -33 -29 -53h-189l-170 -239h208q-23 -33 -29 -53h-217l-362 -509q-14 2 -27 2q-5 0 -45 -2l363 509
h-221l-363 -509q-10 2 -25 2q-9 0 -45 -2zM471 584h221l170 239h-221z" />
    <glyph glyph-name="dollar" unicode="$" horiz-adv-x="1049" 
d="M243 22l200 269q-39 14 -61 41.5t-22 63.5q0 39 21 68.5t53 34.5q23 4 38 -6.5t15 -31.5t-14 -37.5t-32 -18.5q-25 -5 -41 11v-15q0 -57 63 -83l291 391q0 1 -5 13q-34 77 -34 148q0 97 79.5 180t201.5 103q43 6 88 -1l169 227q9 -3 22 -3q5 0 17 2l-175 -234
q44 -15 69.5 -42.5t25.5 -64.5q0 -38 -21 -67.5t-53 -34.5q-23 -4 -38 6t-15 31t13.5 37.5t33.5 19.5q23 5 40 -11q1 4 1 14q0 27 -20 50.5t-55 36.5l-225 -302q40 -89 40 -143q0 -142 -105 -257t-241 -137q-50 -7 -93 2l-193 -260q-6 1 -8.5 1.5t-5.5 0.5q-18 0 -24 -2z
M859 848l207 280q-31 6 -74 1q-56 -10 -108.5 -65t-52.5 -104q0 -52 28 -112zM572 308q49 8 99 38t88 85.5t38 120.5q0 48 -30 124l-273 -367q33 -7 78 -1z" />
    <glyph glyph-name="percent" unicode="%" horiz-adv-x="1247" 
d="M372 830q-73 0 -110 40.5t-37 92.5q0 57 41.5 130.5t105.5 137.5t150.5 108.5t166.5 44.5q57 0 89 -31.5t32 -82.5q0 -96 -65.5 -199t-169 -172t-203.5 -69zM170 -5l983 1378q15 -5 27 -5q23 0 35 3l-980 -1376q-11 3 -27 3q-9 0 -38 -3zM401 862q56 0 123.5 39t123.5 97
t94 131t38 136q0 82 -64 82q-113 0 -275 -188q-51 -59 -79.5 -123t-28.5 -108q0 -34 16.5 -50t51.5 -16zM758 -2q-73 0 -110.5 40.5t-37.5 92.5q0 56 42 129.5t106 138t150.5 109t166.5 44.5q57 0 89 -32t32 -83q0 -95 -65.5 -198t-169 -172t-203.5 -69zM788 28
q74 0 163.5 64.5t151.5 160.5t62 179q0 82 -62 82q-104 0 -276 -199q-109 -129 -109 -222q0 -65 70 -65z" />
    <glyph glyph-name="ampersand" unicode="&#x26;" horiz-adv-x="1582" 
d="M681 18q-30 6 -91 6q-30 0 -70 -5q44 69 84 140q-80 64 -127 157t-47 197q0 114 55 190t137 76q63 0 110.5 -58t47.5 -157q0 -120 -110 -340q172 265 319.5 435t313.5 325q17 16 28 16q12 0 12 -9q0 -7 -32 -38q-157 -152 -313 -373.5t-271 -460.5q63 -26 133 -26
q127 0 222 81q90 82 90 179q0 3 -2 15q-40 2 -40 36q0 11 9 20t22 9q21 0 33.5 -17.5t12.5 -48.5q0 -61 -29 -117.5t-80 -97.5q-105 -86 -244 -86q-69 0 -139 28zM619 188q131 243 131 387q0 74 -35 119t-82 45q-55 0 -100.5 -70t-45.5 -158q0 -97 35 -180.5t97 -142.5z" />
    <glyph glyph-name="quotesingle" unicode="'" horiz-adv-x="378" 
d="M412 1164q-12 0 -12 11q0 8 20 45q145 269 148 275q49 91 81.5 119.5t79.5 30.5q49 1 49 -40q0 -24 -18.5 -50t-100.5 -122q-32 -38 -51 -60q-178 -209 -196 -209z" />
    <glyph glyph-name="parenleft" unicode="(" horiz-adv-x="688" 
d="M235 -187q-7 0 -22 22q-113 182 -118 403q-7 185 54.5 364t175 329t270.5 272t343 203q31 13 39 13q10 0 10 -9q0 -4 -0.5 -5t-4.5 -4t-13 -8q-201 -108 -355 -250.5t-249.5 -303.5t-141 -335.5t-40.5 -356.5q5 -134 55 -293q0 -2 3 -13.5t4 -16.5q0 -9 -10 -11z" />
    <glyph glyph-name="parenright" unicode=")" horiz-adv-x="844" 
d="M-99 -187q-10 0 -10 9q0 4 0.5 5t4.5 4t13 8q201 108 355 250.5t249.5 303.5t141 335.5t40.5 356.5q-5 134 -55 293q0 2 -3 13.5t-4 16.5q0 9 10 11q7 0 22 -22q113 -182 118 -403q7 -185 -54.5 -364t-175 -329t-270.5 -272t-343 -203q-31 -13 -39 -13z" />
    <glyph glyph-name="asterisk" unicode="*" horiz-adv-x="912" 
d="M714 901q-72 13 -103 13q12 15 41.5 51t58.5 74t65 92q-120 -24 -238 -65q17 84 18 102q159 -11 229 -9q-15 90 -56 183q42 18 104 51q-16 -101 -23 -229q29 21 52.5 40t49 43t35 32.5t39.5 39t33 33.5q30 -57 52 -82q-177 -84 -251 -127q118 -63 184 -78
q-63 -73 -73 -87q-80 98 -132 147q-45 -89 -85 -224z" />
    <glyph glyph-name="plus" unicode="+" horiz-adv-x="649" 
d="M182 172l180 293h-272q30 33 41 55h265l170 277q24 -4 28 -4q7 0 41 4l-172 -277h276q-17 -17 -40 -55h-270l-182 -293q-24 4 -31 4q-14 0 -34 -4z" />
    <glyph glyph-name="comma" unicode="," horiz-adv-x="370" 
d="M-151 -213q-19 0 -19 12q0 11 21 16q53 18 111 74.5t58 89.5q0 28 -10 56q-9 31 -9 55q0 33 27.5 62.5t68.5 29.5q30 0 47 -20t17 -57q0 -117 -166 -248q-38 -30 -82.5 -50t-63.5 -20z" />
    <glyph glyph-name="hyphen" unicode="-" horiz-adv-x="690" 
d="M190 461q12 12 19 31.5t10 25.5h381q-24 -31 -28 -57h-382z" />
    <glyph glyph-name="period" unicode="." horiz-adv-x="404" 
d="M81 -2q-31 0 -51 20.5t-20 53.5q0 42 35.5 76t83.5 34q33 0 52.5 -20.5t19.5 -53.5q0 -42 -37.5 -76t-82.5 -34z" />
    <glyph glyph-name="slash" unicode="/" horiz-adv-x="583" 
d="M0 -106l1060 1488q14 -6 33 -6q6 0 20.5 1t17.5 1l-1061 -1484q-12 2 -25 2q-11 0 -45 -2z" />
    <glyph glyph-name="zero" unicode="0" horiz-adv-x="1153" 
d="M424 -5q-108 0 -167 83t-59 232q0 116 40.5 246t109 250t161.5 231t193.5 192.5t210 130t206.5 48.5q116 0 174 -87t58 -237q0 -116 -39 -245t-105 -248t-157.5 -229t-192.5 -190.5t-214.5 -128.5t-218.5 -48zM449 22q67 0 157 44.5t183.5 120t185 183t162.5 227
t115 259.5t44 273q0 138 -46 196.5t-130 58.5q-83 0 -194 -83.5t-217 -217.5t-198 -286.5t-148 -307.5t-56 -264q0 -203 142 -203z" />
    <glyph glyph-name="one" unicode="1" horiz-adv-x="796" 
d="M190 13q303 430 641 959q-250 -264 -423 -388q-66 -47 -88 -47q-23 0 -23 20t34 31q23 10 47 23q86 51 243.5 200.5t300 311t195.5 250.5q20 32 29 41.5t18 9.5q15 0 15 -14q0 -16 -38 -66q-87 -113 -314.5 -516.5t-431.5 -809.5q-5 0 -49.5 3t-61.5 3q-57 0 -94 -11z
" />
    <glyph glyph-name="two" unicode="2" horiz-adv-x="1272" 
d="M24 -58q-11 0 -11 22q0 28 28 73t80 92q147 133 446 280q218 108 371.5 245.5t224.5 271.5t71 260q0 113 -37 155t-117 42q-98 0 -209 -70t-194 -167t-138 -199.5t-55 -167.5q0 -43 25 -70t71 -27q76 0 164.5 62.5t160.5 166.5q12 18 23 18q9 0 9 -8q0 -19 -45 -74
t-113 -109q-102 -83 -199 -83q-52 0 -87.5 15t-52 40.5t-22.5 48.5t-6 50q0 74 37 158t103 161.5t149 141.5t185 102t201 38q135 0 206.5 -76.5t71.5 -196.5q0 -201 -185.5 -395.5t-524.5 -342.5q-243 -108 -331 -155.5t-165 -120.5q115 65 204 88t194 23q135 0 240 -69
q87 -57 150 -57q76 0 140.5 48.5t95.5 137.5q3 7 4.5 18t3 17.5t6.5 6.5q15 0 15 -27q0 -35 -34 -95.5t-77 -104.5q-58 -57 -115 -84t-137 -27q-53 0 -95 17t-92 57q-118 97 -248 97q-98 0 -207.5 -59.5t-150.5 -132.5q-2 -3 -3.5 -11t-3.5 -13q-5 -11 -25 -11z" />
    <glyph glyph-name="three" unicode="3" horiz-adv-x="1214" 
d="M283 -238q-137 0 -250 62.5t-113 126.5q0 29 17.5 48t45.5 19t44.5 -19.5t16.5 -55.5q0 -26 -5 -53q29 -47 99.5 -76t139.5 -29q131 0 261.5 62.5t228.5 163t159.5 235t61.5 269.5q0 46 -26.5 71t-71.5 25q-86 0 -175.5 -46t-134.5 -112q-5 -9 -16 -38q-7 -21 -26 -21
q-16 0 -16 21q0 26 28 56q50 53 106.5 91t179.5 100q105 53 182 120.5t119.5 139.5t62.5 141.5t20 139.5q0 99 -41.5 139.5t-122.5 40.5q-82 0 -181 -63.5t-177.5 -153.5t-132 -192.5t-53.5 -176.5q0 -87 73 -87q70 0 158.5 71.5t154 176.5t74.5 195q4 19 12 19q10 0 10 -23
q0 -79 -44.5 -165t-109 -151t-137 -107.5t-127.5 -42.5q-65 0 -105.5 40t-40.5 113q0 84 58.5 186t148 187.5t204.5 143t218 57.5q143 0 218.5 -63t75.5 -188q0 -56 -32 -123.5t-91.5 -137.5t-157 -138t-216.5 -117q122 24 201.5 -32.5t79.5 -175.5q0 -62 -32 -136.5
t-87.5 -149t-137 -144.5t-173.5 -124t-203.5 -86.5t-221.5 -32.5z" />
    <glyph glyph-name="four" unicode="4" horiz-adv-x="1496" 
d="M723 -115l-136 72q145 233 384 520q-74 21 -150 45q-33 10 -109 35.5t-115 37.5q-95 -65 -165 -84.5t-143 -19.5q-71 0 -115 20t-44 51q0 34 37.5 57t89 31.5t112.5 8.5q95 0 186 -19q149 129 327 349t287 397q40 5 93.5 12.5t88 11.5t66.5 4q35 0 35 -12q0 -5 -6.5 -9
t-34.5 -15q-28 -12 -54.5 -31.5t-46 -38t-70.5 -69.5q-16 -16 -127.5 -141.5t-236 -254.5t-214.5 -200l-28 -22q76 -19 216 -59l155 -44q148 174 280.5 301.5t219.5 171.5q41 17 45 17q10 0 10 -9q0 -8 -22 -23q-71 -48 -188.5 -180t-244.5 -302q66 -14 132 -14
q75 0 146.5 16t114.5 39q14 7 29.5 18t25 17.5t15.5 6.5q10 0 10 -8q0 -6 -32 -33q-44 -35 -115.5 -57t-125 -27.5t-102.5 -5.5q-83 0 -128 7q-240 -328 -352 -568zM301 516q87 0 171 59q33 23 53 40q-87 20 -148 20q-92 0 -137.5 -21t-45.5 -57q0 -41 107 -41z" />
    <glyph glyph-name="five" unicode="5" horiz-adv-x="1197" 
d="M148 -317q-163 0 -267 59q-71 44 -71 93q0 14 7.5 22t19.5 8q20 0 30 -26q7 -19 24 -43q58 -84 263 -84q104 0 209 40t193.5 107.5t166.5 156t132 184.5t85 195.5t31 185.5q0 214 -205 214q-106 0 -211.5 -63.5t-163.5 -156.5q-17 -28 -29 -24q-12 0 -10 11q7 27 50 78
t94 90q239 411 358 666l83 4q-19 -43 -51 -103q54 51 120 82t126 31q39 0 104 -19q60 -21 103 -21q56 0 98 19t83 76q9 14 13 24q5 11 14 11t9 -10q0 -11 -8 -25q-46 -95 -135.5 -152.5t-207.5 -57.5q-50 0 -103 16q-74 24 -109 24t-74 -18t-66 -46q-30 -59 -127.5 -231
t-121.5 -211q83 47 187 47q155 0 239 -85.5t78 -243.5q-4 -97 -44.5 -198.5t-107 -191.5t-159 -170.5t-195.5 -138.5t-221 -91.5t-233 -33.5z" />
    <glyph glyph-name="six" unicode="6" horiz-adv-x="1243" 
d="M525 -5q-130 0 -190.5 93.5t-57.5 252.5q2 105 45 227.5t113.5 239.5t168 227t203.5 193t225.5 132.5t229.5 49.5q107 0 164.5 -43.5t55.5 -96.5q-1 -52 -30.5 -87.5t-68.5 -35.5q-32 0 -50.5 18t-18.5 42q2 44 49 72q33 17 33 40q2 27 -33 45.5t-94 18.5
q-94 0 -190.5 -45.5t-180 -122t-161.5 -176t-138.5 -210t-106.5 -220t-71.5 -210t-26.5 -176.5q-3 -199 125 -199q93 0 197 78t234 264q74 107 119 216.5t46 193.5q1 115 -91 115q-40 0 -101.5 -36t-121 -91t-108 -130.5t-60.5 -145.5q-5 -27 -16 -27q-12 0 -12 20
q2 100 64 201.5t161.5 168t202.5 66.5q90 0 138.5 -54t47.5 -152q-4 -141 -75 -277t-175 -230t-223.5 -151.5t-220.5 -57.5z" />
    <glyph glyph-name="seven" unicode="7" horiz-adv-x="1049" 
d="M689 -545q-5 0 -27 13q-81 47 -145 169t-64 282q0 258 183 574.5t532 653.5q4 4 23.5 22.5t43 40.5t43.5 41q-96 -59 -199 -59q-46 0 -78 12t-81 45q-43 31 -72 43t-71 13q-142 3 -218 -103q-77 -130 -145.5 -213.5t-91.5 -83.5q-12 0 -12 9q0 5 28 34q29 32 58 70.5
t65 94.5t62 123t34 130q2 22 5.5 30t14.5 8q18 0 18 -27q0 -36 -20 -110q116 143 285 143q44 0 82.5 -12.5t61 -26t71.5 -46.5q66 -44 144 -44q57 0 91 19.5t94 75.5q9 9 14 13q20 17 39 17q22 0 22 -16q0 -9 -6.5 -15t-30.5 -23q-108 -84 -242 -218q-317 -313 -474 -626
t-157 -597q0 -129 28.5 -237.5t67.5 -163.5q7 -10 16 -21t14 -17t5 -9q0 -8 -11 -8z" />
    <glyph glyph-name="eight" unicode="8" horiz-adv-x="1106" 
d="M559 -5q-175 0 -261.5 85.5t-86.5 220.5q0 153 134 286.5t336 203.5q-92 162 -92 268q0 131 122 241t297 110q136 0 202.5 -63t66.5 -155q0 -136 -118.5 -255t-289.5 -167l3 -3q71 -104 113.5 -194.5t42.5 -179.5q0 -82 -41 -157t-107.5 -127t-151 -83t-169.5 -31z
M854 793q139 38 246 157t107 248q0 78 -47.5 131.5t-148.5 53.5q-35 0 -73 -11t-75.5 -34t-68 -55t-49 -77.5t-18.5 -97.5q0 -124 127 -315zM580 23q53 0 107.5 23.5t98 64t71 100.5t27.5 126q0 72 -24.5 136t-100.5 188q-21 33 -63 104q-173 -59 -279 -178.5t-106 -259.5
q0 -145 74 -224.5t195 -79.5z" />
    <glyph glyph-name="nine" unicode="9" horiz-adv-x="1209" 
d="M422 -2q-123 0 -202.5 58t-78.5 129q2 37 24.5 61t59.5 24q30 0 47 -18.5t16 -40.5q0 -14 -16 -40q-11 -16 -11 -40q-2 -37 51.5 -72t114.5 -35q205 0 394.5 217.5t314.5 588.5q-227 -261 -422 -261q-127 0 -204 78.5t-62 208.5q15 142 97 269.5t207.5 205t259.5 77.5
q164 0 242.5 -101t61.5 -282q-12 -131 -64.5 -274t-134 -275t-198 -244t-246.5 -176q-119 -58 -251 -58zM712 593q80 0 169.5 55.5t160.5 139.5t118.5 188.5t49.5 196.5q4 115 -38.5 160t-139.5 45q-103 0 -218.5 -108t-191 -255t-78.5 -261q-2 -72 41 -116.5t127 -44.5z
" />
    <glyph glyph-name="colon" unicode=":" horiz-adv-x="424" 
d="M393 468q-31 0 -51 20.5t-20 53.5q0 42 35.5 76t83.5 34q33 0 52.5 -20.5t19.5 -53.5q0 -42 -37.5 -76t-82.5 -34zM131 -2q-31 0 -51 20.5t-20 53.5q0 42 35.5 76t83.5 34q33 0 52.5 -20.5t19.5 -53.5q0 -42 -37.5 -76t-82.5 -34z" />
    <glyph glyph-name="semicolon" unicode=";" horiz-adv-x="478" 
d="M447 468q-31 0 -51 20.5t-20 53.5q0 42 35.5 76t83.5 34q33 0 52.5 -20.5t19.5 -53.5q0 -42 -37.5 -76t-82.5 -34zM19 -189q-19 0 -19 12q0 11 21 16q53 18 111 74.5t58 89.5q0 28 -10 56q-9 31 -9 55q0 33 27.5 62.5t68.5 29.5q30 0 47 -20t17 -57q0 -117 -166 -248
q-38 -30 -82.5 -50t-63.5 -20z" />
    <glyph glyph-name="less" unicode="&#x3c;" horiz-adv-x="815" 
d="M655 150l-465 244l554 258q4 -18 26 -50l-463 -210l391 -202q-39 -36 -43 -40z" />
    <glyph glyph-name="equal" unicode="=" horiz-adv-x="821" 
d="M303 603q9 10 15 19t12 21t9 17h598q-24 -30 -29 -57h-605zM190 401q8 9 35 56h597q-20 -31 -29 -56h-603z" />
    <glyph glyph-name="greater" unicode="&#x3e;" horiz-adv-x="755" 
d="M186 154q-4 18 -26 50l462 210l-390 202q39 36 43 40l465 -244z" />
    <glyph glyph-name="question" unicode="?" horiz-adv-x="810" 
d="M281 307q-14 0 -14 17q0 21 56 72q32 29 141.5 118.5t183.5 155.5q106 94 151 165.5t45 156.5q0 63 -35 99t-91 36q-61 0 -109 -27t-73 -66q-28 -41 -33 -106q-2 -33 -21.5 -54.5t-49.5 -21.5q-23 0 -37 16.5t-14 39.5q0 31 30 73t78 80t115.5 64.5t134.5 26.5
q106 0 163.5 -49.5t57.5 -136.5q0 -45 -17.5 -81.5t-76 -96t-174.5 -153.5q-67 -54 -188.5 -140.5t-158.5 -118.5q-14 -12 -20.5 -20t-10.5 -18t-5 -12q-14 -19 -28 -19zM142 -2q-27 0 -44.5 18t-17.5 46q0 35 30.5 63.5t72.5 28.5q28 0 44.5 -17t16.5 -46q0 -36 -32 -64.5
t-70 -28.5z" />
    <glyph glyph-name="at" unicode="@" horiz-adv-x="1392" 
d="M538 -290q-101 0 -180 29.5t-125.5 79t-70 109.5t-23.5 126q0 80 30 168t84 172t134.5 160t175.5 133t213 91t241 34q152 0 247 -83t95 -198q0 -178 -141 -338q0 -2 0.5 -8t0.5 -9q0 -77 -57.5 -160.5t-150 -151t-219.5 -111t-254 -43.5zM545 -263q116 0 233.5 38.5
t205.5 99t144.5 137t59.5 150.5q-77 -76 -169 -120t-178 -44q-55 0 -83.5 18t-28.5 48q1 28 15.5 55t68.5 91l-5 3q-93 -107 -173.5 -161t-127.5 -54q-50 0 -76.5 28.5t-26.5 77.5q0 117 95 225q177 205 381 205q41 0 64.5 -18t23.5 -46q0 -19 -7 -39q62 70 73 84
q22 -4 62 -4q30 0 58 2l-260 -311q-50 -60 -69 -91t-19 -52q0 -32 60 -32q73 0 161 50.5t157 133.5q-13 42 -42 66q-8 9 -32 21q-11 6 -11 14q0 4 5 7.5t10 3.5q15 0 47 -25q31 -29 45 -59q96 133 96 277q0 124 -77 199t-220 75q-136 0 -264 -50t-223.5 -130.5t-168 -178
t-110 -196t-37.5 -181.5q0 -61 21 -117t62 -101t108 -72t152 -27zM512 22q33 0 69.5 21.5t94.5 71.5q71 63 150 160q6 7 28 33.5t33 38.5q56 78 56 123q0 38 -49 38q-43 0 -129 -60t-179 -171q-110 -131 -110 -212q0 -43 36 -43z" />
    <glyph glyph-name="A" unicode="A" horiz-adv-x="1628" 
d="M212 -5q-102 0 -157 41t-55 105q0 41 29 61.5t65 20.5q19 0 34.5 -11t15.5 -34q0 -20 -17 -34.5t-39 -14.5q-34 0 -48 10v-7q0 -110 180 -110q124 0 283 110q67 49 149 117q-142 53 -226 149t-89 204q-6 110 74 188.5t220 78.5q130 0 234 -76.5t162 -199.5l27 27
q337 337 527.5 492t323.5 225q126 67 195 67q18 0 18 -9q0 -5 -20 -12q-26 -8 -90.5 -89.5t-300.5 -395.5q-272 -362 -475 -631q182 54 319 171t195 271q12 30 16 30t10 -9t6 -20q-6 -80 -44.5 -144.5t-107.5 -131.5q-156 -152 -426 -209l-171 -226q-15 1 -40.5 2.5t-45 2.5
t-30.5 1q-1 0 -58 -6q42 53 148 183q8 12 11 19q-42 -2 -63 -2q-142 0 -264 38q-134 -113 -217 -164q-123 -78 -258 -78zM1070 264q723 886 956 1102q-83 -33 -149 -72q-120 -73 -300.5 -230.5t-471.5 -439.5l-64 -62q41 -106 41 -209q0 -45 -12 -89zM676 269
q124 105 328 303q-52 121 -151 194t-220 73q-95 0 -165 -70.5t-69 -164.5q0 -108 71 -198t206 -137zM957 227q35 0 70 3q23 59 23 117q0 99 -33 192q-170 -163 -306 -281q108 -31 246 -31z" />
    <glyph glyph-name="B" unicode="B" horiz-adv-x="1633" 
d="M212 -2q-88 0 -150 42.5t-62 101.5q0 42 28.5 63t64.5 21q19 0 34.5 -11.5t15.5 -34.5q0 -20 -17 -34.5t-39 -14.5q-34 0 -48 10v-6q0 -49 49.5 -80t131.5 -31q45 0 81.5 8.5t87 38t104.5 75t139 129.5t185 191.5t247 271.5q343 393 666 565q-115 115 -380 115
q-153 0 -299 -55q-156 -57 -307.5 -170t-245.5 -238t-94 -217q0 -57 38 -86.5t99 -29.5q85 0 189.5 51.5t199 135.5t166 205t88.5 246q4 21 6 26.5t8 5.5q11 0 11 -22q0 -140 -62 -267t-159.5 -214t-218.5 -138t-238 -51q-66 0 -111.5 35.5t-45.5 105.5q0 96 54.5 197.5
t151.5 189.5t220 159t270.5 112t291.5 41q270 0 416 -112q151 72 250 72q33 0 33 -10q0 -4 -29 -8.5t-94.5 -23.5t-133.5 -53q94 -89 94 -222q0 -129 -115.5 -252.5t-280.5 -190.5q80 -71 80 -201q0 -111 -81 -213.5t-212.5 -165t-272.5 -62.5q-87 0 -126.5 33t-39.5 78
q0 51 46.5 114.5t118 117.5t167.5 91t186 37q9 0 15 -4t6 -8q0 -14 -31 -14q-101 0 -213.5 -54.5t-187 -134t-74.5 -146.5q0 -35 31.5 -58.5t105.5 -23.5q71 0 151 42t147.5 112t111.5 171t44 208q0 40 -15 64q-105 -35 -197 -35q-43 0 -68.5 14.5t-25.5 31.5q0 24 50.5 44
t113.5 20q68 0 122 -27q140 69 240 197t100 285q0 70 -42 124q-33 -19 -94 -63q-126 -94 -248.5 -224.5t-276.5 -337.5q-357 -478 -701 -620q-87 -34 -220 -34zM1263 620q72 0 160 37q-32 18 -90 18q-46 0 -80 -10.5t-34 -22.5q0 -8 13 -15t31 -7z" />
    <glyph glyph-name="C" unicode="C" horiz-adv-x="1286" 
d="M611 -262q-13 0 -31 33t-33.5 96.5t-18.5 133.5q-95 13 -154 77.5t-59 172.5q0 234 213 508q-111 25 -169.5 95.5t-58.5 165.5q0 74 58 154t151 144.5t222.5 106.5t261.5 42q81 0 81 -17q0 -8 -13 -8q-5 0 -29.5 2t-43.5 2q-99 0 -213 -39t-209.5 -101.5t-159 -150.5
t-63.5 -176q0 -66 54 -121t149 -76q209 258 514.5 438.5t555.5 180.5q100 0 100 -74q0 -83 -100.5 -183.5t-249.5 -184t-333.5 -143.5t-341.5 -68q-142 -155 -225.5 -295.5t-83.5 -239.5q0 -77 38.5 -123.5t107.5 -60.5q0 134 51.5 264t134 226t190.5 155t217 59
q83 0 128 -38t45 -102q0 -69 -35.5 -149.5t-102.5 -159t-153.5 -143t-199 -104t-228.5 -39.5q-12 0 -18 1q7 -176 59 -243q4 -6 4 -13q0 -5 -9 -5zM716 775q133 14 306.5 79t320 148t248 173t101.5 149q0 53 -78 53q-144 0 -407.5 -180t-490.5 -422zM586 24q96 0 209 68
t201 163.5t147 199t59 173.5q0 41 -22 59.5t-70 18.5q-85 0 -182 -54t-179.5 -143t-137 -218t-54.5 -265v-1q9 -1 29 -1z" />
    <glyph glyph-name="D" unicode="D" horiz-adv-x="1623" 
d="M180 -6q-91 0 -135.5 21.5t-44.5 52.5q0 32 56 59t150 27q91 0 277 -55q2 -1 6.5 -2t6.5 -2q105 57 234.5 183.5t318.5 355.5q14 16 55 66.5t58 70.5t53.5 63t62 70t61 63.5t71.5 69.5q65 62 147 117q-133 206 -469 206q-115 0 -231.5 -40t-209.5 -105.5t-167 -144
t-114.5 -161t-40.5 -152.5q0 -73 50.5 -116.5t139.5 -43.5q61 0 143.5 33.5t166 92t156.5 130.5t121.5 157t53.5 163q3 23 11 23q12 0 12 -21q0 -106 -56.5 -216t-147.5 -195.5t-214.5 -140t-248.5 -54.5q-96 0 -170.5 60t-74.5 151q0 88 41 177t116.5 165t175 135t225 93
t257.5 34q171 0 301.5 -53.5t210.5 -152.5q229 143 409 152q15 0 15 -10q0 -6 -5.5 -8.5t-27.5 -6.5q-177 -22 -357 -177q74 -123 74 -288q0 -179 -72 -337.5t-190.5 -268t-274 -173t-320.5 -63.5q-130 0 -307 51q-162 -55 -358 -55zM850 28q146 0 288.5 61.5t253 166.5
t178.5 257.5t68 322.5q0 151 -49 258q-114 -107 -220 -260q-61 -88 -99 -141.5t-97.5 -131.5t-103.5 -128t-105 -111.5t-117 -103.5t-123.5 -82.5t-138.5 -68.5q128 -39 265 -39zM197 26q147 0 254 47q-145 38 -252 38q-55 0 -94.5 -6.5t-58 -16t-18.5 -20.5q0 -42 169 -42z
" />
    <glyph glyph-name="E" unicode="E" horiz-adv-x="993" 
d="M384 -285q-11 0 -24 14q-27 29 -42 101t-18 142v29q-136 15 -216.5 86.5t-82.5 174.5q-2 96 44 185.5t125.5 156.5t192.5 107.5t239 40.5h6q-27 37 -39 85q-152 33 -252.5 105t-144.5 171q-6 11 -6 25q0 12 8 12q11 0 21 -24q90 -205 369 -262q-1 7 -1 23q-1 90 35 172.5
t97.5 143.5t140.5 106.5t165.5 68.5t170.5 23q162 0 252 -57.5t90 -160.5q0 -101 -95.5 -186.5t-255.5 -134.5t-346 -49q-91 0 -164 10q8 -37 33 -75q93 -10 146 -38t54 -61q0 -32 -52 -32q-45 0 -99.5 27t-97.5 72q-95 -11 -193 -59.5t-172.5 -116.5t-121 -151.5
t-45.5 -158.5q2 -81 52.5 -134.5t144.5 -68.5q11 119 73.5 229t161.5 179.5t205 69.5q62 0 109 -41.5t47 -96.5q0 -156 -154 -262.5t-378 -106.5q-7 0 -18.5 0.5t-17.5 0.5q-1 -10 -1 -30q0 -61 16 -131.5t41 -98.5q10 -11 10 -15q0 -9 -12 -9zM799 842q114 0 232.5 26
t218.5 72.5t163.5 118t63.5 154.5q0 70 -73.5 116.5t-195.5 46.5q-99 0 -203 -51.5t-180.5 -128t-126 -167t-49.5 -165.5v-14q63 -8 150 -8zM849 640q16 0 16 12q-1 18 -48 40t-109 26q31 -36 69 -57t72 -21zM372 22q101 0 215.5 63.5t189.5 151.5t75 157q0 40 -30.5 63
t-77.5 23q-63 0 -131 -33.5t-127.5 -91t-102 -145t-52.5 -186.5q26 -2 41 -2z" />
    <glyph glyph-name="F" unicode="F" horiz-adv-x="1253" 
d="M679 814q-77 0 -122 36t-45 101q0 129 147 251.5t386 179.5q139 32 361 32q73 0 219 -17.5t214 -17.5q263 0 367 178q12 17 22 17q9 0 9 -7q0 -10 -9 -20q-162 -257 -514 -257q-92 0 -277.5 23.5t-276.5 23.5q-111 0 -225 -34t-199.5 -87.5t-140 -121.5t-54.5 -133
q0 -109 106 -109q67 0 144.5 37t139.5 91t106.5 117t50.5 113q4 21 9 21q10 0 10 -21q0 -96 -66 -189.5t-165.5 -150t-196.5 -56.5zM232 -1q-89 0 -160.5 43.5t-71.5 102.5q0 41 28.5 62t64.5 21q19 0 35 -12t16 -34q0 -20 -17.5 -35t-39.5 -15q-31 0 -47 10v-5
q0 -48 58 -79.5t142 -31.5q58 0 111 13t120.5 51.5t134.5 103.5t150 175t171 259q0 1 5 8q-228 -51 -366 -127.5t-187 -160.5q-11 -20 -19 -20q-7 0 -7 8t7 17q40 92 205 184.5t387 138.5q3 0 5 1q86 135 190 243.5t197.5 171t172 95t133.5 32.5q23 0 23 -9q0 -5 -21 -10
q-13 -4 -21 -6q-117 -34 -254 -160.5t-263 -318.5q134 34 211 61q22 15 34 40q23 0 79 -5t73 -10q-73 -34 -149.5 -115t-111.5 -173q-9 -16 -17 -16q-12 0 -12 14q0 6 8 30q43 115 87 183q-49 -16 -231 -55l-4 -7q-154 -252 -293 -398.5t-269.5 -205.5t-286.5 -59z" />
    <glyph glyph-name="G" unicode="G" horiz-adv-x="1079" 
d="M242 -3q-99 0 -170.5 42.5t-71.5 101.5q0 42 28.5 63t64.5 21q19 0 35 -11.5t16 -34.5q0 -19 -17 -34t-40 -15q-32 0 -47 9v-6q0 -48 57.5 -79t152.5 -31q126 0 257.5 98.5t312.5 340.5q88 117 233 274q-292 -207 -464 -207q-73 0 -110 25.5t-37 90.5q0 23 5 53
q-38 -3 -74 -3q-123 0 -208 48q-27 14 -27 21q0 10 11 10q3 0 13 -6q54 -28 103.5 -40.5t122.5 -12.5q30 0 63 3q27 117 131.5 248t239 234.5t286 171.5t268.5 68q64 0 92.5 -21t28.5 -66q0 -115 -172 -263t-452 -278q-159 -71 -317 -100q-32 -62 -32 -104q0 -22 18.5 -37.5
t61.5 -15.5q93 0 230 72t356 241q118 93 153 93q24 0 24 -11q0 -9 -17 -17q-57 -27 -130 -113.5t-192 -271.5q-352 -551 -786 -551zM570 739q137 33 315 123q241 127 414.5 281t173.5 220q0 54 -78 54q-72 0 -167.5 -46t-190.5 -120t-186.5 -163.5t-164.5 -181t-116 -167.5z
" />
    <glyph glyph-name="H" unicode="H" horiz-adv-x="1746" 
d="M190 -2q-79 0 -134.5 39t-55.5 95q0 42 28.5 62.5t64.5 20.5q19 0 34.5 -11t15.5 -34q0 -19 -17 -34t-40 -15q-32 0 -47 9v-6q0 -44 43.5 -72t115.5 -28q71 0 161 44q81 39 185 140t275 315q-61 -18 -107 -33q-281 -98 -374 -240q-4 -9 -11 -9t-5 8q3 13 7 20
q22 45 90.5 95.5t143.5 89.5q90 46 281 101q201 273 397 474q-176 -109 -284 -109q-53 0 -85.5 25.5t-32.5 73.5q0 53 30 102t108 110q37 29 48 42.5t11 24.5q0 31 -33 49.5t-98 18.5q-76 0 -150.5 -28t-131.5 -81q-15 -14 -25 -14q-11 0 -11 10q0 5 18 25q57 50 137 79.5
t163 29.5t129 -30.5t46 -83.5q0 -61 -34 -114t-120 -108q-32 -20 -41 -30t-9 -25q0 -18 23 -33.5t71 -15.5q64 0 160 47.5t189 129.5q138 123 209.5 179t125.5 84q32 14 36 14q14 0 14 -7q0 -2 -21 -15q-27 -15 -73 -49q-93 -76 -203 -213t-280 -376q-22 -28 -110 -139
q108 29 387 96q18 23 51 61q220 258 486.5 454.5t391.5 196.5q43 0 66.5 -20t23.5 -51q0 -51 -63 -129.5t-171.5 -165t-277 -175.5t-356.5 -151q-164 -200 -270 -367.5t-106 -235.5q0 -49 19.5 -70.5t64.5 -21.5q114 0 234.5 128t181.5 329q3 12 11 21t13 9q8 0 11 -29
q6 -54 -33 -136.5t-102 -159.5t-151.5 -132t-172.5 -55q-59 0 -94 39t-35 90q0 218 253 540l-390 -99q-159 -192 -285.5 -312.5t-242.5 -185.5q-125 -72 -271 -72zM1585 753q160 61 314 150.5t258 175t167.5 160.5t63.5 116q0 34 -48 34q-108 0 -321 -186t-434 -450z" />
    <glyph glyph-name="I" unicode="I" horiz-adv-x="1333" 
d="M227 -2q-100 0 -160 41t-66 103q-4 42 22 66t62 27q19 2 36 -8t19 -33q3 -19 -13 -36t-38 -18q-31 -4 -47 5v-6q0 -49 50.5 -82t132.5 -33q120 0 239 76t275 263q-133 62 -133 245q0 111 57 225.5t161.5 213.5t240.5 177t307 123t348 45q38 0 87 -7q10 -1 40.5 -4
t47.5 -3q16 0 50 3.5t52 3.5q37 0 37 -14q0 -18 -33 -19q-17 -1 -123 -1q-39 -9 -94 -31q-299 -133 -653 -647q-121 -174 -253 -308h8q106 0 223.5 53.5t216.5 141.5t164 215t65 261q0 14 2 21.5t4 8t5 0.5q12 0 12 -49q0 -138 -65 -267t-166.5 -217.5t-227 -142
t-245.5 -53.5h-23q-163 -159 -327 -249t-297 -90zM757 384q77 94 159 208q138 190 270.5 334t246.5 231.5t210.5 135.5t183.5 65q-54 8 -105 8q-100 0 -222 -36.5t-238.5 -96.5t-228 -140.5t-195 -166t-134 -176t-50.5 -167.5q0 -155 103 -199z" />
    <glyph glyph-name="J" unicode="J" horiz-adv-x="1221" 
d="M-431 -741q-45 0 -68.5 28t-23.5 64q0 113 122.5 246.5t341.5 255t480 193.5q90 118 221 301q-64 35 -102.5 95.5t-38.5 138.5q0 157 94 308t247 263t357 180.5t413 68.5q34 0 96 -7t88 -7q16 0 50 3.5t52 3.5q38 0 38 -13q0 -22 -92 -22q-13 0 -34.5 0.5t-30.5 0.5
q-172 -42 -365.5 -221.5t-391.5 -480.5q-90 -124 -234 -318q101 0 221.5 69t218 171t163.5 226.5t66 228.5q0 31 11 31t11 -46q0 -120 -63 -248.5t-161.5 -228.5t-227 -165t-250.5 -65h-10q-93 -125 -171 -221q30 8 83 22t69 18.5t51 14.5t56.5 17.5t55.5 19.5t77 29
q11 5 21 10t14 6.5t6 1.5q9 -3 9 -8q-2 -14 -34 -27q-77 -32 -112.5 -45.5t-116.5 -39.5t-213 -62q-180 -224 -328 -378.5t-267 -244t-214 -128.5t-184 -39zM660 373l121 172q134 191 275 344.5t263 250t225 152.5t185 75q-56 8 -105 8q-120 0 -268 -50.5t-286 -136
t-255 -188.5t-188 -219t-71 -216q0 -132 104 -192zM-428 -716q77 0 172 54.5t202 156t213 224.5t228 282q-133 -46 -290 -133t-286 -181.5t-215.5 -189t-86.5 -153.5q0 -26 17.5 -43t45.5 -17z" />
    <glyph glyph-name="K" unicode="K" horiz-adv-x="1726" 
d="M199 -2q-91 0 -145 38.5t-54 95.5q0 42 28.5 62.5t64.5 20.5q19 0 34.5 -11t15.5 -34q0 -19 -17 -34t-40 -15q-32 0 -47 9v-6q0 -44 43.5 -72t115.5 -28q270 0 665 536q76 104 209 238t331 317q-198 -132 -340 -132q-46 0 -73 21t-27 60q0 96 149 203q47 33 47 54
q0 62 -109 62q-90 0 -175.5 -39.5t-146 -100.5t-102 -128t-54.5 -127q-8 -26 -14 -26q-11 0 -11 18q0 10 2 16q10 39 33 87.5t67.5 107.5t99.5 107t136.5 80.5t171.5 32.5q69 0 114 -28.5t45 -71.5q0 -119 -148 -212q-6 -4 -17 -11t-15.5 -9.5t-11 -8t-9.5 -9t-5 -8.5
t-2 -10q0 -14 15.5 -23t39.5 -9q200 0 488 244q238 191 302 191q14 0 14 -8q0 -9 -10 -12q-217 -61 -750 -775q-126 -167 -254 -294.5t-243 -204.5t-218 -115.5t-193 -38.5zM1217 -14q-136 0 -136 104q0 74 63 179t233 271q34 33 52 75t18 70q0 10 -3 19q-60 -19 -113 -20
q-47 -2 -78.5 14t-31.5 37q0 18 27 32t75 15q91 2 134 -41q105 53 273 242q189 207 386 318t322 111q93 0 136 -36.5t33 -94.5q-8 -45 -37 -72.5t-61 -27.5q-28 0 -41 17.5t-9 40.5q3 20 23.5 36.5t44.5 16.5q27 0 44 -15l4 18q7 32 -27 63t-110 31q-68 0 -158 -59.5
t-269 -227.5q-308 -305 -534 -387q18 -34 18 -77q0 -97 -56 -200.5t-212 -244.5q-93 -85 -93 -126q0 -27 21 -40t75 -13q48 0 113 34.5t130.5 94t122 152t82.5 195.5q8 31 14 31q12 0 12 -38q0 -92 -80 -210.5t-196 -202.5t-211 -84zM1345 712q44 2 83 17q-36 35 -103 31
q-21 -1 -38 -9t-17 -15q0 -6 7 -12t25 -9.5t43 -2.5z" />
    <glyph glyph-name="L" unicode="L" horiz-adv-x="1537" 
d="M1040 -25q-158 0 -474 92q-156 -69 -346 -69q-106 0 -163 24.5t-57 57.5q0 46 61.5 74t162.5 28q129 0 327 -70q76 50 159 139.5t189 234.5q-207 7 -333 90.5t-126 213.5q0 85 54.5 167t146.5 135t192 53q22 0 22 -12q0 -6 -4.5 -8t-27.5 -4q-145 -14 -226.5 -106
t-81.5 -201q0 -150 106.5 -223.5t298.5 -75.5q66 93 136 197q247 369 453 529t424 160q74 0 120 -33.5t46 -87.5q0 -102 -101 -231t-253.5 -241t-341.5 -199t-354 -113q-219 -292 -437 -407q182 -65 435 -65q229 0 327 103q15 15 20 4q6 -16 -16 -36q-75 -68 -158 -94
t-180 -26zM1073 528q160 28 334.5 113.5t311 193.5t225 230.5t88.5 220.5q0 36 -30.5 64t-74.5 28q-315 0 -621 -498q-126 -206 -233 -352zM206 22q183 0 300 63q-166 46 -274 46q-98 0 -151 -13.5t-53 -36.5q0 -12 20.5 -25t63 -23.5t94.5 -10.5z" />
    <glyph glyph-name="M" unicode="M" horiz-adv-x="1915" 
d="M1488 -2q-59 0 -90 26.5t-31 68.5q0 77 134 279q278 411 910 1035q-87 -62 -229 -191t-488 -459q-285 -272 -618 -661q-77 -89 -102 -89q-8 0 -15 11t-7 31q0 169 223 530t573 756q-153 -139 -616 -648q-432 -475 -732 -628q-120 -60 -212 -60q-91 0 -139.5 35t-48.5 93
q0 42 29 66.5t64 24.5q19 0 35 -12t16 -34q0 -20 -17.5 -35t-39.5 -15q-32 0 -48 11q0 -3 -0.5 -7t-0.5 -5q0 -44 38.5 -69.5t110.5 -25.5q102 0 238.5 79.5t356 280.5t528.5 540q180 197 322.5 333.5t200 180.5t69.5 44q27 0 27 -10q0 -6 -15 -19q-52 -48 -60 -56
q-88 -94 -429.5 -635.5t-416.5 -698.5q277 319 455 505t499 490q457 427 573 427q10 0 10 -8q0 -4 -11 -13.5t-33.5 -26t-37.5 -29.5q-76 -66 -176.5 -181t-172 -204t-205 -272.5t-175.5 -242.5t-183 -260q-68 -99 -86 -132t-18 -51q0 -19 15.5 -30.5t42.5 -11.5
q50 0 135 34.5t141 88.5q5 -2 5 -13q0 -16 -5 -23q-61 -51 -149 -82.5t-144 -31.5z" />
    <glyph glyph-name="N" unicode="N" horiz-adv-x="1483" 
d="M954 -19q-5 0 -9.5 4t-4.5 10q0 8 8 13q1 1 8.5 7.5t10.5 10.5q35 43 62 114.5t79 247.5q113 374 373 821q-141 -176 -192 -238.5t-157.5 -187.5t-229.5 -261q-244 -266 -412.5 -395t-288.5 -129q-98 0 -149.5 38t-51.5 97q0 41 28.5 62.5t64.5 21.5q19 0 35 -12t16 -34
q0 -19 -17 -34.5t-39 -15.5q-32 0 -48 10v-6q0 -46 40 -73t119 -27q220 0 712 553q189 214 348.5 403.5t228.5 277t84 109.5q18 22 25 22q9 0 9 -9q0 -6 -4 -13l-14 -26q-37 -63 -65 -161q-3 -9 -26 -94.5t-44.5 -153.5t-54.5 -159q-13 -36 -25.5 -68t-28.5 -67.5t-26 -58
t-30.5 -62t-29 -56.5t-35.5 -64.5t-35.5 -63.5t-43 -76t-45.5 -80q421 512 709 808q262 272 452.5 390t362.5 120q104 0 158.5 -46t55.5 -132q2 -96 -98 -214t-254 -192q-37 -17 -56 -17q-11 0 -11 7q0 8 17 16q129 50 234 161.5t105 221.5q0 79 -42.5 122.5t-119.5 43.5
q-171 0 -387 -149t-525 -488q-147 -161 -291 -328.5t-254.5 -301t-144.5 -172.5q-40 -47 -56 -47zM508 815q-125 0 -210.5 72t-85.5 204q0 143 126 238t324 95q153 0 281 -53q24 -10 198 -90q76 -32 139 -32q37 0 76.5 15t67.5 39q17 16 23 16q3 0 5.5 -3t2.5 -5
q0 -8 -14 -23q-38 -37 -110.5 -63.5t-122.5 -26.5q-63 0 -144 23t-142 59q-111 64 -176.5 84.5t-133.5 20.5q-151 0 -259.5 -86.5t-108.5 -213.5q0 -108 71.5 -177t188.5 -69q110 0 199 67.5t89 174.5q0 40 -27 69q-17 -21 -39 -21q-20 0 -34.5 12.5t-14.5 32.5
q0 18 13 31.5t36 13.5q38 0 67.5 -37.5t29.5 -96.5q0 -117 -96 -193.5t-219 -76.5z" />
    <glyph glyph-name="O" unicode="O" horiz-adv-x="1122" 
d="M320 -2q-123 0 -202.5 77.5t-79.5 225.5q0 122 50.5 254.5t135.5 252.5t203 229.5t248 189.5t275 127t280 47t203 -57.5t68 -153.5q0 -37 -14.5 -88t-30.5 -75q-19 -24 -26 -24q-8 0 -8 10q0 4 10 18q14 17 27.5 66t13.5 91q0 86 -63 135.5t-191 49.5q-105 0 -232 -56
t-248 -147.5t-236 -212t-201 -245t-138.5 -250.5t-52.5 -225q0 -97 56.5 -155.5t164.5 -58.5q88 0 191 40t200.5 107.5t189.5 159t160.5 189.5t110 205t41.5 201q0 84 -44.5 126t-125.5 42q-94 0 -198.5 -57.5t-190 -151t-141.5 -224t-56 -264.5q0 -113 46 -181q7 -14 0 -18
q-7 -3 -23 18q-20 26 -36.5 81t-16.5 112q0 139 55 271.5t143 228.5t201.5 154.5t226.5 58.5q88 0 148.5 -56.5t60.5 -165.5q0 -93 -39.5 -198t-106 -204t-160.5 -190.5t-197.5 -159.5t-221.5 -108.5t-229 -40.5z" />
    <glyph glyph-name="P" unicode="P" horiz-adv-x="1289" 
d="M212 -2q-105 0 -158.5 38.5t-53.5 98.5q0 41 29 62t65 21q18 0 34 -12t16 -34q0 -20 -17.5 -35t-39.5 -15q-31 0 -47 10v-5q0 -45 43 -73t116 -28q69 0 122.5 20.5t128.5 86t168.5 181t236.5 312.5q-56 37 -56 88q0 43 37.5 73t83.5 30q11 0 17.5 -2.5t6.5 -4.5l1 -3
q0 -6 -12 -8q-45 -7 -69.5 -35.5t-24.5 -68.5q0 -23 33 -45l14 19q164 221 304 364t300 253l41 27q-117 71 -357 71q-148 0 -293 -35.5t-259.5 -96t-202.5 -136t-135 -159.5t-44 -162q3 -75 44 -110.5t92 -35.5q68 0 144.5 44.5t140.5 112.5t118 145t86.5 145.5t37.5 110.5
q3 34 14 34q7 0 8.5 -6.5t1.5 -24.5q3 -70 -20 -150t-71.5 -157.5t-114.5 -140.5t-157 -101.5t-191 -38.5q-60 0 -111 47.5t-53 119.5q-4 118 81 233t222 198.5t313 134.5t347 51q241 0 393 -73q118 67 181 67q19 0 20 -10q0 -12 -26 -16q-66 -13 -139 -60q161 -95 161 -260
q0 -122 -92.5 -235t-242.5 -182t-311 -69q-79 0 -146 14q-435 -584 -758 -584zM1112 594q66 0 137.5 21t141.5 65t126 104.5t90.5 148t34.5 186.5q0 106 -77 170q-103 -75 -220 -211t-263 -340q-38 -56 -93 -131q62 -13 123 -13z" />
    <glyph glyph-name="Q" unicode="Q" horiz-adv-x="1437" 
d="M1465 -290q-154 0 -303.5 49t-353.5 189q-31 21 -64.5 37t-75.5 32t-56 22q-150 -38 -301 -38q-106 0 -179 16t-102.5 38.5t-29.5 48.5q0 33 63 61t149 28q202 0 459 -89q74 32 164 84q120 69 244 180.5t226.5 238t167.5 264.5t65 250q0 122 -70.5 189t-214.5 67
q-140 0 -300 -96q-116 -69 -233 -191t-190 -243t-73 -192q0 -65 39.5 -110t131.5 -45q73 0 170.5 62t185 154.5t156 207t86.5 211.5q6 30 11 30q16 0 16 -31q0 -89 -37 -185t-101.5 -179t-144 -149.5t-171 -105t-176.5 -38.5q-106 0 -165 62.5t-59 162.5q0 135 110.5 291.5
t320.5 286.5q91 56 210 88.5t223 32.5q145 0 236.5 -81t91.5 -247q0 -159 -68 -315t-184.5 -284.5t-270.5 -231.5t-326 -164q7 -3 23.5 -8.5t28.5 -10.5t22 -12q467 -297 693 -297q60 0 116 17t92 43l37 31q10 6 13 6q12 0 12 -12t-43.5 -43.5t-94.5 -48.5q-87 -33 -176 -33
zM307 26q131 0 251 37q-133 58 -212 80t-145 22q-67 0 -101 -14.5t-34 -37.5q0 -42 66.5 -64.5t174.5 -22.5z" />
    <glyph glyph-name="R" unicode="R" horiz-adv-x="1756" 
d="M252 -2q-104 0 -158 38.5t-54 98.5q0 41 28.5 62t64.5 21q19 0 34.5 -12t15.5 -34q0 -20 -16.5 -35t-38.5 -15q-32 0 -48 11v-6q0 -45 43 -73t116 -28q94 0 171 45t191.5 175t312.5 402q149 208 305.5 352.5t345.5 269.5q13 8 39 22q-122 81 -357 81q-135 0 -267.5 -37
t-237 -98.5t-185.5 -137.5t-124 -159t-40 -157t50.5 -110t105.5 -36q68 0 145 45t140.5 114t118 147t86.5 147.5t37 111.5q4 34 15 34q7 0 8.5 -6.5t1.5 -25.5q3 -71 -20 -152t-71.5 -159t-114.5 -141t-157 -102t-191 -39q-69 0 -127.5 47.5t-60.5 119.5q-4 120 78 236
t212.5 199.5t294 135t318.5 51.5q230 0 373 -92q147 75 217 75q19 0 20 -10q0 -12 -28 -16q-77 -16 -173 -75q116 -94 122 -241q5 -128 -108.5 -246t-301.5 -174q29 -30 30 -78q4 -74 -35 -147t-166 -200q-59 -50 -57 -98q0 -73 105 -73q121 0 253.5 130.5t197.5 323.5
q8 30 14 30q18 0 18 -29q1 -83 -48.5 -172.5t-122.5 -156.5t-159.5 -110.5t-157.5 -43.5q-79 0 -124 34t-47 89q-2 52 11.5 99.5t43.5 92t53.5 71.5t64.5 69q50 41 66.5 70t15.5 60q0 14 -6 26q-45 -11 -91 -11q-41 0 -64 11t-24 27q-2 13 19 24t57 11q75 0 121 -25
q90 38 173 121t132.5 181t47.5 178q-3 80 -63 137q-250 -170 -508 -547q-142 -199 -270.5 -341t-236.5 -223t-199 -117.5t-175 -36.5zM1237 621q35 0 73 11q-28 16 -80 16q-40 0 -40 -10q0 -3 5 -7t16.5 -7t25.5 -3z" />
    <glyph glyph-name="S" unicode="S" horiz-adv-x="1053" 
d="M230 -2q-106 0 -168 39t-62 98q0 41 28.5 62t64.5 21q19 0 34.5 -12t15.5 -34q0 -20 -17 -35t-40 -15q-30 0 -46 10v-5q0 -44 50.5 -74.5t123.5 -30.5q54 0 105.5 16t94 41.5t86.5 68t78 83.5t74 100t69 106t68 113q31 51 46 77l20 33q-243 8 -396 98t-144 230
q7 116 106.5 211.5t259 148.5t340.5 53q71 0 128 -14t57 -28q0 -4 -12 -4q-5 0 -14 2t-14 2q-82 19 -146 19q-156 0 -299 -50.5t-238 -145.5t-101 -213q-3 -47 26 -94t87 -88.5t156 -69.5t220 -32q235 370 435.5 543t383.5 173q61 0 95.5 -32.5t31.5 -91.5
q-4 -61 -45 -136.5t-116 -151t-170 -142t-217.5 -115.5t-247.5 -65q-56 -86 -98.5 -148t-99.5 -137t-105.5 -126.5t-108.5 -103.5t-117.5 -83.5t-125 -51t-136.5 -19.5zM1040 695q138 23 272.5 90t230 152t156 177t64.5 167q4 49 -19 72.5t-55 22.5q-120 -4 -258 -144.5
t-320 -426.5q-63 -97 -71 -110z" />
    <glyph glyph-name="T" unicode="T" horiz-adv-x="1127" 
d="M799 775q-77 0 -120 42t-43 113q0 103 126 223.5t312 183.5q67 23 171 35t195 12q138 0 276 -29q115 -20 211 -20q107 0 212 52.5t148 121.5q10 17 19 17q11 0 11 -10q0 -14 -33 -56q-77 -90 -228 -148t-317 -58q-105 0 -268 35q-156 30 -267 30q-116 0 -243.5 -62.5
t-212 -156t-84.5 -177.5q0 -50 32.5 -83t92.5 -33q72 0 169.5 76.5t170.5 174t89 163.5q5 25 12 25q11 0 11 -25q0 -80 -42.5 -162.5t-107 -144t-143.5 -100.5t-149 -39zM259 -2q-107 0 -183 45.5t-76 121.5q0 41 29 62.5t65 21.5q18 0 34 -12t16 -34q0 -20 -17 -35t-39 -15
q-32 0 -48 10v-6q0 -64 63 -97.5t164 -33.5q156 0 319 113.5t302 332.5q72 113 223 291q157 181 302.5 302.5t181.5 121.5q14 0 14 -9q0 -8 -4 -12t-16 -11q-75 -49 -119 -91t-94.5 -110.5t-152.5 -227.5q-470 -728 -964 -728z" />
    <glyph glyph-name="U" unicode="U" horiz-adv-x="1032" 
d="M121 -2q-47 0 -72 23t-27 61q-8 231 508 727q198 187 270.5 282.5t70.5 155.5q-7 124 -202 124q-111 0 -230.5 -47t-209 -116t-146 -150.5t-53.5 -147.5q1 -48 29 -74.5t73 -26.5q75 0 187.5 77.5t212.5 192.5t145 219q13 30 19 30q8 0 8 -18q4 -49 -36 -137
q-84 -176 -227.5 -285t-283.5 -109q-72 0 -113 31.5t-43 88.5q-3 78 57.5 167.5t157 163t226 122.5t252.5 49q92 0 148 -38.5t60 -108.5q1 -51 -19 -111t-72.5 -149.5t-157.5 -217t-260 -288.5q-210 -215 -274 -296t-62 -120q2 -49 66 -49q48 0 121 30.5t162 87.5t193 152.5
t198 211.5q174 220 632 744h145q-32 -42 -283 -333.5t-335 -377.5q-146 -155 -218.5 -264.5t-69.5 -183.5q3 -66 82 -66q59 0 142.5 48t143.5 109q5 -3 7 -17q0 -12 -5 -19q-61 -55 -145 -101t-150 -46q-47 0 -80.5 26t-34.5 72q-5 106 69 226q-201 -171 -347 -247.5
t-229 -76.5z" />
    <glyph glyph-name="V" unicode="V" horiz-adv-x="1029" 
d="M13 -43q-13 0 -13 11q0 7 16 14l14 7t19 11q68 46 158.5 174t252.5 389q93 152 193 289t184 229q-196 -139 -318 -139q-47 0 -80 24.5t-35 67.5q-3 68 94 168q31 32 47 50t36 48.5t19 48.5q-3 66 -119 66q-139 0 -265 -104q-18 -16 -25 -16q-11 0 -11 11q-1 14 24 32
q53 43 129.5 70.5t149.5 27.5q82 0 132.5 -29.5t53.5 -84.5q1 -41 -31.5 -101.5t-81.5 -111.5q-50 -50 -67 -71t-16 -35q0 -35 49 -35q180 0 512 309q90 80 114 80q13 0 13 -10q0 -3 -1 -5.5t-4 -4.5t-5.5 -3.5l-7.5 -4.5t-8 -5q-29 -20 -69 -57q-33 -32 -61.5 -84
t-90.5 -164.5t-146 -241.5q-107 -166 -204.5 -291.5t-170 -202.5t-181.5 -181q255 171 596.5 431.5t594.5 484.5q-1 9 -1 26q0 115 54 230.5t134.5 187.5t155.5 72q34 0 55 -20t21 -61q0 -165 -366 -485q20 -63 64 -97.5t89 -34.5q20 0 33 5q16 6 22 6q14 0 14 -7
q0 -9 -20 -18q-18 -9 -51 -9q-61 0 -110 34.5t-74 92.5q-423 -363 -1331 -946q-59 -37 -79 -37zM1442 1053q345 313 345 412q0 19 -13.5 31.5t-27.5 12.5q-50 0 -104.5 -37.5t-98.5 -98t-72.5 -143t-28.5 -166.5v-11z" />
    <glyph glyph-name="W" unicode="W" horiz-adv-x="1722" 
d="M342 -43q-24 0 -24 15q0 8 9 13t36 12q35 5 65 24t82.5 79.5t129.5 174.5q165 242 330 449q163 204 442 472q24 24 103 101.5t97 94.5q19 19 41 31.5t34 12.5q18 0 18 -9q0 -4 -3.5 -7.5t-11 -8t-12.5 -8.5q-39 -22 -71 -57q-61 -62 -132.5 -155t-284.5 -388
q-179 -250 -338 -418.5t-362 -341.5q92 52 162.5 101t213 173.5t347.5 326.5q77 76 150 146.5t132.5 126t118 108t102 90.5t88.5 75.5t73.5 60.5t61.5 48.5t48 36.5t37 27.5t25 18.5q89 64 105 64q15 0 15 -14q0 -7 -9.5 -13.5t-47.5 -25.5q-40 -20 -87 -65.5t-82 -98.5
q-40 -64 -130 -219t-175.5 -294t-157.5 -237q-11 -15 -223 -289q223 233 346 354.5t429 410.5q241 228 423.5 341.5t329.5 113.5q102 0 160 -36t58 -103q0 -85 -74 -140t-179 -55q-58 0 -117.5 28.5t-59.5 60.5q0 33 25 33q13 0 18 -6.5t9 -27.5q6 -33 47 -50.5t76 -17.5
q71 0 136 47t65 126q0 59 -50 84.5t-126 25.5q-133 0 -319.5 -117t-506.5 -424q-385 -370 -669 -667q-98 -102 -186 -158t-120 -56q-19 0 -19 16q0 13 29 22q28 9 43.5 16t36 23t34 32.5t38.5 55t48.5 79t65.5 115.5q146 260 304 480q106 141 355 440q-172 -130 -250 -202
q-45 -43 -158.5 -156.5t-255.5 -250.5t-306 -286q-127 -115 -249.5 -203t-212.5 -129q-9 -4 -29.5 -13.5t-32 -14.5t-27 -11.5t-26.5 -9.5t-18 -3zM14 881q-14 0 -14 16q0 30 27.5 90t84.5 122q103 110 231.5 164.5t250.5 54.5q134 0 312 -61q104 -37 155.5 -50t112.5 -13
q60 0 145.5 32.5t157.5 91.5q29 24 32 24q10 0 10 -7t-16 -21q-105 -97 -206.5 -137t-211.5 -40q-79 0 -149.5 14.5t-175.5 48.5q-118 39 -220 39q-120 0 -244 -56.5t-197 -148.5q-64 -77 -64 -137q0 -12 -7 -19t-14 -7z" />
    <glyph glyph-name="X" unicode="X" horiz-adv-x="1743" 
d="M225 -2q-95 0 -160 45.5t-64 121.5q1 41 30 62.5t65 21.5q19 0 34.5 -12t14.5 -34q0 -20 -17.5 -35t-39.5 -15q-33 0 -47 10v-6q0 -64 53 -97.5t137 -33.5q77 0 190.5 52t233 139.5t240.5 213t209 260.5q80 153 140.5 306.5t62.5 231.5q2 91 -45 136t-137 45
q-97 0 -208 -59t-197 -143t-144 -179.5t-60 -166.5q-3 -90 90 -90q130 0 282.5 152t251.5 395q7 16 15 16q14 0 15 -33q1 -70 -52 -166t-132.5 -181.5t-185.5 -146t-200 -60.5q-55 0 -85.5 28.5t-29.5 85.5q2 77 64.5 178t154 188t207 147.5t212.5 60.5q127 0 194.5 -65
t63.5 -225q-6 -171 -94 -362q278 313 517.5 476.5t422.5 163.5q47 0 76.5 -23t28.5 -59q-1 -29 -17 -45.5t-37 -16.5q-20 0 -32.5 18t-10.5 38q0 32 28 51q-20 6 -33 6q-315 0 -814 -508q-6 -7 -24.5 -27t-24 -26t-20.5 -22.5t-21.5 -24t-18.5 -22t-20.5 -25.5t-19 -25.5
t-21.5 -29.5q-80 -134 -136.5 -281t-59.5 -224q-2 -156 146 -156q56 0 125 25t138.5 73t127.5 110.5t95.5 145t39.5 168.5q2 82 -30.5 124.5t-88.5 42.5q-68 0 -121.5 -60t-55.5 -137q-2 -60 37 -87q18 -14 9 -29q-7 -14 -31 -6q-24 10 -41 40.5t-16 79.5q1 91 70 157.5
t155 66.5q69 0 110.5 -48.5t39.5 -133.5q-3 -102 -59.5 -206t-140 -179.5t-184 -123t-188.5 -47.5q-118 0 -181 54.5t-61 160.5q5 158 100 335q-208 -254 -439.5 -402t-380.5 -148z" />
    <glyph glyph-name="Y" unicode="Y" horiz-adv-x="1290" 
d="M300 -230q-116 0 -193 47.5t-77 126.5q0 42 28.5 68.5t61.5 26.5q18 0 34 -12t16 -35q0 -19 -17.5 -34t-39.5 -15q-26 0 -40 6q-3 -11 -3 -21q0 -55 68 -93.5t168 -38.5q144 0 334 148.5t381 425.5q184 273 306 432q-222 -230 -366.5 -324t-222.5 -94q-52 0 -78.5 32
t-26.5 74q0 91 90.5 235.5t227.5 284.5q149 146 193 201.5t44 86.5q0 109 -196 109q-90 0 -191 -34.5t-189 -91t-161 -123.5t-115 -137t-42 -126q0 -85 91 -85q59 0 133.5 44t140 109t124 135.5t94.5 126.5t43 79q7 14 10 14q8 0 11 -17q7 -67 -50.5 -161.5t-144 -175.5
t-188 -138.5t-175.5 -57.5q-58 0 -88 31.5t-30 86.5q0 81 68 179t171 179t236 136t252 55q109 0 178 -36.5t69 -111.5q0 -87 -65 -193.5t-237 -264.5q-130 -127 -196.5 -212.5t-66.5 -137.5q0 -31 17 -51t50 -20q37 0 94.5 28t149 94.5t232 201.5t311.5 326
q99 112 189 170.5t136 58.5q17 0 17 -12q0 -8 -16 -12l-29 -10q-123 -48 -256 -213t-286 -454q-201 -376 -472.5 -596t-510.5 -220z" />
    <glyph glyph-name="Z" unicode="Z" horiz-adv-x="1595" 
d="M1087 -47q-50 0 -100 7.5t-108.5 25t-94 29.5t-106 39t-95.5 36q-166 -92 -324 -92q-104 0 -162 27t-57 66q2 44 70 75t187 31q110 0 272 -41q157 135 397 463q156 214 308 376t350 304q-116 -57 -247 -57q-72 0 -143 14.5t-119.5 31.5t-123.5 29.5t-157 9.5t-164 -55
t-137 -134.5t-58 -167.5q-2 -47 29 -84t80 -37q61 0 123.5 43.5t107 104.5t74.5 123.5t34 103.5q1 15 11 15q2 0 6 -6t8 -16.5t5 -21.5q8 -94 -44 -181t-138 -138t-176 -51q-71 0 -110 47.5t-36 99.5q3 78 44.5 155t109.5 138t163.5 98.5t197.5 37.5q87 0 167 -15.5
t131 -34.5t120 -34.5t136 -15.5q60 0 120 26t100 62q22 20 40 20q13 0 13 -10q0 -11 -18 -25q-16 -8 -35 -20.5t-30 -18.5q-74 -51 -214.5 -215.5t-254.5 -337.5q-305 -463 -586 -649q13 -4 53.5 -15.5t56.5 -16t50.5 -14t54.5 -14t48 -10.5t51.5 -9t45.5 -5
q137 -11 243.5 11t170.5 81.5t64 150.5q0 50 -30 90.5t-89 52.5q-1 -22 -18 -37.5t-40 -20.5q-23 -3 -42.5 5t-25.5 26q-7 21 8.5 37t35.5 22q17 5 31 5q86 0 142.5 -51t56.5 -128q0 -156 -123 -248t-310 -92zM262 22q129 0 255 92q-147 49 -249 49q-75 0 -135.5 -19
t-61.5 -54q-1 -17 16.5 -31.5t63 -25.5t111.5 -11z" />
    <glyph glyph-name="bracketleft" unicode="[" horiz-adv-x="1004" 
d="M30 -206q568 820 615 889q396 586 483 718h393q-13 -18 -16 -27h-248q-245 -331 -523 -745q-38 -56 -115.5 -170t-111 -163t-90.5 -135t-107 -165.5t-109 -174.5h247q-3 -4 -13 -27h-405z" />
    <glyph glyph-name="backslash" unicode="\" horiz-adv-x="1024" 
d="M852 -106l-392 1484q3 0 17 -1t21 -1q10 0 24 6l392 -1488q-36 2 -37 2q-11 0 -25 -2z" />
    <glyph glyph-name="bracketright" unicode="]" horiz-adv-x="978" 
d="M-120 -203q13 18 16 27h247q267 361 524 745q40 60 115.5 170.5t110 161.5t90.5 136t107 164.5t110 175.5h-247q3 4 13 27h405q-568 -820 -615 -889q-396 -586 -483 -718h-393z" />
    <glyph glyph-name="asciicircum" unicode="^" horiz-adv-x="596" 
d="M274 935q-24 20 -34 27l298 422l298 -422q-17 -12 -32 -27l-266 373z" />
    <glyph glyph-name="underscore" unicode="_" horiz-adv-x="703" 
d="M-187 -149l-3 42h878v-42h-875z" />
    <glyph glyph-name="grave" unicode="`" horiz-adv-x="286" 
d="M274 788q-11 0 -49 23q-93 57 -159 141.5t-66 141.5q0 55 43 55t55 -71q14 -102 40 -144q44 -70 124 -114q4 -3 10 -7t8 -5.5t4 -4t2 -5.5q0 -10 -12 -10z" />
    <glyph glyph-name="a" unicode="a" horiz-adv-x="856" 
d="M103 -2q-123 0 -123 131q0 154 123 294q126 146 241.5 204t231.5 58q53 0 88.5 -22.5t35.5 -59.5q0 -29 -12 -59q25 30 98 121q26 -8 60 -8q52 0 75 4l-337 -406q-120 -141 -120 -197q0 -32 31 -32q43 0 94 24t94 57.5t92.5 82.5t80.5 84.5t68.5 80t45.5 53.5l20 -17
q-8 -9 -49 -56.5t-72.5 -83t-85 -86.5t-99 -84.5t-101 -58t-103.5 -24.5q-100 0 -100 62q0 36 22.5 76t98.5 132l-10 4q-113 -139 -217 -206.5t-171 -67.5zM107 28q68 0 174.5 78.5t246.5 244.5q61 74 84 101q60 89 60 142q0 29 -20.5 44.5t-49.5 15.5q-57 0 -168 -76.5
t-231 -219.5q-141 -169 -141 -278q0 -28 10.5 -40t34.5 -12z" />
    <glyph glyph-name="b" unicode="b" horiz-adv-x="787" 
d="M128 -10q-63 0 -95.5 36.5t-32.5 92.5q0 88 57.5 201t187.5 308q84 126 212.5 283t272.5 309.5t284 255.5t224 103q35 0 54 -15t19 -42q0 -79 -62 -184.5t-170 -214.5t-272.5 -216t-352.5 -180q-222 -272 -310.5 -414.5t-88.5 -212.5q0 -85 75 -85q103 0 208.5 67
t175.5 192q36 44 52.5 115t16.5 103q1 20 -5.5 46t-6.5 41q5 76 62 76q29 0 44 -26t14 -66q-2 -32 -8 -53q-35 -137 -86 -216q-1 -4 -1 -30q0 -51 56 -53q40 0 97.5 43.5t90 80t60.5 71.5l21 -17q-3 -3 -23 -26t-32.5 -36.5t-36 -37.5t-43 -39t-43 -31.5t-47 -24.5t-44.5 -8
q-76 0 -83 70q-26 -34 -64 -71q-90 -101 -192 -148t-185 -47zM487 767q122 47 244 125.5t217.5 166t171.5 176t116.5 164.5t40.5 123q0 36 -39 36q-26 0 -60.5 -18.5t-78.5 -59.5t-85 -83.5t-101.5 -113.5t-104.5 -125t-116 -142.5t-117 -142.5z" />
    <glyph glyph-name="c" unicode="c" horiz-adv-x="684" 
d="M207 -6q-102 0 -154.5 50.5t-52.5 129.5q0 137 124 285q101 118 221 173.5t219 52.5q61 -2 90 -29t31 -64q2 -42 -32 -76t-74 -34q-25 0 -44.5 15.5t-20.5 43.5q-1 27 21.5 46t53.5 21q24 1 51 -11v4q0 58 -76 58q-141 0 -372 -302q-95 -126 -95 -228q0 -44 33 -75
t83 -31q58 0 117 16t108 41t97 59.5t84 68t70 69.5t54 61.5t35.5 46t16.5 21.5l22 -17q-1 -1 -17.5 -22.5t-37 -47.5t-56 -63t-73 -72t-88 -70t-101.5 -61t-113.5 -42.5t-123.5 -16.5z" />
    <glyph glyph-name="d" unicode="d" horiz-adv-x="904" 
d="M128 -2q-62 0 -94.5 34.5t-32.5 96.5q0 152 125 294q226 262 475 262q46 0 84 -22t38 -60q0 -3 -0.5 -8.5t-0.5 -8.5q459 663 706 1009q38 -16 84 -16q18 0 43 3l-950 -1332q-64 -85 -90.5 -128t-26.5 -67q0 -15 5 -21t20 -6q62 0 132 34.5t131 89t108 104t87 98t44 52.5
l22 -17q-4 -4 -48 -55.5t-94.5 -102t-116.5 -107t-140.5 -91.5t-140.5 -35q-91 0 -91 68q1 60 120 202l-8 4q-246 -274 -390 -274zM135 28q87 0 248 145q109 102 171 178q19 23 116 162q23 48 23 81q0 29 -22.5 44.5t-53.5 15.5q-54 0 -160.5 -77t-228.5 -221
q-143 -173 -143 -276q0 -52 50 -52z" />
    <glyph glyph-name="e" unicode="e" horiz-adv-x="661" 
d="M185 -6q-93 0 -137.5 48t-46.5 128q-1 51 21 117t49 104q70 98 159.5 166.5t168.5 98t146 29.5q107 0 111 -66q2 -31 -22 -66t-79 -77t-159 -90t-247 -95q-59 -94 -59 -169q0 -46 30.5 -72.5t75.5 -26.5q74 0 149 26.5t132 65t111 87.5t88.5 89.5t62.5 75t34 39.5l21 -17
q-8 -7 -39.5 -44.5t-67 -78.5t-92.5 -91t-116 -89t-137.5 -65.5t-156.5 -26.5zM172 326q197 69 307.5 141.5t110.5 137.5q0 56 -52 56q-64 0 -140 -68t-187 -213q-23 -28 -39 -54z" />
    <glyph glyph-name="f" unicode="f" horiz-adv-x="682" 
d="M-296 -787q-41 0 -69 27.5t-29 69.5q-5 82 79.5 235t382.5 602l91 137q-28 43 -40 90.5t-8 78.5q5 33 22.5 53t42.5 20q23 0 38.5 -16.5t15.5 -44.5q0 -23 -20.5 -53.5t-44.5 -43.5q4 -22 17 -49q164 250 287.5 442.5t168.5 263.5t64 98q149 213 270.5 334.5t195.5 121.5
q41 0 63 -24t23 -62q4 -102 -84 -262.5t-226 -322.5t-307 -316t-322 -250l-71 -110q47 -41 111 -45q70 -5 133.5 9.5t105.5 35t86 57t63.5 58.5t49.5 58l23 -16q-5 -5 -29.5 -32.5t-48 -51.5t-65.5 -55t-85.5 -51.5t-105.5 -32t-128 -4.5q-71 7 -125 46l-41 -64
q-17 -232 -87 -446t-177 -349.5t-220 -135.5zM351 398q137 93 291 241.5t280 305t208 309t79 245.5q-1 27 -14 42t-32 15q-36 0 -97 -67.5t-173 -243.5q-166 -264 -542 -847zM-289 -762q45 0 112 63.5t135 170.5t124 274t73 348q-35 -53 -103.5 -156.5t-103 -156.5t-88 -136
t-81.5 -129.5t-58 -100t-42.5 -85.5t-12.5 -50q0 -17 12.5 -29.5t32.5 -12.5z" />
    <glyph glyph-name="g" unicode="g" horiz-adv-x="920" 
d="M-471 -787q-40 0 -69.5 21.5t-29.5 45.5q-2 44 30 90t110 104.5t220 131.5t349 161q107 131 403 501l-8 4q-123 -140 -228 -207t-174 -67q-122 0 -125 131q0 154 119 294q214 262 468 262q66 0 104.5 -22t39.5 -60q0 -29 -12 -59q65 81 94 121q30 -8 63 -8q51 0 74 4
l-322 -415q-148 -193 -323 -414q423 215 721 574l20 -17q-170 -204 -359.5 -348.5t-419.5 -254.5q-199 -247 -325 -369t-216 -163t-204 -41zM139 28q64 0 175.5 78t254.5 245l78 95q63 93 63 148q-1 60 -90 60q-55 0 -165.5 -78t-223.5 -220q-143 -177 -141 -276
q1 -28 12.5 -40t36.5 -12zM-468 -760q71 0 139 39.5t167 141t266 303.5q-348 -151 -494.5 -253.5t-146.5 -190.5q0 -13 20 -26.5t49 -13.5z" />
    <glyph glyph-name="h" unicode="h" horiz-adv-x="908" 
d="M520 -2q-50 0 -91.5 22t-41.5 55q0 49 40 118.5t173 219.5q139 156 139 211q0 36 -47 36q-63 0 -149 -57q-198 -136 -460 -462l-92 -122q-26 5 -58 5q-59 0 -96 -10l1107 1581q49 -6 96 -4q7 0 43 4l-992 -1377l5 -11q274 315 438 425q83 53 167 53q60 0 90 -29.5
t28 -71.5q-3 -66 -66.5 -166.5t-220.5 -270.5q-48 -51 -59.5 -67.5t-11.5 -30.5q0 -10 21.5 -16.5t49.5 -6.5q50 0 107 26t105 64t97.5 87t82 88t62 74.5t33.5 40.5l22 -17q-3 -3 -46 -56t-90 -102.5t-110.5 -106t-136 -91.5t-138.5 -35z" />
    <glyph glyph-name="i" unicode="i" horiz-adv-x="454" 
d="M567 876q-27 0 -44 17.5t-17 44.5q0 35 30 64.5t70 29.5q27 0 44 -18t17 -45q0 -36 -31.5 -64.5t-68.5 -28.5zM56 -2q-62 0 -99 22.5t-37 60.5q0 44 28 99.5t118.5 175.5t264.5 322q18 -3 96 -3q20 0 42 2q-294 -346 -381.5 -461t-87.5 -156q0 -34 73 -34q29 0 63.5 12
t69.5 34t70.5 48t70.5 58t65 61t58.5 60t47 51t34.5 38l15 19l20 -18q-3 -3 -37 -41.5t-69.5 -77.5t-91 -90.5t-107.5 -89.5t-113 -65t-113 -27z" />
    <glyph glyph-name="j" unicode="j" horiz-adv-x="385" 
d="M514 876q-27 0 -44 17.5t-17 44.5q0 35 30.5 64.5t70.5 29.5q27 0 43.5 -18t16.5 -45q0 -36 -31.5 -64.5t-68.5 -28.5zM-1062 -787q-41 0 -65 20.5t-24 46.5q0 58 62 121.5t228.5 155t445.5 207.5q68 82 209 261q149 187 315.5 406t169.5 246q14 -2 107 -2q31 0 49 2
q-181 -232 -336 -435q-154 -202 -319 -402q254 122 400 235.5t318 330.5l20 -17q-77 -96 -144.5 -167t-132.5 -128t-142.5 -107.5t-158.5 -93.5t-197 -98q-157 -188 -270 -303.5t-207 -177t-165.5 -81.5t-162.5 -20zM-1059 -760q58 0 107.5 17t119.5 67.5t162 147t221 251.5
q-361 -153 -515 -255t-154 -188q0 -14 15 -27t44 -13z" />
    <glyph glyph-name="k" unicode="k" horiz-adv-x="861" 
d="M-163 14l1107 1581q47 -6 96 -4q8 0 42 4l-694 -965q-243 -338 -422 -611q-23 5 -58 5q-34 0 -71 -10zM464 -2q-51 0 -75.5 30.5t-24.5 76.5q0 89 122 208q49 50 49 71q0 17 -16.5 33t-42.5 25q-59 -33 -122 -33q-26 0 -41.5 9t-15.5 22q0 18 28.5 32t67.5 14
q44 0 82 -11q22 11 38.5 25t44.5 45q4 4 35.5 41.5t41.5 48t40 39t49.5 39t49 21t58.5 10.5q47 0 77 -24.5t29 -58.5q-1 -35 -21 -52t-50 -17q-23 0 -41 17.5t-16 42.5q1 37 40 50q-15 12 -39 12q-46 0 -96 -39t-130 -141q-35 -42 -77 -72q45 -21 70 -55.5t25 -74.5
q0 -47 -26.5 -95.5t-110.5 -124.5q-38 -36 -38 -55q0 -31 47 -31q37 0 80 16t82.5 41.5t82 59.5t77 68t68 69.5t55 61t38.5 45.5l16 20l20 -18q-1 -1 -29.5 -33.5t-66.5 -74.5t-93 -92.5t-109.5 -92.5t-117 -70t-114.5 -28z" />
    <glyph glyph-name="l" unicode="l" horiz-adv-x="456" 
d="M40 -2q-42 0 -69.5 23t-27.5 58q0 54 36.5 120t192.5 291l773 1105q51 -6 97 -4q8 0 42 4l-822 -1141q-118 -164 -172.5 -245.5t-67 -106.5t-12.5 -43q0 -15 13 -24t34 -9q55 0 123.5 34.5t132.5 89.5t114.5 104.5t94.5 98.5t48 53l20 -17q-1 -1 -50 -55t-100 -102.5
t-120.5 -106t-143 -92.5t-136.5 -35z" />
    <glyph glyph-name="m" unicode="m" horiz-adv-x="1435" 
d="M1071 -5q-56 0 -95 22t-39 56q0 48 42 118.5t177 221.5q140 159 140 211q0 36 -51 36q-52 0 -163 -83q-180 -137 -417 -436l-93 -122q-24 5 -57 5q-60 0 -95 -10q21 25 51.5 63t39.5 49t29 35.5t23.5 29t19 23.5t19.5 24.5t20.5 27t27 36t34 45.5t46.5 61
q135 178 135 221q0 31 -49 31q-65 0 -171 -84q-161 -130 -412 -435l-93 -122q-24 5 -57 5q-63 0 -95 -10q133 191 285 407q88 125 108.5 156t21.5 45q2 29 -22 29q-39 0 -248 -262q-2 -1 -8 0.5t-10 4.5q-6 9 -3 12q19 20 64.5 76.5t79 95.5t79 73t82.5 34q88 0 81 -72
q-4 -44 -46 -103l-210 -292l5 -11q271 314 395 402q99 76 185 76q60 0 89.5 -30t27.5 -71q-2 -39 -12 -68t-41 -77q87 89 156 145q71 58 119 79.5t92 21.5q60 0 89 -29.5t28 -71.5q-2 -65 -65.5 -165.5t-220.5 -271.5q-49 -51 -60.5 -67.5t-11.5 -30.5l-7 -1q0 -24 73 -24
q39 0 89.5 26.5t95.5 63t96 88t83 88t65.5 76t34.5 40.5l21 -17q-3 -4 -37 -43.5t-68 -78t-87.5 -90.5t-101.5 -90t-103.5 -65t-99.5 -27z" />
    <glyph glyph-name="n" unicode="n" horiz-adv-x="1042" 
d="M657 -2q-57 0 -96.5 21.5t-39.5 55.5q0 49 39.5 119t173.5 219q139 156 139 211q0 36 -48 36t-133 -57q-184 -126 -458 -462l-93 -122q-26 5 -58 5q-55 0 -95 -10q133 191 285 407q88 125 108.5 156t21.5 45q2 29 -22 29q-39 0 -248 -262q-2 -1 -8 0.5t-10 4.5
q-6 9 -3 12q19 20 64.5 76.5t79 95.5t79 73t82.5 34q88 0 81 -72q-4 -44 -46 -103l-210 -292l5 -11q292 328 437 425q81 53 152 53q60 0 89 -29.5t28 -71.5q-2 -65 -65.5 -165.5t-220.5 -271.5q-49 -51 -60.5 -67.5t-11.5 -30.5q0 -10 20.5 -16.5t51.5 -6.5q48 0 105 26
t104 63t98.5 87.5t83 87.5t63 75.5t33.5 40.5l21 -17q-4 -4 -35.5 -43t-65.5 -78t-86.5 -90t-103 -89t-112 -64.5t-115.5 -26.5z" />
    <glyph glyph-name="o" unicode="o" horiz-adv-x="752" 
d="M170 -2q-80 0 -122 36.5t-47 96.5q-3 63 26.5 140t70.5 137q81 115 201 196t243 81q56 0 93 -29t41 -86q4 -83 -33 -176t-103 -176q7 -29 45 -29q28 0 63.5 19t70.5 50.5t62.5 59t53 56.5t28.5 32l22 -17q-4 -4 -52 -54t-81.5 -81t-83 -62t-85.5 -31q-48 0 -65 30
q-77 -87 -169.5 -140t-178.5 -53zM196 28q72 0 173 73q77 55 139 129v4q0 57 30 95t66 50q49 102 44 183q-3 45 -24 66t-51 21q-118 0 -331 -266q-137 -171 -129 -268q0 -33 20.5 -60t62.5 -27z" />
    <glyph glyph-name="p" unicode="p" horiz-adv-x="862" 
d="M-618 -709q-46 0 -73 9q574 776 753 1037q99 138 219.5 296.5t256.5 343.5q58 -6 94 -6q35 0 57 7q-83 -101 -128.5 -155.5t-96 -117t-67 -83t-59 -75.5t-53.5 -70.5t-68 -92.5t-88 -118l7 -8q311 299 459 376q38 20 58 28.5t52 15.5t71 7q95 0 95 -83
q0 -80 -69.5 -170.5t-231.5 -204.5q-96 -68 -128 -100.5t-32 -55.5q0 -45 71 -45q34 0 72 13.5t70.5 31.5t73.5 51t67.5 57t65.5 65.5t56 60.5t50 58t37 43l22 -17q-4 -4 -36 -41.5t-50.5 -58.5t-58.5 -62.5t-69.5 -67.5t-72 -60t-78.5 -53.5t-77 -33.5t-78 -14
q-58 0 -87 26t-29 73q0 147 329 391q80 57 104.5 87.5t24.5 52.5q0 13 -11 22.5t-30 9.5q-83 0 -189 -63q-125 -72 -307.5 -240.5t-324.5 -337.5q-75 -99 -191.5 -274.5t-196.5 -300.5t-91 -145q-28 -8 -94 -8z" />
    <glyph glyph-name="q" unicode="q" horiz-adv-x="931" 
d="M-117 -787q-32 0 -49.5 18.5t-17.5 53.5q0 115 149.5 336.5t423.5 504.5q-80 -63 -152.5 -95.5t-117.5 -32.5q-122 0 -122 129q0 148 122 287q123 142 238 199t234 57q123 0 123 -99q0 -36 -11 -69q32 39 72 92t43 56q17 -7 59 -7q39 0 73 2q-46 -54 -145.5 -180.5
t-175.5 -213.5l-119 -136q7 -18 9 -46q4 -19 26 -32t50 -13q145 0 447 382l22 -17q-2 -2 -34 -42.5t-63.5 -78t-82 -89.5t-95.5 -89.5t-97.5 -64.5t-94.5 -27q-56 0 -86 33q-34 -157 -108.5 -309.5t-162.5 -262.5t-183.5 -178t-173.5 -68zM124 28q77 0 195 76.5t254 239.5
q57 68 65 79q51 70 51 157q0 28 -22.5 44.5t-51.5 16.5q-55 0 -166 -77t-230 -217q-140 -170 -140 -268q0 -27 10.5 -39t34.5 -12zM-117 -765q43 0 110.5 46.5t142 129.5t145 184.5t127.5 224.5t81 237q4 22 0 34q-641 -739 -641 -823q0 -33 35 -33z" />
    <glyph glyph-name="r" unicode="r" horiz-adv-x="682" 
d="M272 -2q-56 0 -91 28.5t-35 74.5q0 149 434 440q-213 34 -293 71q-54 -107 -155 -223q-16 -19 -30 -34.5t-23.5 -25t-17 -16t-12 -10t-7.5 -5t-4 -2.5l-2 -1q-2 -1 -3 4q-2 7 0 13q0 2 5 7.5t25.5 29t47.5 57.5q107 134 149 220q-36 23 -42 51q-8 48 19 87t70 39
q24 0 38.5 -13t14.5 -33q0 -9 -1.5 -16.5t-5 -16.5t-5 -12t-8 -13.5t-7.5 -11.5q-18 -21 -18 -53q0 -18 113.5 -42t182.5 -29q28 -1 28 -15q0 -10 -29 -33q-115 -89 -224 -228t-109 -208q0 -47 38 -47q33 0 74 17t84.5 48.5t82 64t81.5 76t68.5 70.5t57 61.5t32.5 36.5
l20 -17q-13 -12 -61 -66t-97.5 -103t-113.5 -103t-135 -86.5t-136 -32.5z" />
    <glyph glyph-name="s" unicode="s" horiz-adv-x="596" 
d="M56 -23q-19 0 -37.5 1.5t-43.5 5.5t-46 13t-39.5 22t-29 34t-10.5 47q0 65 56.5 106t96.5 41q41 0 41 -38q-2 -16 -23 -29.5t-47 -13.5q-7 0 -15 4t-16.5 10t-10.5 7q-2 -2 -11 -10t-15.5 -14.5t-14 -17t-11.5 -22t-4 -24.5q0 -27 18 -45.5t46 -26.5t50.5 -11t42.5 -3
q35 0 77.5 19t87.5 58t80.5 113.5t47.5 170.5q0 1 4.5 72.5t12.5 124t24 99.5q1 3 1 9q-164 -203 -236 -290q-12 -14 -22 -23.5t-13 -12t-2 -2.5q-15 0 -18 6q-2 5 34 49q156 180 265 320q16 78 52 78q17 0 28.5 -9t11.5 -24q-1 -19 -46 -71q-8 -9 -13 -16t-8.5 -12.5
t-5.5 -9t-3 -8t-1 -6v-7v-7.5q-1 -38 17.5 -150.5t21.5 -162.5q3 -79 -18 -137q16 -2 27 -2q30 0 73.5 29t84 70t68.5 73.5t42 51.5l22 -17q-2 -2 -49 -53.5t-78.5 -82.5t-80.5 -63t-85 -32q-23 0 -33 2q-83 -183 -347 -183z" />
    <glyph glyph-name="t" unicode="t" horiz-adv-x="429" 
d="M42 -2q-53 0 -81.5 21.5t-28.5 56.5q0 55 38.5 124t195.5 290l258 363h-79q-30 0 -30 13q0 16 38 16h91l185 260q30 -5 96 -4q20 0 43 4l-193 -260h258q28 0 28 -14q0 -15 -25 -15h-283l-264 -356q-119 -161 -185 -257t-84.5 -131t-18.5 -51q0 -30 50 -32q176 2 478 366
q8 10 12 14l22 -17q-3 -3 -31 -36.5t-43.5 -50t-49.5 -54t-59 -60.5t-61.5 -56t-68.5 -53.5t-68 -41t-71.5 -30t-68.5 -9.5z" />
    <glyph glyph-name="u" unicode="u" horiz-adv-x="885" 
d="M63 -2q-61 0 -91 29.5t-31 71.5q-3 68 48.5 149.5t177.5 228.5q10 12 71.5 87.5t98.5 114.5q34 -6 80 -6q55 0 72 3q-126 -135 -322 -375q-2 -3 -39 -46.5t-53 -66t-34.5 -61t-17.5 -68.5q0 -36 48 -36q25 0 67 14t86 43q160 108 337 326q26 32 62 75q40 50 165 198
q63 -6 80 -6q46 0 72 3q-41 -45 -101 -116t-105.5 -126.5t-114.5 -141t-93 -114.5q-47 -55 -60 -76t-13 -40q1 -11 3 -17t14.5 -12.5t34.5 -6.5q42 0 96 26t102.5 63.5t101.5 87t88 87.5t68.5 75.5t36.5 40.5l20 -17q-3 -3 -39 -43t-71.5 -78t-92 -89.5t-106.5 -89
t-107.5 -64.5t-103.5 -27q-41 0 -67.5 23t-27.5 62q-3 71 50 163q-125 -135 -224 -195q-88 -53 -166 -53z" />
    <glyph glyph-name="v" unicode="v" horiz-adv-x="810" 
d="M38 -2q-55 0 -83.5 22t-28.5 61q0 55 36.5 119.5t156.5 214.5q55 70 249 264q63 -6 85 -6q45 0 72 3q-62 -56 -104 -99t-88 -96t-75 -83q-9 -9 -51 -52.5t-71 -74.5t-65 -73t-55.5 -75t-19.5 -53q0 -30 13 -38t43 -8q188 0 497 271q101 90 133 162.5t32 167.5q0 36 23 60
t56 24q56 0 56 -55q0 -114 -199 -307l-27 -25q-18 -24 -28.5 -46.5t-12.5 -41t9.5 -30t37.5 -11.5q32 0 75.5 24t86.5 61.5t74.5 68.5t56.5 59l21 -17q-203 -221 -322 -221q-48 0 -61.5 29t9.5 77q-132 -111 -278 -193.5t-253 -82.5z" />
    <glyph glyph-name="w" unicode="w" horiz-adv-x="1154" 
d="M-15 -2q-30 0 -47.5 16t-17.5 48q0 96 116.5 261t321.5 356q34 -6 81 -6q52 0 72 3q-322 -330 -450 -482q-96 -117 -96 -146q0 -12 5 -17t21 -5q94 0 307 159q134 98 237 216q96 112 262 278q63 -6 81 -6q44 0 72 3q-319 -335 -461 -498q-81 -96 -81 -129q0 -23 25 -23
q72 0 222 87t264 206q102 107 134 165t32 141q0 38 19.5 66t50.5 28q66 0 66 -65q0 -108 -199 -307q-41 -41 -82 -74q-31 -80 40 -80q42 0 105 44.5t103 85t77 83.5l22 -17q-37 -40 -65 -67.5t-75.5 -68.5t-92.5 -63t-83 -22q-39 0 -56.5 20t-9.5 56q-127 -99 -265.5 -172.5
t-217.5 -73.5q-63 0 -63 65q0 78 68 190q-69 -62 -129 -106q-199 -149 -313 -149z" />
    <glyph glyph-name="x" unicode="x" horiz-adv-x="906" 
d="M-3 -2q-46 0 -65.5 13t-19.5 40q0 18 18.5 32.5t42.5 14.5q18 0 41 -15q23 -17 40 -17q95 0 204.5 101t196.5 268q41 59 54 95.5t13 71.5q0 52 -47 52q-57 0 -128 -51.5t-214 -213.5q-8 -2 -18 7q-5 5 -3 10q107 120 176 181t110 79.5t88 18.5q57 0 90 -36.5t33 -100.5
q0 -34 -18 -96q75 99 168 166t175 67q48 0 70.5 -22t22.5 -50t-18 -44t-39 -16q-68 0 -73 82q-7 1 -17 1q-64 0 -164 -91.5t-178 -226.5q-6 -13 -34 -64q-50 -106 -50 -172q0 -56 66 -56q39 0 86 19t88 45.5t89 68.5t79 73t70.5 74.5t50.5 57.5t30 37q4 5 5 6l21 -18
q-1 -1 -29.5 -33.5t-66.5 -74.5t-93.5 -92.5t-110.5 -92.5t-117.5 -70t-114.5 -28q-61 0 -102.5 37t-41.5 114q0 43 24 119q-94 -128 -204.5 -199t-185.5 -71z" />
    <glyph glyph-name="y" unicode="y" horiz-adv-x="910" 
d="M-468 -787q-40 0 -63.5 20.5t-23.5 46.5q0 42 34 87t113.5 102t219 127.5t341.5 155.5q120 148 407 516l-11 4q-98 -104 -238 -189t-252 -85q-55 0 -83.5 22t-28.5 61q0 55 32.5 119.5t138.5 214.5q52 64 250 264q63 -6 86 -6q44 0 71 3q-63 -56 -104.5 -99t-88 -96.5
t-73.5 -82.5q-9 -10 -47.5 -52.5t-66 -74.5t-60.5 -73.5t-51 -74.5t-18 -53q0 -46 51 -46q125 0 267 101t257 241q129 142 265 310q33 -7 62 -7q49 0 72 4l-348 -429q-193 -261 -329 -435q254 122 371 225t326 358q8 9 12 14l21 -17q-67 -80 -97.5 -116t-82 -94t-79.5 -85
t-76 -70t-85.5 -67.5t-93.5 -59.5t-115.5 -65.5t-135.5 -66.5q-141 -178 -242.5 -286t-188.5 -167.5t-156 -79t-159 -19.5zM-464 -760q78 0 149.5 37.5t172.5 138t260 293.5q-344 -147 -492.5 -246t-148.5 -183q0 -14 15.5 -27t43.5 -13z" />
    <glyph glyph-name="z" unicode="z" horiz-adv-x="694" 
d="M-407 -787q-44 0 -65.5 23t-21.5 59q0 99 180 243t513 331q3 21 3 41q0 40 -14.5 61.5t-34.5 21.5h-2q-8 -5 -50.5 -26.5t-62.5 -33.5q-10 -6 -17.5 -11.5t-10 -8t-5 -4t-6.5 -1.5q-6 0 -17 6.5t-11 9.5q0 15 48 35q63 28 100.5 60.5t83 102t128.5 223.5q38 68 85 132
q-110 21 -163 94q-58 -107 -122 -182q-30 -35 -53.5 -56.5t-31.5 -26.5t-11 -5q-7 0 -7 5l82 100q16 19 29.5 35.5t24.5 32.5t18 26.5t16.5 26.5t12.5 22.5t12.5 24.5t12.5 23q-22 44 -22 94q0 45 27 78.5t69 33.5q24 0 38.5 -11t14.5 -28q0 -21 -11.5 -38t-25 -26.5
t-25 -28t-11.5 -41.5q0 -39 38.5 -79t101.5 -56q83 105 170 159t161 54q45 0 68.5 -16.5t23.5 -41.5q0 -51 -90 -108t-210 -69q-42 -104 -90 -184t-98 -133.5t-92.5 -86t-93.5 -61.5q94 -9 115 -91q85 51 159.5 111t141 130.5t108.5 120t103 127.5l21 -17
q-59 -73 -88.5 -108t-89 -101t-105.5 -107.5t-111.5 -92t-133.5 -89.5q3 -16 3 -38q0 -95 -71.5 -210t-176 -208.5t-231.5 -157.5t-230 -64zM561 493q103 15 180.5 64t77.5 94q0 15 -16 25.5t-43 10.5q-50 0 -103.5 -48t-95.5 -146zM-407 -762q45 0 114.5 36t145 99
t145.5 138.5t123.5 163t71.5 164.5q-104 -61 -179 -106.5t-155.5 -98.5t-134.5 -96t-99 -87t-67 -84.5t-22 -76.5q0 -22 13.5 -37t43.5 -15z" />
    <glyph glyph-name="braceleft" unicode="{" horiz-adv-x="798" 
d="M278 -196q-17 0 -30 19q-59 70 -83 128t-24 131q0 25 4.5 51t9.5 45.5t17 50.5t19 46l24.5 52.5l24.5 52.5q53 113 69.5 156t16.5 67q0 46 -37 64q-14 5 -14 15t23 10q59 0 91.5 23.5t87.5 104.5q166 240 247 338t175 169q60 44 138 68t149 24q20 0 20 -11q0 -6 -6 -8
t-25 -4q-79 -7 -122 -25.5t-86 -56.5q-35 -31 -62.5 -68.5t-77.5 -121.5q-108 -177 -205 -301q-45 -56 -108 -102t-123 -65q39 -36 39 -87q0 -64 -71 -209q-68 -140 -98 -225t-30 -163q0 -54 11.5 -85.5t38.5 -54.5q9 -6 9 -16q0 -12 -12 -12z" />
    <glyph glyph-name="bar" unicode="|" horiz-adv-x="765" 
d="M-120 -423l1323 2006q4 -4 24 -4q15 0 40 3l-1325 -2005q-8 2 -24 2q-18 0 -38 -2z" />
    <glyph glyph-name="braceright" unicode="}" horiz-adv-x="845" 
d="M-100 -197q-20 0 -20 11q0 6 6 8t25 4q79 7 122 25.5t86 56.5q35 31 62.5 68.5t77.5 121.5q108 177 205 301q45 56 107.5 101.5t123.5 65.5q-39 33 -39 87q0 64 71 209q68 140 98 225t30 163q0 54 -11.5 85.5t-38.5 54.5q-9 6 -9 16q0 12 12 12q17 0 30 -19
q59 -70 83 -128t24 -131q0 -25 -4.5 -51t-9.5 -45.5t-17 -50.5t-19 -46l-24.5 -52.5l-24.5 -52.5q-53 -113 -69.5 -156t-16.5 -67q0 -46 37 -64q14 -5 14 -15t-23 -10q-59 0 -91.5 -23.5t-87.5 -104.5q-166 -240 -247 -338t-175 -169q-60 -44 -138 -68t-149 -24z" />
    <glyph glyph-name="asciitilde" unicode="~" horiz-adv-x="1028" 
d="M810 283q-49 0 -94.5 15t-122.5 61q-72 45 -109 62t-73 17q-51 0 -96 -38.5t-70 -99.5l-45 19q29 73 86.5 121t125.5 48q44 0 84 -17.5t127 -70.5q65 -39 105 -54t81 -15q53 0 98.5 37t76.5 107l45 -14q-27 -77 -88 -127.5t-131 -50.5z" />
    <glyph glyph-name="uni00A0" unicode="&#xa0;" horiz-adv-x="503" 
 />
    <glyph glyph-name="exclamdown" unicode="&#xa1;" horiz-adv-x="631" 
d="M789 975q-28 0 -44.5 17t-16.5 46q0 36 31.5 64.5t68.5 28.5q28 0 45 -18t17 -46q0 -35 -30 -63.5t-71 -28.5zM-50 -150q38 42 72.5 82.5t70 84.5t60 73.5t60 77.5t51 67.5t52.5 71.5t44 62t47 67t42 59q50 70 99 139.5t77.5 109.5t38.5 54q11 16 22 16q10 0 10 -11
q0 -12 -18 -44q-87 -161 -262 -449t-251 -400l-41 -60q-36 7 -107 4q-44 0 -67 -4z" />
    <glyph glyph-name="cent" unicode="&#xa2;" horiz-adv-x="1018" 
d="M240 22l248 343q-42 20 -64 55.5t-22 77.5q0 132 112 269q142 166 284 218q55 20 104 22q25 0 45 -7l273 379q8 -3 21 -3q7 0 17 2l-282 -390q50 -29 59 -87q0 -55 -20 -79.5t-46 -24.5q-18 0 -30 13.5t-12 34.5q0 17 14.5 32.5t37.5 15.5q5 0 17 -2q5 15 5 30
q0 30 -39 48l-420 -582q19 -11 43 -11q54 0 122.5 41.5t123.5 123.5q12 19 20 19q11 0 11 -11q0 -7 -19 -37q-54 -79 -130 -121.5t-139 -42.5q-32 0 -56 7l-240 -333q-20 2 -23 2q-7 0 -15 -2zM519 409l412 569q-12 2 -18 2q-55 0 -154.5 -98t-177.5 -221.5t-78 -190.5
q0 -38 16 -61z" />
    <glyph glyph-name="sterling" unicode="&#xa3;" horiz-adv-x="1824" 
d="M1162 -50q-252 0 -555 134q-1 0 -2 0.5t-2 0.5q-164 -87 -351 -87q-83 0 -132.5 30t-49.5 68q0 41 63 74.5t168 33.5q42 0 69.5 -2t91 -16t140.5 -42q122 105 315 382h-187q9 7 26 29h181q19 27 95 139q64 96 145 199q-222 11 -346 78.5t-124 165.5q0 68 51.5 128
t135.5 106q54 28 120 46t111 18q22 0 22 -8q0 -7 -33 -11q-88 -11 -164.5 -45t-127.5 -92t-51 -126q0 -98 109 -163.5t315 -74.5q200 244 397.5 369t347.5 125q72 0 109 -26t37 -72q0 -76 -58 -149.5t-158 -131t-246 -95.5t-312 -43l-23 -37q-100 -164 -199 -300h372
q-10 -11 -12 -29h-381q-206 -278 -405 -405q147 -55 283.5 -78.5t219.5 -23.5q130 0 212.5 25t167.5 95q10 0 10 -10q0 -7 -9 -20q-45 -56 -153 -107.5t-233 -51.5zM1327 915q150 7 280.5 43t219 90t139 122.5t50.5 139.5q0 30 -21 53t-63 23q-147 0 -303 -125t-302 -346z
M279 27q83 0 147.5 17.5t128.5 62.5q-85 38 -139 50t-141 12q-78 0 -123.5 -20.5t-45.5 -50.5q0 -27 43 -49t130 -22z" />
    <glyph glyph-name="currency" unicode="&#xa4;" horiz-adv-x="1088" 
d="M183 8q-1 6 -11.5 14t-11.5 9l170 125q-26 38 -26 91q0 81 51 157t132 127l-77 118q4 1 27 20l77 -123q88 47 171 47q92 0 144 -50l173 130q2 -7 23 -25l-177 -130q23 -37 23 -86q0 -77 -43.5 -151.5t-115.5 -125.5l81 -121q-6 -3 -27 -19l-78 123q-93 -58 -194 -58
q-92 0 -145 53zM500 112q123 0 224.5 91t101.5 207q0 71 -40 110.5t-110 39.5q-119 0 -219 -96t-100 -206q0 -69 38.5 -107.5t104.5 -38.5z" />
    <glyph glyph-name="yen" unicode="&#xa5;" horiz-adv-x="1509" 
d="M454 -2q-113 0 -188.5 52.5t-75.5 133.5q0 35 20 57t48 22q20 0 31 -11.5t11 -31.5q0 -17 -17 -32t-46 -18q-1 -5 -1 -14q0 -58 61.5 -97.5t165.5 -39.5q96 0 205 65t213 201h-204q20 16 24 27h200q27 36 57 86h-224q21 19 25 28h217q105 164 307 403
q-153 -152 -263 -216.5t-197 -64.5q-62 0 -95.5 34t-33.5 84q0 126 144 265q261 257 261 351q0 34 -26 53.5t-67 19.5q-93 0 -227 -129.5t-198 -303.5q-6 -12 -16 -12q-12 0 -12 11q0 10 10 31q70 166 204 296.5t242 130.5q64 0 102.5 -32t38.5 -87q0 -87 -53.5 -194.5
t-169.5 -213.5q-124 -114 -155.5 -152.5t-31.5 -70.5q0 -22 21.5 -40t61.5 -18q32 0 64 8t86 35.5t116 74t152 131t196 198.5q103 112 192.5 173.5t132.5 61.5q17 0 17 -12q0 -9 -14 -12l-30 -10q-78 -31 -147 -92.5t-165 -200.5t-222 -372q-32 -58 -77 -128h211
q-10 -13 -10 -28h-220q-36 -51 -66 -86h240q-9 -10 -13 -27h-250q-126 -142 -270 -214.5t-292 -72.5z" />
    <glyph glyph-name="brokenbar" unicode="&#xa6;" horiz-adv-x="765" 
d="M686 804l517 779q4 -4 24 -4q15 0 40 3l-516 -778h-65zM-120 -423l533 811h64l-535 -811q-8 2 -24 2q-18 0 -38 -2z" />
    <glyph glyph-name="section" unicode="&#xa7;" horiz-adv-x="1086" 
d="M261 -231q-86 0 -149 52t-61 121q1 46 30.5 82t67.5 36q20 0 33 -11.5t13 -30.5q0 -23 -16 -37.5t-38 -14.5q-24 0 -38 19q-12 -19 -12 -51q-2 -59 47 -99.5t124 -40.5q121 0 199 68.5t82 184.5q0 50 -21 104.5t-69 143.5q-93 188 -91 277q4 123 87 204t210 99
q-21 63 -20 126q3 92 50 176.5t125 139.5q93 67 220 67q86 0 144.5 -48.5t56.5 -117.5q-2 -48 -31 -87.5t-68 -39.5q-20 0 -33.5 12t-13.5 31q1 23 17.5 38.5t37.5 15.5q24 0 39 -21q13 20 15 52q2 59 -45 101t-122 42q-80 0 -159 -43q-58 -33 -93 -88.5t-36 -124.5
q-1 -34 11.5 -75.5t26.5 -72t50 -102.5q95 -178 92 -275q-4 -124 -87 -205t-210 -98q21 -63 20 -126q-3 -100 -51 -187t-136.5 -141.5t-197.5 -54.5zM617 301q79 12 130 65t53 136q1 52 -17 107.5t-63 138.5q-33 59 -52 105q-78 -14 -129 -68.5t-53 -134.5q-3 -94 81 -244
q35 -65 50 -105z" />
    <glyph glyph-name="dieresis" unicode="&#xa8;" horiz-adv-x="460" 
d="M359 876q-27 0 -44 17.5t-17 44.5q0 35 30.5 64.5t70.5 29.5q27 0 44 -18t17 -45q0 -36 -32 -64.5t-69 -28.5zM60 876q-26 0 -43 17.5t-17 44.5q0 35 29.5 64.5t69.5 29.5q28 0 44 -18t16 -45q0 -36 -31 -64.5t-68 -28.5z" />
    <glyph glyph-name="copyright" unicode="&#xa9;" horiz-adv-x="1226" 
d="M655 510q-171 0 -263.5 87.5t-92.5 217.5q0 87 31.5 177t92.5 171t143 144.5t191 101t228 37.5q64 0 125 -18t112 -53t82 -91.5t31 -127.5q0 -129 -55.5 -235.5t-115.5 -153.5q-75 -104 -213.5 -180.5t-295.5 -76.5zM656 545q143 0 263 57.5t194 145.5q-2 0 -2 2
q-1 5 -1 7t3 6.5t4 5.5l34 31l19 35q18 40 34 38q6 0 7 -9q80 101 80 281q0 70 -27.5 123.5t-75 84.5t-104.5 46.5t-122 15.5q-111 0 -210.5 -35t-173 -94t-127.5 -134t-81.5 -158.5t-27.5 -164.5q0 -52 17 -100.5t52.5 -90.5t98.5 -67.5t146 -25.5zM725 705
q-86 0 -145.5 49.5t-56.5 134.5q5 99 65 181t152.5 126.5t194.5 44.5q66 0 103.5 -29t37.5 -61q0 -17 -13.5 -32t-30.5 -15q-31 0 -31 25q0 46 -18.5 67t-63.5 21q-109 0 -201.5 -94.5t-98.5 -223.5q-4 -77 32.5 -119t98.5 -42q92 0 187 90q11 11 17 11q5 0 9 -4t4 -7
q0 -10 -16 -25q-45 -43 -107 -70.5t-119 -27.5z" />
    <glyph glyph-name="ordfeminine" unicode="&#xaa;" horiz-adv-x="854" 
d="M234 869q-49 0 -76 25.5t-27 73.5q0 101 103 220q169 196 360 196q39 0 61.5 -16.5t22.5 -46.5q0 -18 -7 -39q59 69 73 86q20 -6 54 -6q35 0 56 3l-252 -303q-89 -105 -89 -145q0 -19 25 -19q56 0 136 69q16 15 21 15q11 0 11 -10q0 -8 -12 -20q-92 -83 -183 -83
q-72 0 -72 51q0 42 91 150l-7 4q-176 -205 -289 -205zM237 895q108 0 307 238l81 97q28 54 28 89q0 33 -42 33q-43 0 -123.5 -54.5t-168.5 -162.5q-109 -131 -109 -197q0 -43 27 -43z" />
    <glyph glyph-name="guillemotleft" unicode="&#xab;" horiz-adv-x="838" 
d="M557 141q-10 0 -19 17q-24 43 -67 107.5t-68 95.5q-19 24 -19 33q0 10 31 28q68 36 151 94t140 112q23 24 33 24q9 0 9 -9q0 -10 -20 -34q-130 -155 -231 -243q36 -92 63 -178q7 -23 7 -34q0 -13 -10 -13zM261 141q-9 0 -17 17q-23 42 -66 106t-69 97q-19 22 -19 33
q0 10 31 28q68 36 150.5 94t140.5 112q23 24 32 24q10 0 10 -9q0 -11 -21 -34q-122 -148 -230 -242q23 -60 63 -179q6 -20 6 -34q0 -13 -11 -13z" />
    <glyph glyph-name="logicalnot" unicode="&#xac;" horiz-adv-x="921" 
d="M735 213q-16 4 -32 4q-21 0 -32 -3l143 248h-614q33 41 38 56h673z" />
    <glyph glyph-name="uni00AD" unicode="&#xad;" 
 />
    <glyph glyph-name="registered" unicode="&#xae;" horiz-adv-x="1226" 
d="M655 491q-172 0 -264 88t-92 219q0 86 31.5 175.5t92.5 170.5t143 145t191 101.5t228 37.5q87 0 164.5 -30.5t131.5 -98.5t54 -161q0 -129 -55.5 -235t-115.5 -153q-76 -105 -214.5 -182t-294.5 -77zM656 528q143 0 263 57t194 144q-3 1 -4 4q-3 6 8 17l35 33q9 14 18 34
q18 41 33 38q6 -1 7 -10q80 104 80 281q0 57 -18.5 103t-49 76.5t-73 51.5t-89.5 30t-98 9q-138 0 -257.5 -53t-197.5 -138t-122 -188t-44 -206q0 -41 10 -80t34 -76.5t59.5 -65t90 -44.5t121.5 -17zM891 675q-22 0 -39 10.5t-27 24t-19.5 39.5t-13.5 43t-11 50
q-11 47 -16.5 62t-17.5 34q-6 7 -6 20q0 9 5.5 13t28.5 11q43 10 75.5 21t69 30t57 49t20.5 68q0 91 -110 91q-13 0 -19 -1l-294 -551h-100l290 546q-68 -9 -85 -16q3 7 9 35q96 15 190 17q222 5 222 -116q0 -56 -49 -103t-113 -72.5t-133 -36.5q13 -4 21 -12t12 -16.5
t13 -31.5t20 -44q47 -114 87 -114q11 0 30.5 4t25.5 11q1 -3 -1.5 -14.5t3.5 -14.5q-11 -12 -53.5 -24t-71.5 -12z" />
    <glyph glyph-name="macron" unicode="&#xaf;" horiz-adv-x="544" 
d="M0 788q52 34 73 54h471q-41 -26 -61 -54h-483z" />
    <glyph glyph-name="degree" unicode="&#xb0;" horiz-adv-x="323" 
d="M439 1067q-69 0 -114 43.5t-45 108.5q0 69 48.5 117t120.5 48q68 0 111 -44.5t43 -111.5q0 -72 -48 -116.5t-116 -44.5zM443 1104q49 0 84 33t35 88q0 54 -33 88t-85 34q-53 0 -87.5 -37t-34.5 -89q0 -51 35 -84t86 -33z" />
    <glyph glyph-name="plusminus" unicode="&#xb1;" horiz-adv-x="814" 
d="M367 293l180 293h-272q30 33 41 55h265l170 277q24 -4 28 -4q7 0 41 4l-172 -277h276q-17 -17 -40 -55h-270l-182 -293q-24 4 -31 4q-14 0 -34 -4zM60 130q34 37 42 52h579q-25 -38 -28 -52h-593z" />
    <glyph glyph-name="uni00B2" unicode="&#xb2;" horiz-adv-x="834" 
d="M141 551q-11 0 -11 12q0 20 29.5 52t112 87t210.5 121q199 104 291.5 203t92.5 238q0 54 -26 86t-72 32q-65 0 -148.5 -69t-140 -156t-56.5 -140q0 -56 50 -56q92 0 195 136q12 12 19 12q10 0 10 -10q0 -12 -25.5 -43.5t-66.5 -65.5q-70 -55 -136 -55q-56 0 -81.5 32
t-25.5 68q0 56 36.5 122.5t93.5 122t133 93t147 37.5q90 0 141 -49.5t51 -124.5q0 -121 -116 -233t-328 -205q-123 -55 -179.5 -85.5t-99.5 -65.5q119 62 219 62q84 0 146 -42q55 -35 91 -35q52 0 94 37t49 83q2 17 11 17q14 0 14 -21q0 -66 -72.5 -131.5t-153.5 -65.5
q-66 0 -123 46q-69 58 -145 58q-42 0 -97.5 -23.5t-106.5 -67.5q-16 -13 -26 -13z" />
    <glyph glyph-name="uni00B3" unicode="&#xb3;" horiz-adv-x="775" 
d="M339 551q-94 0 -161.5 39t-67.5 79q0 16 11 28t29 12q38 0 38 -49q0 -11 -4 -29q25 -25 69 -39.5t86 -14.5q145 0 235.5 85.5t90.5 203.5q0 41 -26.5 73.5t-67.5 32.5t-72 -17.5t-77 -57.5q-10 -11 -25 -3q-11 8 -2 19q20 29 48.5 46.5t102.5 52.5q241 110 241 250
q0 54 -31.5 87.5t-89.5 33.5q-85 0 -171.5 -82.5t-86.5 -168.5q0 -44 44 -44q50 0 91 45t57 116q4 15 12 15q10 0 10 -15q0 -71 -52 -129t-123 -58q-39 0 -65.5 24.5t-26.5 69.5q0 86 103 170t218 84q106 0 162.5 -41.5t56.5 -114.5q0 -65 -72.5 -133.5t-206.5 -121.5
q62 -10 107.5 -56t45.5 -106q0 -121 -122 -203.5t-308 -82.5z" />
    <glyph glyph-name="acute" unicode="&#xb4;" horiz-adv-x="286" 
d="M12 788q-12 0 -12 10q0 2 1 4t3 4t4.5 3.5l7.5 4.5t9 6q83 47 125 114q25 42 40 144q9 71 53 71q43 0 43 -55q0 -57 -65.5 -141.5t-159.5 -141.5q-37 -23 -49 -23z" />
    <glyph glyph-name="uni00B5" unicode="&#xb5;" horiz-adv-x="1112" 
d="M-325 -593q-44 0 -75 9q49 60 409.5 532t558.5 722q30 -7 98 -7q58 0 71 3q-218 -224 -426 -472q-75 -92 -75 -135q0 -18 6 -25.5t21 -7.5q31 0 109.5 44t174.5 115q75 56 130 109t130 142q84 99 224 234q59 -7 82 -7q15 0 72 3q-91 -93 -222 -237.5t-222 -250.5
q-76 -88 -76 -127q0 -25 41 -25t102 29t117 84q5 -3 5 -14q0 -15 -5 -22q-119 -105 -237 -105q-33 0 -51.5 20t-18.5 55q0 79 54 176q-133 -118 -247.5 -184.5t-174.5 -66.5q-50 0 -74 24q-81 -111 -181.5 -261t-155 -236t-68.5 -110q-43 -8 -96 -8z" />
    <glyph glyph-name="paragraph" unicode="&#xb6;" horiz-adv-x="1487" 
d="M123 -220q-107 0 -161 40.5t-61 104.5q-3 41 24 65t62 27q19 2 35.5 -8t18.5 -33q2 -19 -13.5 -35.5t-37.5 -18.5q-32 -4 -49 6q0 -5 1 -7q6 -52 49.5 -83.5t130.5 -31.5q43 -1 106.5 34t152 109.5t208 211t254.5 319.5q-55 -23 -111 -23q-97 0 -157.5 47t-72.5 120
q-12 72 16 147t85.5 141t140.5 125t177.5 101t199 66.5t202.5 24.5q103 0 191 -19q63 73 117 119.5t96.5 65.5t69 24.5t60.5 5.5q44 0 71 -21.5t33 -51.5q5 -29 -7.5 -45.5t-33.5 -16.5q-20 0 -34.5 15t-17.5 36q-3 15 3.5 29t18.5 19q-18 10 -42 10q-39 0 -89 -47.5
t-137 -170.5q16 -6 30 -9q12 -4 20 -7.5t12.5 -7t7 -6t4.5 -5.5l1 -3q1 -17 -14 -17q-8 0 -24.5 9t-26.5 13l-26 10q-87 -123 -426 -642q-395 -606 -672 -606q-47 0 -82 21q-170 -151 -303 -151zM730 483q74 0 145 40q136 189 232.5 341.5t231.5 340.5q-5 0 -15.5 0.5
t-16.5 0.5q-72 0 -156 -28t-163 -75t-150.5 -111.5t-122.5 -133.5t-76 -145.5t-13 -143.5q14 -86 104 -86zM510 -64q27 0 60 16.5t87.5 66t121.5 131.5t165.5 224t215.5 332q191 310 337 484q-45 9 -118 14q-85 -120 -287 -418.5t-336 -481.5q-173 -229 -307 -352
q22 -16 61 -16z" />
    <glyph glyph-name="periodcentered" unicode="&#xb7;" horiz-adv-x="294" 
d="M151 441q-31 0 -51 20.5t-20 53.5q0 42 35.5 76t83.5 34q33 0 52.5 -20.5t19.5 -53.5q0 -42 -37.5 -76t-82.5 -34z" />
    <glyph glyph-name="cedilla" unicode="&#xb8;" horiz-adv-x="290" 
d="M17 -359q-17 0 -17 14q0 10 21 17q177 57 177 159q0 44 -68 44q-21 0 -43 -7l110 160l28 -8l-62 -85q17 5 35 5q41 0 66.5 -23t25.5 -57q0 -69 -97 -139q-49 -35 -102 -57.5t-74 -22.5z" />
    <glyph glyph-name="uni00B9" unicode="&#xb9;" horiz-adv-x="597" 
d="M130 572l402 602q-116 -120 -218 -203q-93 -76 -114 -76q-10 0 -15.5 6t-5.5 12q0 14 21 24q17 4 30 15q92 53 233.5 190t216.5 249q22 31 34 31q13 0 13 -13q0 -12 -33 -57q-64 -86 -185 -307t-238 -470q-52 4 -71 4q-49 0 -70 -7z" />
    <glyph glyph-name="ordmasculine" unicode="&#xba;" horiz-adv-x="670" 
d="M251 869q-59 0 -89.5 27.5t-30.5 72.5q0 46 26 105t60 104q64 84 159 144.5t187 60.5q52 0 79.5 -24t27.5 -62q0 -129 -117 -263q-64 -73 -146.5 -119t-155.5 -46zM272 901q67 0 150 54.5t151 152.5q71 102 71 184q0 55 -58 55q-35 0 -101.5 -49t-145.5 -141
q-110 -125 -110 -215q0 -23 10.5 -32t32.5 -9z" />
    <glyph glyph-name="guillemotright" unicode="&#xbb;" horiz-adv-x="836" 
d="M392 141q-9 0 -9 11q0 8 20 33q139 162 230 242q-38 95 -62 178q-6 17 -6 35q0 13 10 13q11 0 17 -18q24 -42 67.5 -107t68.5 -96q18 -21 18 -33q0 -11 -31 -27q-180 -99 -290 -207q-23 -24 -33 -24zM99 141q-9 0 -9 11q0 8 20 33q139 162 229 241q-36 93 -61 179
q-7 19 -7 35q0 13 10 13q9 0 18 -18q23 -42 66.5 -107t68.5 -96q19 -22 19 -33q0 -10 -31 -27q-177 -97 -290 -207q-23 -24 -33 -24z" />
    <glyph glyph-name="onequarter" unicode="&#xbc;" horiz-adv-x="1842" 
d="M378 22l965 1351q15 -5 33 -5q23 0 35 3l-962 -1349q-14 2 -25 2q-8 0 -46 -2zM132 391l402 602q-116 -120 -218 -203q-93 -76 -114 -76q-10 0 -15.5 6t-5.5 12q0 14 21 24q17 4 30 15q92 53 233.5 190t216.5 249q22 31 34 31q13 0 13 -13q0 -12 -33 -57
q-64 -86 -185 -307t-238 -470q-52 4 -71 4q-49 0 -70 -7zM1181 19q143 186 249 303q-73 20 -117 36l-72 24q-68 -59 -116 -83.5t-90 -24.5q-35 0 -52.5 17t-17.5 43q0 39 47 70t114 31q40 0 91 -12q89 86 195 212t167 222q125 12 141 12q23 0 23 -9q0 -2 -21 -14
q-59 -39 -112 -98q-186 -199 -329 -331l-9 -9q18 -5 62.5 -19t62.5 -19q40 -12 61 -17q178 194 321 282q17 10 28 10t11 -9t-17 -19q-94 -66 -267 -281q69 -13 118 -13q87 0 141 33q36 16 39 16q10 0 10 -9q0 -11 -16 -21q-78 -49 -197 -49q-53 0 -120 12
q-120 -153 -202 -286q-30 5 -84 5q-27 0 -42 -5zM1033 299q20 0 44.5 12.5t76.5 54.5q21 17 36 31q-45 12 -72 12q-35 0 -74 -29.5t-39 -54.5q0 -26 28 -26z" />
    <glyph glyph-name="onehalf" unicode="&#xbd;" horiz-adv-x="1809" 
d="M378 22l965 1351q15 -5 33 -5q23 0 35 3l-962 -1349q-14 2 -25 2q-8 0 -46 -2zM132 391l402 602q-116 -120 -218 -203q-93 -76 -114 -76q-10 0 -15.5 6t-5.5 12q0 14 21 24q17 4 30 15q92 53 233.5 190t216.5 249q22 31 34 31q13 0 13 -13q0 -12 -33 -57
q-64 -86 -185 -307t-238 -470q-52 4 -71 4q-49 0 -70 -7zM986 54q-11 0 -11 13q0 20 30 51.5t112.5 86.5t210.5 121q199 104 291.5 203t92.5 238q0 54 -27 86t-72 32q-65 0 -148.5 -69t-139.5 -155.5t-56 -139.5q0 -57 50 -57q91 0 195 137q11 12 18 12q10 0 10 -10
q0 -13 -25.5 -45t-66.5 -66q-30 -23 -68 -38t-68 -15q-56 0 -81 32t-25 68q0 56 36.5 122t93.5 121.5t133 93t147 37.5q91 0 141 -49t50 -125q0 -121 -116.5 -232.5t-328.5 -205.5q-123 -55 -178.5 -85.5t-97.5 -64.5q116 62 217 62q84 0 147 -42q53 -36 90 -36
q52 0 94.5 37t48.5 83q2 19 12 19q14 0 14 -22q0 -66 -73 -132t-153 -66q-64 0 -123 46q-71 60 -145 60q-42 0 -97.5 -24t-106.5 -68q-16 -14 -27 -14z" />
    <glyph glyph-name="threequarters" unicode="&#xbe;" horiz-adv-x="1982" 
d="M530 22l965 1351q15 -5 33 -5q23 0 35 3l-962 -1349q-14 2 -25 2q-8 0 -46 -2zM333 370q-94 0 -161.5 39t-67.5 79q0 16 11 28t29 12q38 0 38 -49q0 -11 -4 -29q25 -25 69 -39.5t86 -14.5q145 0 235.5 85.5t90.5 203.5q0 41 -26.5 73.5t-67.5 32.5t-72 -17.5t-77 -57.5
q-10 -11 -25 -3q-11 8 -2 19q20 29 48.5 46.5t102.5 52.5q241 110 241 250q0 54 -31.5 87.5t-89.5 33.5q-85 0 -171.5 -82.5t-86.5 -168.5q0 -44 44 -44q50 0 91 45t57 116q4 15 12 15q10 0 10 -15q0 -71 -52 -129t-123 -58q-39 0 -65.5 24.5t-26.5 69.5q0 86 103 170
t218 84q104 0 156.5 -41.5t52.5 -114.5q0 -66 -68.5 -134t-200.5 -121q62 -10 107.5 -56t45.5 -106q0 -77 -61 -143.5t-160 -104.5t-209 -38zM1320 19q143 186 249 303q-71 19 -118 36l-71 24q-70 -59 -117.5 -83.5t-89.5 -24.5q-34 0 -50.5 16.5t-16.5 43.5q0 39 45.5 70
t112.5 31q40 0 92 -12q90 87 196 213t165 221q127 12 143 12q21 0 21 -9q0 -3 -19 -14q-56 -35 -114 -98q-179 -194 -327 -331l-10 -9q1 0 126 -38q35 -11 60 -17q178 194 321 282q17 10 29 10q11 0 11 -9q0 -8 -17 -19q-92 -65 -268 -281q69 -13 118 -13q87 0 140 33
q36 16 39 16q12 0 12 -9q0 -10 -16 -21q-80 -49 -198 -49q-52 0 -120 12q-120 -153 -202 -286q-28 5 -83 5q-25 0 -43 -5zM1171 299q22 0 46 12.5t76 54.5q21 17 36 31q-44 12 -71 12q-35 0 -74.5 -29.5t-39.5 -54.5q0 -12 7.5 -19t19.5 -7z" />
    <glyph glyph-name="questiondown" unicode="&#xbf;" horiz-adv-x="988" 
d="M964 973q-28 0 -44.5 17t-16.5 46q0 36 32 64.5t70 28.5q27 0 44.5 -18t17.5 -46q0 -35 -30.5 -63.5t-72.5 -28.5zM380 -158q-88 0 -159 52t-71 134q0 48 15.5 87t83.5 112.5t198 175.5q102 80 199.5 180.5t146.5 167.5q11 15 18 31.5t8 18.5q14 19 28 19t14 -17
q0 -3 -0.5 -5.5t-1.5 -5t-2.5 -6t-3 -6t-4.5 -6.5t-5 -7t-6.5 -8t-6.5 -8t-7.5 -9.5t-8.5 -10.5q-90 -113 -157.5 -189t-166.5 -174q-122 -121 -169 -200t-47 -166q0 -63 35 -99t91 -36q61 0 109 27t73 66q28 41 33 106q2 33 21.5 54.5t49.5 21.5q23 0 37 -16.5t14 -39.5
q0 -31 -30 -73t-78 -80t-115.5 -64.5t-134.5 -26.5z" />
    <glyph glyph-name="Agrave" unicode="&#xc0;" horiz-adv-x="1628" 
d="M2169 1475q-11 0 -49 23q-93 57 -159 141.5t-66 141.5q0 55 43 55t55 -71q14 -102 40 -144q44 -70 124 -114q4 -3 10 -7t8 -5.5t4 -4t2 -5.5q0 -10 -12 -10zM212 -5q-102 0 -157 41t-55 105q0 41 29 61.5t65 20.5q19 0 34.5 -11t15.5 -34q0 -20 -17 -34.5t-39 -14.5
q-34 0 -48 10v-7q0 -110 180 -110q124 0 283 110q67 49 149 117q-142 53 -226 149t-89 204q-6 110 74 188.5t220 78.5q130 0 234 -76.5t162 -199.5l27 27q337 337 527.5 492t323.5 225q126 67 195 67q18 0 18 -9q0 -5 -20 -12q-26 -8 -90.5 -89.5t-300.5 -395.5
q-272 -362 -475 -631q182 54 319 171t195 271q12 30 16 30t10 -9t6 -20q-6 -80 -44.5 -144.5t-107.5 -131.5q-156 -152 -426 -209l-171 -226q-15 1 -40.5 2.5t-45 2.5t-30.5 1q-1 0 -58 -6q42 53 148 183q8 12 11 19q-42 -2 -63 -2q-142 0 -264 38q-134 -113 -217 -164
q-123 -78 -258 -78zM1070 264q723 886 956 1102q-83 -33 -149 -72q-120 -73 -300.5 -230.5t-471.5 -439.5l-64 -62q41 -106 41 -209q0 -45 -12 -89zM676 269q124 105 328 303q-52 121 -151 194t-220 73q-95 0 -165 -70.5t-69 -164.5q0 -108 71 -198t206 -137zM957 227
q35 0 70 3q23 59 23 117q0 99 -33 192q-170 -163 -306 -281q108 -31 246 -31z" />
    <glyph glyph-name="Aacute" unicode="&#xc1;" horiz-adv-x="1628" 
d="M2124 1495q-12 0 -12 10q0 2 1 4t3 4t4.5 3.5l7.5 4.5t9 6q83 47 125 114q25 42 40 144q9 71 53 71q43 0 43 -55q0 -57 -65.5 -141.5t-159.5 -141.5q-37 -23 -49 -23zM212 -5q-102 0 -157 41t-55 105q0 41 29 61.5t65 20.5q19 0 34.5 -11t15.5 -34q0 -20 -17 -34.5
t-39 -14.5q-34 0 -48 10v-7q0 -110 180 -110q124 0 283 110q67 49 149 117q-142 53 -226 149t-89 204q-6 110 74 188.5t220 78.5q130 0 234 -76.5t162 -199.5l27 27q337 337 527.5 492t323.5 225q126 67 195 67q18 0 18 -9q0 -5 -20 -12q-26 -8 -90.5 -89.5t-300.5 -395.5
q-272 -362 -475 -631q182 54 319 171t195 271q12 30 16 30t10 -9t6 -20q-6 -80 -44.5 -144.5t-107.5 -131.5q-156 -152 -426 -209l-171 -226q-15 1 -40.5 2.5t-45 2.5t-30.5 1q-1 0 -58 -6q42 53 148 183q8 12 11 19q-42 -2 -63 -2q-142 0 -264 38q-134 -113 -217 -164
q-123 -78 -258 -78zM1070 264q723 886 956 1102q-83 -33 -149 -72q-120 -73 -300.5 -230.5t-471.5 -439.5l-64 -62q41 -106 41 -209q0 -45 -12 -89zM676 269q124 105 328 303q-52 121 -151 194t-220 73q-95 0 -165 -70.5t-69 -164.5q0 -108 71 -198t206 -137zM957 227
q35 0 70 3q23 59 23 117q0 99 -33 192q-170 -163 -306 -281q108 -31 246 -31z" />
    <glyph glyph-name="Acircumflex" unicode="&#xc2;" horiz-adv-x="1628" 
d="M1900 1495q-6 0 -6 4q0 6 6 12t38 34q38 31 129 114.5t151 147.5q29 31 40 40t19 9t8 -8q0 -7 -5 -25q-25 -56 -25 -154t33 -140q13 -18 13 -22t-4.5 -8t-11.5 -4q-19 0 -46 33.5t-44 89.5q-14 36 -17 87q-94 -88 -240 -192q-26 -18 -38 -18zM212 -5q-102 0 -157 41
t-55 105q0 41 29 61.5t65 20.5q19 0 34.5 -11t15.5 -34q0 -20 -17 -34.5t-39 -14.5q-34 0 -48 10v-7q0 -110 180 -110q124 0 283 110q67 49 149 117q-142 53 -226 149t-89 204q-6 110 74 188.5t220 78.5q130 0 234 -76.5t162 -199.5l27 27q337 337 527.5 492t323.5 225
q126 67 195 67q18 0 18 -9q0 -5 -20 -12q-26 -8 -90.5 -89.5t-300.5 -395.5q-272 -362 -475 -631q182 54 319 171t195 271q12 30 16 30t10 -9t6 -20q-6 -80 -44.5 -144.5t-107.5 -131.5q-156 -152 -426 -209l-171 -226q-15 1 -40.5 2.5t-45 2.5t-30.5 1q-1 0 -58 -6
q42 53 148 183q8 12 11 19q-42 -2 -63 -2q-142 0 -264 38q-134 -113 -217 -164q-123 -78 -258 -78zM1070 264q723 886 956 1102q-83 -33 -149 -72q-120 -73 -300.5 -230.5t-471.5 -439.5l-64 -62q41 -106 41 -209q0 -45 -12 -89zM676 269q124 105 328 303q-52 121 -151 194
t-220 73q-95 0 -165 -70.5t-69 -164.5q0 -108 71 -198t206 -137zM957 227q35 0 70 3q23 59 23 117q0 99 -33 192q-170 -163 -306 -281q108 -31 246 -31z" />
    <glyph glyph-name="Atilde" unicode="&#xc3;" horiz-adv-x="1628" 
d="M1861 1499q-10 0 -10 11q0 40 53 97q57 60 110 60q41 0 103 -42q64 -43 106 -43q61 0 92 76q10 17 18 17q12 0 12 -11q0 -38 -54 -97q-53 -60 -111 -60q-23 0 -45.5 9.5t-67.5 38.5q-58 37 -93 37q-63 0 -93 -76q-9 -17 -20 -17zM212 -5q-102 0 -157 41t-55 105
q0 41 29 61.5t65 20.5q19 0 34.5 -11t15.5 -34q0 -20 -17 -34.5t-39 -14.5q-34 0 -48 10v-7q0 -110 180 -110q124 0 283 110q67 49 149 117q-142 53 -226 149t-89 204q-6 110 74 188.5t220 78.5q130 0 234 -76.5t162 -199.5l27 27q337 337 527.5 492t323.5 225
q126 67 195 67q18 0 18 -9q0 -5 -20 -12q-26 -8 -90.5 -89.5t-300.5 -395.5q-272 -362 -475 -631q182 54 319 171t195 271q12 30 16 30t10 -9t6 -20q-6 -80 -44.5 -144.5t-107.5 -131.5q-156 -152 -426 -209l-171 -226q-15 1 -40.5 2.5t-45 2.5t-30.5 1q-1 0 -58 -6
q42 53 148 183q8 12 11 19q-42 -2 -63 -2q-142 0 -264 38q-134 -113 -217 -164q-123 -78 -258 -78zM1070 264q723 886 956 1102q-83 -33 -149 -72q-120 -73 -300.5 -230.5t-471.5 -439.5l-64 -62q41 -106 41 -209q0 -45 -12 -89zM676 269q124 105 328 303q-52 121 -151 194
t-220 73q-95 0 -165 -70.5t-69 -164.5q0 -108 71 -198t206 -137zM957 227q35 0 70 3q23 59 23 117q0 99 -33 192q-170 -163 -306 -281q108 -31 246 -31z" />
    <glyph glyph-name="Adieresis" unicode="&#xc4;" horiz-adv-x="1628" 
d="M2291 1504q-27 0 -44 17.5t-17 44.5q0 35 30.5 64.5t70.5 29.5q27 0 44 -18t17 -45q0 -36 -32 -64.5t-69 -28.5zM1992 1504q-26 0 -43 17.5t-17 44.5q0 35 29.5 64.5t69.5 29.5q28 0 44 -18t16 -45q0 -36 -31 -64.5t-68 -28.5zM212 -5q-102 0 -157 41t-55 105
q0 41 29 61.5t65 20.5q19 0 34.5 -11t15.5 -34q0 -20 -17 -34.5t-39 -14.5q-34 0 -48 10v-7q0 -110 180 -110q124 0 283 110q67 49 149 117q-142 53 -226 149t-89 204q-6 110 74 188.5t220 78.5q130 0 234 -76.5t162 -199.5l27 27q337 337 527.5 492t323.5 225
q126 67 195 67q18 0 18 -9q0 -5 -20 -12q-26 -8 -90.5 -89.5t-300.5 -395.5q-272 -362 -475 -631q182 54 319 171t195 271q12 30 16 30t10 -9t6 -20q-6 -80 -44.5 -144.5t-107.5 -131.5q-156 -152 -426 -209l-171 -226q-15 1 -40.5 2.5t-45 2.5t-30.5 1q-1 0 -58 -6
q42 53 148 183q8 12 11 19q-42 -2 -63 -2q-142 0 -264 38q-134 -113 -217 -164q-123 -78 -258 -78zM1070 264q723 886 956 1102q-83 -33 -149 -72q-120 -73 -300.5 -230.5t-471.5 -439.5l-64 -62q41 -106 41 -209q0 -45 -12 -89zM676 269q124 105 328 303q-52 121 -151 194
t-220 73q-95 0 -165 -70.5t-69 -164.5q0 -108 71 -198t206 -137zM957 227q35 0 70 3q23 59 23 117q0 99 -33 192q-170 -163 -306 -281q108 -31 246 -31z" />
    <glyph glyph-name="Aring" unicode="&#xc5;" horiz-adv-x="1628" 
d="M2172 1553q-60 0 -98 33.5t-38 85.5q0 83 59.5 140.5t141.5 57.5q60 0 95 -34.5t35 -89.5q0 -79 -58 -136t-137 -57zM2182 1584q62 0 111.5 46t49.5 108q0 47 -28.5 75t-84.5 28q-55 0 -99 -51t-44 -112q0 -40 29 -67t66 -27zM212 -5q-102 0 -157 41t-55 105
q0 41 29 61.5t65 20.5q19 0 34.5 -11t15.5 -34q0 -20 -17 -34.5t-39 -14.5q-34 0 -48 10v-7q0 -110 180 -110q124 0 283 110q67 49 149 117q-142 53 -226 149t-89 204q-6 110 74 188.5t220 78.5q130 0 234 -76.5t162 -199.5l27 27q337 337 527.5 492t323.5 225
q126 67 195 67q18 0 18 -9q0 -5 -20 -12q-26 -8 -90.5 -89.5t-300.5 -395.5q-272 -362 -475 -631q182 54 319 171t195 271q12 30 16 30t10 -9t6 -20q-6 -80 -44.5 -144.5t-107.5 -131.5q-156 -152 -426 -209l-171 -226q-15 1 -40.5 2.5t-45 2.5t-30.5 1q-1 0 -58 -6
q42 53 148 183q8 12 11 19q-42 -2 -63 -2q-142 0 -264 38q-134 -113 -217 -164q-123 -78 -258 -78zM1070 264q723 886 956 1102q-83 -33 -149 -72q-120 -73 -300.5 -230.5t-471.5 -439.5l-64 -62q41 -106 41 -209q0 -45 -12 -89zM676 269q124 105 328 303q-52 121 -151 194
t-220 73q-95 0 -165 -70.5t-69 -164.5q0 -108 71 -198t206 -137zM957 227q35 0 70 3q23 59 23 117q0 99 -33 192q-170 -163 -306 -281q108 -31 246 -31z" />
    <glyph glyph-name="AE" unicode="&#xc6;" horiz-adv-x="2158" 
d="M1591 -290q-9 0 -25 14q-78 73 -78 213q0 39 3 60q-118 18 -187 90t-69 167q0 24 3 48l-231 -303q-15 1 -53 3.5t-52 2.5q-4 0 -58 -6q21 24 57.5 69t52.5 64q-174 0 -316 49q-87 -70 -149 -108q-123 -78 -258 -78q-104 0 -167.5 55.5t-63.5 121.5q0 30 18.5 50t48.5 20
q24 0 41 -16t17 -37t-14.5 -34t-39.5 -13q-13 0 -23 5q10 -51 62.5 -86t131.5 -35q127 0 280 106q54 40 81 62q-143 57 -223.5 155.5t-80.5 211.5q0 89 71.5 162.5t190.5 73.5q129 0 238 -76.5t172 -198.5q34 31 102 98q351 341 540 496.5t311 220.5q126 67 195 67
q18 0 18 -9q0 -5 -20 -12q-34 -10 -156 -154.5t-436 -551.5q141 72 294 72q22 0 56 -2q-11 39 -11 85q0 123 97.5 251.5t247 211.5t292.5 83q109 0 159 -43t50 -105q0 -73 -43.5 -153t-113.5 -146t-168.5 -109t-199.5 -43q-54 0 -85 26t-31 67q0 49 38 109.5t99.5 114
t149 90t176.5 36.5q23 0 23 -11q0 -14 -32 -14q-75 0 -153.5 -33.5t-136.5 -83t-95 -107t-37 -103.5q0 -63 87 -63q67 0 151.5 40t156.5 100t122 138t50 147q0 55 -37 86.5t-109 31.5q-48 0 -106 -18.5t-104 -46.5q-167 -107 -271 -258.5t-104 -266.5v-20q74 -13 114 -39.5
t40 -55.5q0 -32 -54 -32q-45 0 -85.5 26t-63.5 75h-7q-84 0 -187.5 -53t-187 -128.5t-140.5 -161.5t-57 -148q0 -79 48 -131t138 -68q14 88 45 158q66 148 173 235.5t232 87.5q67 0 101 -33t34 -91q0 -96 -70.5 -186t-191 -147t-254.5 -57q-16 0 -46 2q-3 -24 -3 -47
q0 -148 78 -212q11 -8 11 -13q0 -11 -13 -11zM1030 222q680 810 1005 1133q-88 -31 -139 -61q-121 -74 -303.5 -232.5t-468.5 -437.5q-54 -53 -138 -133q48 -107 48 -216q0 -30 -4 -53zM640 223q140 116 308 276q-59 118 -162.5 191t-213.5 73q-99 0 -151 -58.5t-52 -155.5
q0 -104 72 -189.5t199 -136.5zM2037 642q13 0 13 12q0 15 -30 31.5t-78 23.5q19 -67 95 -67zM1567 19q68 0 155 45t157 107t118.5 128t48.5 107q0 36 -22 52t-73 16q-80 0 -191.5 -84.5t-177.5 -211.5q-42 -81 -59 -157q14 -2 44 -2zM980 163q1 0 1 1q20 56 20 111
q0 100 -39 194q-180 -169 -288 -259q138 -47 306 -47z" />
    <glyph glyph-name="Ccedilla" unicode="&#xc7;" horiz-adv-x="1286" 
d="M367 -359q-17 0 -17 14q0 10 21 17q177 57 177 159q0 44 -68 44q-21 0 -43 -7l91 133q-98 14 -155.5 80t-57.5 170q0 234 213 508q-111 25 -169.5 95.5t-58.5 165.5q0 74 58 154t151 144.5t222.5 106.5t261.5 42q81 0 81 -17q0 -8 -13 -8q-5 0 -29.5 2t-43.5 2
q-99 0 -213 -39t-209.5 -101.5t-159 -150.5t-63.5 -176q0 -66 54 -121t149 -76q209 258 514.5 438.5t555.5 180.5q100 0 100 -74q0 -83 -100.5 -183.5t-249.5 -184t-333.5 -143.5t-341.5 -68q-142 -155 -225.5 -295.5t-83.5 -239.5q0 -76 42 -123t112 -61q-3 134 46.5 264
t131.5 226t190 155t217 59q83 0 128 -38t45 -102q0 -69 -35.5 -149.5t-102.5 -159t-153.5 -143t-199 -104t-228.5 -39.5h-16l-46 -63q17 5 35 5q41 0 66.5 -23t25.5 -57q0 -69 -97 -139q-49 -35 -102 -57.5t-74 -22.5zM716 775q133 14 306.5 79t320 148t248 173t101.5 149
q0 53 -78 53q-144 0 -407.5 -180t-490.5 -422zM586 24q96 0 209 68t201 163.5t147 199t59 173.5q0 41 -22 59.5t-70 18.5q-85 0 -182 -54t-179.5 -143t-137 -218t-54.5 -265v-1h1q9 -1 28 -1z" />
    <glyph glyph-name="Egrave" unicode="&#xc8;" horiz-adv-x="993" 
d="M1335 1474q-11 0 -49 23q-93 57 -159 141.5t-66 141.5q0 55 43 55t55 -71q14 -102 40 -144q44 -70 124 -114q4 -3 10 -7t8 -5.5t4 -4t2 -5.5q0 -10 -12 -10zM384 -285q-11 0 -24 14q-27 29 -42 101t-18 142v29q-136 15 -216.5 86.5t-82.5 174.5q-2 96 44 185.5
t125.5 156.5t192.5 107.5t239 40.5h6q-27 37 -39 85q-152 33 -252.5 105t-144.5 171q-6 11 -6 25q0 12 8 12q11 0 21 -24q90 -205 369 -262q-1 7 -1 23q-1 90 35 172.5t97.5 143.5t140.5 106.5t165.5 68.5t170.5 23q162 0 252 -57.5t90 -160.5q0 -101 -95.5 -186.5
t-255.5 -134.5t-346 -49q-91 0 -164 10q8 -37 33 -75q93 -10 146 -38t54 -61q0 -32 -52 -32q-45 0 -99.5 27t-97.5 72q-95 -11 -193 -59.5t-172.5 -116.5t-121 -151.5t-45.5 -158.5q2 -81 52.5 -134.5t144.5 -68.5q11 119 73.5 229t161.5 179.5t205 69.5q62 0 109 -41.5
t47 -96.5q0 -156 -154 -262.5t-378 -106.5q-7 0 -18.5 0.5t-17.5 0.5q-1 -10 -1 -30q0 -61 16 -131.5t41 -98.5q10 -11 10 -15q0 -9 -12 -9zM799 842q114 0 232.5 26t218.5 72.5t163.5 118t63.5 154.5q0 70 -73.5 116.5t-195.5 46.5q-99 0 -203 -51.5t-180.5 -128t-126 -167
t-49.5 -165.5v-14q63 -8 150 -8zM849 640q16 0 16 12q-1 18 -48 40t-109 26q31 -36 69 -57t72 -21zM372 22q101 0 215.5 63.5t189.5 151.5t75 157q0 40 -30.5 63t-77.5 23q-63 0 -131 -33.5t-127.5 -91t-102 -145t-52.5 -186.5q26 -2 41 -2z" />
    <glyph glyph-name="Eacute" unicode="&#xc9;" horiz-adv-x="993" 
d="M1290 1494q-12 0 -12 10q0 2 1 4t3 4t4.5 3.5l7.5 4.5t9 6q83 47 125 114q25 42 40 144q9 71 53 71q43 0 43 -55q0 -57 -65.5 -141.5t-159.5 -141.5q-37 -23 -49 -23zM384 -285q-11 0 -24 14q-27 29 -42 101t-18 142v29q-136 15 -216.5 86.5t-82.5 174.5q-2 96 44 185.5
t125.5 156.5t192.5 107.5t239 40.5h6q-27 37 -39 85q-152 33 -252.5 105t-144.5 171q-6 11 -6 25q0 12 8 12q11 0 21 -24q90 -205 369 -262q-1 7 -1 23q-1 90 35 172.5t97.5 143.5t140.5 106.5t165.5 68.5t170.5 23q162 0 252 -57.5t90 -160.5q0 -101 -95.5 -186.5
t-255.5 -134.5t-346 -49q-91 0 -164 10q8 -37 33 -75q93 -10 146 -38t54 -61q0 -32 -52 -32q-45 0 -99.5 27t-97.5 72q-95 -11 -193 -59.5t-172.5 -116.5t-121 -151.5t-45.5 -158.5q2 -81 52.5 -134.5t144.5 -68.5q11 119 73.5 229t161.5 179.5t205 69.5q62 0 109 -41.5
t47 -96.5q0 -156 -154 -262.5t-378 -106.5q-7 0 -18.5 0.5t-17.5 0.5q-1 -10 -1 -30q0 -61 16 -131.5t41 -98.5q10 -11 10 -15q0 -9 -12 -9zM799 842q114 0 232.5 26t218.5 72.5t163.5 118t63.5 154.5q0 70 -73.5 116.5t-195.5 46.5q-99 0 -203 -51.5t-180.5 -128t-126 -167
t-49.5 -165.5v-14q63 -8 150 -8zM849 640q16 0 16 12q-1 18 -48 40t-109 26q31 -36 69 -57t72 -21zM372 22q101 0 215.5 63.5t189.5 151.5t75 157q0 40 -30.5 63t-77.5 23q-63 0 -131 -33.5t-127.5 -91t-102 -145t-52.5 -186.5q26 -2 41 -2z" />
    <glyph glyph-name="Ecircumflex" unicode="&#xca;" horiz-adv-x="993" 
d="M1066 1494q-6 0 -6 4q0 6 6 12t38 34q38 31 129 114.5t151 147.5q29 31 40 40t19 9t8 -8q0 -7 -5 -25q-25 -56 -25 -154t33 -140q13 -18 13 -22t-4.5 -8t-11.5 -4q-19 0 -46 33.5t-44 89.5q-14 36 -17 87q-94 -88 -240 -192q-26 -18 -38 -18zM384 -285q-11 0 -24 14
q-27 29 -42 101t-18 142v29q-136 15 -216.5 86.5t-82.5 174.5q-2 96 44 185.5t125.5 156.5t192.5 107.5t239 40.5h6q-27 37 -39 85q-152 33 -252.5 105t-144.5 171q-6 11 -6 25q0 12 8 12q11 0 21 -24q90 -205 369 -262q-1 7 -1 23q-1 90 35 172.5t97.5 143.5t140.5 106.5
t165.5 68.5t170.5 23q162 0 252 -57.5t90 -160.5q0 -101 -95.5 -186.5t-255.5 -134.5t-346 -49q-91 0 -164 10q8 -37 33 -75q93 -10 146 -38t54 -61q0 -32 -52 -32q-45 0 -99.5 27t-97.5 72q-95 -11 -193 -59.5t-172.5 -116.5t-121 -151.5t-45.5 -158.5q2 -81 52.5 -134.5
t144.5 -68.5q11 119 73.5 229t161.5 179.5t205 69.5q62 0 109 -41.5t47 -96.5q0 -156 -154 -262.5t-378 -106.5q-7 0 -18.5 0.5t-17.5 0.5q-1 -10 -1 -30q0 -61 16 -131.5t41 -98.5q10 -11 10 -15q0 -9 -12 -9zM799 842q114 0 232.5 26t218.5 72.5t163.5 118t63.5 154.5
q0 70 -73.5 116.5t-195.5 46.5q-99 0 -203 -51.5t-180.5 -128t-126 -167t-49.5 -165.5v-14q63 -8 150 -8zM849 640q16 0 16 12q-1 18 -48 40t-109 26q31 -36 69 -57t72 -21zM372 22q101 0 215.5 63.5t189.5 151.5t75 157q0 40 -30.5 63t-77.5 23q-63 0 -131 -33.5
t-127.5 -91t-102 -145t-52.5 -186.5q26 -2 41 -2z" />
    <glyph glyph-name="Edieresis" unicode="&#xcb;" horiz-adv-x="993" 
d="M1457 1503q-27 0 -44 17.5t-17 44.5q0 35 30.5 64.5t70.5 29.5q27 0 44 -18t17 -45q0 -36 -32 -64.5t-69 -28.5zM1158 1503q-26 0 -43 17.5t-17 44.5q0 35 29.5 64.5t69.5 29.5q28 0 44 -18t16 -45q0 -36 -31 -64.5t-68 -28.5zM384 -285q-11 0 -24 14q-27 29 -42 101
t-18 142v29q-136 15 -216.5 86.5t-82.5 174.5q-2 96 44 185.5t125.5 156.5t192.5 107.5t239 40.5h6q-27 37 -39 85q-152 33 -252.5 105t-144.5 171q-6 11 -6 25q0 12 8 12q11 0 21 -24q90 -205 369 -262q-1 7 -1 23q-1 90 35 172.5t97.5 143.5t140.5 106.5t165.5 68.5
t170.5 23q162 0 252 -57.5t90 -160.5q0 -101 -95.5 -186.5t-255.5 -134.5t-346 -49q-91 0 -164 10q8 -37 33 -75q93 -10 146 -38t54 -61q0 -32 -52 -32q-45 0 -99.5 27t-97.5 72q-95 -11 -193 -59.5t-172.5 -116.5t-121 -151.5t-45.5 -158.5q2 -81 52.5 -134.5t144.5 -68.5
q11 119 73.5 229t161.5 179.5t205 69.5q62 0 109 -41.5t47 -96.5q0 -156 -154 -262.5t-378 -106.5q-7 0 -18.5 0.5t-17.5 0.5q-1 -10 -1 -30q0 -61 16 -131.5t41 -98.5q10 -11 10 -15q0 -9 -12 -9zM799 842q114 0 232.5 26t218.5 72.5t163.5 118t63.5 154.5
q0 70 -73.5 116.5t-195.5 46.5q-99 0 -203 -51.5t-180.5 -128t-126 -167t-49.5 -165.5v-14q63 -8 150 -8zM849 640q16 0 16 12q-1 18 -48 40t-109 26q31 -36 69 -57t72 -21zM372 22q101 0 215.5 63.5t189.5 151.5t75 157q0 40 -30.5 63t-77.5 23q-63 0 -131 -33.5
t-127.5 -91t-102 -145t-52.5 -186.5q26 -2 41 -2z" />
    <glyph glyph-name="Igrave" unicode="&#xcc;" horiz-adv-x="1333" 
d="M1707 1474q-11 0 -49 23q-93 57 -159 141.5t-66 141.5q0 55 43 55t55 -71q14 -102 40 -144q44 -70 124 -114q4 -3 10 -7t8 -5.5t4 -4t2 -5.5q0 -10 -12 -10zM227 -2q-100 0 -160 41t-66 103q-4 42 22 66t62 27q19 2 36 -8t19 -33q3 -19 -13 -36t-38 -18q-31 -4 -47 5v-6
q0 -49 50.5 -82t132.5 -33q120 0 239 76t275 263q-133 62 -133 245q0 111 57 225.5t161.5 213.5t240.5 177t307 123t348 45q38 0 87 -7q10 -1 40.5 -4t47.5 -3q16 0 50 3.5t52 3.5q37 0 37 -14q0 -18 -33 -19q-17 -1 -123 -1q-39 -9 -94 -31q-299 -133 -653 -647
q-121 -174 -253 -308h8q106 0 223.5 53.5t216.5 141.5t164 215t65 261q0 14 2 21.5t4 8t5 0.5q12 0 12 -49q0 -138 -65 -267t-166.5 -217.5t-227 -142t-245.5 -53.5h-23q-163 -159 -327 -249t-297 -90zM757 384q77 94 159 208q138 190 270.5 334t246.5 231.5t210.5 135.5
t183.5 65q-54 8 -105 8q-100 0 -222 -36.5t-238.5 -96.5t-228 -140.5t-195 -166t-134 -176t-50.5 -167.5q0 -155 103 -199z" />
    <glyph glyph-name="Iacute" unicode="&#xcd;" horiz-adv-x="1333" 
d="M1662 1494q-12 0 -12 10q0 2 1 4t3 4t4.5 3.5l7.5 4.5t9 6q83 47 125 114q25 42 40 144q9 71 53 71q43 0 43 -55q0 -57 -65.5 -141.5t-159.5 -141.5q-37 -23 -49 -23zM227 -2q-100 0 -160 41t-66 103q-4 42 22 66t62 27q19 2 36 -8t19 -33q3 -19 -13 -36t-38 -18
q-31 -4 -47 5v-6q0 -49 50.5 -82t132.5 -33q120 0 239 76t275 263q-133 62 -133 245q0 111 57 225.5t161.5 213.5t240.5 177t307 123t348 45q38 0 87 -7q10 -1 40.5 -4t47.5 -3q16 0 50 3.5t52 3.5q37 0 37 -14q0 -18 -33 -19q-17 -1 -123 -1q-39 -9 -94 -31
q-299 -133 -653 -647q-121 -174 -253 -308h8q106 0 223.5 53.5t216.5 141.5t164 215t65 261q0 14 2 21.5t4 8t5 0.5q12 0 12 -49q0 -138 -65 -267t-166.5 -217.5t-227 -142t-245.5 -53.5h-23q-163 -159 -327 -249t-297 -90zM757 384q77 94 159 208q138 190 270.5 334
t246.5 231.5t210.5 135.5t183.5 65q-54 8 -105 8q-100 0 -222 -36.5t-238.5 -96.5t-228 -140.5t-195 -166t-134 -176t-50.5 -167.5q0 -155 103 -199z" />
    <glyph glyph-name="Icircumflex" unicode="&#xce;" horiz-adv-x="1333" 
d="M1438 1494q-6 0 -6 4q0 6 6 12t38 34q38 31 129 114.5t151 147.5q29 31 40 40t19 9t8 -8q0 -7 -5 -25q-25 -56 -25 -154t33 -140q13 -18 13 -22t-4.5 -8t-11.5 -4q-19 0 -46 33.5t-44 89.5q-14 36 -17 87q-94 -88 -240 -192q-26 -18 -38 -18zM227 -2q-100 0 -160 41
t-66 103q-4 42 22 66t62 27q19 2 36 -8t19 -33q3 -19 -13 -36t-38 -18q-31 -4 -47 5v-6q0 -49 50.5 -82t132.5 -33q120 0 239 76t275 263q-133 62 -133 245q0 111 57 225.5t161.5 213.5t240.5 177t307 123t348 45q38 0 87 -7q10 -1 40.5 -4t47.5 -3q16 0 50 3.5t52 3.5
q37 0 37 -14q0 -18 -33 -19q-17 -1 -123 -1q-39 -9 -94 -31q-299 -133 -653 -647q-121 -174 -253 -308h8q106 0 223.5 53.5t216.5 141.5t164 215t65 261q0 14 2 21.5t4 8t5 0.5q12 0 12 -49q0 -138 -65 -267t-166.5 -217.5t-227 -142t-245.5 -53.5h-23q-163 -159 -327 -249
t-297 -90zM757 384q77 94 159 208q138 190 270.5 334t246.5 231.5t210.5 135.5t183.5 65q-54 8 -105 8q-100 0 -222 -36.5t-238.5 -96.5t-228 -140.5t-195 -166t-134 -176t-50.5 -167.5q0 -155 103 -199z" />
    <glyph glyph-name="Idieresis" unicode="&#xcf;" horiz-adv-x="1333" 
d="M1829 1503q-27 0 -44 17.5t-17 44.5q0 35 30.5 64.5t70.5 29.5q27 0 44 -18t17 -45q0 -36 -32 -64.5t-69 -28.5zM1530 1503q-26 0 -43 17.5t-17 44.5q0 35 29.5 64.5t69.5 29.5q28 0 44 -18t16 -45q0 -36 -31 -64.5t-68 -28.5zM227 -2q-100 0 -160 41t-66 103
q-4 42 22 66t62 27q19 2 36 -8t19 -33q3 -19 -13 -36t-38 -18q-31 -4 -47 5v-6q0 -49 50.5 -82t132.5 -33q120 0 239 76t275 263q-133 62 -133 245q0 111 57 225.5t161.5 213.5t240.5 177t307 123t348 45q38 0 87 -7q10 -1 40.5 -4t47.5 -3q16 0 50 3.5t52 3.5q37 0 37 -14
q0 -18 -33 -19q-17 -1 -123 -1q-39 -9 -94 -31q-299 -133 -653 -647q-121 -174 -253 -308h8q106 0 223.5 53.5t216.5 141.5t164 215t65 261q0 14 2 21.5t4 8t5 0.5q12 0 12 -49q0 -138 -65 -267t-166.5 -217.5t-227 -142t-245.5 -53.5h-23q-163 -159 -327 -249t-297 -90z
M757 384q77 94 159 208q138 190 270.5 334t246.5 231.5t210.5 135.5t183.5 65q-54 8 -105 8q-100 0 -222 -36.5t-238.5 -96.5t-228 -140.5t-195 -166t-134 -176t-50.5 -167.5q0 -155 103 -199z" />
    <glyph glyph-name="Eth" unicode="&#xd0;" horiz-adv-x="1623" 
d="M180 -6q-91 0 -135.5 21.5t-44.5 52.5q0 32 56 59t150 27q91 0 277 -55q2 -1 6.5 -2t6.5 -2q162 89 410 371h-118q22 17 28 34h120q83 97 113 134q14 16 55 66.5t58 70.5t53.5 63t62 70t61 63.5t71.5 69.5q65 62 147 117q-133 206 -469 206q-115 0 -231.5 -40
t-209.5 -105.5t-167 -144t-114.5 -161t-40.5 -152.5q0 -73 50.5 -116.5t139.5 -43.5q61 0 143.5 33.5t166 92t156.5 130.5t121.5 157t53.5 163q3 23 11 23q12 0 12 -21q0 -106 -56.5 -216t-147.5 -195.5t-214.5 -140t-248.5 -54.5q-96 0 -170.5 60t-74.5 151q0 88 41 177
t116.5 165t175 135t225 93t257.5 34q171 0 301.5 -53.5t210.5 -152.5q229 143 409 152q15 0 15 -10q0 -6 -5.5 -8.5t-27.5 -6.5q-177 -22 -357 -177q74 -123 74 -288q0 -179 -72 -337.5t-190.5 -268t-274 -173t-320.5 -63.5q-129 0 -308 51q-167 -55 -357 -55zM850 28
q146 0 288.5 61.5t253 166.5t178.5 257.5t68 322.5q0 151 -49 258q-114 -107 -220 -260q-158 -227 -245 -334h253q-10 -10 -16 -34h-265q-245 -294 -511 -399q128 -39 265 -39zM197 26q147 0 254 47q-145 38 -252 38q-55 0 -94.5 -6.5t-58 -16t-18.5 -20.5q0 -42 169 -42z
" />
    <glyph glyph-name="Ntilde" unicode="&#xd1;" horiz-adv-x="1483" 
d="M1709 1454q-10 0 -10 12q0 42 52 95q56 61 111 61q43 0 101 -41q67 -44 107 -44q61 0 92 76q10 18 19 18q5 0 8.5 -4t3.5 -7q0 -39 -54 -98q-26 -28 -56.5 -44t-54.5 -16t-46.5 9t-65.5 38q-60 39 -94 39q-64 0 -94 -78q-9 -16 -19 -16zM954 -19q-5 0 -9.5 4t-4.5 10
q0 8 8 13q1 1 8.5 7.5t10.5 10.5q35 43 62 114.5t79 247.5q113 374 373 821q-141 -176 -192 -238.5t-157.5 -187.5t-229.5 -261q-244 -266 -412.5 -395t-288.5 -129q-98 0 -149.5 38t-51.5 97q0 41 28.5 62.5t64.5 21.5q19 0 35 -12t16 -34q0 -19 -17 -34.5t-39 -15.5
q-32 0 -48 10v-6q0 -46 40 -73t119 -27q220 0 712 553q189 214 348.5 403.5t228.5 277t84 109.5q18 22 25 22q9 0 9 -9q0 -6 -4 -13l-14 -26q-37 -63 -65 -161q-3 -9 -26 -94.5t-44.5 -153.5t-54.5 -159q-13 -36 -25.5 -68t-28.5 -67.5t-26 -58t-30.5 -62t-29 -56.5
t-35.5 -64.5t-35.5 -63.5t-43 -76t-45.5 -80q421 512 709 808q262 272 452.5 390t362.5 120q104 0 158.5 -46t55.5 -132q2 -96 -98 -214t-254 -192q-37 -17 -56 -17q-11 0 -11 7q0 8 17 16q129 50 234 161.5t105 221.5q0 79 -42.5 122.5t-119.5 43.5q-171 0 -387 -149
t-525 -488q-147 -161 -291 -328.5t-254.5 -301t-144.5 -172.5q-40 -47 -56 -47zM508 815q-125 0 -210.5 72t-85.5 204q0 143 126 238t324 95q153 0 281 -53q24 -10 198 -90q76 -32 139 -32q37 0 76.5 15t67.5 39q17 16 23 16q3 0 5.5 -3t2.5 -5q0 -8 -14 -23
q-38 -37 -110.5 -63.5t-122.5 -26.5q-63 0 -144 23t-142 59q-111 64 -176.5 84.5t-133.5 20.5q-151 0 -259.5 -86.5t-108.5 -213.5q0 -108 71.5 -177t188.5 -69q110 0 199 67.5t89 174.5q0 40 -27 69q-17 -21 -39 -21q-20 0 -34.5 12.5t-14.5 32.5q0 18 13 31.5t36 13.5
q38 0 67.5 -37.5t29.5 -96.5q0 -117 -96 -193.5t-219 -76.5z" />
    <glyph glyph-name="Ograve" unicode="&#xd2;" horiz-adv-x="1122" 
d="M1233 1474q-11 0 -49 23q-93 57 -159 141.5t-66 141.5q0 55 43 55t55 -71q14 -102 40 -144q44 -70 124 -114q4 -3 10 -7t8 -5.5t4 -4t2 -5.5q0 -10 -12 -10zM320 -2q-123 0 -202.5 77.5t-79.5 225.5q0 122 50.5 254.5t135.5 252.5t203 229.5t248 189.5t275 127t280 47
t203 -57.5t68 -153.5q0 -37 -14.5 -88t-30.5 -75q-19 -24 -26 -24q-8 0 -8 10q0 4 10 18q14 17 27.5 66t13.5 91q0 86 -63 135.5t-191 49.5q-105 0 -232 -56t-248 -147.5t-236 -212t-201 -245t-138.5 -250.5t-52.5 -225q0 -97 56.5 -155.5t164.5 -58.5q88 0 191 40
t200.5 107.5t189.5 159t160.5 189.5t110 205t41.5 201q0 84 -44.5 126t-125.5 42q-94 0 -198.5 -57.5t-190 -151t-141.5 -224t-56 -264.5q0 -113 46 -181q7 -14 0 -18q-7 -3 -23 18q-20 26 -36.5 81t-16.5 112q0 139 55 271.5t143 228.5t201.5 154.5t226.5 58.5
q88 0 148.5 -56.5t60.5 -165.5q0 -93 -39.5 -198t-106 -204t-160.5 -190.5t-197.5 -159.5t-221.5 -108.5t-229 -40.5z" />
    <glyph glyph-name="Oacute" unicode="&#xd3;" horiz-adv-x="1122" 
d="M1188 1494q-12 0 -12 10q0 2 1 4t3 4t4.5 3.5l7.5 4.5t9 6q83 47 125 114q25 42 40 144q9 71 53 71q43 0 43 -55q0 -57 -65.5 -141.5t-159.5 -141.5q-37 -23 -49 -23zM320 -2q-123 0 -202.5 77.5t-79.5 225.5q0 122 50.5 254.5t135.5 252.5t203 229.5t248 189.5t275 127
t280 47t203 -57.5t68 -153.5q0 -37 -14.5 -88t-30.5 -75q-19 -24 -26 -24q-8 0 -8 10q0 4 10 18q14 17 27.5 66t13.5 91q0 86 -63 135.5t-191 49.5q-105 0 -232 -56t-248 -147.5t-236 -212t-201 -245t-138.5 -250.5t-52.5 -225q0 -97 56.5 -155.5t164.5 -58.5q88 0 191 40
t200.5 107.5t189.5 159t160.5 189.5t110 205t41.5 201q0 84 -44.5 126t-125.5 42q-94 0 -198.5 -57.5t-190 -151t-141.5 -224t-56 -264.5q0 -113 46 -181q7 -14 0 -18q-7 -3 -23 18q-20 26 -36.5 81t-16.5 112q0 139 55 271.5t143 228.5t201.5 154.5t226.5 58.5
q88 0 148.5 -56.5t60.5 -165.5q0 -93 -39.5 -198t-106 -204t-160.5 -190.5t-197.5 -159.5t-221.5 -108.5t-229 -40.5z" />
    <glyph glyph-name="Ocircumflex" unicode="&#xd4;" horiz-adv-x="1122" 
d="M964 1494q-6 0 -6 4q0 6 6 12t38 34q38 31 129 114.5t151 147.5q29 31 40 40t19 9t8 -8q0 -7 -5 -25q-25 -56 -25 -154t33 -140q13 -18 13 -22t-4.5 -8t-11.5 -4q-19 0 -46 33.5t-44 89.5q-14 36 -17 87q-94 -88 -240 -192q-26 -18 -38 -18zM320 -2q-123 0 -202.5 77.5
t-79.5 225.5q0 122 50.5 254.5t135.5 252.5t203 229.5t248 189.5t275 127t280 47t203 -57.5t68 -153.5q0 -37 -14.5 -88t-30.5 -75q-19 -24 -26 -24q-8 0 -8 10q0 4 10 18q14 17 27.5 66t13.5 91q0 86 -63 135.5t-191 49.5q-105 0 -232 -56t-248 -147.5t-236 -212t-201 -245
t-138.5 -250.5t-52.5 -225q0 -97 56.5 -155.5t164.5 -58.5q88 0 191 40t200.5 107.5t189.5 159t160.5 189.5t110 205t41.5 201q0 84 -44.5 126t-125.5 42q-94 0 -198.5 -57.5t-190 -151t-141.5 -224t-56 -264.5q0 -113 46 -181q7 -14 0 -18q-7 -3 -23 18q-20 26 -36.5 81
t-16.5 112q0 139 55 271.5t143 228.5t201.5 154.5t226.5 58.5q88 0 148.5 -56.5t60.5 -165.5q0 -93 -39.5 -198t-106 -204t-160.5 -190.5t-197.5 -159.5t-221.5 -108.5t-229 -40.5z" />
    <glyph glyph-name="Otilde" unicode="&#xd5;" horiz-adv-x="1122" 
d="M977 1512q-10 0 -10 12q0 42 52 95q56 61 111 61q43 0 101 -41q67 -44 107 -44q61 0 92 76q10 18 19 18q5 0 8.5 -4t3.5 -7q0 -39 -54 -98q-26 -28 -56.5 -44t-54.5 -16t-46.5 9t-65.5 38q-60 39 -94 39q-64 0 -94 -78q-9 -16 -19 -16zM320 -2q-123 0 -202.5 77.5
t-79.5 225.5q0 122 50.5 254.5t135.5 252.5t203 229.5t248 189.5t275 127t280 47t203 -57.5t68 -153.5q0 -37 -14.5 -88t-30.5 -75q-19 -24 -26 -24q-8 0 -8 10q0 4 10 18q14 17 27.5 66t13.5 91q0 86 -63 135.5t-191 49.5q-105 0 -232 -56t-248 -147.5t-236 -212t-201 -245
t-138.5 -250.5t-52.5 -225q0 -97 56.5 -155.5t164.5 -58.5q88 0 191 40t200.5 107.5t189.5 159t160.5 189.5t110 205t41.5 201q0 84 -44.5 126t-125.5 42q-94 0 -198.5 -57.5t-190 -151t-141.5 -224t-56 -264.5q0 -113 46 -181q7 -14 0 -18q-7 -3 -23 18q-20 26 -36.5 81
t-16.5 112q0 139 55 271.5t143 228.5t201.5 154.5t226.5 58.5q88 0 148.5 -56.5t60.5 -165.5q0 -93 -39.5 -198t-106 -204t-160.5 -190.5t-197.5 -159.5t-221.5 -108.5t-229 -40.5z" />
    <glyph glyph-name="Odieresis" unicode="&#xd6;" horiz-adv-x="1122" 
d="M1355 1503q-27 0 -44 17.5t-17 44.5q0 35 30.5 64.5t70.5 29.5q27 0 44 -18t17 -45q0 -36 -32 -64.5t-69 -28.5zM1056 1503q-26 0 -43 17.5t-17 44.5q0 35 29.5 64.5t69.5 29.5q28 0 44 -18t16 -45q0 -36 -31 -64.5t-68 -28.5zM320 -2q-123 0 -202.5 77.5t-79.5 225.5
q0 122 50.5 254.5t135.5 252.5t203 229.5t248 189.5t275 127t280 47t203 -57.5t68 -153.5q0 -37 -14.5 -88t-30.5 -75q-19 -24 -26 -24q-8 0 -8 10q0 4 10 18q14 17 27.5 66t13.5 91q0 86 -63 135.5t-191 49.5q-105 0 -232 -56t-248 -147.5t-236 -212t-201 -245
t-138.5 -250.5t-52.5 -225q0 -97 56.5 -155.5t164.5 -58.5q88 0 191 40t200.5 107.5t189.5 159t160.5 189.5t110 205t41.5 201q0 84 -44.5 126t-125.5 42q-94 0 -198.5 -57.5t-190 -151t-141.5 -224t-56 -264.5q0 -113 46 -181q7 -14 0 -18q-7 -3 -23 18q-20 26 -36.5 81
t-16.5 112q0 139 55 271.5t143 228.5t201.5 154.5t226.5 58.5q88 0 148.5 -56.5t60.5 -165.5q0 -93 -39.5 -198t-106 -204t-160.5 -190.5t-197.5 -159.5t-221.5 -108.5t-229 -40.5z" />
    <glyph glyph-name="multiply" unicode="&#xd7;" horiz-adv-x="693" 
d="M157 212q0 32 -17 52l297 201l-89 191q28 15 44 36l92 -195l302 205q5 -35 17 -52l-297 -201l98 -206q-19 -8 -48 -31l-97 205z" />
    <glyph glyph-name="Oslash" unicode="&#xd8;" horiz-adv-x="1463" 
d="M70 -177l136 183q-93 22 -149.5 96.5t-56.5 198.5q0 120 50.5 252t135.5 252t203 230t248 190.5t275 128t280 47.5q26 0 52 -3l142 191q9 -3 37 -3q5 0 15 2l-148 -198q83 -20 128 -73t45 -127q0 -34 -14.5 -78.5t-30.5 -67.5q-20 -24 -26 -24q-8 0 -8 11q0 3 10 17
q14 17 27.5 59t13.5 81q0 145 -164 177l-187 -251q68 -17 110 -71t42 -144q0 -93 -39.5 -198t-106 -204t-160.5 -190.5t-197.5 -159.5t-221.5 -108.5t-229 -40.5q-20 0 -30 1l-131 -176q-8 1 -22 1q-26 0 -29 -1zM224 30l792 1063q-85 0 -182.5 -48.5t-182.5 -126.5
t-151 -187.5t-88 -223.5q-6 -21 -21 -21q-10 0 -6 22q27 155 127 297.5t239.5 229t275.5 86.5h10l187 250q-28 2 -43 2q-105 0 -232 -56.5t-248 -148.5t-236 -212.5t-201 -244.5t-138.5 -250t-52.5 -224q0 -80 38.5 -134.5t112.5 -72.5zM271 23h23q88 0 191 40t200.5 107.5
t189.5 159t160.5 189.5t110 205t41.5 201q0 139 -122 163z" />
    <glyph glyph-name="Ugrave" unicode="&#xd9;" horiz-adv-x="1032" 
d="M1273 1377q-12 0 -52 23q-86 50 -149 117.5t-63 113.5q0 55 43 55t55 -71q12 -63 40 -102q37 -59 113 -100q25 -19 25 -24q-2 -12 -12 -12zM121 -2q-47 0 -72 23t-27 61q-8 231 508 727q198 187 270.5 282.5t70.5 155.5q-7 124 -202 124q-111 0 -230.5 -47t-209 -116
t-146 -150.5t-53.5 -147.5q1 -48 29 -74.5t73 -26.5q75 0 187.5 77.5t212.5 192.5t145 219q13 30 19 30q8 0 8 -18q4 -49 -36 -137q-84 -176 -227.5 -285t-283.5 -109q-72 0 -113 31.5t-43 88.5q-3 78 57.5 167.5t157 163t226 122.5t252.5 49q92 0 148 -38.5t60 -108.5
q1 -51 -19 -111t-72.5 -149.5t-157.5 -217t-260 -288.5q-210 -215 -274 -296t-62 -120q2 -49 66 -49q48 0 121 30.5t162 87.5t193 152.5t198 211.5q174 220 632 744h145q-32 -42 -283 -333.5t-335 -377.5q-146 -155 -218.5 -264.5t-69.5 -183.5q3 -66 82 -66q59 0 142.5 48
t143.5 109q5 -3 7 -17q0 -12 -5 -19q-61 -55 -145 -101t-150 -46q-47 0 -80.5 26t-34.5 72q-5 106 69 226q-201 -171 -347 -247.5t-229 -76.5z" />
    <glyph glyph-name="Uacute" unicode="&#xda;" horiz-adv-x="1032" 
d="M1236 1407q-4 0 -6.5 3t-3.5 6l-1 3q0 4 26 24q76 43 113 100q27 40 40 102q9 71 54 71q19 0 31 -14t12 -41q0 -46 -63.5 -113.5t-149.5 -117.5q-38 -23 -52 -23zM121 -2q-47 0 -72 23t-27 61q-8 231 508 727q198 187 270.5 282.5t70.5 155.5q-7 124 -202 124
q-111 0 -230.5 -47t-209 -116t-146 -150.5t-53.5 -147.5q1 -48 29 -74.5t73 -26.5q75 0 187.5 77.5t212.5 192.5t145 219q13 30 19 30q8 0 8 -18q4 -49 -36 -137q-84 -176 -227.5 -285t-283.5 -109q-72 0 -113 31.5t-43 88.5q-3 78 57.5 167.5t157 163t226 122.5t252.5 49
q92 0 148 -38.5t60 -108.5q1 -51 -19 -111t-72.5 -149.5t-157.5 -217t-260 -288.5q-210 -215 -274 -296t-62 -120q2 -49 66 -49q48 0 121 30.5t162 87.5t193 152.5t198 211.5q174 220 632 744h145q-32 -42 -283 -333.5t-335 -377.5q-146 -155 -218.5 -264.5t-69.5 -183.5
q3 -66 82 -66q59 0 142.5 48t143.5 109q5 -3 7 -17q0 -12 -5 -19q-61 -55 -145 -101t-150 -46q-47 0 -80.5 26t-34.5 72q-5 106 69 226q-201 -171 -347 -247.5t-229 -76.5z" />
    <glyph glyph-name="Ucircumflex" unicode="&#xdb;" horiz-adv-x="1032" 
d="M1434 1384q-20 0 -50 34.5t-46 91.5q-7 25 -11 57q-96 -75 -236 -163q-28 -18 -38 -18t-10 4q0 5 2 8.5t11.5 12.5t29.5 24q172 129 281 232q44 49 59 49q8 0 8 -8q0 -12 -6 -26q-25 -59 -25 -153q0 -76 33 -109q3 -5 7 -9.5t6 -7t2 -5.5q0 -4 -5 -9t-12 -5zM121 -2
q-47 0 -72 23t-27 61q-8 231 508 727q198 187 270.5 282.5t70.5 155.5q-7 124 -202 124q-111 0 -230.5 -47t-209 -116t-146 -150.5t-53.5 -147.5q1 -48 29 -74.5t73 -26.5q75 0 187.5 77.5t212.5 192.5t145 219q13 30 19 30q8 0 8 -18q4 -49 -36 -137q-84 -176 -227.5 -285
t-283.5 -109q-72 0 -113 31.5t-43 88.5q-3 78 57.5 167.5t157 163t226 122.5t252.5 49q92 0 148 -38.5t60 -108.5q1 -51 -19 -111t-72.5 -149.5t-157.5 -217t-260 -288.5q-210 -215 -274 -296t-62 -120q2 -49 66 -49q48 0 121 30.5t162 87.5t193 152.5t198 211.5
q174 220 632 744h145q-32 -42 -283 -333.5t-335 -377.5q-146 -155 -218.5 -264.5t-69.5 -183.5q3 -66 82 -66q59 0 142.5 48t143.5 109q5 -3 7 -17q0 -12 -5 -19q-61 -55 -145 -101t-150 -46q-47 0 -80.5 26t-34.5 72q-5 106 69 226q-201 -171 -347 -247.5t-229 -76.5z" />
    <glyph glyph-name="Udieresis" unicode="&#xdc;" horiz-adv-x="1032" 
d="M1409 1416q-27 0 -44 18t-17 45q0 36 29.5 64.5t70.5 28.5q28 0 45 -17.5t17 -44.5q0 -36 -32 -65t-69 -29zM1110 1416q-27 0 -44 18t-17 45q0 36 29.5 64.5t70.5 28.5q27 0 43.5 -17.5t16.5 -44.5q0 -36 -31 -65t-68 -29zM121 -2q-47 0 -72 23t-27 61q-8 231 508 727
q198 187 270.5 282.5t70.5 155.5q-7 124 -202 124q-111 0 -230.5 -47t-209 -116t-146 -150.5t-53.5 -147.5q1 -48 29 -74.5t73 -26.5q75 0 187.5 77.5t212.5 192.5t145 219q13 30 19 30q8 0 8 -18q4 -49 -36 -137q-84 -176 -227.5 -285t-283.5 -109q-72 0 -113 31.5
t-43 88.5q-3 78 57.5 167.5t157 163t226 122.5t252.5 49q92 0 148 -38.5t60 -108.5q1 -51 -19 -111t-72.5 -149.5t-157.5 -217t-260 -288.5q-210 -215 -274 -296t-62 -120q2 -49 66 -49q48 0 121 30.5t162 87.5t193 152.5t198 211.5q174 220 632 744h145
q-32 -42 -283 -333.5t-335 -377.5q-146 -155 -218.5 -264.5t-69.5 -183.5q3 -66 82 -66q59 0 142.5 48t143.5 109q5 -3 7 -17q0 -12 -5 -19q-61 -55 -145 -101t-150 -46q-47 0 -80.5 26t-34.5 72q-5 106 69 226q-201 -171 -347 -247.5t-229 -76.5z" />
    <glyph glyph-name="Yacute" unicode="&#xdd;" horiz-adv-x="1290" 
d="M1524 1463q-4 0 -6.5 3t-3.5 6l-1 3q0 4 26 24q76 43 113 100q27 40 40 102q9 71 54 71q19 0 31 -14t12 -41q0 -46 -63.5 -113.5t-149.5 -117.5q-38 -23 -52 -23zM300 -230q-116 0 -193 47.5t-77 126.5q0 42 28.5 68.5t61.5 26.5q18 0 34 -12t16 -35q0 -19 -17.5 -34
t-39.5 -15q-26 0 -40 6q-3 -11 -3 -21q0 -55 68 -93.5t168 -38.5q144 0 334 148.5t381 425.5q184 273 306 432q-222 -230 -366.5 -324t-222.5 -94q-52 0 -78.5 32t-26.5 74q0 91 90.5 235.5t227.5 284.5q149 146 193 201.5t44 86.5q0 109 -196 109q-90 0 -191 -34.5
t-189 -91t-161 -123.5t-115 -137t-42 -126q0 -85 91 -85q59 0 133.5 44t140 109t124 135.5t94.5 126.5t43 79q7 14 10 14q8 0 11 -17q7 -67 -50.5 -161.5t-144 -175.5t-188 -138.5t-175.5 -57.5q-58 0 -88 31.5t-30 86.5q0 81 68 179t171 179t236 136t252 55
q109 0 178 -36.5t69 -111.5q0 -87 -65 -193.5t-237 -264.5q-130 -127 -196.5 -212.5t-66.5 -137.5q0 -31 17 -51t50 -20q37 0 94.5 28t149 94.5t232 201.5t311.5 326q99 112 189 170.5t136 58.5q17 0 17 -12q0 -8 -16 -12l-29 -10q-123 -48 -256 -213t-286 -454
q-201 -376 -472.5 -596t-510.5 -220z" />
    <glyph glyph-name="Thorn" unicode="&#xde;" horiz-adv-x="1520" 
d="M-562 -787q-41 0 -61.5 21.5t-20.5 55.5q0 49 27 104t93 125t167.5 143t262 160.5t364.5 175.5q10 13 109 144t151 198q228 294 387 480q-108 -20 -210 -20q-194 0 -304.5 74t-110.5 203q0 110 103 201t266 140t345 49q81 0 81 -17q0 -8 -13 -8q-5 0 -29.5 2t-42.5 2
q-134 0 -289 -58t-266.5 -156.5t-111.5 -199.5q0 -89 108.5 -148t261.5 -59q115 0 248 37q132 154 236 259.5t176.5 161t121 78.5t86.5 23q33 0 53 -17t20 -43q0 -87 -81.5 -180t-216 -169.5t-293.5 -122.5q-86 -108 -185 -244l-57 -77q279 242 506 242q55 0 95 -19.5
t61.5 -52t31.5 -67.5t10 -73q0 -143 -93 -274t-243 -210t-311 -79q-77 0 -112.5 33t-35.5 74q0 50 45.5 113.5t115.5 119t165.5 93.5t185.5 38q9 0 15 -4t6 -8q0 -15 -32 -15q-75 0 -160.5 -34.5t-152.5 -85t-111.5 -109.5t-44.5 -105q0 -31 28 -56.5t90 -25.5
q82 0 180.5 52t182 133t140 189.5t56.5 210.5q0 58 -31 95.5t-92 37.5q-105 0 -268 -91.5t-312 -236.5q-213 -286 -390 -497.5t-309.5 -345.5t-243.5 -215.5t-191.5 -113t-155.5 -31.5zM1103 912q209 83 360 205t151 218q0 27 -36 27q-54 0 -178.5 -118t-296.5 -332z
M-561 -762q48 0 101.5 20.5t106 55t113 89.5t115 112t120.5 136t121.5 149t124.5 161q-123 -66 -232.5 -130t-227.5 -142t-201.5 -146.5t-138 -138t-54.5 -121.5q0 -45 52 -45z" />
    <glyph glyph-name="germandbls" unicode="&#xdf;" horiz-adv-x="1022" 
d="M-277 -222q-34 0 -62 10q104 133 177.5 233t223.5 316q378 551 481 693q245 338 393 456q115 93 213 93q79 0 126 -34.5t50 -89.5q5 -96 -67.5 -187.5t-257.5 -217.5q-111 -71 -168.5 -121.5t-71 -79t-11.5 -64.5q3 -44 31 -120q31 -88 40 -236q12 -256 -161 -367
q223 32 474 344l22 -17q-1 -1 -18.5 -22.5t-33 -39.5t-43.5 -48.5t-56.5 -55.5t-65 -55t-75 -52.5t-80.5 -42t-89 -30.5t-93 -11q-80 -34 -177 -34q-83 0 -135 38t-56 105q-3 63 28 102.5t73 39.5q50 0 52 -39q2 -25 -19.5 -41.5t-46.5 -16.5q-26 0 -44 9q-17 -24 -14 -57
q3 -49 49.5 -81.5t106.5 -32.5q74 0 130 37.5t98 122.5t54 223.5t-2 340.5q-7 72 27 119t135 121q224 182 302.5 284.5t73.5 198.5q-2 42 -25 60t-76 18q-50 0 -146.5 -99t-218.5 -265.5t-236.5 -332.5t-243 -355.5t-193.5 -278.5q-235 -310 -296 -432q-43 -8 -78 -8z" />
    <glyph glyph-name="agrave" unicode="&#xe0;" horiz-adv-x="856" 
d="M718 788q-11 0 -49 23q-93 57 -159 141.5t-66 141.5q0 55 43 55t55 -71q14 -102 40 -144q44 -70 124 -114q5 -3 10.5 -7t7.5 -5.5t4 -4t2 -5.5q0 -10 -12 -10zM103 -2q-123 0 -123 131q0 154 123 294q126 146 241.5 204t231.5 58q53 0 88.5 -22.5t35.5 -59.5
q0 -29 -12 -59q25 30 98 121q26 -8 60 -8q52 0 75 4l-337 -406q-120 -141 -120 -197q0 -32 31 -32q43 0 94 24t94 57.5t92.5 82.5t80.5 84.5t68.5 80t45.5 53.5l20 -17q-8 -9 -49 -56.5t-72.5 -83t-85 -86.5t-99 -84.5t-101 -58t-103.5 -24.5q-100 0 -100 62q0 36 22.5 76
t98.5 132l-10 4q-113 -139 -217 -206.5t-171 -67.5zM107 28q68 0 174.5 78.5t246.5 244.5q61 74 84 101q60 89 60 142q0 29 -20.5 44.5t-49.5 15.5q-57 0 -168 -76.5t-231 -219.5q-141 -169 -141 -278q0 -28 10.5 -40t34.5 -12z" />
    <glyph glyph-name="aacute" unicode="&#xe1;" horiz-adv-x="856" 
d="M673 808q-12 0 -12 10q0 2 1 4t3 4t4.5 3.5l7.5 4.5t9 6q83 47 125 114q25 42 40 144q9 71 53 71q43 0 43 -55q0 -57 -65.5 -141.5t-159.5 -141.5q-37 -23 -49 -23zM103 -2q-123 0 -123 131q0 154 123 294q126 146 241.5 204t231.5 58q53 0 88.5 -22.5t35.5 -59.5
q0 -29 -12 -59q25 30 98 121q26 -8 60 -8q52 0 75 4l-337 -406q-120 -141 -120 -197q0 -32 31 -32q43 0 94 24t94 57.5t92.5 82.5t80.5 84.5t68.5 80t45.5 53.5l20 -17q-8 -9 -49 -56.5t-72.5 -83t-85 -86.5t-99 -84.5t-101 -58t-103.5 -24.5q-100 0 -100 62q0 36 22.5 76
t98.5 132l-10 4q-113 -139 -217 -206.5t-171 -67.5zM107 28q68 0 174.5 78.5t246.5 244.5q61 74 84 101q60 89 60 142q0 29 -20.5 44.5t-49.5 15.5q-57 0 -168 -76.5t-231 -219.5q-141 -169 -141 -278q0 -28 10.5 -40t34.5 -12z" />
    <glyph glyph-name="acircumflex" unicode="&#xe2;" horiz-adv-x="856" 
d="M449 808q-6 0 -6 4q0 6 6 12t38 34q38 31 129 114.5t151 147.5q45 49 59 49q8 0 8 -8q0 -7 -5 -25q-25 -56 -25 -154t33 -140q13 -18 13 -22t-4.5 -8t-11.5 -4q-19 0 -46 33.5t-44 89.5q-14 36 -17 87q-94 -88 -240 -192q-26 -18 -38 -18zM103 -2q-123 0 -123 131
q0 154 123 294q126 146 241.5 204t231.5 58q53 0 88.5 -22.5t35.5 -59.5q0 -29 -12 -59q25 30 98 121q26 -8 60 -8q52 0 75 4l-337 -406q-120 -141 -120 -197q0 -32 31 -32q43 0 94 24t94 57.5t92.5 82.5t80.5 84.5t68.5 80t45.5 53.5l20 -17q-8 -9 -49 -56.5t-72.5 -83
t-85 -86.5t-99 -84.5t-101 -58t-103.5 -24.5q-100 0 -100 62q0 36 22.5 76t98.5 132l-10 4q-113 -139 -217 -206.5t-171 -67.5zM107 28q68 0 174.5 78.5t246.5 244.5q61 74 84 101q60 89 60 142q0 29 -20.5 44.5t-49.5 15.5q-57 0 -168 -76.5t-231 -219.5
q-141 -169 -141 -278q0 -28 10.5 -40t34.5 -12z" />
    <glyph glyph-name="atilde" unicode="&#xe3;" horiz-adv-x="856" 
d="M410 812q-10 0 -10 11q0 40 53 97q57 60 110 60q41 0 103 -42q64 -43 106 -43q61 0 92 76q10 17 18 17q12 0 12 -11q0 -39 -54 -97q-25 -29 -55.5 -44.5t-55.5 -15.5q-23 0 -45.5 9.5t-67.5 38.5q-58 37 -93 37q-63 0 -93 -76q-9 -17 -20 -17zM103 -2q-123 0 -123 131
q0 154 123 294q126 146 241.5 204t231.5 58q53 0 88.5 -22.5t35.5 -59.5q0 -29 -12 -59q25 30 98 121q26 -8 60 -8q52 0 75 4l-337 -406q-120 -141 -120 -197q0 -32 31 -32q43 0 94 24t94 57.5t92.5 82.5t80.5 84.5t68.5 80t45.5 53.5l20 -17q-8 -9 -49 -56.5t-72.5 -83
t-85 -86.5t-99 -84.5t-101 -58t-103.5 -24.5q-100 0 -100 62q0 36 22.5 76t98.5 132l-10 4q-113 -139 -217 -206.5t-171 -67.5zM107 28q68 0 174.5 78.5t246.5 244.5q61 74 84 101q60 89 60 142q0 29 -20.5 44.5t-49.5 15.5q-57 0 -168 -76.5t-231 -219.5
q-141 -169 -141 -278q0 -28 10.5 -40t34.5 -12z" />
    <glyph glyph-name="adieresis" unicode="&#xe4;" horiz-adv-x="856" 
d="M840 817q-27 0 -44 17.5t-17 44.5q0 35 30.5 64.5t70.5 29.5q27 0 44 -18t17 -45q0 -36 -32 -64.5t-69 -28.5zM541 817q-26 0 -43 17.5t-17 44.5q0 35 29.5 64.5t69.5 29.5q28 0 44 -18t16 -45q0 -36 -31 -64.5t-68 -28.5zM103 -2q-123 0 -123 131q0 154 123 294
q126 146 241.5 204t231.5 58q53 0 88.5 -22.5t35.5 -59.5q0 -29 -12 -59q25 30 98 121q26 -8 60 -8q52 0 75 4l-337 -406q-120 -141 -120 -197q0 -32 31 -32q43 0 94 24t94 57.5t92.5 82.5t80.5 84.5t68.5 80t45.5 53.5l20 -17q-8 -9 -49 -56.5t-72.5 -83t-85 -86.5
t-99 -84.5t-101 -58t-103.5 -24.5q-100 0 -100 62q0 36 22.5 76t98.5 132l-10 4q-113 -139 -217 -206.5t-171 -67.5zM107 28q68 0 174.5 78.5t246.5 244.5q61 74 84 101q60 89 60 142q0 29 -20.5 44.5t-49.5 15.5q-57 0 -168 -76.5t-231 -219.5q-141 -169 -141 -278
q0 -28 10.5 -40t34.5 -12z" />
    <glyph glyph-name="aring" unicode="&#xe5;" horiz-adv-x="856" 
d="M721 866q-60 0 -98 33.5t-38 85.5q0 83 59.5 140.5t141.5 57.5q60 0 95 -34.5t35 -89.5q0 -79 -58 -136t-137 -57zM731 897q62 0 111.5 46t49.5 108q0 47 -28.5 75t-84.5 28q-55 0 -99 -51t-44 -112q0 -40 29 -67t66 -27zM103 -2q-123 0 -123 131q0 154 123 294
q126 146 241.5 204t231.5 58q53 0 88.5 -22.5t35.5 -59.5q0 -29 -12 -59q25 30 98 121q26 -8 60 -8q52 0 75 4l-337 -406q-120 -141 -120 -197q0 -32 31 -32q43 0 94 24t94 57.5t92.5 82.5t80.5 84.5t68.5 80t45.5 53.5l20 -17q-8 -9 -49 -56.5t-72.5 -83t-85 -86.5
t-99 -84.5t-101 -58t-103.5 -24.5q-100 0 -100 62q0 36 22.5 76t98.5 132l-10 4q-113 -139 -217 -206.5t-171 -67.5zM107 28q68 0 174.5 78.5t246.5 244.5q61 74 84 101q60 89 60 142q0 29 -20.5 44.5t-49.5 15.5q-57 0 -168 -76.5t-231 -219.5q-141 -169 -141 -278
q0 -28 10.5 -40t34.5 -12z" />
    <glyph glyph-name="ae" unicode="&#xe6;" horiz-adv-x="1231" 
d="M754 -6q-92 0 -137 48t-48 128q-3 82 50 186q-124 -147 -273.5 -252.5t-242.5 -105.5q-123 0 -123 131q0 154 123 294q226 262 482 262q53 0 84 -22t31 -60q0 -6 -2 -20q44 64 57 82q28 -8 49 -8q42 0 65 4l-75 -107q82 65 166.5 98t152.5 33q106 0 112 -66
q2 -31 -22 -66t-79.5 -77t-159 -90t-247.5 -95q-59 -94 -59 -169q0 -46 31 -72.5t76 -26.5q74 0 149 26.5t132 65t111 87.5t88.5 89.5t62.5 75t34 39.5l22 -17q-7 -6 -49 -57t-93.5 -103t-122 -108t-161.5 -91.5t-184 -35.5zM740 327q198 68 309 140.5t111 137.5
q0 56 -53 56q-65 0 -140 -67.5t-187 -213.5q-5 -6 -40 -53zM108 28q147 0 410 313q50 60 116 148q38 67 38 105q0 60 -61 60q-57 0 -171 -78t-234 -220q-144 -173 -144 -276q0 -28 11 -40t35 -12z" />
    <glyph glyph-name="ccedilla" unicode="&#xe7;" horiz-adv-x="684" 
d="M207 -6h-17l-43 -59q17 5 35 5q41 0 66.5 -23t25.5 -57q0 -69 -97 -139q-49 -35 -102 -57.5t-74 -22.5q-17 0 -17 14q0 10 21 17q177 57 177 159q0 44 -68 44q-21 0 -43 -7l89 129q-79 12 -119.5 60t-40.5 117q0 137 124 285q101 118 221 173.5t219 52.5q61 -2 90 -29
t31 -64q2 -42 -32 -76t-74 -34q-25 0 -44.5 15.5t-20.5 43.5q-1 27 21.5 46t53.5 21q24 1 51 -11v4q0 58 -76 58q-141 0 -372 -302q-95 -126 -95 -228q0 -36 23 -64t60 -38l1 1l13 -4q6 -1 19 -1q58 0 117 16t108 41t97 59.5t84 68t70 69.5t54 61.5t35.5 46t16.5 21.5
l22 -17q-1 -1 -17.5 -22.5t-37 -47.5t-56 -63t-73 -72t-88 -70t-101.5 -61t-113.5 -42.5t-123.5 -16.5z" />
    <glyph glyph-name="egrave" unicode="&#xe8;" horiz-adv-x="661" 
d="M579 788q-11 0 -49 23q-93 57 -159 141.5t-66 141.5q0 55 43 55t55 -71q14 -102 40 -144q44 -70 124 -114q4 -3 10 -7t8 -5.5t4 -4t2 -5.5q0 -10 -12 -10zM185 -6q-93 0 -137.5 48t-46.5 128q-1 51 21 117t49 104q70 98 159.5 166.5t168.5 98t146 29.5q107 0 111 -66
q2 -31 -22 -66t-79 -77t-159 -90t-247 -95q-59 -94 -59 -169q0 -46 30.5 -72.5t75.5 -26.5q74 0 149 26.5t132 65t111 87.5t88.5 89.5t62.5 75t34 39.5l21 -17q-8 -7 -39.5 -44.5t-67 -78.5t-92.5 -91t-116 -89t-137.5 -65.5t-156.5 -26.5zM172 326q197 69 307.5 141.5
t110.5 137.5q0 56 -52 56q-64 0 -140 -68t-187 -213q-23 -28 -39 -54z" />
    <glyph glyph-name="eacute" unicode="&#xe9;" horiz-adv-x="661" 
d="M534 808q-12 0 -12 10q0 2 1 4t3 4t4.5 3.5l7.5 4.5t9 6q83 47 125 114q25 42 40 144q9 71 53 71q43 0 43 -55q0 -57 -65.5 -141.5t-159.5 -141.5q-37 -23 -49 -23zM185 -6q-93 0 -137.5 48t-46.5 128q-1 51 21 117t49 104q70 98 159.5 166.5t168.5 98t146 29.5
q107 0 111 -66q2 -31 -22 -66t-79 -77t-159 -90t-247 -95q-59 -94 -59 -169q0 -46 30.5 -72.5t75.5 -26.5q74 0 149 26.5t132 65t111 87.5t88.5 89.5t62.5 75t34 39.5l21 -17q-8 -7 -39.5 -44.5t-67 -78.5t-92.5 -91t-116 -89t-137.5 -65.5t-156.5 -26.5zM172 326
q197 69 307.5 141.5t110.5 137.5q0 56 -52 56q-64 0 -140 -68t-187 -213q-23 -28 -39 -54z" />
    <glyph glyph-name="ecircumflex" unicode="&#xea;" horiz-adv-x="661" 
d="M310 808q-6 0 -6 4q0 6 6 12t38 34q38 31 129 114.5t151 147.5q29 31 40 40t19 9t8 -8q0 -7 -5 -25q-25 -56 -25 -154t33 -140q13 -18 13 -22t-4.5 -8t-11.5 -4q-19 0 -46 33.5t-44 89.5q-14 36 -17 87q-94 -88 -240 -192q-26 -18 -38 -18zM185 -6q-93 0 -137.5 48
t-46.5 128q-1 51 21 117t49 104q70 98 159.5 166.5t168.5 98t146 29.5q107 0 111 -66q2 -31 -22 -66t-79 -77t-159 -90t-247 -95q-59 -94 -59 -169q0 -46 30.5 -72.5t75.5 -26.5q74 0 149 26.5t132 65t111 87.5t88.5 89.5t62.5 75t34 39.5l21 -17q-8 -7 -39.5 -44.5
t-67 -78.5t-92.5 -91t-116 -89t-137.5 -65.5t-156.5 -26.5zM172 326q197 69 307.5 141.5t110.5 137.5q0 56 -52 56q-64 0 -140 -68t-187 -213q-23 -28 -39 -54z" />
    <glyph glyph-name="edieresis" unicode="&#xeb;" horiz-adv-x="661" 
d="M701 817q-27 0 -44 17.5t-17 44.5q0 35 30.5 64.5t70.5 29.5q27 0 44 -18t17 -45q0 -36 -32 -64.5t-69 -28.5zM402 817q-26 0 -43 17.5t-17 44.5q0 35 29.5 64.5t69.5 29.5q28 0 44 -18t16 -45q0 -36 -31 -64.5t-68 -28.5zM185 -6q-93 0 -137.5 48t-46.5 128
q-1 51 21 117t49 104q70 98 159.5 166.5t168.5 98t146 29.5q107 0 111 -66q2 -31 -22 -66t-79 -77t-159 -90t-247 -95q-59 -94 -59 -169q0 -46 30.5 -72.5t75.5 -26.5q74 0 149 26.5t132 65t111 87.5t88.5 89.5t62.5 75t34 39.5l21 -17q-8 -7 -39.5 -44.5t-67 -78.5
t-92.5 -91t-116 -89t-137.5 -65.5t-156.5 -26.5zM172 326q197 69 307.5 141.5t110.5 137.5q0 56 -52 56q-64 0 -140 -68t-187 -213q-23 -28 -39 -54z" />
    <glyph glyph-name="igrave" unicode="&#xec;" horiz-adv-x="454" 
d="M581 788q-11 0 -49 23q-93 57 -159 141.5t-66 141.5q0 55 43 55t55 -71q14 -102 40 -144q44 -70 124 -114q5 -3 10.5 -7t8 -5.5t4 -4t1.5 -5.5q0 -10 -12 -10zM56 -2q-62 0 -99 22.5t-37 60.5q0 44 28 99.5t118.5 175.5t264.5 322q18 -3 96 -3q20 0 42 2
q-294 -346 -381.5 -461t-87.5 -156q0 -34 73 -34q29 0 63.5 12t69.5 34t70.5 48t70.5 58t65 61t58.5 60t47 51t34.5 38l15 19l20 -18q-3 -3 -37 -41.5t-69.5 -77.5t-91 -90.5t-107.5 -89.5t-113 -65t-113 -27z" />
    <glyph glyph-name="iacute" unicode="&#xed;" horiz-adv-x="454" 
d="M536 808q-12 0 -12 10q0 2 1 4t3 4t4.5 3.5l7.5 4.5t9 6q83 47 125 114q25 42 40 144q9 71 53 71q43 0 43 -55q0 -57 -65.5 -141.5t-159.5 -141.5q-37 -23 -49 -23zM56 -2q-62 0 -99 22.5t-37 60.5q0 44 28 99.5t118.5 175.5t264.5 322q18 -3 96 -3q20 0 42 2
q-294 -346 -381.5 -461t-87.5 -156q0 -34 73 -34q29 0 63.5 12t69.5 34t70.5 48t70.5 58t65 61t58.5 60t47 51t34.5 38l15 19l20 -18q-3 -3 -37 -41.5t-69.5 -77.5t-91 -90.5t-107.5 -89.5t-113 -65t-113 -27z" />
    <glyph glyph-name="icircumflex" unicode="&#xee;" horiz-adv-x="454" 
d="M312 808q-6 0 -6 4q0 6 6 12t38 34q38 31 129 114.5t151 147.5q29 31 40 40t19 9t8 -8q0 -7 -5 -25q-25 -56 -25 -154t33 -140q13 -18 13 -22t-4.5 -8t-11.5 -4q-19 0 -46 33.5t-44 89.5q-14 36 -17 87q-94 -88 -240 -192q-26 -18 -38 -18zM56 -2q-62 0 -99 22.5
t-37 60.5q0 44 28 99.5t118.5 175.5t264.5 322q18 -3 96 -3q20 0 42 2q-294 -346 -381.5 -461t-87.5 -156q0 -34 73 -34q29 0 63.5 12t69.5 34t70.5 48t70.5 58t65 61t58.5 60t47 51t34.5 38l15 19l20 -18q-3 -3 -37 -41.5t-69.5 -77.5t-91 -90.5t-107.5 -89.5t-113 -65
t-113 -27z" />
    <glyph glyph-name="idieresis" unicode="&#xef;" horiz-adv-x="454" 
d="M703 817q-27 0 -44 17.5t-17 44.5q0 35 30.5 64.5t70.5 29.5q27 0 44 -18t17 -45q0 -36 -32 -64.5t-69 -28.5zM404 817q-26 0 -43 17.5t-17 44.5q0 35 29.5 64.5t69.5 29.5q28 0 44 -18t16 -45q0 -36 -31 -64.5t-68 -28.5zM56 -2q-62 0 -99 22.5t-37 60.5q0 44 28 99.5
t118.5 175.5t264.5 322q18 -3 96 -3q20 0 42 2q-294 -346 -381.5 -461t-87.5 -156q0 -34 73 -34q29 0 63.5 12t69.5 34t70.5 48t70.5 58t65 61t58.5 60t47 51t34.5 38l15 19l20 -18q-3 -3 -37 -41.5t-69.5 -77.5t-91 -90.5t-107.5 -89.5t-113 -65t-113 -27z" />
    <glyph glyph-name="eth" unicode="&#xf0;" horiz-adv-x="891" 
d="M155 -2q-74 0 -114.5 43.5t-40.5 113.5q0 141 124.5 298.5t284.5 211.5q63 20 129 20q115 0 141 -92q136 240 180 440l-209 -80q0 15 -4 30l220 85q10 58 12 113q0 87 -24 154q-9 23 -9 34q0 15 12 15q7 0 11.5 -4t10.5 -18q51 -107 51 -252v-18l216 84q-1 -12 3 -31
l-221 -85q-13 -209 -123 -451t-254 -400q-47 -85 -47 -139q0 -46 57 -46q42 0 97 33t112.5 89.5t99 101.5t87 101t46.5 57l21 -17q-3 -4 -45.5 -55.5t-88.5 -101.5t-105 -107t-119.5 -92t-107.5 -35q-86 0 -86 73q0 38 16 76q-166 -149 -333 -149zM152 26q75 0 142 50.5
t172 191.5q111 149 192 288q-11 88 -99 88q-61 0 -141.5 -62.5t-193.5 -205.5q-80 -98 -111 -159.5t-31 -116.5q0 -35 19 -54.5t51 -19.5z" />
    <glyph glyph-name="ntilde" unicode="&#xf1;" horiz-adv-x="1042" 
d="M483 812q-10 0 -10 11q0 40 53 97q57 60 110 60q41 0 103 -42q64 -43 106 -43q61 0 92 76q10 17 18 17q12 0 12 -11q0 -39 -54 -97q-53 -60 -111 -60q-23 0 -45.5 9.5t-67.5 38.5q-58 37 -93 37q-63 0 -93 -76q-9 -17 -20 -17zM657 -2q-57 0 -96.5 21.5t-39.5 55.5
q0 49 39.5 119t173.5 219q139 156 139 211q0 36 -48 36t-133 -57q-184 -126 -458 -462l-93 -122q-26 5 -58 5q-55 0 -95 -10q133 191 285 407q88 125 108.5 156t21.5 45q2 29 -22 29q-39 0 -248 -262q-2 -1 -8 0.5t-10 4.5q-6 9 -3 12q19 20 64.5 76.5t79 95.5t79 73
t82.5 34q88 0 81 -72q-4 -44 -46 -103l-210 -292l5 -11q292 328 437 425q81 53 152 53q60 0 89 -29.5t28 -71.5q-2 -65 -65.5 -165.5t-220.5 -271.5q-49 -51 -60.5 -67.5t-11.5 -30.5q0 -10 20.5 -16.5t51.5 -6.5q48 0 105 26t104 63t98.5 87.5t83 87.5t63 75.5t33.5 40.5
l21 -17q-4 -4 -35.5 -43t-65.5 -78t-86.5 -90t-103 -89t-112 -64.5t-115.5 -26.5z" />
    <glyph glyph-name="ograve" unicode="&#xf2;" horiz-adv-x="752" 
d="M651 788q-11 0 -49 23q-93 57 -159 141.5t-66 141.5q0 55 43 55t55 -71q14 -102 40 -144q44 -70 124 -114q4 -3 10 -7t8 -5.5t4 -4t2 -5.5q0 -10 -12 -10zM170 -2q-80 0 -122 36.5t-47 96.5q-3 63 26.5 140t70.5 137q81 115 201 196t243 81q56 0 93 -29t41 -86
q4 -83 -33 -176t-103 -176q7 -29 45 -29q28 0 63.5 19t70.5 50.5t62.5 59t53 56.5t28.5 32l22 -17q-4 -4 -52 -54t-81.5 -81t-83 -62t-85.5 -31q-48 0 -65 30q-77 -87 -169.5 -140t-178.5 -53zM196 28q72 0 173 73q77 55 139 129v4q0 57 30 95t66 50q49 102 44 183
q-3 45 -24 66t-51 21q-118 0 -331 -266q-137 -171 -129 -268q0 -33 20.5 -60t62.5 -27z" />
    <glyph glyph-name="oacute" unicode="&#xf3;" horiz-adv-x="752" 
d="M606 808q-12 0 -12 10q0 2 1 4t3 4t4.5 3.5l7.5 4.5t9 6q83 47 125 114q25 42 40 144q9 71 53 71q43 0 43 -55q0 -57 -65.5 -141.5t-159.5 -141.5q-37 -23 -49 -23zM170 -2q-80 0 -122 36.5t-47 96.5q-3 63 26.5 140t70.5 137q81 115 201 196t243 81q56 0 93 -29t41 -86
q4 -83 -33 -176t-103 -176q7 -29 45 -29q28 0 63.5 19t70.5 50.5t62.5 59t53 56.5t28.5 32l22 -17q-4 -4 -52 -54t-81.5 -81t-83 -62t-85.5 -31q-48 0 -65 30q-77 -87 -169.5 -140t-178.5 -53zM196 28q72 0 173 73q77 55 139 129v4q0 57 30 95t66 50q49 102 44 183
q-3 45 -24 66t-51 21q-118 0 -331 -266q-137 -171 -129 -268q0 -33 20.5 -60t62.5 -27z" />
    <glyph glyph-name="ocircumflex" unicode="&#xf4;" horiz-adv-x="752" 
d="M382 808q-6 0 -6 4q0 6 6 12t38 34q38 31 129 114.5t151 147.5q29 31 40 40t19 9t8 -8q0 -7 -5 -25q-25 -56 -25 -154t33 -140q13 -18 13 -22t-4.5 -8t-11.5 -4q-19 0 -46 33.5t-44 89.5q-14 36 -17 87q-94 -88 -240 -192q-26 -18 -38 -18zM170 -2q-80 0 -122 36.5
t-47 96.5q-3 63 26.5 140t70.5 137q81 115 201 196t243 81q56 0 93 -29t41 -86q4 -83 -33 -176t-103 -176q7 -29 45 -29q28 0 63.5 19t70.5 50.5t62.5 59t53 56.5t28.5 32l22 -17q-4 -4 -52 -54t-81.5 -81t-83 -62t-85.5 -31q-48 0 -65 30q-77 -87 -169.5 -140t-178.5 -53z
M196 28q72 0 173 73q77 55 139 129v4q0 57 30 95t66 50q49 102 44 183q-3 45 -24 66t-51 21q-118 0 -331 -266q-137 -171 -129 -268q0 -33 20.5 -60t62.5 -27z" />
    <glyph glyph-name="otilde" unicode="&#xf5;" horiz-adv-x="752" 
d="M343 812q-10 0 -10 11q0 40 53 97q57 60 110 60q41 0 103 -42q64 -43 106 -43q61 0 92 76q10 17 18 17q12 0 12 -11q0 -39 -54 -97q-53 -60 -111 -60q-23 0 -45.5 9.5t-67.5 38.5q-58 37 -93 37q-63 0 -93 -76q-9 -17 -20 -17zM170 -2q-80 0 -122 36.5t-47 96.5
q-3 63 26.5 140t70.5 137q81 115 201 196t243 81q56 0 93 -29t41 -86q4 -83 -33 -176t-103 -176q7 -29 45 -29q28 0 63.5 19t70.5 50.5t62.5 59t53 56.5t28.5 32l22 -17q-4 -4 -52 -54t-81.5 -81t-83 -62t-85.5 -31q-48 0 -65 30q-77 -87 -169.5 -140t-178.5 -53zM196 28
q72 0 173 73q77 55 139 129v4q0 57 30 95t66 50q49 102 44 183q-3 45 -24 66t-51 21q-118 0 -331 -266q-137 -171 -129 -268q0 -33 20.5 -60t62.5 -27z" />
    <glyph glyph-name="odieresis" unicode="&#xf6;" horiz-adv-x="752" 
d="M773 817q-27 0 -44 17.5t-17 44.5q0 35 30.5 64.5t70.5 29.5q27 0 44 -18t17 -45q0 -36 -32 -64.5t-69 -28.5zM474 817q-26 0 -43 17.5t-17 44.5q0 35 29.5 64.5t69.5 29.5q28 0 44 -18t16 -45q0 -36 -31 -64.5t-68 -28.5zM170 -2q-80 0 -122 36.5t-47 96.5
q-3 63 26.5 140t70.5 137q81 115 201 196t243 81q56 0 93 -29t41 -86q4 -83 -33 -176t-103 -176q7 -29 45 -29q28 0 63.5 19t70.5 50.5t62.5 59t53 56.5t28.5 32l22 -17q-4 -4 -52 -54t-81.5 -81t-83 -62t-85.5 -31q-48 0 -65 30q-77 -87 -169.5 -140t-178.5 -53zM196 28
q72 0 173 73q77 55 139 129v4q0 57 30 95t66 50q49 102 44 183q-3 45 -24 66t-51 21q-118 0 -331 -266q-137 -171 -129 -268q0 -33 20.5 -60t62.5 -27z" />
    <glyph glyph-name="divide" unicode="&#xf7;" horiz-adv-x="656" 
d="M547 657q-28 0 -46.5 19t-18.5 49q0 39 33 70t77 31q31 0 49 -19t18 -50q0 -38 -35.5 -69t-76.5 -31zM120 462q8 9 13.5 18t11.5 20.5t9 17.5h572q-24 -36 -28 -56h-578zM280 152q-28 0 -47 20t-19 49q0 38 34 70t77 32q30 0 47.5 -19t17.5 -50q0 -38 -34.5 -70
t-75.5 -32z" />
    <glyph glyph-name="oslash" unicode="&#xf8;" horiz-adv-x="893" 
d="M0 -169l128 171q-110 22 -119 129q-3 63 26.5 140t70.5 137q81 115 201 196t243 81q43 0 75 -17l159 212q6 -2 27 -2h16l-174 -231q28 -32 31 -77q4 -83 -33 -176t-103 -176q7 -29 45 -29q28 0 63.5 19t70.5 50.5t62.5 59t53 56.5t28.5 32l22 -17q-4 -4 -52 -54
t-81.5 -81t-83 -62t-85.5 -31q-48 0 -65 30q-77 -87 -169.5 -140t-178.5 -53q-3 0 -7.5 0.5t-6.5 0.5l-126 -168q-9 1 -22 1q-11 0 -16 -1zM157 41l451 603q-15 5 -27 5q-118 0 -331 -266q-137 -171 -129 -268q0 -49 36 -74zM204 28q72 0 173 73q77 55 139 129v4q0 57 30 95
t66 50q49 102 44 183q-3 39 -21 62l-448 -595q5 -1 17 -1z" />
    <glyph glyph-name="ugrave" unicode="&#xf9;" horiz-adv-x="885" 
d="M754 788q-11 0 -49 23q-93 57 -159 141.5t-66 141.5q0 55 43 55t55 -71q14 -102 40 -144q44 -70 124 -114q5 -3 10.5 -7t7.5 -5.5t4 -4t2 -5.5q0 -10 -12 -10zM63 -2q-61 0 -91 29.5t-31 71.5q-3 68 48.5 149.5t177.5 228.5q10 12 71.5 87.5t98.5 114.5q34 -6 80 -6
q55 0 72 3q-126 -135 -322 -375q-2 -3 -39 -46.5t-53 -66t-34.5 -61t-17.5 -68.5q0 -36 48 -36q25 0 67 14t86 43q160 108 337 326q26 32 62 75q40 50 165 198q63 -6 80 -6q46 0 72 3q-41 -45 -101 -116t-105.5 -126.5t-114.5 -141t-93 -114.5q-47 -55 -60 -76t-13 -40
q1 -11 3 -17t14.5 -12.5t34.5 -6.5q42 0 96 26t102.5 63.5t101.5 87t88 87.5t68.5 75.5t36.5 40.5l20 -17q-3 -3 -39 -43t-71.5 -78t-92 -89.5t-106.5 -89t-107.5 -64.5t-103.5 -27q-41 0 -67.5 23t-27.5 62q-3 71 50 163q-125 -135 -224 -195q-88 -53 -166 -53z" />
    <glyph glyph-name="uacute" unicode="&#xfa;" horiz-adv-x="885" 
d="M709 808q-12 0 -12 10q0 2 1 4t3 4t4.5 3.5l7.5 4.5t9 6q83 47 125 114q25 42 40 144q9 71 53 71q43 0 43 -55q0 -57 -65.5 -141.5t-159.5 -141.5q-37 -23 -49 -23zM63 -2q-61 0 -91 29.5t-31 71.5q-3 68 48.5 149.5t177.5 228.5q10 12 71.5 87.5t98.5 114.5q34 -6 80 -6
q55 0 72 3q-126 -135 -322 -375q-2 -3 -39 -46.5t-53 -66t-34.5 -61t-17.5 -68.5q0 -36 48 -36q25 0 67 14t86 43q160 108 337 326q26 32 62 75q40 50 165 198q63 -6 80 -6q46 0 72 3q-41 -45 -101 -116t-105.5 -126.5t-114.5 -141t-93 -114.5q-47 -55 -60 -76t-13 -40
q1 -11 3 -17t14.5 -12.5t34.5 -6.5q42 0 96 26t102.5 63.5t101.5 87t88 87.5t68.5 75.5t36.5 40.5l20 -17q-3 -3 -39 -43t-71.5 -78t-92 -89.5t-106.5 -89t-107.5 -64.5t-103.5 -27q-41 0 -67.5 23t-27.5 62q-3 71 50 163q-125 -135 -224 -195q-88 -53 -166 -53z" />
    <glyph glyph-name="ucircumflex" unicode="&#xfb;" horiz-adv-x="885" 
d="M485 808q-6 0 -6 4q0 6 6 12t38 34q38 31 129 114.5t151 147.5q45 49 59 49q8 0 8 -8q0 -7 -5 -25q-25 -56 -25 -154t33 -140q13 -18 13 -22t-4.5 -8t-11.5 -4q-19 0 -46 33.5t-44 89.5q-14 36 -17 87q-94 -88 -240 -192q-26 -18 -38 -18zM63 -2q-61 0 -91 29.5t-31 71.5
q-3 68 48.5 149.5t177.5 228.5q10 12 71.5 87.5t98.5 114.5q34 -6 80 -6q55 0 72 3q-126 -135 -322 -375q-2 -3 -39 -46.5t-53 -66t-34.5 -61t-17.5 -68.5q0 -36 48 -36q25 0 67 14t86 43q160 108 337 326q26 32 62 75q40 50 165 198q63 -6 80 -6q46 0 72 3
q-41 -45 -101 -116t-105.5 -126.5t-114.5 -141t-93 -114.5q-47 -55 -60 -76t-13 -40q1 -11 3 -17t14.5 -12.5t34.5 -6.5q42 0 96 26t102.5 63.5t101.5 87t88 87.5t68.5 75.5t36.5 40.5l20 -17q-3 -3 -39 -43t-71.5 -78t-92 -89.5t-106.5 -89t-107.5 -64.5t-103.5 -27
q-41 0 -67.5 23t-27.5 62q-3 71 50 163q-125 -135 -224 -195q-88 -53 -166 -53z" />
    <glyph glyph-name="udieresis" unicode="&#xfc;" horiz-adv-x="885" 
d="M876 817q-27 0 -44 17.5t-17 44.5q0 35 30.5 64.5t70.5 29.5q27 0 44 -18t17 -45q0 -36 -32 -64.5t-69 -28.5zM577 817q-26 0 -43 17.5t-17 44.5q0 35 29.5 64.5t69.5 29.5q28 0 44 -18t16 -45q0 -36 -31 -64.5t-68 -28.5zM63 -2q-61 0 -91 29.5t-31 71.5
q-3 68 48.5 149.5t177.5 228.5q10 12 71.5 87.5t98.5 114.5q34 -6 80 -6q55 0 72 3q-126 -135 -322 -375q-2 -3 -39 -46.5t-53 -66t-34.5 -61t-17.5 -68.5q0 -36 48 -36q25 0 67 14t86 43q160 108 337 326q26 32 62 75q40 50 165 198q63 -6 80 -6q46 0 72 3
q-41 -45 -101 -116t-105.5 -126.5t-114.5 -141t-93 -114.5q-47 -55 -60 -76t-13 -40q1 -11 3 -17t14.5 -12.5t34.5 -6.5q42 0 96 26t102.5 63.5t101.5 87t88 87.5t68.5 75.5t36.5 40.5l20 -17q-3 -3 -39 -43t-71.5 -78t-92 -89.5t-106.5 -89t-107.5 -64.5t-103.5 -27
q-41 0 -67.5 23t-27.5 62q-3 71 50 163q-125 -135 -224 -195q-88 -53 -166 -53z" />
    <glyph glyph-name="yacute" unicode="&#xfd;" horiz-adv-x="910" 
d="M704 766q-12 0 -12 10q0 2 1 4t3 4t4.5 3.5l7.5 4.5t9 6q83 47 125 114q25 42 40 144q9 71 53 71q43 0 43 -55q0 -57 -65.5 -141.5t-159.5 -141.5q-37 -23 -49 -23zM-468 -787q-40 0 -63.5 20.5t-23.5 46.5q0 42 34 87t113.5 102t219 127.5t341.5 155.5q120 148 407 516
l-11 4q-98 -104 -238 -189t-252 -85q-55 0 -83.5 22t-28.5 61q0 55 32.5 119.5t138.5 214.5q52 64 250 264q63 -6 86 -6q44 0 71 3q-63 -56 -104.5 -99t-88 -96.5t-73.5 -82.5q-9 -10 -47.5 -52.5t-66 -74.5t-60.5 -73.5t-51 -74.5t-18 -53q0 -46 51 -46q125 0 267 101
t257 241q129 142 265 310q33 -7 62 -7q49 0 72 4l-348 -429q-193 -261 -329 -435q254 122 371 225t326 358q8 9 12 14l21 -17q-67 -80 -97.5 -116t-82 -94t-79.5 -85t-76 -70t-85.5 -67.5t-93.5 -59.5t-115.5 -65.5t-135.5 -66.5q-141 -178 -242.5 -286t-188.5 -167.5
t-156 -79t-159 -19.5zM-464 -760q78 0 149.5 37.5t172.5 138t260 293.5q-344 -147 -492.5 -246t-148.5 -183q0 -14 15.5 -27t43.5 -13z" />
    <glyph glyph-name="thorn" unicode="&#xfe;" horiz-adv-x="859" 
d="M-652 -709q-46 0 -73 9q77 97 191 246t191.5 252.5t221.5 297t180 241.5q318 425 938 1242q58 -6 95 -6q29 0 57 7q-164 -191 -351 -430t-399 -521t-274 -363l8 -8q314 301 459 376q55 28 90.5 39.5t91.5 11.5q94 0 94 -83q0 -80 -70 -170.5t-232 -204.5
q-95 -68 -126.5 -100.5t-31.5 -55.5q0 -45 70 -45q38 0 80 14.5t86 45.5t78 57.5t79.5 74t66 69t61 69.5t42.5 50l21 -17q-3 -3 -36 -41.5t-51 -58.5t-58.5 -62.5t-69.5 -68t-72 -59.5t-78.5 -53.5t-76.5 -33.5t-78 -14q-57 0 -86.5 26t-29.5 73q0 147 329 391q80 58 105 88
t25 52q0 13 -12 22.5t-31 9.5q-80 0 -189 -63q-126 -72 -308 -240.5t-322 -337.5q-48 -68 -189 -264.5t-228.5 -320t-93.5 -135.5q-30 -8 -94 -8z" />
    <glyph glyph-name="ydieresis" unicode="&#xff;" horiz-adv-x="910" 
d="M871 775q-27 0 -44 17.5t-17 44.5q0 35 30.5 64.5t70.5 29.5q27 0 44 -18t17 -45q0 -36 -32 -64.5t-69 -28.5zM572 775q-26 0 -43 17.5t-17 44.5q0 35 29.5 64.5t69.5 29.5q28 0 44 -18t16 -45q0 -36 -31 -64.5t-68 -28.5zM-468 -787q-40 0 -63.5 20.5t-23.5 46.5
q0 42 34 87t113.5 102t219 127.5t341.5 155.5q120 148 407 516l-11 4q-98 -104 -238 -189t-252 -85q-55 0 -83.5 22t-28.5 61q0 55 32.5 119.5t138.5 214.5q52 64 250 264q63 -6 86 -6q44 0 71 3q-63 -56 -104.5 -99t-88 -96.5t-73.5 -82.5q-9 -10 -47.5 -52.5t-66 -74.5
t-60.5 -73.5t-51 -74.5t-18 -53q0 -46 51 -46q125 0 267 101t257 241q129 142 265 310q33 -7 62 -7q49 0 72 4l-348 -429q-193 -261 -329 -435q254 122 371 225t326 358q8 9 12 14l21 -17q-67 -80 -97.5 -116t-82 -94t-79.5 -85t-76 -70t-85.5 -67.5t-93.5 -59.5
t-115.5 -65.5t-135.5 -66.5q-141 -178 -242.5 -286t-188.5 -167.5t-156 -79t-159 -19.5zM-464 -760q78 0 149.5 37.5t172.5 138t260 293.5q-344 -147 -492.5 -246t-148.5 -183q0 -14 15.5 -27t43.5 -13z" />
    <glyph glyph-name="Amacron" unicode="&#x100;" horiz-adv-x="1628" 
d="M1884 1515q52 34 73 54h471q-41 -26 -61 -54h-483zM212 -5q-102 0 -157 41t-55 105q0 41 29 61.5t65 20.5q19 0 34.5 -11t15.5 -34q0 -20 -17 -34.5t-39 -14.5q-34 0 -48 10v-7q0 -110 180 -110q124 0 283 110q67 49 149 117q-142 53 -226 149t-89 204q-6 110 74 188.5
t220 78.5q130 0 234 -76.5t162 -199.5l27 27q337 337 527.5 492t323.5 225q126 67 195 67q18 0 18 -9q0 -5 -20 -12q-26 -8 -90.5 -89.5t-300.5 -395.5q-272 -362 -475 -631q182 54 319 171t195 271q12 30 16 30t10 -9t6 -20q-6 -80 -44.5 -144.5t-107.5 -131.5
q-156 -152 -426 -209l-171 -226q-15 1 -40.5 2.5t-45 2.5t-30.5 1q-1 0 -58 -6q42 53 148 183q8 12 11 19q-42 -2 -63 -2q-142 0 -264 38q-134 -113 -217 -164q-123 -78 -258 -78zM1070 264q723 886 956 1102q-83 -33 -149 -72q-120 -73 -300.5 -230.5t-471.5 -439.5
l-64 -62q41 -106 41 -209q0 -45 -12 -89zM676 269q124 105 328 303q-52 121 -151 194t-220 73q-95 0 -165 -70.5t-69 -164.5q0 -108 71 -198t206 -137zM957 227q35 0 70 3q23 59 23 117q0 99 -33 192q-170 -163 -306 -281q108 -31 246 -31z" />
    <glyph glyph-name="amacron" unicode="&#x101;" horiz-adv-x="856" 
d="M433 828q52 34 73 54h471q-41 -26 -61 -54h-483zM103 -2q-123 0 -123 131q0 154 123 294q126 146 241.5 204t231.5 58q53 0 88.5 -22.5t35.5 -59.5q0 -29 -12 -59q25 30 98 121q26 -8 60 -8q52 0 75 4l-337 -406q-120 -141 -120 -197q0 -32 31 -32q43 0 94 24t94 57.5
t92.5 82.5t80.5 84.5t68.5 80t45.5 53.5l20 -17q-8 -9 -49 -56.5t-72.5 -83t-85 -86.5t-99 -84.5t-101 -58t-103.5 -24.5q-100 0 -100 62q0 36 22.5 76t98.5 132l-10 4q-113 -139 -217 -206.5t-171 -67.5zM107 28q68 0 174.5 78.5t246.5 244.5q61 74 84 101q60 89 60 142
q0 29 -20.5 44.5t-49.5 15.5q-57 0 -168 -76.5t-231 -219.5q-141 -169 -141 -278q0 -28 10.5 -40t34.5 -12z" />
    <glyph glyph-name="Abreve" unicode="&#x102;" horiz-adv-x="1628" 
d="M2142 1524q-56 0 -93 29t-41 86q-2 37 4 71h28q-6 -31 -4 -63q3 -45 24 -66t51 -21q70 0 133.5 36.5t136.5 113.5h130q-79 -83 -175.5 -134.5t-193.5 -51.5zM212 -5q-102 0 -157 41t-55 105q0 41 29 61.5t65 20.5q19 0 34.5 -11t15.5 -34q0 -20 -17 -34.5t-39 -14.5
q-34 0 -48 10v-7q0 -110 180 -110q124 0 283 110q67 49 149 117q-142 53 -226 149t-89 204q-6 110 74 188.5t220 78.5q130 0 234 -76.5t162 -199.5l27 27q337 337 527.5 492t323.5 225q126 67 195 67q18 0 18 -9q0 -5 -20 -12q-26 -8 -90.5 -89.5t-300.5 -395.5
q-272 -362 -475 -631q182 54 319 171t195 271q12 30 16 30t10 -9t6 -20q-6 -80 -44.5 -144.5t-107.5 -131.5q-156 -152 -426 -209l-171 -226q-15 1 -40.5 2.5t-45 2.5t-30.5 1q-1 0 -58 -6q42 53 148 183q8 12 11 19q-42 -2 -63 -2q-142 0 -264 38q-134 -113 -217 -164
q-123 -78 -258 -78zM1070 264q723 886 956 1102q-83 -33 -149 -72q-120 -73 -300.5 -230.5t-471.5 -439.5l-64 -62q41 -106 41 -209q0 -45 -12 -89zM676 269q124 105 328 303q-52 121 -151 194t-220 73q-95 0 -165 -70.5t-69 -164.5q0 -108 71 -198t206 -137zM957 227
q35 0 70 3q23 59 23 117q0 99 -33 192q-170 -163 -306 -281q108 -31 246 -31z" />
    <glyph glyph-name="abreve" unicode="&#x103;" horiz-adv-x="856" 
d="M691 837q-56 0 -93 29t-41 86q-2 37 4 71h28q-6 -31 -4 -63q3 -45 24 -66t51 -21q70 0 133.5 36.5t136.5 113.5h130q-79 -83 -175.5 -134.5t-193.5 -51.5zM103 -2q-123 0 -123 131q0 154 123 294q126 146 241.5 204t231.5 58q53 0 88.5 -22.5t35.5 -59.5q0 -29 -12 -59
q25 30 98 121q26 -8 60 -8q52 0 75 4l-337 -406q-120 -141 -120 -197q0 -32 31 -32q43 0 94 24t94 57.5t92.5 82.5t80.5 84.5t68.5 80t45.5 53.5l20 -17q-8 -9 -49 -56.5t-72.5 -83t-85 -86.5t-99 -84.5t-101 -58t-103.5 -24.5q-100 0 -100 62q0 36 22.5 76t98.5 132l-10 4
q-113 -139 -217 -206.5t-171 -67.5zM107 28q68 0 174.5 78.5t246.5 244.5q61 74 84 101q60 89 60 142q0 29 -20.5 44.5t-49.5 15.5q-57 0 -168 -76.5t-231 -219.5q-141 -169 -141 -278q0 -28 10.5 -40t34.5 -12z" />
    <glyph glyph-name="Aogonek" unicode="&#x104;" horiz-adv-x="1628" 
d="M212 -5q-102 0 -157 41t-55 105q0 41 29 61.5t65 20.5q19 0 34.5 -11t15.5 -34q0 -20 -17 -34.5t-39 -14.5q-34 0 -48 10v-7q0 -110 180 -110q124 0 283 110q67 49 149 117q-142 53 -226 149t-89 204q-6 110 74 188.5t220 78.5q130 0 234 -76.5t162 -199.5l27 27
q337 337 527.5 492t323.5 225q126 67 195 67q18 0 18 -9q0 -5 -20 -12q-26 -8 -90.5 -89.5t-300.5 -395.5q-272 -362 -475 -631q182 54 319 171t195 271q12 30 16 30t10 -9t6 -20q-6 -80 -44.5 -144.5t-107.5 -131.5q-156 -152 -426 -209l-171 -226q-10 0 -15 1
q-1 -5 -20 -12q-86 -28 -131.5 -71t-45.5 -98q0 -44 68 -44q21 0 43 7l-54 -67q-17 -5 -57 -5q-41 0 -66.5 23t-25.5 57q0 69 97 139q68 48 150 73q-34 3 -59 3q-1 0 -58 -6q42 53 148 183q8 12 11 19q-42 -2 -63 -2q-142 0 -264 38q-134 -113 -217 -164q-123 -78 -258 -78z
M1070 264q723 886 956 1102q-83 -33 -149 -72q-120 -73 -300.5 -230.5t-471.5 -439.5l-64 -62q41 -106 41 -209q0 -45 -12 -89zM676 269q124 105 328 303q-52 121 -151 194t-220 73q-95 0 -165 -70.5t-69 -164.5q0 -108 71 -198t206 -137zM957 227q35 0 70 3q23 59 23 117
q0 99 -33 192q-170 -163 -306 -281q108 -31 246 -31z" />
    <glyph glyph-name="aogonek" unicode="&#x105;" horiz-adv-x="856" 
d="M103 -2q-123 0 -123 131q0 154 123 294q126 146 241.5 204t231.5 58q53 0 88.5 -22.5t35.5 -59.5q0 -29 -12 -59q25 30 98 121q26 -8 60 -8q52 0 75 4l-337 -406q-120 -141 -120 -197q0 -32 31 -32q43 0 94 24t94 57.5t92.5 82.5t80.5 84.5t68.5 80t45.5 53.5l20 -17
q-9 -10 -45.5 -53t-65.5 -76t-77.5 -81t-90.5 -81.5t-94 -61.5t-98 -36q-2 -8 -21 -14q-86 -28 -131.5 -71t-45.5 -98q0 -44 68 -44q21 0 43 7l-54 -67q-17 -5 -57 -5q-41 0 -66.5 23t-25.5 57q0 69 97 139q61 43 138 69q-84 6 -84 62q0 36 22.5 76t98.5 132l-10 4
q-113 -139 -217 -206.5t-171 -67.5zM107 28q68 0 174.5 78.5t246.5 244.5q61 74 84 101q60 89 60 142q0 29 -20.5 44.5t-49.5 15.5q-57 0 -168 -76.5t-231 -219.5q-141 -169 -141 -278q0 -28 10.5 -40t34.5 -12z" />
    <glyph glyph-name="Cacute" unicode="&#x106;" horiz-adv-x="1286" 
d="M1640 1494q-12 0 -12 10q0 2 1 4t3 4t4.5 3.5l7.5 4.5t9 6q83 47 125 114q25 42 40 144q9 71 53 71q43 0 43 -55q0 -57 -65.5 -141.5t-159.5 -141.5q-37 -23 -49 -23zM611 -262q-13 0 -31 33t-33.5 96.5t-18.5 133.5q-95 13 -154 77.5t-59 172.5q0 234 213 508
q-111 25 -169.5 95.5t-58.5 165.5q0 74 58 154t151 144.5t222.5 106.5t261.5 42q81 0 81 -17q0 -8 -13 -8q-5 0 -29.5 2t-43.5 2q-99 0 -213 -39t-209.5 -101.5t-159 -150.5t-63.5 -176q0 -66 54 -121t149 -76q209 258 514.5 438.5t555.5 180.5q100 0 100 -74
q0 -83 -100.5 -183.5t-249.5 -184t-333.5 -143.5t-341.5 -68q-142 -155 -225.5 -295.5t-83.5 -239.5q0 -77 38.5 -123.5t107.5 -60.5q0 134 51.5 264t134 226t190.5 155t217 59q83 0 128 -38t45 -102q0 -69 -35.5 -149.5t-102.5 -159t-153.5 -143t-199 -104t-228.5 -39.5
q-12 0 -18 1q7 -176 59 -243q4 -6 4 -13q0 -5 -9 -5zM716 775q133 14 306.5 79t320 148t248 173t101.5 149q0 53 -78 53q-144 0 -407.5 -180t-490.5 -422zM586 24q96 0 209 68t201 163.5t147 199t59 173.5q0 41 -22 59.5t-70 18.5q-85 0 -182 -54t-179.5 -143t-137 -218
t-54.5 -265v-1q9 -1 29 -1z" />
    <glyph glyph-name="cacute" unicode="&#x107;" horiz-adv-x="684" 
d="M578 808q-12 0 -12 10q0 2 1 4t3 4t4.5 3.5l7.5 4.5t9 6q83 47 125 114q25 42 40 144q9 71 53 71q43 0 43 -55q0 -57 -65.5 -141.5t-159.5 -141.5q-37 -23 -49 -23zM207 -6q-102 0 -154.5 50.5t-52.5 129.5q0 137 124 285q101 118 221 173.5t219 52.5q61 -2 90 -29
t31 -64q2 -42 -32 -76t-74 -34q-25 0 -44.5 15.5t-20.5 43.5q-1 27 21.5 46t53.5 21q24 1 51 -11v4q0 58 -76 58q-141 0 -372 -302q-95 -126 -95 -228q0 -44 33 -75t83 -31q58 0 117 16t108 41t97 59.5t84 68t70 69.5t54 61.5t35.5 46t16.5 21.5l22 -17q-1 -1 -17.5 -22.5
t-37 -47.5t-56 -63t-73 -72t-88 -70t-101.5 -61t-113.5 -42.5t-123.5 -16.5z" />
    <glyph glyph-name="Ccircumflex" unicode="&#x108;" horiz-adv-x="1286" 
d="M1820 1494q-20 0 -50 34.5t-46 91.5q-7 25 -11 57q-96 -75 -236 -163q-28 -18 -38 -18t-10 4q0 5 2 8.5t11.5 12.5t29.5 24q172 129 281 232q44 49 59 49q8 0 8 -8q0 -12 -6 -26q-25 -59 -25 -153q0 -76 33 -109q3 -5 7 -9.5t6 -7t2 -5.5q0 -4 -5 -9t-12 -5zM611 -262
q-13 0 -31 33t-33.5 96.5t-18.5 133.5q-95 13 -154 77.5t-59 172.5q0 234 213 508q-111 25 -169.5 95.5t-58.5 165.5q0 74 58 154t151 144.5t222.5 106.5t261.5 42q81 0 81 -17q0 -8 -13 -8q-5 0 -29.5 2t-43.5 2q-99 0 -213 -39t-209.5 -101.5t-159 -150.5t-63.5 -176
q0 -66 54 -121t149 -76q209 258 514.5 438.5t555.5 180.5q100 0 100 -74q0 -83 -100.5 -183.5t-249.5 -184t-333.5 -143.5t-341.5 -68q-142 -155 -225.5 -295.5t-83.5 -239.5q0 -77 38.5 -123.5t107.5 -60.5q0 134 51.5 264t134 226t190.5 155t217 59q83 0 128 -38t45 -102
q0 -69 -35.5 -149.5t-102.5 -159t-153.5 -143t-199 -104t-228.5 -39.5q-12 0 -18 1q7 -176 59 -243q4 -6 4 -13q0 -5 -9 -5zM716 775q133 14 306.5 79t320 148t248 173t101.5 149q0 53 -78 53q-144 0 -407.5 -180t-490.5 -422zM586 24q96 0 209 68t201 163.5t147 199
t59 173.5q0 41 -22 59.5t-70 18.5q-85 0 -182 -54t-179.5 -143t-137 -218t-54.5 -265v-1q9 -1 29 -1z" />
    <glyph glyph-name="ccircumflex" unicode="&#x109;" horiz-adv-x="684" 
d="M354 808q-6 0 -6 4q0 6 6 12t38 34q38 31 129 114.5t151 147.5q29 31 40 40t19 9t8 -8q0 -7 -5 -25q-25 -56 -25 -154t33 -140q13 -18 13 -22t-4.5 -8t-11.5 -4q-19 0 -46 33.5t-44 89.5q-14 36 -17 87q-94 -88 -240 -192q-26 -18 -38 -18zM207 -6q-102 0 -154.5 50.5
t-52.5 129.5q0 137 124 285q101 118 221 173.5t219 52.5q61 -2 90 -29t31 -64q2 -42 -32 -76t-74 -34q-25 0 -44.5 15.5t-20.5 43.5q-1 27 21.5 46t53.5 21q24 1 51 -11v4q0 58 -76 58q-141 0 -372 -302q-95 -126 -95 -228q0 -44 33 -75t83 -31q58 0 117 16t108 41t97 59.5
t84 68t70 69.5t54 61.5t35.5 46t16.5 21.5l22 -17q-1 -1 -17.5 -22.5t-37 -47.5t-56 -63t-73 -72t-88 -70t-101.5 -61t-113.5 -42.5t-123.5 -16.5z" />
    <glyph glyph-name="Cdotaccent" unicode="&#x10a;" horiz-adv-x="1286" 
d="M1696 1524q-27 0 -44 17.5t-17 44.5q0 35 30 64.5t70 29.5q27 0 44 -18t17 -45q0 -36 -31.5 -64.5t-68.5 -28.5zM611 -262q-13 0 -31 33t-33.5 96.5t-18.5 133.5q-95 13 -154 77.5t-59 172.5q0 234 213 508q-111 25 -169.5 95.5t-58.5 165.5q0 74 58 154t151 144.5
t222.5 106.5t261.5 42q81 0 81 -17q0 -8 -13 -8q-5 0 -29.5 2t-43.5 2q-99 0 -213 -39t-209.5 -101.5t-159 -150.5t-63.5 -176q0 -66 54 -121t149 -76q209 258 514.5 438.5t555.5 180.5q100 0 100 -74q0 -83 -100.5 -183.5t-249.5 -184t-333.5 -143.5t-341.5 -68
q-142 -155 -225.5 -295.5t-83.5 -239.5q0 -77 38.5 -123.5t107.5 -60.5q0 134 51.5 264t134 226t190.5 155t217 59q83 0 128 -38t45 -102q0 -69 -35.5 -149.5t-102.5 -159t-153.5 -143t-199 -104t-228.5 -39.5q-12 0 -18 1q7 -176 59 -243q4 -6 4 -13q0 -5 -9 -5zM716 775
q133 14 306.5 79t320 148t248 173t101.5 149q0 53 -78 53q-144 0 -407.5 -180t-490.5 -422zM586 24q96 0 209 68t201 163.5t147 199t59 173.5q0 41 -22 59.5t-70 18.5q-85 0 -182 -54t-179.5 -143t-137 -218t-54.5 -265v-1q9 -1 29 -1z" />
    <glyph glyph-name="cdotaccent" unicode="&#x10b;" horiz-adv-x="684" 
d="M634 878q-27 0 -44 17.5t-17 44.5q0 35 30 64.5t70 29.5q27 0 44 -18t17 -45q0 -36 -31.5 -64.5t-68.5 -28.5zM207 -6q-102 0 -154.5 50.5t-52.5 129.5q0 137 124 285q101 118 221 173.5t219 52.5q61 -2 90 -29t31 -64q2 -42 -32 -76t-74 -34q-25 0 -44.5 15.5
t-20.5 43.5q-1 27 21.5 46t53.5 21q24 1 51 -11v4q0 58 -76 58q-141 0 -372 -302q-95 -126 -95 -228q0 -44 33 -75t83 -31q58 0 117 16t108 41t97 59.5t84 68t70 69.5t54 61.5t35.5 46t16.5 21.5l22 -17q-1 -1 -17.5 -22.5t-37 -47.5t-56 -63t-73 -72t-88 -70t-101.5 -61
t-113.5 -42.5t-123.5 -16.5z" />
    <glyph glyph-name="Ccaron" unicode="&#x10c;" horiz-adv-x="1286" 
d="M1649 1474q-9 0 -9 8q0 7 7 25q24 59 24 153q0 98 -32 141q-15 18 -15 22t4.5 8t11.5 4q20 0 47 -33t44 -90q14 -38 17 -88q97 90 241 193q24 18 36 18q6 0 6 -4q0 -6 -6.5 -13t-35.5 -33q-39 -32 -130 -115t-151 -147q-28 -31 -39 -40t-20 -9zM611 -262q-13 0 -31 33
t-33.5 96.5t-18.5 133.5q-95 13 -154 77.5t-59 172.5q0 234 213 508q-111 25 -169.5 95.5t-58.5 165.5q0 74 58 154t151 144.5t222.5 106.5t261.5 42q81 0 81 -17q0 -8 -13 -8q-5 0 -29.5 2t-43.5 2q-99 0 -213 -39t-209.5 -101.5t-159 -150.5t-63.5 -176q0 -66 54 -121
t149 -76q209 258 514.5 438.5t555.5 180.5q100 0 100 -74q0 -83 -100.5 -183.5t-249.5 -184t-333.5 -143.5t-341.5 -68q-142 -155 -225.5 -295.5t-83.5 -239.5q0 -77 38.5 -123.5t107.5 -60.5q0 134 51.5 264t134 226t190.5 155t217 59q83 0 128 -38t45 -102
q0 -69 -35.5 -149.5t-102.5 -159t-153.5 -143t-199 -104t-228.5 -39.5q-12 0 -18 1q7 -176 59 -243q4 -6 4 -13q0 -5 -9 -5zM716 775q133 14 306.5 79t320 148t248 173t101.5 149q0 53 -78 53q-144 0 -407.5 -180t-490.5 -422zM586 24q96 0 209 68t201 163.5t147 199
t59 173.5q0 41 -22 59.5t-70 18.5q-85 0 -182 -54t-179.5 -143t-137 -218t-54.5 -265v-1q9 -1 29 -1z" />
    <glyph glyph-name="ccaron" unicode="&#x10d;" horiz-adv-x="684" 
d="M587 788q-9 0 -9 8q0 7 7 25q24 59 24 153q0 98 -32 141q-15 18 -15 22t4.5 8t11.5 4q20 0 47 -33t44 -90q14 -38 17 -88q97 90 241 193q24 18 36 18q6 0 6 -4q0 -6 -6.5 -13t-35.5 -33q-39 -32 -130 -115t-151 -147q-28 -31 -39 -40t-20 -9zM207 -6q-102 0 -154.5 50.5
t-52.5 129.5q0 137 124 285q101 118 221 173.5t219 52.5q61 -2 90 -29t31 -64q2 -42 -32 -76t-74 -34q-25 0 -44.5 15.5t-20.5 43.5q-1 27 21.5 46t53.5 21q24 1 51 -11v4q0 58 -76 58q-141 0 -372 -302q-95 -126 -95 -228q0 -44 33 -75t83 -31q58 0 117 16t108 41t97 59.5
t84 68t70 69.5t54 61.5t35.5 46t16.5 21.5l22 -17q-1 -1 -17.5 -22.5t-37 -47.5t-56 -63t-73 -72t-88 -70t-101.5 -61t-113.5 -42.5t-123.5 -16.5z" />
    <glyph glyph-name="Dcaron" unicode="&#x10e;" horiz-adv-x="1623" 
d="M1571 1474q-9 0 -9 8q0 7 7 25q24 59 24 153q0 98 -32 141q-15 18 -15 22t4.5 8t11.5 4q20 0 47 -33t44 -90q14 -38 17 -88q97 90 241 193q24 18 36 18q6 0 6 -4q0 -6 -6.5 -13t-35.5 -33q-39 -32 -130 -115t-151 -147q-28 -31 -39 -40t-20 -9zM180 -6q-91 0 -135.5 21.5
t-44.5 52.5q0 32 56 59t150 27q91 0 277 -55q2 -1 6.5 -2t6.5 -2q105 57 234.5 183.5t318.5 355.5q14 16 55 66.5t58 70.5t53.5 63t62 70t61 63.5t71.5 69.5q65 62 147 117q-133 206 -469 206q-115 0 -231.5 -40t-209.5 -105.5t-167 -144t-114.5 -161t-40.5 -152.5
q0 -73 50.5 -116.5t139.5 -43.5q61 0 143.5 33.5t166 92t156.5 130.5t121.5 157t53.5 163q3 23 11 23q12 0 12 -21q0 -106 -56.5 -216t-147.5 -195.5t-214.5 -140t-248.5 -54.5q-96 0 -170.5 60t-74.5 151q0 88 41 177t116.5 165t175 135t225 93t257.5 34q171 0 301.5 -53.5
t210.5 -152.5q229 143 409 152q15 0 15 -10q0 -6 -5.5 -8.5t-27.5 -6.5q-177 -22 -357 -177q74 -123 74 -288q0 -179 -72 -337.5t-190.5 -268t-274 -173t-320.5 -63.5q-130 0 -307 51q-162 -55 -358 -55zM850 28q146 0 288.5 61.5t253 166.5t178.5 257.5t68 322.5
q0 151 -49 258q-114 -107 -220 -260q-61 -88 -99 -141.5t-97.5 -131.5t-103.5 -128t-105 -111.5t-117 -103.5t-123.5 -82.5t-138.5 -68.5q128 -39 265 -39zM197 26q147 0 254 47q-145 38 -252 38q-55 0 -94.5 -6.5t-58 -16t-18.5 -20.5q0 -42 169 -42z" />
    <glyph glyph-name="dcaron" unicode="&#x10f;" horiz-adv-x="904" 
d="M128 -2q-62 0 -94.5 34.5t-32.5 96.5q0 152 125 294q226 262 475 262q46 0 84 -22t38 -60q0 -3 -0.5 -8.5t-0.5 -8.5q459 663 706 1009q38 -16 84 -16q18 0 43 3l-950 -1332q-64 -85 -90.5 -128t-26.5 -67q0 -15 5 -21t20 -6q62 0 132 34.5t131 89t108 104t87 98t44 52.5
l22 -17q-4 -4 -48 -55.5t-94.5 -102t-116.5 -107t-140.5 -91.5t-140.5 -35q-91 0 -91 68q1 60 120 202l-8 4q-246 -274 -390 -274zM1487 1237q-3 -1 -6.5 1t-3.5 6t16 31q65 109 131 193q73 101 118 103q14 1 26.5 -7.5t12.5 -20.5q0 -22 -21.5 -50.5t-105.5 -112.5
q-150 -146 -167 -143zM135 28q87 0 248 145q109 102 171 178q19 23 116 162q23 48 23 81q0 29 -22.5 44.5t-53.5 15.5q-54 0 -160.5 -77t-228.5 -221q-143 -173 -143 -276q0 -52 50 -52z" />
    <glyph glyph-name="Dcroat" unicode="&#x110;" horiz-adv-x="1623" 
d="M180 -6q-91 0 -135.5 21.5t-44.5 52.5q0 32 56 59t150 27q91 0 277 -55q2 -1 6.5 -2t6.5 -2q162 89 410 371h-118q22 17 28 34h120q83 97 113 134q14 16 55 66.5t58 70.5t53.5 63t62 70t61 63.5t71.5 69.5q65 62 147 117q-133 206 -469 206q-115 0 -231.5 -40
t-209.5 -105.5t-167 -144t-114.5 -161t-40.5 -152.5q0 -73 50.5 -116.5t139.5 -43.5q61 0 143.5 33.5t166 92t156.5 130.5t121.5 157t53.5 163q3 23 11 23q12 0 12 -21q0 -106 -56.5 -216t-147.5 -195.5t-214.5 -140t-248.5 -54.5q-96 0 -170.5 60t-74.5 151q0 88 41 177
t116.5 165t175 135t225 93t257.5 34q171 0 301.5 -53.5t210.5 -152.5q229 143 409 152q15 0 15 -10q0 -6 -5.5 -8.5t-27.5 -6.5q-177 -22 -357 -177q74 -123 74 -288q0 -179 -72 -337.5t-190.5 -268t-274 -173t-320.5 -63.5q-129 0 -308 51q-167 -55 -357 -55zM850 28
q146 0 288.5 61.5t253 166.5t178.5 257.5t68 322.5q0 151 -49 258q-114 -107 -220 -260q-158 -227 -245 -334h253q-10 -10 -16 -34h-265q-245 -294 -511 -399q128 -39 265 -39zM197 26q147 0 254 47q-145 38 -252 38q-55 0 -94.5 -6.5t-58 -16t-18.5 -20.5q0 -42 169 -42z
" />
    <glyph glyph-name="dcroat" unicode="&#x111;" horiz-adv-x="904" 
d="M128 -2q-62 0 -94.5 34.5t-32.5 96.5q0 152 125 294q226 262 475 262q46 0 84 -22t38 -60q0 -3 -0.5 -8.5t-0.5 -8.5q276 399 411 592h-251q12 10 25 27h245q267 377 276 390q38 -16 84 -16q18 0 43 3l-269 -377h139q-7 -8 -12 -27h-146l-662 -928q-64 -85 -90.5 -128
t-26.5 -67q0 -15 5 -21t20 -6q62 0 132 34.5t131 89t108 104t87 98t44 52.5l22 -17q-4 -4 -48 -55.5t-94.5 -102t-116.5 -107t-140.5 -91.5t-140.5 -35q-91 0 -91 68q1 60 120 202l-8 4q-246 -274 -390 -274zM135 28q87 0 248 145q109 102 171 178q19 23 116 162
q23 48 23 81q0 29 -22.5 44.5t-53.5 15.5q-54 0 -160.5 -77t-228.5 -221q-143 -173 -143 -276q0 -52 50 -52z" />
    <glyph glyph-name="Emacron" unicode="&#x112;" horiz-adv-x="993" 
d="M1050 1514q52 34 73 54h471q-41 -26 -61 -54h-483zM384 -285q-11 0 -24 14q-27 29 -42 101t-18 142v29q-136 15 -216.5 86.5t-82.5 174.5q-2 96 44 185.5t125.5 156.5t192.5 107.5t239 40.5h6q-27 37 -39 85q-152 33 -252.5 105t-144.5 171q-6 11 -6 25q0 12 8 12
q11 0 21 -24q90 -205 369 -262q-1 7 -1 23q-1 90 35 172.5t97.5 143.5t140.5 106.5t165.5 68.5t170.5 23q162 0 252 -57.5t90 -160.5q0 -101 -95.5 -186.5t-255.5 -134.5t-346 -49q-91 0 -164 10q8 -37 33 -75q93 -10 146 -38t54 -61q0 -32 -52 -32q-45 0 -99.5 27t-97.5 72
q-95 -11 -193 -59.5t-172.5 -116.5t-121 -151.5t-45.5 -158.5q2 -81 52.5 -134.5t144.5 -68.5q11 119 73.5 229t161.5 179.5t205 69.5q62 0 109 -41.5t47 -96.5q0 -156 -154 -262.5t-378 -106.5q-7 0 -18.5 0.5t-17.5 0.5q-1 -10 -1 -30q0 -61 16 -131.5t41 -98.5
q10 -11 10 -15q0 -9 -12 -9zM799 842q114 0 232.5 26t218.5 72.5t163.5 118t63.5 154.5q0 70 -73.5 116.5t-195.5 46.5q-99 0 -203 -51.5t-180.5 -128t-126 -167t-49.5 -165.5v-14q63 -8 150 -8zM849 640q16 0 16 12q-1 18 -48 40t-109 26q31 -36 69 -57t72 -21zM372 22
q101 0 215.5 63.5t189.5 151.5t75 157q0 40 -30.5 63t-77.5 23q-63 0 -131 -33.5t-127.5 -91t-102 -145t-52.5 -186.5q26 -2 41 -2z" />
    <glyph glyph-name="emacron" unicode="&#x113;" horiz-adv-x="661" 
d="M294 828q52 34 73 54h471q-41 -26 -61 -54h-483zM185 -6q-93 0 -137.5 48t-46.5 128q-1 51 21 117t49 104q70 98 159.5 166.5t168.5 98t146 29.5q107 0 111 -66q2 -31 -22 -66t-79 -77t-159 -90t-247 -95q-59 -94 -59 -169q0 -46 30.5 -72.5t75.5 -26.5q74 0 149 26.5
t132 65t111 87.5t88.5 89.5t62.5 75t34 39.5l21 -17q-8 -7 -39.5 -44.5t-67 -78.5t-92.5 -91t-116 -89t-137.5 -65.5t-156.5 -26.5zM172 326q197 69 307.5 141.5t110.5 137.5q0 56 -52 56q-64 0 -140 -68t-187 -213q-23 -28 -39 -54z" />
    <glyph glyph-name="Ebreve" unicode="&#x114;" horiz-adv-x="993" 
d="M1308 1523q-56 0 -93 29t-41 86q-2 37 4 71h28q-6 -31 -4 -63q3 -45 24 -66t51 -21q70 0 133.5 36.5t136.5 113.5h130q-79 -83 -175.5 -134.5t-193.5 -51.5zM384 -285q-11 0 -24 14q-27 29 -42 101t-18 142v29q-136 15 -216.5 86.5t-82.5 174.5q-2 96 44 185.5
t125.5 156.5t192.5 107.5t239 40.5h6q-27 37 -39 85q-152 33 -252.5 105t-144.5 171q-6 11 -6 25q0 12 8 12q11 0 21 -24q90 -205 369 -262q-1 7 -1 23q-1 90 35 172.5t97.5 143.5t140.5 106.5t165.5 68.5t170.5 23q162 0 252 -57.5t90 -160.5q0 -101 -95.5 -186.5
t-255.5 -134.5t-346 -49q-91 0 -164 10q8 -37 33 -75q93 -10 146 -38t54 -61q0 -32 -52 -32q-45 0 -99.5 27t-97.5 72q-95 -11 -193 -59.5t-172.5 -116.5t-121 -151.5t-45.5 -158.5q2 -81 52.5 -134.5t144.5 -68.5q11 119 73.5 229t161.5 179.5t205 69.5q62 0 109 -41.5
t47 -96.5q0 -156 -154 -262.5t-378 -106.5q-7 0 -18.5 0.5t-17.5 0.5q-1 -10 -1 -30q0 -61 16 -131.5t41 -98.5q10 -11 10 -15q0 -9 -12 -9zM799 842q114 0 232.5 26t218.5 72.5t163.5 118t63.5 154.5q0 70 -73.5 116.5t-195.5 46.5q-99 0 -203 -51.5t-180.5 -128t-126 -167
t-49.5 -165.5v-14q63 -8 150 -8zM849 640q16 0 16 12q-1 18 -48 40t-109 26q31 -36 69 -57t72 -21zM372 22q101 0 215.5 63.5t189.5 151.5t75 157q0 40 -30.5 63t-77.5 23q-63 0 -131 -33.5t-127.5 -91t-102 -145t-52.5 -186.5q26 -2 41 -2z" />
    <glyph glyph-name="ebreve" unicode="&#x115;" horiz-adv-x="661" 
d="M552 837q-56 0 -93 29t-41 86q-2 37 4 71h28q-6 -31 -4 -63q3 -45 24 -66t51 -21q70 0 133.5 36.5t136.5 113.5h130q-79 -83 -175.5 -134.5t-193.5 -51.5zM185 -6q-93 0 -137.5 48t-46.5 128q-1 51 21 117t49 104q70 98 159.5 166.5t168.5 98t146 29.5q107 0 111 -66
q2 -31 -22 -66t-79 -77t-159 -90t-247 -95q-59 -94 -59 -169q0 -46 30.5 -72.5t75.5 -26.5q74 0 149 26.5t132 65t111 87.5t88.5 89.5t62.5 75t34 39.5l21 -17q-8 -7 -39.5 -44.5t-67 -78.5t-92.5 -91t-116 -89t-137.5 -65.5t-156.5 -26.5zM172 326q197 69 307.5 141.5
t110.5 137.5q0 56 -52 56q-64 0 -140 -68t-187 -213q-23 -28 -39 -54z" />
    <glyph glyph-name="Edotaccent" unicode="&#x116;" horiz-adv-x="993" 
d="M1346 1524q-27 0 -44 17.5t-17 44.5q0 35 30 64.5t70 29.5q27 0 44 -18t17 -45q0 -36 -31.5 -64.5t-68.5 -28.5zM384 -285q-11 0 -24 14q-27 29 -42 101t-18 142v29q-136 15 -216.5 86.5t-82.5 174.5q-2 96 44 185.5t125.5 156.5t192.5 107.5t239 40.5h6q-27 37 -39 85
q-152 33 -252.5 105t-144.5 171q-6 11 -6 25q0 12 8 12q11 0 21 -24q90 -205 369 -262q-1 7 -1 23q-1 90 35 172.5t97.5 143.5t140.5 106.5t165.5 68.5t170.5 23q162 0 252 -57.5t90 -160.5q0 -101 -95.5 -186.5t-255.5 -134.5t-346 -49q-91 0 -164 10q8 -37 33 -75
q93 -10 146 -38t54 -61q0 -32 -52 -32q-45 0 -99.5 27t-97.5 72q-95 -11 -193 -59.5t-172.5 -116.5t-121 -151.5t-45.5 -158.5q2 -81 52.5 -134.5t144.5 -68.5q11 119 73.5 229t161.5 179.5t205 69.5q62 0 109 -41.5t47 -96.5q0 -156 -154 -262.5t-378 -106.5
q-7 0 -18.5 0.5t-17.5 0.5q-1 -10 -1 -30q0 -61 16 -131.5t41 -98.5q10 -11 10 -15q0 -9 -12 -9zM799 842q114 0 232.5 26t218.5 72.5t163.5 118t63.5 154.5q0 70 -73.5 116.5t-195.5 46.5q-99 0 -203 -51.5t-180.5 -128t-126 -167t-49.5 -165.5v-14q63 -8 150 -8zM849 640
q16 0 16 12q-1 18 -48 40t-109 26q31 -36 69 -57t72 -21zM372 22q101 0 215.5 63.5t189.5 151.5t75 157q0 40 -30.5 63t-77.5 23q-63 0 -131 -33.5t-127.5 -91t-102 -145t-52.5 -186.5q26 -2 41 -2z" />
    <glyph glyph-name="edotaccent" unicode="&#x117;" horiz-adv-x="661" 
d="M590 878q-27 0 -44 17.5t-17 44.5q0 35 30 64.5t70 29.5q27 0 44 -18t17 -45q0 -36 -31.5 -64.5t-68.5 -28.5zM185 -6q-93 0 -137.5 48t-46.5 128q-1 51 21 117t49 104q70 98 159.5 166.5t168.5 98t146 29.5q107 0 111 -66q2 -31 -22 -66t-79 -77t-159 -90t-247 -95
q-59 -94 -59 -169q0 -46 30.5 -72.5t75.5 -26.5q74 0 149 26.5t132 65t111 87.5t88.5 89.5t62.5 75t34 39.5l21 -17q-8 -7 -39.5 -44.5t-67 -78.5t-92.5 -91t-116 -89t-137.5 -65.5t-156.5 -26.5zM172 326q197 69 307.5 141.5t110.5 137.5q0 56 -52 56q-64 0 -140 -68
t-187 -213q-23 -28 -39 -54z" />
    <glyph glyph-name="Eogonek" unicode="&#x118;" horiz-adv-x="993" 
d="M118 -290q-41 0 -66.5 23t-25.5 57q0 69 97 139q74 52 155 75q-127 19 -201 89.5t-76 168.5q-2 96 44 185.5t125.5 156.5t192.5 107.5t239 40.5h6q-27 37 -39 85q-152 33 -252.5 105t-144.5 171q-6 11 -6 25q0 12 8 12q11 0 21 -24q90 -205 369 -262q-1 7 -1 23
q-1 90 35 172.5t97.5 143.5t140.5 106.5t165.5 68.5t170.5 23q162 0 252 -57.5t90 -160.5q0 -101 -95.5 -186.5t-255.5 -134.5t-346 -49q-91 0 -164 10q8 -37 33 -75q93 -10 146 -38t54 -61q0 -32 -52 -32q-45 0 -99.5 27t-97.5 72q-95 -11 -193 -59.5t-172.5 -116.5
t-121 -151.5t-45.5 -158.5q2 -81 52.5 -134.5t144.5 -68.5q11 119 73.5 229t161.5 179.5t205 69.5q62 0 109 -41.5t47 -96.5q0 -156 -154 -262.5t-378 -106.5q-7 0 -18.5 0.5t-17.5 0.5q-1 -10 -1 -30q0 -61 16 -131.5t41 -98.5q10 -11 10 -15q0 -9 -12 -9q-11 0 -24 14
q-27 29 -42 101t-18 142v18l-5 -2q-86 -28 -131.5 -71t-45.5 -98q0 -44 68 -44q21 0 43 7l-54 -67q-17 -5 -57 -5zM799 842q114 0 232.5 26t218.5 72.5t163.5 118t63.5 154.5q0 70 -73.5 116.5t-195.5 46.5q-99 0 -203 -51.5t-180.5 -128t-126 -167t-49.5 -165.5v-14
q63 -8 150 -8zM849 640q16 0 16 12q-1 18 -48 40t-109 26q31 -36 69 -57t72 -21zM372 22q101 0 215.5 63.5t189.5 151.5t75 157q0 40 -30.5 63t-77.5 23q-63 0 -131 -33.5t-127.5 -91t-102 -145t-52.5 -186.5q26 -2 41 -2z" />
    <glyph glyph-name="eogonek" unicode="&#x119;" horiz-adv-x="661" 
d="M185 -6q-93 0 -137.5 48t-46.5 128q-1 51 21 117t49 104q70 98 159.5 166.5t168.5 98t146 29.5q107 0 111 -66q2 -31 -22 -66t-79 -77t-159 -90t-247 -95q-59 -94 -59 -169q0 -46 30.5 -72.5t75.5 -26.5q74 0 149 26.5t132 65t111 87.5t88.5 89.5t62.5 75t34 39.5l21 -17
q-8 -7 -40 -46t-73.5 -83.5t-95.5 -94t-125.5 -91.5t-144.5 -62q-85 -28 -129.5 -71t-44.5 -97q0 -44 68 -44q21 0 43 7l-54 -67q-17 -5 -57 -5q-41 0 -66.5 23t-25.5 57q0 69 97 139q35 24 70 41q-10 -1 -31 -1zM172 326q197 69 307.5 141.5t110.5 137.5q0 56 -52 56
q-64 0 -140 -68t-187 -213q-23 -28 -39 -54z" />
    <glyph glyph-name="Ecaron" unicode="&#x11a;" horiz-adv-x="993" 
d="M1299 1474q-9 0 -9 8q0 7 7 25q24 59 24 153q0 98 -32 141q-15 18 -15 22t4.5 8t11.5 4q20 0 47 -33t44 -90q14 -38 17 -88q97 90 241 193q24 18 36 18q6 0 6 -4q0 -6 -6.5 -13t-35.5 -33q-39 -32 -130 -115t-151 -147q-28 -31 -39 -40t-20 -9zM384 -285q-11 0 -24 14
q-27 29 -42 101t-18 142v29q-136 15 -216.5 86.5t-82.5 174.5q-2 96 44 185.5t125.5 156.5t192.5 107.5t239 40.5h6q-27 37 -39 85q-152 33 -252.5 105t-144.5 171q-6 11 -6 25q0 12 8 12q11 0 21 -24q90 -205 369 -262q-1 7 -1 23q-1 90 35 172.5t97.5 143.5t140.5 106.5
t165.5 68.5t170.5 23q162 0 252 -57.5t90 -160.5q0 -101 -95.5 -186.5t-255.5 -134.5t-346 -49q-91 0 -164 10q8 -37 33 -75q93 -10 146 -38t54 -61q0 -32 -52 -32q-45 0 -99.5 27t-97.5 72q-95 -11 -193 -59.5t-172.5 -116.5t-121 -151.5t-45.5 -158.5q2 -81 52.5 -134.5
t144.5 -68.5q11 119 73.5 229t161.5 179.5t205 69.5q62 0 109 -41.5t47 -96.5q0 -156 -154 -262.5t-378 -106.5q-7 0 -18.5 0.5t-17.5 0.5q-1 -10 -1 -30q0 -61 16 -131.5t41 -98.5q10 -11 10 -15q0 -9 -12 -9zM799 842q114 0 232.5 26t218.5 72.5t163.5 118t63.5 154.5
q0 70 -73.5 116.5t-195.5 46.5q-99 0 -203 -51.5t-180.5 -128t-126 -167t-49.5 -165.5v-14q63 -8 150 -8zM849 640q16 0 16 12q-1 18 -48 40t-109 26q31 -36 69 -57t72 -21zM372 22q101 0 215.5 63.5t189.5 151.5t75 157q0 40 -30.5 63t-77.5 23q-63 0 -131 -33.5
t-127.5 -91t-102 -145t-52.5 -186.5q26 -2 41 -2z" />
    <glyph glyph-name="ecaron" unicode="&#x11b;" horiz-adv-x="661" 
d="M543 788q-9 0 -9 8q0 7 7 25q24 59 24 153q0 98 -32 141q-15 18 -15 22t4.5 8t11.5 4q20 0 47 -33t44 -90q14 -38 17 -88q97 90 241 193q24 18 36 18q6 0 6 -4q0 -6 -6.5 -13t-35.5 -33q-39 -32 -130 -115t-151 -147q-28 -31 -39 -40t-20 -9zM185 -6q-93 0 -137.5 48
t-46.5 128q-1 51 21 117t49 104q70 98 159.5 166.5t168.5 98t146 29.5q107 0 111 -66q2 -31 -22 -66t-79 -77t-159 -90t-247 -95q-59 -94 -59 -169q0 -46 30.5 -72.5t75.5 -26.5q74 0 149 26.5t132 65t111 87.5t88.5 89.5t62.5 75t34 39.5l21 -17q-8 -7 -39.5 -44.5
t-67 -78.5t-92.5 -91t-116 -89t-137.5 -65.5t-156.5 -26.5zM172 326q197 69 307.5 141.5t110.5 137.5q0 56 -52 56q-64 0 -140 -68t-187 -213q-23 -28 -39 -54z" />
    <glyph glyph-name="Gcircumflex" unicode="&#x11c;" horiz-adv-x="1079" 
d="M1584 1494q-20 0 -50 34.5t-46 91.5q-7 25 -11 57q-96 -75 -236 -163q-28 -18 -38 -18t-10 4q0 5 2 8.5t11.5 12.5t29.5 24q172 129 281 232q44 49 59 49q8 0 8 -8q0 -12 -6 -26q-25 -59 -25 -153q0 -76 33 -109q3 -5 7 -9.5t6 -7t2 -5.5q0 -4 -5 -9t-12 -5zM242 -3
q-99 0 -170.5 42.5t-71.5 101.5q0 42 28.5 63t64.5 21q19 0 35 -11.5t16 -34.5q0 -19 -17 -34t-40 -15q-32 0 -47 9v-6q0 -48 57.5 -79t152.5 -31q126 0 257.5 98.5t312.5 340.5q88 117 233 274q-292 -207 -464 -207q-73 0 -110 25.5t-37 90.5q0 23 5 53q-38 -3 -74 -3
q-123 0 -208 48q-27 14 -27 21q0 10 11 10q3 0 13 -6q54 -28 103.5 -40.5t122.5 -12.5q30 0 63 3q27 117 131.5 248t239 234.5t286 171.5t268.5 68q64 0 92.5 -21t28.5 -66q0 -115 -172 -263t-452 -278q-159 -71 -317 -100q-32 -62 -32 -104q0 -22 18.5 -37.5t61.5 -15.5
q93 0 230 72t356 241q118 93 153 93q24 0 24 -11q0 -9 -17 -17q-57 -27 -130 -113.5t-192 -271.5q-352 -551 -786 -551zM570 739q137 33 315 123q241 127 414.5 281t173.5 220q0 54 -78 54q-72 0 -167.5 -46t-190.5 -120t-186.5 -163.5t-164.5 -181t-116 -167.5z" />
    <glyph glyph-name="gcircumflex" unicode="&#x11d;" horiz-adv-x="920" 
d="M549 808q-6 0 -6 4q0 6 6 12t38 34q38 31 129 114.5t151 147.5q45 49 59 49q8 0 8 -8q0 -7 -5 -25q-25 -56 -25 -154t33 -140q13 -18 13 -22t-4.5 -8t-11.5 -4q-19 0 -46 33.5t-44 89.5q-14 36 -17 87q-94 -88 -240 -192q-26 -18 -38 -18zM-471 -787q-40 0 -69.5 21.5
t-29.5 45.5q-2 44 30 90t110 104.5t220 131.5t349 161q107 131 403 501l-8 4q-123 -140 -228 -207t-174 -67q-122 0 -125 131q0 154 119 294q214 262 468 262q66 0 104.5 -22t39.5 -60q0 -29 -12 -59q65 81 94 121q30 -8 63 -8q51 0 74 4l-322 -415q-148 -193 -323 -414
q423 215 721 574l20 -17q-170 -204 -359.5 -348.5t-419.5 -254.5q-199 -247 -325 -369t-216 -163t-204 -41zM139 28q64 0 175.5 78t254.5 245l78 95q63 93 63 148q-1 60 -90 60q-55 0 -165.5 -78t-223.5 -220q-143 -177 -141 -276q1 -28 12.5 -40t36.5 -12zM-468 -760
q71 0 139 39.5t167 141t266 303.5q-348 -151 -494.5 -253.5t-146.5 -190.5q0 -13 20 -26.5t49 -13.5z" />
    <glyph glyph-name="Gbreve" unicode="&#x11e;" horiz-adv-x="1079" 
d="M1422 1523q-56 0 -93 29t-41 86q-2 37 4 71h28q-6 -31 -4 -63q3 -45 24 -66t51 -21q70 0 133.5 36.5t136.5 113.5h130q-79 -83 -175.5 -134.5t-193.5 -51.5zM242 -3q-99 0 -170.5 42.5t-71.5 101.5q0 42 28.5 63t64.5 21q19 0 35 -11.5t16 -34.5q0 -19 -17 -34t-40 -15
q-32 0 -47 9v-6q0 -48 57.5 -79t152.5 -31q126 0 257.5 98.5t312.5 340.5q88 117 233 274q-292 -207 -464 -207q-73 0 -110 25.5t-37 90.5q0 23 5 53q-38 -3 -74 -3q-123 0 -208 48q-27 14 -27 21q0 10 11 10q3 0 13 -6q54 -28 103.5 -40.5t122.5 -12.5q30 0 63 3
q27 117 131.5 248t239 234.5t286 171.5t268.5 68q64 0 92.5 -21t28.5 -66q0 -115 -172 -263t-452 -278q-159 -71 -317 -100q-32 -62 -32 -104q0 -22 18.5 -37.5t61.5 -15.5q93 0 230 72t356 241q118 93 153 93q24 0 24 -11q0 -9 -17 -17q-57 -27 -130 -113.5t-192 -271.5
q-352 -551 -786 -551zM570 739q137 33 315 123q241 127 414.5 281t173.5 220q0 54 -78 54q-72 0 -167.5 -46t-190.5 -120t-186.5 -163.5t-164.5 -181t-116 -167.5z" />
    <glyph glyph-name="gbreve" unicode="&#x11f;" horiz-adv-x="920" 
d="M791 837q-56 0 -93 29t-41 86q-2 37 4 71h28q-6 -31 -4 -63q3 -45 24 -66t51 -21q70 0 133.5 36.5t136.5 113.5h130q-79 -83 -175.5 -134.5t-193.5 -51.5zM-471 -787q-40 0 -69.5 21.5t-29.5 45.5q-2 44 30 90t110 104.5t220 131.5t349 161q107 131 403 501l-8 4
q-123 -140 -228 -207t-174 -67q-122 0 -125 131q0 154 119 294q214 262 468 262q66 0 104.5 -22t39.5 -60q0 -29 -12 -59q65 81 94 121q30 -8 63 -8q51 0 74 4l-322 -415q-148 -193 -323 -414q423 215 721 574l20 -17q-170 -204 -359.5 -348.5t-419.5 -254.5
q-199 -247 -325 -369t-216 -163t-204 -41zM139 28q64 0 175.5 78t254.5 245l78 95q63 93 63 148q-1 60 -90 60q-55 0 -165.5 -78t-223.5 -220q-143 -177 -141 -276q1 -28 12.5 -40t36.5 -12zM-468 -760q71 0 139 39.5t167 141t266 303.5q-348 -151 -494.5 -253.5
t-146.5 -190.5q0 -13 20 -26.5t49 -13.5z" />
    <glyph glyph-name="Gdotaccent" unicode="&#x120;" horiz-adv-x="1079" 
d="M1460 1524q-27 0 -44 17.5t-17 44.5q0 35 30 64.5t70 29.5q27 0 44 -18t17 -45q0 -36 -31.5 -64.5t-68.5 -28.5zM242 -3q-99 0 -170.5 42.5t-71.5 101.5q0 42 28.5 63t64.5 21q19 0 35 -11.5t16 -34.5q0 -19 -17 -34t-40 -15q-32 0 -47 9v-6q0 -48 57.5 -79t152.5 -31
q126 0 257.5 98.5t312.5 340.5q88 117 233 274q-292 -207 -464 -207q-73 0 -110 25.5t-37 90.5q0 23 5 53q-38 -3 -74 -3q-123 0 -208 48q-27 14 -27 21q0 10 11 10q3 0 13 -6q54 -28 103.5 -40.5t122.5 -12.5q30 0 63 3q27 117 131.5 248t239 234.5t286 171.5t268.5 68
q64 0 92.5 -21t28.5 -66q0 -115 -172 -263t-452 -278q-159 -71 -317 -100q-32 -62 -32 -104q0 -22 18.5 -37.5t61.5 -15.5q93 0 230 72t356 241q118 93 153 93q24 0 24 -11q0 -9 -17 -17q-57 -27 -130 -113.5t-192 -271.5q-352 -551 -786 -551zM570 739q137 33 315 123
q241 127 414.5 281t173.5 220q0 54 -78 54q-72 0 -167.5 -46t-190.5 -120t-186.5 -163.5t-164.5 -181t-116 -167.5z" />
    <glyph glyph-name="gdotaccent" unicode="&#x121;" horiz-adv-x="920" 
d="M829 878q-27 0 -44 17.5t-17 44.5q0 35 30 64.5t70 29.5q27 0 44 -18t17 -45q0 -36 -31.5 -64.5t-68.5 -28.5zM-471 -787q-40 0 -69.5 21.5t-29.5 45.5q-2 44 30 90t110 104.5t220 131.5t349 161q107 131 403 501l-8 4q-123 -140 -228 -207t-174 -67q-122 0 -125 131
q0 154 119 294q214 262 468 262q66 0 104.5 -22t39.5 -60q0 -29 -12 -59q65 81 94 121q30 -8 63 -8q51 0 74 4l-322 -415q-148 -193 -323 -414q423 215 721 574l20 -17q-170 -204 -359.5 -348.5t-419.5 -254.5q-199 -247 -325 -369t-216 -163t-204 -41zM139 28
q64 0 175.5 78t254.5 245l78 95q63 93 63 148q-1 60 -90 60q-55 0 -165.5 -78t-223.5 -220q-143 -177 -141 -276q1 -28 12.5 -40t36.5 -12zM-468 -760q71 0 139 39.5t167 141t266 303.5q-348 -151 -494.5 -253.5t-146.5 -190.5q0 -13 20 -26.5t49 -13.5z" />
    <glyph glyph-name="uni0122" unicode="&#x122;" horiz-adv-x="1079" 
d="M242 -3q-99 0 -170.5 42.5t-71.5 101.5q0 42 28.5 63t64.5 21q19 0 35 -11.5t16 -34.5q0 -19 -17 -34t-40 -15q-32 0 -47 9v-6q0 -48 57.5 -79t152.5 -31q126 0 257.5 98.5t312.5 340.5q88 117 233 274q-292 -207 -464 -207q-73 0 -110 25.5t-37 90.5q0 23 5 53
q-38 -3 -74 -3q-123 0 -208 48q-27 14 -27 21q0 10 11 10q3 0 13 -6q54 -28 103.5 -40.5t122.5 -12.5q30 0 63 3q27 117 131.5 248t239 234.5t286 171.5t268.5 68q64 0 92.5 -21t28.5 -66q0 -115 -172 -263t-452 -278q-159 -71 -317 -100q-32 -62 -32 -104q0 -22 18.5 -37.5
t61.5 -15.5q93 0 230 72t356 241q118 93 153 93q24 0 24 -11q0 -9 -17 -17q-57 -27 -130 -113.5t-192 -271.5q-352 -551 -786 -551zM570 739q137 33 315 123q241 127 414.5 281t173.5 220q0 54 -78 54q-72 0 -167.5 -46t-190.5 -120t-186.5 -163.5t-164.5 -181t-116 -167.5z
M-80 -442q-15 0 -15 10q0 12 25 20q58 17 110.5 75t56.5 125q3 54 22.5 85.5t54.5 31.5q46 0 46 -53q0 -99 -155 -222q-89 -72 -145 -72z" />
    <glyph glyph-name="uni0123" unicode="&#x123;" horiz-adv-x="920" 
d="M730 803q-43 0 -43 55q0 57 65.5 141.5t159.5 141.5q37 23 49 23t12 -10q0 -2 -1 -4t-3 -4t-4.5 -3.5l-7.5 -4.5t-9 -6q-83 -47 -125 -114q-25 -42 -40 -144q-9 -71 -53 -71zM-471 -787q-40 0 -69.5 21.5t-29.5 45.5q-2 44 30 90t110 104.5t220 131.5t349 161
q107 131 403 501l-8 4q-123 -140 -228 -207t-174 -67q-122 0 -125 131q0 154 119 294q214 262 468 262q66 0 104.5 -22t39.5 -60q0 -29 -12 -59q65 81 94 121q30 -8 63 -8q51 0 74 4l-322 -415q-148 -193 -323 -414q423 215 721 574l20 -17q-170 -204 -359.5 -348.5
t-419.5 -254.5q-199 -247 -325 -369t-216 -163t-204 -41zM139 28q64 0 175.5 78t254.5 245l78 95q63 93 63 148q-1 60 -90 60q-55 0 -165.5 -78t-223.5 -220q-143 -177 -141 -276q1 -28 12.5 -40t36.5 -12zM-468 -760q71 0 139 39.5t167 141t266 303.5
q-348 -151 -494.5 -253.5t-146.5 -190.5q0 -13 20 -26.5t49 -13.5z" />
    <glyph glyph-name="Hcircumflex" unicode="&#x124;" horiz-adv-x="1746" 
d="M2180 1494q-20 0 -50 34.5t-46 91.5q-7 25 -11 57q-96 -75 -236 -163q-28 -18 -38 -18t-10 4q0 5 2 8.5t11.5 12.5t29.5 24q172 129 281 232q44 49 59 49q8 0 8 -8q0 -12 -6 -26q-25 -59 -25 -153q0 -76 33 -109q3 -5 7 -9.5t6 -7t2 -5.5q0 -4 -5 -9t-12 -5zM190 -2
q-79 0 -134.5 39t-55.5 95q0 42 28.5 62.5t64.5 20.5q19 0 34.5 -11t15.5 -34q0 -19 -17 -34t-40 -15q-32 0 -47 9v-6q0 -44 43.5 -72t115.5 -28q71 0 161 44q81 39 185 140t275 315q-61 -18 -107 -33q-281 -98 -374 -240q-4 -9 -11 -9t-5 8q3 13 7 20q22 45 90.5 95.5
t143.5 89.5q90 46 281 101q201 273 397 474q-176 -109 -284 -109q-53 0 -85.5 25.5t-32.5 73.5q0 53 30 102t108 110q37 29 48 42.5t11 24.5q0 31 -33 49.5t-98 18.5q-76 0 -150.5 -28t-131.5 -81q-15 -14 -25 -14q-11 0 -11 10q0 5 18 25q57 50 137 79.5t163 29.5
t129 -30.5t46 -83.5q0 -61 -34 -114t-120 -108q-32 -20 -41 -30t-9 -25q0 -18 23 -33.5t71 -15.5q64 0 160 47.5t189 129.5q138 123 209.5 179t125.5 84q32 14 36 14q14 0 14 -7q0 -2 -21 -15q-27 -15 -73 -49q-93 -76 -203 -213t-280 -376q-22 -28 -110 -139q108 29 387 96
q18 23 51 61q220 258 486.5 454.5t391.5 196.5q43 0 66.5 -20t23.5 -51q0 -51 -63 -129.5t-171.5 -165t-277 -175.5t-356.5 -151q-164 -200 -270 -367.5t-106 -235.5q0 -49 19.5 -70.5t64.5 -21.5q114 0 234.5 128t181.5 329q3 12 11 21t13 9q8 0 11 -29q6 -54 -33 -136.5
t-102 -159.5t-151.5 -132t-172.5 -55q-59 0 -94 39t-35 90q0 218 253 540l-390 -99q-159 -192 -285.5 -312.5t-242.5 -185.5q-125 -72 -271 -72zM1585 753q160 61 314 150.5t258 175t167.5 160.5t63.5 116q0 34 -48 34q-108 0 -321 -186t-434 -450z" />
    <glyph glyph-name="hcircumflex" unicode="&#x125;" horiz-adv-x="908" 
d="M764 1494q-20 0 -50 34.5t-46 91.5q-7 25 -11 57q-96 -75 -236 -163q-28 -18 -38 -18t-10 4q0 5 2 8.5t11.5 12.5t29.5 24q172 129 281 232q44 49 59 49q8 0 8 -8q0 -12 -6 -26q-25 -59 -25 -153q0 -76 33 -109q3 -5 7 -9.5t6 -7t2 -5.5q0 -4 -5 -9t-12 -5zM520 -2
q-50 0 -91.5 22t-41.5 55q0 49 40 118.5t173 219.5q139 156 139 211q0 36 -47 36q-63 0 -149 -57q-198 -136 -460 -462l-92 -122q-26 5 -58 5q-59 0 -96 -10l1107 1581q49 -6 96 -4q7 0 43 4l-992 -1377l5 -11q274 315 438 425q83 53 167 53q60 0 90 -29.5t28 -71.5
q-3 -66 -66.5 -166.5t-220.5 -270.5q-48 -51 -59.5 -67.5t-11.5 -30.5q0 -10 21.5 -16.5t49.5 -6.5q50 0 107 26t105 64t97.5 87t82 88t62 74.5t33.5 40.5l22 -17q-3 -3 -46 -56t-90 -102.5t-110.5 -106t-136 -91.5t-138.5 -35z" />
    <glyph glyph-name="Hbar" unicode="&#x126;" horiz-adv-x="1746" 
d="M190 -2q-79 0 -134.5 39t-55.5 95q0 42 28.5 62.5t64.5 20.5q19 0 34.5 -11t15.5 -34q0 -19 -17 -34t-40 -15q-32 0 -47 9v-6q0 -44 43.5 -72t115.5 -28q71 0 161 44q65 31 143.5 102.5t199.5 220.5l-109 -27q4 6 9.5 11.5t8.5 9.5t5 11l113 28q59 74 136 175
q-61 -18 -107 -33q-281 -98 -374 -240q-4 -9 -11 -9t-5 8q4 15 6 20q22 45 91 95.5t144 89.5q90 46 281 101q57 78 115.5 147.5t87 100t85 87l63.5 63.5q-176 -109 -284 -109q-53 0 -85.5 25.5t-32.5 73.5q0 53 30 102t108 110q37 29 48 42.5t11 24.5q0 31 -33 49.5
t-98 18.5q-76 0 -150.5 -28t-131.5 -81q-15 -14 -25 -14q-11 0 -11 10q0 5 18 25q57 50 137 79.5t163 29.5t129 -30.5t46 -83.5q0 -61 -34 -114t-120 -108q-32 -20 -41 -30t-9 -25q0 -18 23 -33.5t71 -15.5q64 0 160 47.5t189 129.5q138 123 209.5 179t125.5 84q32 14 36 14
q14 0 14 -7q0 -2 -21 -15q-27 -15 -73 -49q-63 -51 -145 -144.5t-135 -162t-157 -206.5q-22 -28 -110 -139q12 3 147.5 31.5t239.5 64.5q27 33 52 60q124 136 287 269.5t314 220t230 86.5q43 0 66.5 -20t23.5 -51q0 -40 -38.5 -98t-113.5 -123.5t-172 -127.5t-228.5 -115
t-269.5 -81q-85 -110 -140 -186l462 116q-2 -5 -11 -15t-10 -20l-466 -116q-257 -357 -257 -458q0 -49 19.5 -70.5t64.5 -21.5q114 0 234.5 128t181.5 329q3 12 11 21t13 9q8 0 11 -29q6 -54 -33 -136.5t-102 -159.5t-151.5 -132t-172.5 -55q-59 0 -94 39t-35 90
q0 163 155 408l-419 -104q-119 -139 -214.5 -224.5t-186.5 -136.5q-125 -72 -271 -72zM1631 829q143 34 287.5 107t244 152t162.5 152.5t63 114.5q0 34 -48 34q-72 0 -203.5 -92.5t-256 -211.5t-249.5 -256zM1035 644q-81 -105 -144 -179l411 103q61 92 123 175
q-74 -24 -139 -40.5t-136.5 -32t-114.5 -26.5z" />
    <glyph glyph-name="hbar" unicode="&#x127;" horiz-adv-x="908" 
d="M520 -2q-50 0 -91.5 22t-41.5 55q0 49 40 118.5t173 219.5q139 156 139 211q0 36 -47 36q-63 0 -149 -57q-198 -136 -460 -462l-92 -122q-26 5 -58 5q-59 0 -96 -10l815 1164h-127q12 10 25 27h121l273 390q49 -6 96 -4q7 0 43 4l-281 -390h266q-7 -8 -12 -27h-274
l-691 -960l5 -11q274 315 438 425q83 53 167 53q60 0 90 -29.5t28 -71.5q-3 -66 -66.5 -166.5t-220.5 -270.5q-48 -51 -59.5 -67.5t-11.5 -30.5q0 -10 21.5 -16.5t49.5 -6.5q50 0 107 26t105 64t97.5 87t82 88t62 74.5t33.5 40.5l22 -17q-3 -3 -46 -56t-90 -102.5
t-110.5 -106t-136 -91.5t-138.5 -35z" />
    <glyph glyph-name="Itilde" unicode="&#x128;" horiz-adv-x="1333" 
d="M1399 1498q-10 0 -10 11q0 40 53 97q57 60 110 60q41 0 103 -42q64 -43 106 -43q61 0 92 76q10 17 18 17q12 0 12 -11q0 -39 -54 -97q-53 -60 -111 -60q-23 0 -45.5 9.5t-67.5 38.5q-58 37 -93 37q-63 0 -93 -76q-9 -17 -20 -17zM227 -2q-100 0 -160 41t-66 103
q-4 42 22 66t62 27q19 2 36 -8t19 -33q3 -19 -13 -36t-38 -18q-31 -4 -47 5v-6q0 -49 50.5 -82t132.5 -33q120 0 239 76t275 263q-133 62 -133 245q0 111 57 225.5t161.5 213.5t240.5 177t307 123t348 45q38 0 87 -7q10 -1 40.5 -4t47.5 -3q16 0 50 3.5t52 3.5q37 0 37 -14
q0 -18 -33 -19q-17 -1 -123 -1q-39 -9 -94 -31q-299 -133 -653 -647q-121 -174 -253 -308h8q106 0 223.5 53.5t216.5 141.5t164 215t65 261q0 14 2 21.5t4 8t5 0.5q12 0 12 -49q0 -138 -65 -267t-166.5 -217.5t-227 -142t-245.5 -53.5h-23q-163 -159 -327 -249t-297 -90z
M757 384q77 94 159 208q138 190 270.5 334t246.5 231.5t210.5 135.5t183.5 65q-54 8 -105 8q-100 0 -222 -36.5t-238.5 -96.5t-228 -140.5t-195 -166t-134 -176t-50.5 -167.5q0 -155 103 -199z" />
    <glyph glyph-name="itilde" unicode="&#x129;" horiz-adv-x="454" 
d="M273 812q-10 0 -10 11q0 40 53 97q57 60 110 60q41 0 103 -42q64 -43 106 -43q61 0 92 76q10 17 18 17q12 0 12 -11q0 -39 -54 -97q-53 -60 -111 -60q-23 0 -45.5 9.5t-67.5 38.5q-58 37 -93 37q-63 0 -93 -76q-9 -17 -20 -17zM56 -2q-62 0 -99 22.5t-37 60.5
q0 44 28 99.5t118.5 175.5t264.5 322q18 -3 96 -3q20 0 42 2q-294 -346 -381.5 -461t-87.5 -156q0 -34 73 -34q29 0 63.5 12t69.5 34t70.5 48t70.5 58t65 61t58.5 60t47 51t34.5 38l15 19l20 -18q-3 -3 -37 -41.5t-69.5 -77.5t-91 -90.5t-107.5 -89.5t-113 -65t-113 -27z
" />
    <glyph glyph-name="Imacron" unicode="&#x12a;" horiz-adv-x="1333" 
d="M1422 1514q52 34 73 54h471q-41 -26 -61 -54h-483zM227 -2q-100 0 -160 41t-66 103q-4 42 22 66t62 27q19 2 36 -8t19 -33q3 -19 -13 -36t-38 -18q-31 -4 -47 5v-6q0 -49 50.5 -82t132.5 -33q120 0 239 76t275 263q-133 62 -133 245q0 111 57 225.5t161.5 213.5
t240.5 177t307 123t348 45q38 0 87 -7q10 -1 40.5 -4t47.5 -3q16 0 50 3.5t52 3.5q37 0 37 -14q0 -18 -33 -19q-17 -1 -123 -1q-39 -9 -94 -31q-299 -133 -653 -647q-121 -174 -253 -308h8q106 0 223.5 53.5t216.5 141.5t164 215t65 261q0 14 2 21.5t4 8t5 0.5q12 0 12 -49
q0 -138 -65 -267t-166.5 -217.5t-227 -142t-245.5 -53.5h-23q-163 -159 -327 -249t-297 -90zM757 384q77 94 159 208q138 190 270.5 334t246.5 231.5t210.5 135.5t183.5 65q-54 8 -105 8q-100 0 -222 -36.5t-238.5 -96.5t-228 -140.5t-195 -166t-134 -176t-50.5 -167.5
q0 -155 103 -199z" />
    <glyph glyph-name="imacron" unicode="&#x12b;" horiz-adv-x="454" 
d="M296 828q52 34 73 54h471q-41 -26 -61 -54h-483zM56 -2q-62 0 -99 22.5t-37 60.5q0 44 28 99.5t118.5 175.5t264.5 322q18 -3 96 -3q20 0 42 2q-294 -346 -381.5 -461t-87.5 -156q0 -34 73 -34q29 0 63.5 12t69.5 34t70.5 48t70.5 58t65 61t58.5 60t47 51t34.5 38l15 19
l20 -18q-3 -3 -37 -41.5t-69.5 -77.5t-91 -90.5t-107.5 -89.5t-113 -65t-113 -27z" />
    <glyph glyph-name="Ibreve" unicode="&#x12c;" horiz-adv-x="1333" 
d="M1680 1523q-56 0 -93 29t-41 86q-2 37 4 71h28q-6 -31 -4 -63q3 -45 24 -66t51 -21q70 0 133.5 36.5t136.5 113.5h130q-79 -83 -175.5 -134.5t-193.5 -51.5zM227 -2q-100 0 -160 41t-66 103q-4 42 22 66t62 27q19 2 36 -8t19 -33q3 -19 -13 -36t-38 -18q-31 -4 -47 5v-6
q0 -49 50.5 -82t132.5 -33q120 0 239 76t275 263q-133 62 -133 245q0 111 57 225.5t161.5 213.5t240.5 177t307 123t348 45q38 0 87 -7q10 -1 40.5 -4t47.5 -3q16 0 50 3.5t52 3.5q37 0 37 -14q0 -18 -33 -19q-17 -1 -123 -1q-39 -9 -94 -31q-299 -133 -653 -647
q-121 -174 -253 -308h8q106 0 223.5 53.5t216.5 141.5t164 215t65 261q0 14 2 21.5t4 8t5 0.5q12 0 12 -49q0 -138 -65 -267t-166.5 -217.5t-227 -142t-245.5 -53.5h-23q-163 -159 -327 -249t-297 -90zM757 384q77 94 159 208q138 190 270.5 334t246.5 231.5t210.5 135.5
t183.5 65q-54 8 -105 8q-100 0 -222 -36.5t-238.5 -96.5t-228 -140.5t-195 -166t-134 -176t-50.5 -167.5q0 -155 103 -199z" />
    <glyph glyph-name="ibreve" unicode="&#x12d;" horiz-adv-x="454" 
d="M554 837q-56 0 -93 29t-41 86q-2 37 4 71h28q-6 -31 -4 -63q3 -45 24 -66t51 -21q70 0 133.5 36.5t136.5 113.5h130q-79 -83 -175.5 -134.5t-193.5 -51.5zM56 -2q-62 0 -99 22.5t-37 60.5q0 44 28 99.5t118.5 175.5t264.5 322q18 -3 96 -3q20 0 42 2
q-294 -346 -381.5 -461t-87.5 -156q0 -34 73 -34q29 0 63.5 12t69.5 34t70.5 48t70.5 58t65 61t58.5 60t47 51t34.5 38l15 19l20 -18q-3 -3 -37 -41.5t-69.5 -77.5t-91 -90.5t-107.5 -89.5t-113 -65t-113 -27z" />
    <glyph glyph-name="Iogonek" unicode="&#x12e;" horiz-adv-x="1333" 
d="M39 -300q-41 0 -66.5 23t-25.5 57q0 69 97 139q45 31 94 52t78 27q-95 3 -152 43.5t-63 100.5q-4 42 22 66t62 27q19 2 36 -8t19 -33q3 -19 -13 -36t-38 -18q-31 -4 -47 5v-6q0 -49 50.5 -82t132.5 -33q120 0 239 76t275 263q-133 62 -133 245q0 111 57 225.5
t161.5 213.5t240.5 177t307 123t348 45q38 0 87 -7q10 -1 40.5 -4t47.5 -3q16 0 50 3.5t52 3.5q37 0 37 -14q0 -18 -33 -19q-17 -1 -123 -1q-39 -9 -94 -31q-299 -133 -653 -647q-121 -174 -253 -308h8q106 0 223.5 53.5t216.5 141.5t164 215t65 261q0 14 2 21.5t4 8t5 0.5
q12 0 12 -49q0 -138 -65 -267t-166.5 -217.5t-227 -142t-245.5 -53.5h-23q-161 -157 -323 -247t-294 -92q3 -2 3 -5q0 -8 -21 -15q-86 -28 -131.5 -71t-45.5 -98q0 -44 68 -44q21 0 43 7l-54 -67q-17 -5 -57 -5zM757 384q77 94 159 208q138 190 270.5 334t246.5 231.5
t210.5 135.5t183.5 65q-54 8 -105 8q-100 0 -222 -36.5t-238.5 -96.5t-228 -140.5t-195 -166t-134 -176t-50.5 -167.5q0 -155 103 -199z" />
    <glyph glyph-name="iogonek" unicode="&#x12f;" horiz-adv-x="454" 
d="M592 878q-27 0 -44 17.5t-17 44.5q0 35 30 64.5t70 29.5q27 0 44 -18t17 -45q0 -36 -31.5 -64.5t-68.5 -28.5zM-54 -273q-41 0 -66.5 23t-25.5 57q0 69 97 139q41 29 94 52q-57 2 -91 24.5t-34 58.5q0 44 28 99.5t118.5 175.5t264.5 322q18 -3 96 -3q20 0 42 2
q-294 -346 -381.5 -461t-87.5 -156q0 -34 73 -34q29 0 63.5 12t69.5 34t70.5 48t70.5 58t65 61t58.5 60t47 51t34.5 38l15 19l20 -18q-2 -2 -38 -44t-77 -84.5t-96 -93.5t-117 -93t-118 -61q-6 -4 -18 -8q-86 -28 -131.5 -71t-45.5 -98q0 -44 68 -44q21 0 43 7l-54 -67
q-17 -5 -57 -5z" />
    <glyph glyph-name="Idotaccent" unicode="&#x130;" horiz-adv-x="1333" 
d="M1718 1564q-27 0 -44 17.5t-17 44.5q0 35 30 64.5t70 29.5q27 0 44 -18t17 -45q0 -36 -31.5 -64.5t-68.5 -28.5zM227 -2q-100 0 -160 41t-66 103q-4 42 22 66t62 27q19 2 36 -8t19 -33q3 -19 -13 -36t-38 -18q-31 -4 -47 5v-6q0 -49 50.5 -82t132.5 -33q120 0 239 76
t275 263q-133 62 -133 245q0 111 57 225.5t161.5 213.5t240.5 177t307 123t348 45q38 0 87 -7q10 -1 40.5 -4t47.5 -3q16 0 50 3.5t52 3.5q37 0 37 -14q0 -18 -33 -19q-17 -1 -123 -1q-39 -9 -94 -31q-299 -133 -653 -647q-121 -174 -253 -308h8q106 0 223.5 53.5
t216.5 141.5t164 215t65 261q0 14 2 21.5t4 8t5 0.5q12 0 12 -49q0 -138 -65 -267t-166.5 -217.5t-227 -142t-245.5 -53.5h-23q-163 -159 -327 -249t-297 -90zM757 384q77 94 159 208q138 190 270.5 334t246.5 231.5t210.5 135.5t183.5 65q-54 8 -105 8q-100 0 -222 -36.5
t-238.5 -96.5t-228 -140.5t-195 -166t-134 -176t-50.5 -167.5q0 -155 103 -199z" />
    <glyph glyph-name="dotlessi" unicode="&#x131;" horiz-adv-x="454" 
d="M56 -2q-62 0 -99 22.5t-37 60.5q0 44 28 99.5t118.5 175.5t264.5 322q18 -3 96 -3q20 0 42 2q-294 -346 -381.5 -461t-87.5 -156q0 -34 73 -34q29 0 63.5 12t69.5 34t70.5 48t70.5 58t65 61t58.5 60t47 51t34.5 38l15 19l20 -18q-3 -3 -37 -41.5t-69.5 -77.5t-91 -90.5
t-107.5 -89.5t-113 -65t-113 -27z" />
    <glyph glyph-name="IJ" unicode="&#x132;" horiz-adv-x="2383" 
d="M731 -741q-45 0 -68.5 28t-23.5 64q0 84 72.5 183.5t196.5 193.5t301 179t374 139q90 118 221 301q-64 35 -102.5 95.5t-38.5 138.5q0 157 94 308t247 263t357 180.5t413 68.5q34 0 96 -7t88 -7q16 0 50 3.5t52 3.5q38 0 38 -13q0 -22 -92 -22q-13 0 -34.5 0.5t-30.5 0.5
q-172 -42 -365.5 -221.5t-391.5 -480.5q-90 -124 -234 -318q101 0 221.5 69t218 171t163.5 226.5t66 228.5q0 31 11 31t11 -46q0 -120 -63 -248.5t-161.5 -228.5t-227 -165t-250.5 -65h-10q-93 -125 -171 -221q30 8 83 22t69 18.5t51 14.5t56.5 17.5t55.5 19.5t77 29
q11 5 21 10t14 6.5t6 1.5q9 -3 9 -8q-2 -14 -34 -27q-77 -32 -112.5 -45.5t-116.5 -39.5t-213 -62q-238 -296 -424.5 -473.5t-318 -247t-250.5 -69.5zM227 -2q-100 0 -160 41t-66 103q-4 42 22 66t62 27q19 2 36 -8t19 -33q3 -19 -13 -36t-38 -18q-31 -4 -47 5v-6
q5 -50 53.5 -82.5t129.5 -32.5q120 0 239 76t275 263q-133 62 -133 245q0 111 57 225.5t161.5 213.5t240.5 177t307 123t348 45q38 0 87 -7q10 -1 40.5 -4t47.5 -3q16 0 50 3.5t52 3.5q37 0 37 -14q0 -18 -33 -19q-17 -1 -123 -1q-39 -9 -94 -31q-299 -133 -653 -647
q-121 -174 -253 -308h8q106 0 223.5 53.5t216.5 141.5t164 215t65 261q0 14 2 21.5t4 8t5 0.5q12 0 12 -49q0 -138 -65 -267t-166.5 -217.5t-227 -142t-245.5 -53.5h-23q-163 -159 -327 -249t-297 -90zM1822 373l121 172q134 191 274.5 345t263 250t225.5 152t185 75
q-56 8 -105 8q-120 0 -268 -50.5t-286 -136t-255 -188.5t-188 -219t-71 -216q0 -132 104 -192zM757 384q77 94 159 208q138 190 270.5 334t246.5 231.5t210.5 135.5t183.5 65q-54 8 -105 8q-100 0 -222 -36.5t-238.5 -96.5t-228 -140.5t-195 -166t-134 -176t-50.5 -167.5
q0 -155 103 -199zM734 -716q62 0 137 37t152.5 100t167.5 156t175.5 195.5t182.5 228.5q-179 -62 -385.5 -187t-349.5 -258.5t-143 -211.5q0 -26 17.5 -43t45.5 -17z" />
    <glyph glyph-name="ij" unicode="&#x133;" horiz-adv-x="916" 
d="M647 873q-27 0 -44 17.5t-17 44.5q0 35 30 64.5t70 29.5q27 0 44 -18t17 -45q0 -36 -31.5 -64.5t-68.5 -28.5zM1045 873q-27 0 -44 17.5t-17 44.5q0 35 30.5 64.5t70.5 29.5q27 0 43.5 -18t16.5 -45q0 -36 -31.5 -64.5t-68.5 -28.5zM-531 -787q-41 0 -65 20.5t-24 46.5
q0 58 62 121.5t228.5 155t445.5 207.5q68 82 209 261q6 8 74 94q-151 -121 -263 -121q-62 0 -99 22.5t-37 60.5q0 44 28 99.5t118.5 175.5t264.5 322q18 -3 96 -3q20 0 42 2q-294 -346 -381.5 -461t-87.5 -156q0 -34 73 -34q123 0 345 220q306 391 312 431q14 -2 107 -2
q31 0 49 2q-181 -232 -336 -435q-175 -227 -319 -402q254 122 400 235.5t318 330.5l20 -17q-77 -96 -144.5 -167t-132.5 -128t-142.5 -107.5t-158.5 -93.5t-197 -98q-157 -188 -270 -303.5t-207 -177t-165.5 -81.5t-162.5 -20zM-528 -760q58 0 107.5 17t119.5 67.5t162 147
t221 251.5q-361 -153 -515 -255t-154 -188q0 -14 15 -27t44 -13z" />
    <glyph glyph-name="Jcircumflex" unicode="&#x134;" horiz-adv-x="1221" 
d="M1711 1494q-20 0 -50 34.5t-46 91.5q-7 25 -11 57q-96 -75 -236 -163q-28 -18 -38 -18t-10 4q0 5 2 8.5t11.5 12.5t29.5 24q172 129 281 232q44 49 59 49q8 0 8 -8q0 -12 -6 -26q-25 -59 -25 -153q0 -76 33 -109q3 -5 7 -9.5t6 -7t2 -5.5q0 -4 -5 -9t-12 -5zM-431 -741
q-45 0 -68.5 28t-23.5 64q0 113 122.5 246.5t341.5 255t480 193.5q90 118 221 301q-64 35 -102.5 95.5t-38.5 138.5q0 157 94 308t247 263t357 180.5t413 68.5q34 0 96 -7t88 -7q16 0 50 3.5t52 3.5q38 0 38 -13q0 -22 -92 -22q-13 0 -34.5 0.5t-30.5 0.5
q-172 -42 -365.5 -221.5t-391.5 -480.5q-90 -124 -234 -318q101 0 221.5 69t218 171t163.5 226.5t66 228.5q0 31 11 31t11 -46q0 -120 -63 -248.5t-161.5 -228.5t-227 -165t-250.5 -65h-10q-93 -125 -171 -221q30 8 83 22t69 18.5t51 14.5t56.5 17.5t55.5 19.5t77 29
q11 5 21 10t14 6.5t6 1.5q9 -3 9 -8q-2 -14 -34 -27q-77 -32 -112.5 -45.5t-116.5 -39.5t-213 -62q-180 -224 -328 -378.5t-267 -244t-214 -128.5t-184 -39zM660 373l121 172q134 191 275 344.5t263 250t225 152.5t185 75q-56 8 -105 8q-120 0 -268 -50.5t-286 -136
t-255 -188.5t-188 -219t-71 -216q0 -132 104 -192zM-428 -716q77 0 172 54.5t202 156t213 224.5t228 282q-133 -46 -290 -133t-286 -181.5t-215.5 -189t-86.5 -153.5q0 -26 17.5 -43t45.5 -17z" />
    <glyph glyph-name="jcircumflex" unicode="&#x135;" horiz-adv-x="385" 
d="M232 808q-6 0 -6 4q0 6 6 12t38 34q38 31 129 114.5t151 147.5q29 31 40 40t19 9t8 -8q0 -7 -5 -25q-25 -56 -25 -154t33 -140q13 -18 13 -22t-4.5 -8t-11.5 -4q-19 0 -46 33.5t-44 89.5q-14 36 -17 87q-94 -88 -240 -192q-26 -18 -38 -18zM-1062 -787q-41 0 -65 20.5
t-24 46.5q0 43 34.5 89t115.5 104.5t227 131t357 160.5q75 91 208 260q149 187 315.5 406t169.5 246q14 -2 107 -2q31 0 49 2q-181 -232 -336 -435q-167 -219 -318 -402q254 123 399.5 236.5t317.5 329.5l20 -17q-127 -158 -237 -258.5t-227.5 -172.5t-309.5 -163
q-157 -188 -270 -303.5t-206.5 -177t-164.5 -81.5t-162 -20zM-1060 -760q58 0 107.5 17t119 67.5t161 147t220.5 251.5q-360 -153 -513 -255t-153 -188q0 -14 15 -27t43 -13z" />
    <glyph glyph-name="uni0136" unicode="&#x136;" horiz-adv-x="1726" 
d="M199 -2q-91 0 -145 38.5t-54 95.5q0 42 28.5 62.5t64.5 20.5q19 0 34.5 -11t15.5 -34q0 -19 -17 -34t-40 -15q-32 0 -47 9v-6q0 -44 43.5 -72t115.5 -28q270 0 665 536q76 104 209 238t331 317q-198 -132 -340 -132q-46 0 -73 21t-27 60q0 96 149 203q47 33 47 54
q0 62 -109 62q-90 0 -175.5 -39.5t-146 -100.5t-102 -128t-54.5 -127q-8 -26 -14 -26q-11 0 -11 18q0 10 2 16q10 39 33 87.5t67.5 107.5t99.5 107t136.5 80.5t171.5 32.5q69 0 114 -28.5t45 -71.5q0 -119 -148 -212q-6 -4 -17 -11t-15.5 -9.5t-11 -8t-9.5 -9t-5 -8.5
t-2 -10q0 -14 15.5 -23t39.5 -9q200 0 488 244q238 191 302 191q14 0 14 -8q0 -9 -10 -12q-217 -61 -750 -775q-126 -167 -254 -294.5t-243 -204.5t-218 -115.5t-193 -38.5zM1217 -14q-136 0 -136 104q0 74 63 179t233 271q34 33 52 75t18 70q0 10 -3 19q-60 -19 -113 -20
q-47 -2 -78.5 14t-31.5 37q0 18 27 32t75 15q91 2 134 -41q105 53 273 242q189 207 386 318t322 111q93 0 136 -36.5t33 -94.5q-8 -45 -37 -72.5t-61 -27.5q-28 0 -41 17.5t-9 40.5q3 20 23.5 36.5t44.5 16.5q27 0 44 -15l4 18q7 32 -27 63t-110 31q-68 0 -158 -59.5
t-269 -227.5q-308 -305 -534 -387q18 -34 18 -77q0 -97 -56 -200.5t-212 -244.5q-93 -85 -93 -126q0 -27 21 -40t75 -13q48 0 113 34.5t130.5 94t122 152t82.5 195.5q8 31 14 31q12 0 12 -38q0 -92 -80 -210.5t-196 -202.5t-211 -84zM1345 712q44 2 83 17q-36 35 -103 31
q-21 -1 -38 -9t-17 -15q0 -6 7 -12t25 -9.5t43 -2.5zM408 -439q-15 0 -15 10q0 12 25 20q58 17 110.5 75t56.5 125q3 54 22.5 85.5t54.5 31.5q46 0 46 -53q0 -99 -155 -222q-89 -72 -145 -72z" />
    <glyph glyph-name="uni0137" unicode="&#x137;" horiz-adv-x="861" 
d="M-163 14l1107 1581q47 -6 96 -4q8 0 42 4l-694 -965q-243 -338 -422 -611q-23 5 -58 5q-34 0 -71 -10zM464 -2q-51 0 -75.5 30.5t-24.5 76.5q0 89 122 208q49 50 49 71q0 17 -16.5 33t-42.5 25q-59 -33 -122 -33q-26 0 -41.5 9t-15.5 22q0 18 28.5 32t67.5 14
q44 0 82 -11q22 11 38.5 25t44.5 45q4 4 35.5 41.5t41.5 48t40 39t49.5 39t49 21t58.5 10.5q47 0 77 -24.5t29 -58.5q-1 -35 -21 -52t-50 -17q-23 0 -41 17.5t-16 42.5q1 37 40 50q-15 12 -39 12q-46 0 -96 -39t-130 -141q-35 -42 -77 -72q45 -21 70 -55.5t25 -74.5
q0 -47 -26.5 -95.5t-110.5 -124.5q-38 -36 -38 -55q0 -31 47 -31q37 0 80 16t82.5 41.5t82 59.5t77 68t68 69.5t55 61t38.5 45.5l16 20l20 -18q-1 -1 -29.5 -33.5t-66.5 -74.5t-93 -92.5t-109.5 -92.5t-117 -70t-114.5 -28zM-161 -439q-15 0 -15 10q0 12 25 20
q58 17 110.5 75t56.5 125q3 54 22.5 85.5t54.5 31.5q46 0 46 -53q0 -99 -155 -222q-89 -72 -145 -72z" />
    <glyph glyph-name="kgreenlandic" unicode="&#x138;" horiz-adv-x="860" 
d="M-164 14l514 733q62 -4 82 -3q5 1 43 3l-42 -47q-255 -356 -468 -681q-22 5 -58 5q-33 0 -71 -10zM463 -2q-51 0 -75 30t-24 77q0 85 122 198q47 51 47 71q0 17 -15.5 33t-41.5 25q-59 -33 -123 -33q-27 0 -42.5 9t-15.5 22q0 18 29 31.5t68 13.5q43 0 81 -11
q37 18 84 71q7 8 30.5 37.5t34.5 42.5t34 37.5t40 37t40 27.5t46.5 21t48.5 6q47 0 77 -24.5t30 -58.5q-1 -35 -21.5 -52t-50.5 -17q-23 0 -41 17.5t-17 42.5q3 37 41 50q-13 12 -40 12q-45 0 -95 -41.5t-130 -149.5q-35 -42 -77 -72q45 -20 70 -54.5t25 -75.5
q0 -44 -26.5 -90t-109.5 -119q-40 -35 -40 -55q0 -31 49 -31q45 0 98.5 23t107 65t96 79.5t89.5 90t63 71.5t38 46q4 5 5 6l21 -18l-29 -33q-29 -34 -66.5 -75t-93 -92.5t-110 -92.5t-117 -69.5t-114.5 -28.5z" />
    <glyph glyph-name="Lacute" unicode="&#x139;" horiz-adv-x="1537" 
d="M1864 1517q-4 0 -6.5 3t-3.5 6l-1 3q0 4 26 24q76 43 113 100q27 40 40 102q9 71 54 71q19 0 31 -14t12 -41q0 -46 -63.5 -113.5t-149.5 -117.5q-38 -23 -52 -23zM1040 -25q-158 0 -474 92q-156 -69 -346 -69q-106 0 -163 24.5t-57 57.5q0 46 61.5 74t162.5 28
q129 0 327 -70q76 50 159 139.5t189 234.5q-207 7 -333 90.5t-126 213.5q0 85 54.5 167t146.5 135t192 53q22 0 22 -12q0 -6 -4.5 -8t-27.5 -4q-145 -14 -226.5 -106t-81.5 -201q0 -150 106.5 -223.5t298.5 -75.5q66 93 136 197q247 369 453 529t424 160q74 0 120 -33.5
t46 -87.5q0 -102 -101 -231t-253.5 -241t-341.5 -199t-354 -113q-219 -292 -437 -407q182 -65 435 -65q229 0 327 103q15 15 20 4q6 -16 -16 -36q-75 -68 -158 -94t-180 -26zM1073 528q160 28 334.5 113.5t311 193.5t225 230.5t88.5 220.5q0 36 -30.5 64t-74.5 28
q-315 0 -621 -498q-126 -206 -233 -352zM206 22q183 0 300 63q-166 46 -274 46q-98 0 -151 -13.5t-53 -36.5q0 -12 20.5 -25t63 -23.5t94.5 -10.5z" />
    <glyph glyph-name="lacute" unicode="&#x13a;" horiz-adv-x="456" 
d="M1021 1667q-4 0 -6.5 3t-3.5 6l-1 3q0 4 26 24q76 43 113 100q27 40 40 102q9 71 54 71q19 0 31 -14t12 -41q0 -46 -63.5 -113.5t-149.5 -117.5q-38 -23 -52 -23zM40 -2q-42 0 -69.5 23t-27.5 58q0 54 36.5 120t192.5 291l773 1105q51 -6 97 -4q8 0 42 4l-822 -1141
q-118 -164 -172.5 -245.5t-67 -106.5t-12.5 -43q0 -15 13 -24t34 -9q55 0 123.5 34.5t132.5 89.5t114.5 104.5t94.5 98.5t48 53l20 -17q-1 -1 -50 -55t-100 -102.5t-120.5 -106t-143 -92.5t-136.5 -35z" />
    <glyph glyph-name="uni013B" unicode="&#x13b;" horiz-adv-x="1537" 
d="M1040 -25q-158 0 -474 92q-156 -69 -346 -69q-106 0 -163 24.5t-57 57.5q0 46 61.5 74t162.5 28q129 0 327 -70q76 50 159 139.5t189 234.5q-207 7 -333 90.5t-126 213.5q0 85 54.5 167t146.5 135t192 53q22 0 22 -12q0 -6 -4.5 -8t-27.5 -4q-145 -14 -226.5 -106
t-81.5 -201q0 -150 106.5 -223.5t298.5 -75.5q66 93 136 197q247 369 453 529t424 160q74 0 120 -33.5t46 -87.5q0 -102 -101 -231t-253.5 -241t-341.5 -199t-354 -113q-219 -292 -437 -407q182 -65 435 -65q229 0 327 103q15 15 20 4q6 -16 -16 -36q-75 -68 -158 -94
t-180 -26zM1073 528q160 28 334.5 113.5t311 193.5t225 230.5t88.5 220.5q0 36 -30.5 64t-74.5 28q-315 0 -621 -498q-126 -206 -233 -352zM206 22q183 0 300 63q-166 46 -274 46q-98 0 -151 -13.5t-53 -36.5q0 -12 20.5 -25t63 -23.5t94.5 -10.5zM286 -439q-15 0 -15 10
q0 12 25 20q58 17 110.5 75t56.5 125q3 54 22.5 85.5t54.5 31.5q46 0 46 -53q0 -99 -155 -222q-89 -72 -145 -72z" />
    <glyph glyph-name="uni013C" unicode="&#x13c;" horiz-adv-x="456" 
d="M40 -2q-42 0 -69.5 23t-27.5 58q0 54 36.5 120t192.5 291l773 1105q51 -6 97 -4q8 0 42 4l-822 -1141q-118 -164 -172.5 -245.5t-67 -106.5t-12.5 -43q0 -15 13 -24t34 -9q55 0 123.5 34.5t132.5 89.5t114.5 104.5t94.5 98.5t48 53l20 -17q-1 -1 -50 -55t-100 -102.5
t-120.5 -106t-143 -92.5t-136.5 -35zM-343 -439q-15 0 -15 10q0 12 25 20q58 17 110.5 75t56.5 125q3 54 22.5 85.5t54.5 31.5q46 0 46 -53q0 -99 -155 -222q-89 -72 -145 -72z" />
    <glyph glyph-name="Lcaron" unicode="&#x13d;" horiz-adv-x="1537" 
d="M2175 1133q-3 -1 -6.5 1t-3.5 6t16 31q65 109 131 193q73 101 118 103q14 1 26.5 -7.5t12.5 -20.5q0 -22 -21.5 -50.5t-105.5 -112.5q-150 -146 -167 -143zM1040 -25q-158 0 -474 92q-156 -69 -346 -69q-106 0 -163 24.5t-57 57.5q0 46 61.5 74t162.5 28q129 0 327 -70
q76 50 159 139.5t189 234.5q-207 7 -333 90.5t-126 213.5q0 85 54.5 167t146.5 135t192 53q22 0 22 -12q0 -6 -4.5 -8t-27.5 -4q-145 -14 -226.5 -106t-81.5 -201q0 -150 106.5 -223.5t298.5 -75.5q66 93 136 197q247 369 453 529t424 160q74 0 120 -33.5t46 -87.5
q0 -102 -101 -231t-253.5 -241t-341.5 -199t-354 -113q-219 -292 -437 -407q182 -65 435 -65q229 0 327 103q15 15 20 4q6 -16 -16 -36q-75 -68 -158 -94t-180 -26zM1073 528q160 28 334.5 113.5t311 193.5t225 230.5t88.5 220.5q0 36 -30.5 64t-74.5 28q-315 0 -621 -498
q-126 -206 -233 -352zM206 22q183 0 300 63q-166 46 -274 46q-98 0 -151 -13.5t-53 -36.5q0 -12 20.5 -25t63 -23.5t94.5 -10.5z" />
    <glyph glyph-name="lcaron" unicode="&#x13e;" horiz-adv-x="456" 
d="M40 -2q-42 0 -69.5 23t-27.5 58q0 54 36.5 120t192.5 291l773 1105q51 -6 97 -4q8 0 42 4l-822 -1141q-118 -164 -172.5 -245.5t-67 -106.5t-12.5 -43q0 -15 13 -24t34 -9q55 0 123.5 34.5t132.5 89.5t114.5 104.5t94.5 98.5t48 53l20 -17q-1 -1 -50 -55t-100 -102.5
t-120.5 -106t-143 -92.5t-136.5 -35zM1005 1253q-3 -1 -6.5 1t-3.5 6t16 31q65 109 131 193q73 101 118 103q14 1 26.5 -7.5t12.5 -20.5q0 -22 -21.5 -50.5t-105.5 -112.5q-150 -146 -167 -143z" />
    <glyph glyph-name="Ldot" unicode="&#x13f;" horiz-adv-x="1537" 
d="M1040 -25q-158 0 -474 92q-156 -69 -346 -69q-106 0 -163 24.5t-57 57.5q0 46 61.5 74t162.5 28q129 0 327 -70q76 50 159 139.5t189 234.5q-207 7 -333 90.5t-126 213.5q0 85 54.5 167t146.5 135t192 53q22 0 22 -12q0 -6 -4.5 -8t-27.5 -4q-145 -14 -226.5 -106
t-81.5 -201q0 -150 106.5 -223.5t298.5 -75.5q66 93 136 197q247 369 453 529t424 160q74 0 120 -33.5t46 -87.5q0 -102 -101 -231t-253.5 -241t-341.5 -199t-354 -113q-219 -292 -437 -407q182 -65 435 -65q229 0 327 103q15 15 20 4q6 -16 -16 -36q-75 -68 -158 -94
t-180 -26zM1073 528q160 28 334.5 113.5t311 193.5t225 230.5t88.5 220.5q0 36 -30.5 64t-74.5 28q-315 0 -621 -498q-126 -206 -233 -352zM1699 473q-31 0 -51 20.5t-20 53.5q0 42 35.5 76t83.5 34q33 0 52.5 -20.5t19.5 -53.5q0 -42 -37.5 -76t-82.5 -34zM206 22
q183 0 300 63q-166 46 -274 46q-98 0 -151 -13.5t-53 -36.5q0 -12 20.5 -25t63 -23.5t94.5 -10.5z" />
    </font>
</defs>
</svg>
