<?xml version="1.0" standalone="no"?>
<!DOCTYPE svg PUBLIC "-//W3C//DTD SVG 1.1//EN" "http://www.w3.org/Graphics/SVG/1.1/DTD/svg11.dtd" >
<svg xmlns="http://www.w3.org/2000/svg" xmlns:xlink="http://www.w3.org/1999/xlink" version="1.1">
<metadata>
Created by FontForge 20201107 at Sun May 12 14:54:43 2024
 By 
Copyright (c) 2014 by Seniors Studio. All rights reserved.
</metadata>
<defs>
<font id="SVN-AaronScript" horiz-adv-x="688" >
  <font-face 
    font-family="SVN-Aaron Script"
    font-weight="400"
    font-stretch="normal"
    units-per-em="2048"
    panose-1="2 0 5 5 7 0 0 2 0 2"
    ascent="1638"
    descent="-410"
    x-height="692"
    cap-height="1536"
    bbox="-4753 -1626.85 7468.29 2384.84"
    underline-thickness="102"
    underline-position="-204"
    unicode-range="U+0020-FB01"
  />
<missing-glyph horiz-adv-x="362" 
 />
    <glyph glyph-name="f_i" unicode="fi" horiz-adv-x="888" 
d="M1024 440h31q-41 -72 -74.5 -127t-79.5 -119t-85 -106t-83.5 -70t-83.5 -28q-307 0 -40 524q24 47 75 141h-295q-13 -28 -91 -188t-132 -277q8 -63 13 -125.5t7.5 -153.5t-2.5 -169t-22 -160.5t-46 -140t-79 -94.5t-117 -37q-55 0 -87 31t-38 89t1 129t33 163t54.5 178.5
t70 188.5t75 180t73.5 165q-4 32 -9.5 68.5t-9 56.5t-5.5 43t-1.5 34t6.5 23.5t15.5 17t28 9t41 5.5t57.5 1q140 308 211 435q63 113 119 182q63 69 114 103t117 34q109 1 103 -115q-7 -120 -122 -301q-112 -174 -241 -273q-61 -48 -114 -65h481q-26 -45 -51.5 -91.5
t-70 -131t-74.5 -154t-54.5 -138t-21.5 -107.5t36 -39q44 0 111 64t129 150.5t127 194.5zM711 1284q-40 -57 -88 -145t-80.5 -156.5t-68.5 -147.5t-42 -92q120 55 237 218t166 300.5t5 137.5q-51 -3 -129 -115zM-66 -649q70 0 117.5 63.5t67.5 153.5t27 204t3.5 199
t-10.5 154q-330 -720 -223 -770q8 -4 18 -4zM131 494q17 40 42 92t32 69q-28 0 -44.5 -0.5t-27.5 -6t-15 -10.5t-4 -20.5t2.5 -28.5t7 -41.5t7.5 -53.5zM778 901q0 38 27 65t67 27q39 0 67 -27.5t28 -64.5q0 -40 -28 -69t-67 -29q-41 0 -67.5 28.5t-26.5 69.5z" />
    <glyph glyph-name="f_j" unicode="fj" horiz-adv-x="931" 
d="M176 193l-31 -62l-342 -821h-172q442 1049 478 1124q-3 32 -8.5 69t-8.5 56.5t-4.5 43t-0.5 34t7 23t15.5 17t28 9t41 5.5t57.5 1q2 5 33 73t38.5 85t37 80t43.5 89t41.5 78.5t47 83t44.5 67.5t48 65q60 67 111 100t117 33q108 1 102 -115q-7 -120 -122 -300
q-111 -174 -241 -274q-61 -47 -114 -65h176l-18 -37h-181q-12 -27 -90 -185t-133 -277zM723 1290q-39 -58 -87.5 -147.5t-81 -157.5t-70 -149t-42.5 -91q122 55 238.5 217.5t164 299.5t3.5 137q-53 -3 -125 -109zM215 655q-28 0 -44.5 -0.5t-28 -5.5t-15.5 -10t-4 -20.5
t2 -28t6.5 -41t7.5 -53.5q18 39 43.5 91t32.5 68zM1085 444h33q-38 -71 -71.5 -126.5t-87.5 -130.5t-106 -127.5t-121.5 -96t-139.5 -57.5q-11 -21 -33.5 -70t-41.5 -89.5t-50 -97t-61.5 -101t-73.5 -90.5t-87.5 -77t-102 -51t-119.5 -20q-66 0 -93 41t-6 100
q30 87 166 210.5t311 227.5q72 147 182 427t152 376h189q-51 -110 -312 -737q214 48 473 489zM23 -647q33 0 72 30.5t72.5 74.5t73.5 110.5t67.5 119t62.5 120.5l12 24q-147 -94 -262.5 -200.5t-145.5 -178.5q-18 -34 -5.5 -67t53.5 -33zM801 897q0 41 26 68.5t66 27.5
q39 0 65.5 -27.5t26.5 -68.5q0 -38 -27 -65t-65 -27q-39 0 -65.5 26.5t-26.5 65.5z" />
    <glyph glyph-name="q_j" unicode="qj" horiz-adv-x="1386" 
d="M1341 803q-39 0 -65.5 26.5t-26.5 65.5q0 41 26 67.5t66 26.5q39 0 67 -27t28 -67q0 -38 -28 -65t-67 -27zM1534 442h33q-37 -70 -71.5 -128t-87.5 -131t-106 -126t-121.5 -96t-138.5 -57q-12 -22 -46.5 -95t-62.5 -128t-78.5 -129.5t-101.5 -123t-125 -83.5t-155 -35
q-66 0 -93 41.5t-9 99.5q32 87 169 210.5t310 225.5q100 208 172 404q-105 -150 -229.5 -256t-255.5 -135q-21 -43 -118.5 -262.5t-142.5 -327.5h-178q160 390 340 770q-111 -88 -219 -88q-162 0 -198 116q-32 104 44 254q75 148 210 246q137 101 278 101q60 0 96 -34
t39 -91l49 108h187q-54 -117 -180.5 -366t-184.5 -379q126 28 269 162t241 299q51 139 117 284h186q-32 -71 -152 -357t-159 -382q220 51 473 489zM481 158q31 65 94 194t84 174q8 47 -14.5 90t-71.5 43q-97 0 -220 -142q-109 -126 -165 -271q-57 -148 -9 -194
q17 -17 48 -17q121 0 254 123zM473 -647q43 0 91 43t96.5 122t83 144t78.5 155q5 10 7 15q-143 -92 -259 -199.5t-148 -179.5q-16 -35 -3 -67.5t54 -32.5z" />
    <glyph glyph-name=".notdef" horiz-adv-x="362" 
 />
    <glyph glyph-name=".null" horiz-adv-x="0" 
 />
    <glyph glyph-name="nonmarkingreturn" horiz-adv-x="682" 
 />
    <glyph glyph-name="space" unicode=" " horiz-adv-x="378" 
 />
    <glyph glyph-name="exclam" unicode="!" horiz-adv-x="761" 
d="M782 1434h187l-602 -1209l-43 19zM279 -12q-39 0 -66 27.5t-27 64.5q0 40 26.5 67t66.5 27q38 0 65 -27t27 -67q0 -37 -27 -64.5t-65 -27.5z" />
    <glyph glyph-name="quotedbl" unicode="&#x22;" horiz-adv-x="737" 
d="M406 1327q41 0 63.5 -23t23 -55.5t-7.5 -68.5q-27 -93 -107.5 -185t-150.5 -116l-2 32q70 49 107 113t20 137q-41 26 -41 76q0 37 28.5 63.5t66.5 26.5zM645 1327q60 0 78.5 -44.5t1.5 -102.5q-27 -93 -107.5 -185t-150.5 -116l-2 32q70 49 107 113t20 137q-41 26 -41 76
q0 37 28 63.5t66 26.5z" />
    <glyph glyph-name="numbersign" unicode="#" horiz-adv-x="1814" 
d="M1769 893h-378q-43 -108 -90.5 -241.5t-57.5 -159.5h375l-39 -64h-358l-160 -440h-105q86 186 181 440h-435l-161 -440h-97q74 177 168 440h-448l20 64h457q39 93 152 401h-451l43 63h428l129 371h100l-153 -371h444l131 371h97l-148 -371h406zM1165 492q52 125 150 401
h-447q-83 -213 -145 -401h442z" />
    <glyph glyph-name="dollar" unicode="$" horiz-adv-x="1052" 
d="M807 1163q114 -10 183.5 -63.5t60.5 -149.5q-9 -92 -77 -149t-151 -66.5t-161.5 24t-106.5 105.5q-10 48 20 80q21 24 45 26.5t40.5 -8.5t25.5 -28q17 -30 -9.5 -61t-70.5 -9q23 -58 83 -78.5t122.5 -5t114.5 62.5t59 111q8 82 -64.5 124t-183.5 42q-60 0 -116.5 -14
t-102.5 -39.5t-67 -66t-14.5 -90t59.5 -115.5t151 -138q99 -73 160.5 -145.5t82.5 -134t15.5 -118.5t-38.5 -102.5t-82.5 -83t-112 -62.5t-132 -38.5t-139.5 -13.5q-57 0 -88 2q-134 -330 -184 -465h-80q34 79 101.5 239.5t101.5 239.5q-119 28 -185.5 102t-56.5 195
q3 62 33.5 114.5t76 84.5t102 48t110 11t102 -33.5t76.5 -78.5q22 -39 -12 -78q-23 -26 -47.5 -29.5t-41.5 7t-28 28.5q-17 31 10.5 62t71.5 8q-43 62 -109.5 77t-126 -10.5t-103.5 -84t-46 -130.5q-5 -82 47 -141.5t131 -86t172 -26.5q60 0 115.5 11t100.5 34t75 55.5
t35 77.5t-15 97.5t-80.5 119t-156.5 138.5q-99 74 -154 147t-63.5 132.5t12 113t68.5 93.5t109.5 69.5t132 45t138.5 15.5q24 59 75 183.5t77 189.5h70q-102 -241 -160 -373z" />
    <glyph glyph-name="percent" unicode="%" horiz-adv-x="1308" 
d="M672 1161q111 -7 128 -99q15 -87 -52 -199q-69 -112 -174 -166q-73 -37 -146 -31q-112 8 -135 99q-21 85 41 194q65 112 175 167q79 39 163 35zM672 1143q-104 0 -199 -119q-79 -98 -102 -206q-21 -103 29 -128q13 -6 30 -6q86 0 179 119q80 104 108 214q26 104 -25 123
q-9 3 -20 3zM1159 662q109 -6 125 -97q16 -86 -54 -197q-70 -113 -177 -167q-73 -38 -146 -33q-110 8 -133 98q-22 85 39 193q63 112 173 167q83 42 173 36zM911 180q87 0 181 121q81 104 109 215q27 106 -23 125q-9 4 -21 4q-105 0 -202 -122q-78 -99 -101 -209
q-22 -104 29 -128q12 -6 28 -6zM449 90q12 -32 36.5 -46t51.5 -10t51.5 15t40.5 27l30 -13q-29 -35 -83 -55.5t-105.5 -20t-87.5 31.5t-31 90q2 49 37.5 115t92 136t124 147t136 156t125.5 154.5t95 151.5t42 137q3 55 -15.5 93.5t-52.5 57.5t-70 27t-78 8v35q34 0 63.5 -2
t71 -8.5t72 -22t57.5 -38t38 -60t4 -86.5q-14 -84 -93 -204t-177 -234.5t-192 -225.5t-148 -206.5t-35 -149.5z" />
    <glyph glyph-name="ampersand" unicode="&#x26;" horiz-adv-x="1388" 
d="M1571 922q27 -46 16 -107q-18 -99 -99 -157.5t-190 -73.5q37 -46 43 -105t-13 -113t-56 -102q-100 -122 -279.5 -199t-345.5 -77q-288 0 -371 143q-63 111 12 270q70 150 227 268q80 60 169 99q-138 98 -90 251q40 127 190 244q160 125 345 163q61 12 118 12
q66 0 114.5 -15t72.5 -40t32 -57t-5.5 -68.5t-40.5 -72t-73 -69t-104 -57.5l6 49q115 50 158 133q36 71 -4 119q-35 41 -113 41q-61 0 -128 -22.5t-127 -61t-115 -88.5t-94.5 -107t-63 -113t-23 -111t28.5 -97q73 37 161 57q128 28 123 -40q0 -8 -3 -17q-12 -45 -48 -70.5
t-80.5 -29.5t-88 4t-76.5 26q-102 -56 -197 -194q-108 -156 -124 -294q-17 -158 108 -203q44 -15 104 -15q77 0 180 25.5t209.5 84t153.5 133.5q39 60 30.5 134t-69.5 118q-39 28 -110.5 32.5t-127.5 -27.5t-47 -95l-24 6q-11 61 9 102.5t63 61t102.5 32t124.5 16t131.5 13
t122.5 22.5t98 45t57 81q-67 -30 -98 18q-23 24 -15 60t48 55q50 26 86 -20zM1022 795q5 19 -25 21q-54 3 -147 -33q-29 -12 -43 -21q49 -39 126 -27.5t89 60.5z" />
    <glyph glyph-name="quotesingle" unicode="'" horiz-adv-x="534" 
d="M444 1327q60 0 78.5 -44.5t1.5 -102.5q-27 -93 -107.5 -185t-150.5 -116l-2 32q70 49 107 113t20 137q-41 26 -41 76q0 37 28 63.5t66 26.5z" />
    <glyph glyph-name="parenleft" unicode="(" horiz-adv-x="630" 
d="M1049 1745l2 -33q-212 -199 -374.5 -426t-297.5 -508q-123 -254 -184 -524.5t-52 -523.5l-30 -27q-61 632 163 1112q227 489 773 930z" />
    <glyph glyph-name="parenright" unicode=")" horiz-adv-x="909" 
d="M135 -297l-2 33q212 199 374.5 426t297.5 508q123 253 183.5 523.5t51.5 524.5l31 27q61 -630 -164 -1112q-227 -490 -772 -930z" />
    <glyph glyph-name="asterisk" unicode="*" horiz-adv-x="1146" 
d="M874 911q-14 -19 -38 -27.5t-35 -2.5q-19 6 -35 34.5t-16 61.5q-4 39 -15.5 114.5t-13.5 92.5q-8 -16 -27 -48.5t-52.5 -88t-55.5 -93.5q-18 -27 -40.5 -48t-31.5 -21q-23 0 -37 13.5t-18 29.5q0 24 20.5 55.5t50.5 54.5q33 28 97.5 85.5t83.5 72.5q-18 -5 -51 -9
t-100 -10.5t-107 -11.5q-30 -6 -56.5 0t-29.5 15q-8 24 -0.5 46t20.5 29q17 15 53.5 19t65.5 -6q26 -7 205 -47q-3 5 -26.5 40t-46.5 74t-42 82q-12 23 -16 47.5t-2 34.5q17 22 40 31t31 2q22 -7 41 -34t19 -62q2 -44 26 -205q21 55 137 231q19 28 37 46t27 18q41 4 59 -37
q0 -55 -71 -109q-27 -26 -176 -159q16 3 52 7.5t97 11.5t109 13q30 1 52.5 -3.5t24.5 -12.5q10 -21 4 -45.5t-20 -34.5q-20 -13 -54 -16.5t-69 6.5q-37 13 -110 29t-86 20q78 -134 112 -201q13 -24 17 -50t-3 -34z" />
    <glyph glyph-name="plus" unicode="+" horiz-adv-x="1185" 
d="M776 641h416l-76 -68h-368l-160 -428h-101l166 428h-395l74 68h348l162 432h96z" />
    <glyph glyph-name="comma" unicode="," horiz-adv-x="522" 
d="M274 166q60 0 78.5 -45t1.5 -103q-27 -93 -107.5 -185t-150.5 -116l-2 33q70 49 107 113t20 137q-41 26 -41 76q0 37 28 63.5t66 26.5z" />
    <glyph glyph-name="hyphen" unicode="-" horiz-adv-x="782" 
d="M100 268q46 38 121.5 59.5t136.5 16.5q31 -4 75.5 -14t71 -15t68 -3.5t86.5 14.5l5 -17q-52 -41 -142.5 -59.5t-171.5 -11.5q-17 3 -59 12.5t-61 12t-54.5 0.5t-71.5 -13z" />
    <glyph glyph-name="period" unicode="." horiz-adv-x="479" 
d="M254 -12q-39 0 -65.5 27.5t-26.5 64.5q0 40 26 67t66 27q38 0 65 -27t27 -67q0 -37 -27 -64.5t-65 -27.5z" />
    <glyph glyph-name="slash" unicode="/" horiz-adv-x="559" 
d="M889 1761h92q-241 -484 -445.5 -937.5t-494.5 -1124.5h-102q505 1053 950 2062z" />
    <glyph glyph-name="zero" unicode="0" horiz-adv-x="1292" 
d="M1145 1278q227 -4 289 -172q57 -152 -32 -386q-88 -230 -270 -423q-208 -222 -442 -287q-93 -25 -182 -22q-225 8 -299 173q-67 150 7 376t251 417q208 225 464 296q106 29 214 28zM522 29q176 0 375 213q169 182 285 435q112 247 102 406q-9 147 -129 154h-10
q-219 0 -432 -214q-174 -174 -280 -419q-101 -233 -85 -396q15 -154 136 -176q18 -3 38 -3z" />
    <glyph glyph-name="one" unicode="1" horiz-adv-x="823" 
d="M948 1278l78 -41q-56 -76 -119.5 -198t-126.5 -273.5t-111.5 -275.5t-108.5 -283t-83 -219h-203q254 661 453 987q-436 -336 -461 -418q30 29 60.5 11.5t25.5 -48.5q-5 -24 -28 -38t-58 1q-22 12 -32.5 32t-6.5 42q9 39 58.5 103t110 126.5t152.5 146t153 136
t146.5 124.5t100.5 85z" />
    <glyph glyph-name="two" unicode="2" horiz-adv-x="1142" 
d="M846 94q60 0 157.5 102t192.5 248h33q-69 -112 -138.5 -204.5t-150 -165.5t-141.5 -82q-44 -9 -137.5 -0.5t-185.5 20.5t-209.5 8.5t-207.5 -32.5h-57q10 34 63.5 84.5t132.5 106t177 124t198.5 137.5t195.5 148.5t169 155.5t119 159t45 158q0 69 -53 122.5t-160 53.5
q-242 0 -427 -165q-130 -116 -182 -265q-46 -131 -3 -204q30 -52 100 -52q57 0 109.5 36.5t82.5 87.5t29 110.5t-43 99.5q7 -25 -6.5 -41.5t-33 -17t-34.5 9.5q-20 16 -19.5 43.5t32.5 46.5q35 21 73 -2q42 -29 56.5 -82.5t-1 -110.5t-48.5 -108.5t-88 -84.5t-117 -32
q-107 2 -143 100q-38 103 16 247q63 168 211 282q185 143 436 143q201 0 308.5 -75t102.5 -177q-3 -57 -33.5 -117t-78.5 -114.5t-119 -114.5t-143 -110.5t-163 -109t-167 -104t-166.5 -101t-150.5 -95.5q101 13 214.5 -4t210 -40t142.5 -22z" />
    <glyph glyph-name="three" unicode="3" horiz-adv-x="1191" 
d="M946 1278q263 1 328 -122q50 -93 -29 -224q-74 -124 -223 -215q-67 -40 -139 -66q161 -88 202 -220q39 -127 -48 -240q-103 -134 -336 -181q-106 -22 -232 -22q-89 0 -161 24.5t-115 64.5t-64 88t-16 97q11 113 140 185q106 60 224 61q104 0 130 -51q10 -21 3 -49
q-8 -36 -36.5 -43t-49.5 10q-15 8 -17.5 29t11 38.5t39.5 16.5q-49 30 -106.5 19t-108 -44t-86.5 -85.5t-41 -106.5q-6 -85 62.5 -148t185.5 -63q101 0 188 32t144.5 83t92.5 116.5t40.5 131t-20 128.5t-81.5 107q-83 -36 -164 -49q-101 -15 -94 42q0 5 2 11
q13 44 64.5 61.5t104.5 11.5t89 -24q87 48 172 166q100 139 106 247q7 124 -125 140q-18 2 -38 2q-204 0 -351 -123q-97 -82 -123 -176q-23 -83 28 -116q23 -15 59 -15q53 0 96.5 36.5t60.5 88.5t3 98q-5 -27 -24.5 -36.5t-39.5 -2t-26 24.5q-10 27 2 51t49 25q58 2 73 -61
q16 -67 -24 -145q-47 -91 -135 -111q-21 -5 -43 -5q-93 1 -118 77q-26 78 30 180q68 121 207 190q124 61 278 61zM594 639q-6 -26 66 -17q76 10 123 34q3 2 5 3q-43 25 -115 18.5t-79 -38.5z" />
    <glyph glyph-name="four" unicode="4" horiz-adv-x="1214" 
d="M1296 782q7 -70 -30 -138t-99 -117.5t-135 -84t-141 -45.5q-12 -2 -33 -2q-35 -92 -89.5 -234t-66.5 -173h-206q16 39 74 182.5t96 232.5q-244 27 -341 28q-136 0 -274 -28q4 2 23.5 31.5t42.5 48.5q693 543 1050 795l84 -41q-138 -186 -352 -741q27 0 39 4q74 8 147 39
t128 93t51 140q-19 -35 -55 -25t-38 39q0 26 18.5 46.5t53.5 13.5q50 -13 53 -64zM715 516q158 349 278 531l-760 -547q185 51 482 16z" />
    <glyph glyph-name="five" unicode="5" horiz-adv-x="1191" 
d="M1403 1278q-34 -40 -75.5 -68t-92 -42t-93.5 -21.5t-105.5 -6.5t-100 3.5t-102.5 8.5l-33 3q-87 -192 -205 -395q89 13 197 -21q201 -63 283 -203q74 -125 26 -257q-49 -134 -205 -212q-155 -79 -379 -79q-88 0 -161.5 17t-129.5 50t-81 89t-11 128q21 112 150 181
q108 58 220 54q99 -3 119 -55q7 -20 1 -44q-11 -36 -39 -43.5t-47 6.5q-15 10 -19 31.5t9 39.5t40 17q-50 30 -106 18t-104.5 -46t-82.5 -84.5t-40 -98.5q-10 -107 60 -162t185 -55q102 0 189.5 35.5t144.5 92t85.5 128t22.5 141.5t-54.5 136t-135.5 108q-60 28 -109.5 34
t-115.5 -8q131 299 237 580q22 -2 132.5 -15.5t191.5 -21t170 -0.5t121 37h43z" />
    <glyph glyph-name="six" unicode="6" horiz-adv-x="1120" 
d="M1249 1239q-248 -1 -414.5 -95.5t-308.5 -303.5q-126 -188 -182 -387.5t-14 -315.5q37 -108 155 -108q84 0 171 43.5t154 113.5t117 149.5t69 158.5t1 135q-17 59 -72 82.5t-123 11.5t-135 -40t-117 -71t-61 -84q30 28 59.5 7t22.5 -50q-7 -26 -29 -37t-57 7
q-41 26 -34 75q10 38 52 83t101.5 85.5t131 68t137.5 36t124 -15.5t88 -82q24 -46 27 -108t-16.5 -129t-55.5 -136t-93.5 -130.5t-126 -109.5t-158 -76t-185.5 -28q-190 0 -276 123q-85 127 -44.5 328.5t181.5 396.5q166 232 403 343t527 97z" />
    <glyph glyph-name="seven" unicode="7" horiz-adv-x="991" 
d="M1227 1276l53 -39q-97 -94 -235 -273t-240.5 -328t-248.5 -367t-189 -281h-203q104 153 183.5 266.5t208 288t255 324.5t238.5 259q-91 -7 -218.5 25.5t-195.5 26.5q-109 -10 -205 -86t-106 -177q24 34 56.5 18.5t29.5 -46.5q-2 -25 -21.5 -41t-54.5 -2q-48 17 -45 65
q5 92 61 174.5t139 133t170 59.5q64 6 131.5 -6t115.5 -25t132 -8t189 39z" />
    <glyph glyph-name="eight" unicode="8" horiz-adv-x="1007" 
d="M803 1278q115 0 202.5 -41.5t119.5 -108t18 -141t-107.5 -149t-251.5 -123.5q110 -78 173.5 -166t76.5 -167t-13 -152t-86.5 -126t-154.5 -84.5t-207 -31.5q-78 0 -148.5 15.5t-123 43.5t-93 65.5t-57 83t-16 94.5t30 101.5t80 103t136.5 99.5t198 90
q-85 73 -128.5 148.5t-44.5 139.5t28 121.5t83 97.5t128 63.5t157 23.5zM567 31q107 0 180 22.5t106 61t40.5 89.5t-13 109t-58.5 118t-91.5 117.5t-116.5 106.5q-238 -96 -320 -249q-64 -119 -12 -225q46 -97 166 -133q55 -17 119 -17zM752 741q154 56 232 174
q68 103 42 194q-25 92 -137 119q-39 9 -86 9q-109 0 -174.5 -31.5t-81.5 -84t2 -117t71.5 -133.5t131.5 -130z" />
    <glyph glyph-name="nine" unicode="9" horiz-adv-x="1150" 
d="M1196 1155q86 -128 46.5 -329t-181.5 -398q-164 -228 -403.5 -340t-526.5 -98l23 39q244 0 410 94t308 303q125 187 182 386t17 316q-22 61 -61.5 85t-96.5 24q-85 0 -172 -43.5t-154 -113.5t-117 -150t-69 -160t-2 -137q18 -58 73 -81t123.5 -10.5t135.5 41t117 71.5
t61 83q-20 -18 -39.5 -15t-32 21.5t-6.5 36.5q5 25 27 37t55 -6q47 -27 37 -74q-12 -46 -69 -101.5t-137 -97.5t-163 -64.5t-157.5 -2t-110.5 89.5q-24 46 -27 108t16.5 129t56 136t94 130.5t126.5 109.5t159 76t186 28q190 0 272 -123z" />
    <glyph glyph-name="colon" unicode=":" horiz-adv-x="555" 
d="M240 -12q-39 0 -66 27.5t-27 64.5q0 40 26.5 67t66.5 27q38 0 65 -27t27 -67q0 -37 -27 -64.5t-65 -27.5zM354 328q-39 0 -65.5 27.5t-26.5 64.5q0 40 26 67t66 27q38 0 65 -27t27 -67q0 -37 -27 -64.5t-65 -27.5z" />
    <glyph glyph-name="semicolon" unicode=";" horiz-adv-x="530" 
d="M371 328q-39 0 -65.5 27.5t-26.5 64.5q0 40 26 67t66 27q38 0 65 -27t27 -67q0 -37 -27 -64.5t-65 -27.5zM262 166q60 0 78.5 -45t1.5 -103q-27 -93 -107.5 -185t-150.5 -116l-2 33q70 49 107 113t20 137q-41 26 -41 76q0 37 28 63.5t66 26.5z" />
    <glyph glyph-name="less" unicode="&#x3c;" horiz-adv-x="894" 
d="M799 1065q-75 -143 -180.5 -262.5t-253.5 -237.5q42 -63 64 -191.5t7 -207.5l-26 -19q-43 230 -301 428q212 106 371 222.5t290 269.5z" />
    <glyph glyph-name="equal" unicode="=" horiz-adv-x="1251" 
d="M188 416l64 76h874l-61 -76h-877zM369 811h876l-63 -76h-875z" />
    <glyph glyph-name="greater" unicode="&#x3e;" horiz-adv-x="933" 
d="M178 147l-28 3q75 143 180 261.5t254 237.5q-42 64 -64.5 192.5t-7.5 207.5l27 18q43 -230 301 -428q-212 -106 -371.5 -223t-290.5 -269z" />
    <glyph glyph-name="question" unicode="?" horiz-adv-x="1189" 
d="M1255 1212q19 -79 -13.5 -163t-99.5 -156.5t-151 -143.5t-169 -134t-153.5 -118.5t-104.5 -105t-21 -86.5q13 -34 69 -35.5t119 41.5l31 -8q-43 -43 -111 -60t-127.5 -4.5t-83.5 50.5q-22 36 -16 77.5t35.5 82t75 86.5t102 91t116 94.5t117.5 98.5t107 102t83.5 105.5
t47 109t-1.5 111.5q-18 80 -73.5 120t-139.5 40q-82 0 -169 -27.5t-162 -76t-125 -123.5t-54 -160q-4 -61 22 -104.5t69.5 -61t94.5 -18t97 17.5q69 25 100 74.5t2 109.5q-6 -26 -25 -34.5t-36.5 -1.5t-22.5 22t-5 30.5t14 27.5t40 12q46 2 68 -49q26 -59 -6 -125
q-34 -69 -117 -99q-54 -21 -114 -20.5t-112.5 21t-85 71.5t-28.5 123q6 95 58 176t131.5 133.5t176 81.5t193.5 29q137 0 232.5 -56t125.5 -168zM455 -12q-39 0 -66 27.5t-27 64.5q0 40 26.5 67t66.5 27q38 0 65 -27t27 -67q0 -37 -27 -64.5t-65 -27.5z" />
    <glyph glyph-name="at" unicode="@" horiz-adv-x="1806" 
d="M1599 494q37 18 64 -13q14 -14 14 -57q-8 -111 -149 -221t-346 -177t-396 -67q-102 0 -187 20.5t-154 64t-109 118t-43 174.5q-2 100 36 213t107 223t172.5 210.5t224.5 176.5t271.5 121t306.5 45q181 0 291 -84t110 -250q0 -95 -59 -210t-146 -208.5t-194.5 -157
t-198.5 -63.5q-70 0 -100 32.5t-27 90.5q-109 -123 -227 -123q-130 0 -152 97q-21 88 50 208q70 120 182 186q86 50 172 50q45 0 71 -24.5t29 -67.5q29 56 48 78h139q-15 -25 -34.5 -60.5t-52.5 -96.5t-57.5 -116.5t-44 -107.5t-18 -83.5t26.5 -31.5q78 0 176.5 59.5
t181.5 148.5t140 202t57 211q0 143 -103.5 218.5t-269.5 73.5q-139 0 -270.5 -44t-235 -116.5t-190 -168.5t-143.5 -200.5t-87.5 -211.5t-28.5 -203t32.5 -166t84.5 -110.5t121 -59t150 -18.5q123 0 264.5 39.5t255.5 98.5t195 133t93 139q-32 -17 -59 10q-15 14 -11 38.5
t27 37.5zM1192 764q5 34 -12.5 63t-53.5 29q-76 0 -173 -118q-89 -107 -125.5 -219.5t18.5 -132.5q10 -3 22 -3q111 0 226 135q16 90 98 246z" />
    <glyph glyph-name="A" unicode="A" horiz-adv-x="2590" 
d="M2241 -2q48 0 116 74t127 170.5t111 203.5h35q-238 -487 -389 -487q-364 0 -34 704q3 7 5 11q7 18 12 26h-377q-36 -72 -63 -123.5t-66.5 -119t-74 -115t-81.5 -103.5t-94 -94t-107 -75.5t-123.5 -60t-141 -36.5t-162.5 -14q-343 1 -535 175q-139 128 -158 307
q-18 167 76 302q101 146 289 181q52 10 109 10q116 0 220 -39.5t174.5 -114t86.5 -168.5q15 -98 -29.5 -183.5t-131.5 -134.5t-191 -46q-134 3 -211 75t-58 138q4 26 21.5 43.5t52.5 17.5q44 0 67 -30t15 -64q-7 -26 -31.5 -44.5t-62.5 -18.5q77 -86 194 -86q172 0 248.5 95
t55.5 244q-12 76 -56.5 135t-105 91t-122 47.5t-120.5 15.5q-223 0 -342 -141q-99 -116 -91 -281q7 -168 121 -298q144 -163 392 -186q36 -3 74 -3q66 0 126.5 13t111 33.5t100 56.5t88 71t80 88.5t71.5 98t67 109.5t62 113t60 119h-156l37 39h139q36 68 56 104.5t56.5 100
t61.5 100.5t64.5 91.5t72 88t77.5 74.5t88 68t96 51t110 39l43 -35q-61 -26 -116 -65.5t-101.5 -92.5t-85.5 -107.5t-79 -126.5t-70.5 -132.5t-70.5 -142.5q-5 -10 -7 -15h375q22 43 72 136q32 58 48 88.5t44.5 86.5t40 88t28.5 80.5t16.5 77t-2 65t-21.5 57t-48 40t-75 28
t-108 7.5q-339 -4 -619 -191q-187 -125 -287 -289q-88 -146 -61 -246q27 -99 161 -101q24 -1 51 2l-25 -29q-160 -11 -220 92q-56 96 -2 243q62 169 232 308q246 202 606 244q86 10 175 10q101 0 175 -15t119.5 -39.5t70.5 -63.5t31 -80t-4 -97t-27.5 -106.5t-46.5 -116
t-56 -117.5t-60 -119t-53 -114q-151 -353 -185 -508q-36 -162 30 -162z" />
    <glyph glyph-name="B" unicode="B" horiz-adv-x="2480" 
d="M2419 348q92 -13 149 -8l-2 -33q-23 -1 -153 8q-49 -154 -202.5 -254t-363.5 -100q-91 0 -155 25.5t-90.5 66t-25 89t33.5 94.5q28 43 66.5 74.5t77.5 50t91.5 28t95.5 11.5t104.5 -2t103.5 -9.5t106 -15.5q8 36 8 94q0 64 -21 124.5t-51 92.5q-17 -8 -40.5 -18
t-62.5 -24t-74.5 -21t-68.5 -7.5t-53 15.5t-20 49q0 46 35 73.5t85 32.5t102.5 -3t90.5 -27q62 53 109.5 129.5t73 157.5t27 162.5t-21.5 146t-81 105.5t-144 42q-250 2 -504 -168q-186 -124 -300 -289q-109 -157 -91 -260q19 -109 176 -109q24 0 50 3l-27 -35
q-173 -12 -226 98q-49 100 19 257q74 170 245 309q237 194 543 227q57 6 115 6q99 0 178 -26.5t128.5 -71.5t78 -105t33 -126.5t-13 -137t-54 -135t-95 -122.5t-132.5 -97q62 -33 105.5 -99t52.5 -139q6 -68 -10 -129zM1905 682q0 -19 31 -20t73.5 11.5t79 25.5t55.5 22
q-32 20 -74.5 26.5t-78.5 1t-61 -23.5t-25 -43zM1792 -2q104 -3 198.5 36.5t164 120.5t94.5 189q-68 10 -118.5 15.5t-115 8.5t-114.5 -5t-100.5 -24t-89.5 -48.5t-66 -79.5q-25 -52 -21.5 -98t48 -78.5t120.5 -36.5zM2304 1393q-67 -38 -125 -96.5t-114.5 -151.5
t-89.5 -156.5t-94 -189.5q-43 -90 -66 -136t-69 -130.5t-78 -131t-84.5 -116t-98.5 -109t-111.5 -86.5t-131.5 -71.5t-148.5 -41t-173.5 -16.5q-344 0 -536 175q-140 128 -160 307q-18 167 74 302q100 146 286 183q54 10 112 10q118 0 222.5 -41t175.5 -116.5t86 -170.5
q21 -147 -88.5 -257t-266.5 -107q-132 4 -206.5 76t-59.5 143q5 24 23 41.5t47 17.5q45 0 69 -29.5t15 -64.5q-6 -28 -31 -46.5t-64 -18.5q75 -84 199 -84q168 0 245.5 95t51.5 238q-12 79 -54.5 138.5t-102.5 91.5t-122 47.5t-124 15.5q-218 0 -335 -141q-97 -116 -90 -281
q8 -169 122 -299q142 -163 390 -185q34 -3 70 -3q119 0 221 40.5t179 111.5t145 163.5t126 200t114.5 217t119 218.5t130.5 201t158.5 168t193.5 116z" />
    <glyph glyph-name="C" unicode="C" horiz-adv-x="1183" 
d="M1442 1536q128 -1 154 -98q26 -98 -60 -242q-98 -163 -282 -286q-277 -185 -612 -183q-33 0 -67 2q-56 -103 -93.5 -205.5t-50 -197t2.5 -167t70 -116t147 -43.5q207 0 372 145q118 104 163 231q42 116 -6 173q-29 35 -88 35q-71 0 -131.5 -49.5t-84.5 -118.5t1 -123
q7 26 25 39.5t36 13t33.5 -10.5t19.5 -26q4 -20 3.5 -41.5t-20.5 -38.5t-56 -18q-65 -1 -83 71q-21 79 23 175q48 109 144 150q47 20 100 18q110 -2 141 -94q32 -93 -30 -222q-69 -146 -216 -242q-169 -110 -383 -108q-107 1 -184.5 29t-120 74.5t-62.5 110.5t-17 134.5
t22.5 149t50 152t70.5 145.5q-90 19 -164.5 57t-121.5 84.5t-69.5 100.5t-16.5 105.5t45.5 100.5t109.5 84q12 8 20 10l31 -16q-3 -2 -10 -4t-11 -4q-134 -62 -142 -154.5t95 -174t273 -120.5q70 105 153 203t188 192.5t213.5 164t232.5 112t243 41.5zM1444 1493
q-119 0 -247.5 -67t-238 -173.5t-197.5 -222t-151 -229.5q331 -30 605 143q173 108 269 261q81 128 63 214q-15 74 -103 74z" />
    <glyph glyph-name="D" unicode="D" horiz-adv-x="1951" 
d="M1061 1536q456 0 715 -225q194 -168 236 -421q38 -237 -67 -462q-105 -222 -314 -347q-200 -120 -455 -120q-204 0 -361 45q-291 -89 -498 -11q-122 46 -171 132q-41 72 -3 125q46 66 180 49q184 -23 455 -199q71 47 128.5 109t97 127t73.5 137.5t63.5 144t61.5 143
t72 138.5t90 125.5t122 109.5t161 85l36 -43q-83 -48 -142 -120t-94.5 -151.5t-66 -169t-67 -182t-86.5 -179t-137 -171t-205 -148.5q151 -59 311 -59q263 0 444 184q154 157 200 393q47 245 -42 465q-97 238 -326 356q-187 97 -440 97q-394 0 -609 -190
q-149 -133 -173 -320q-21 -166 63 -299q86 -135 242 -168q110 -23 238 14q57 17 112 50.5t102.5 82t72 118t14.5 147.5q-21 142 -123.5 211t-263.5 22q-112 -28 -162 -141q42 11 68.5 2t39.5 -33q19 -30 6 -66.5t-57 -50.5q-29 -8 -51 4t-33 37q-13 22 -14 51.5t11 62.5
t36 64.5t64.5 59.5t91.5 45q76 25 151.5 15t137 -42t104 -90.5t53.5 -132.5q18 -140 -88.5 -266t-278.5 -180q-237 -69 -406 39q-130 83 -175 240q-49 171 25 341q85 195 300 305q217 111 531 111zM711 66z" />
    <glyph glyph-name="E" unicode="E" horiz-adv-x="1370" 
d="M1282 1534q169 0 219 -84q40 -68 -18 -157q-65 -101 -215 -161q-219 -86 -500 -30q-22 -37 -38 -87.5t-19 -106.5t22 -93q74 38 165 59q140 32 135 -40q0 -9 -3 -19q-13 -47 -51.5 -74t-85 -31t-92.5 3.5t-80 25.5q-106 -56 -205 -198q-112 -158 -131 -303
q-23 -166 98 -219q50 -21 121 -21q254 0 444 149q128 101 177 225q43 110 -3 169q-31 41 -100 41t-126.5 -47.5t-81 -116t-3.5 -127.5q7 36 34 48.5t53.5 1.5t33.5 -34q13 -33 -3 -64t-66 -32q-69 -2 -90 71q-22 77 21 174q47 108 141 151q48 21 102 20q110 -1 144 -91
q35 -90 -23 -215q-67 -146 -220 -243q-185 -119 -434 -119q-300 0 -388 148q-69 114 7 280q71 155 231 279q90 70 191 114q-57 41 -77 107t-9.5 131t41.5 129q-81 26 -152 67.5t-117.5 95.5t-58 110t34 115t150.5 107l35 -16q-107 -43 -149 -93.5t-27 -96t65.5 -90
t116.5 -77.5t139 -57q95 148 280 235t365 87zM1327 1495q-155 0 -298.5 -86t-231.5 -244q296 -65 497 29q115 54 156 139q35 73 -8 121q-36 40 -115 41zM1004 809q5 20 -24 23q-55 5 -158 -33q-34 -13 -50 -23q35 -27 87 -32t94 13t51 52z" />
    <glyph glyph-name="F" unicode="F" horiz-adv-x="2011" 
d="M2339 1364q-51 -20 -97.5 -52.5t-83 -66.5t-75 -85.5t-65 -92t-60.5 -106.5t-54.5 -108.5t-54.5 -115.5q22 0 45.5 0.5t39 1t18.5 0.5q16 59 40 97.5t49 53.5t50.5 16.5t46.5 -10t35 -30.5q18 -23 19.5 -51t-13.5 -54t-59 -44t-111 -19q-19 -81 -61 -149t-109 -86
q-13 3 -18 14q32 17 58 61t36.5 76.5t23.5 83.5h-110q-46 -97 -77 -158t-83.5 -148t-99 -141t-116 -116t-143 -96.5t-170.5 -57t-208 -22.5q-346 0 -538 175q-140 128 -159 307q-18 167 74 302q101 146 288 183q54 10 112 10q181 0 319.5 -91.5t161.5 -236.5
q15 -96 -30 -181t-132.5 -134t-191.5 -47q-133 3 -207.5 75.5t-59.5 141.5q5 27 23 44t49 17q47 0 69.5 -29.5t14.5 -64.5q-6 -28 -30.5 -45.5t-65.5 -17.5q75 -91 196 -91q169 0 246.5 96.5t56.5 241.5q-10 63 -41 114.5t-72.5 84.5t-93 55t-100.5 31.5t-96 9.5
q-220 0 -338 -140q-98 -117 -91 -281q7 -169 121 -300q143 -163 390 -187q37 -3 76 -3q65 0 125 12.5t109 31.5t96.5 53.5t83 66t75.5 83.5t66.5 91.5t62 103.5t57 106t56.5 112q13 27 20 40h-147l26 41h142q35 71 64 124t68.5 117.5t77 112.5t86.5 99t100 87.5t114.5 67
t132.5 48.5zM2154 848q-15 24 -38.5 28t-51.5 -29.5t-45 -107.5q40 -2 70 5t45.5 19.5t23 27.5t6 30t-9.5 27zM3109 1575q10 -50 -25.5 -85t-106.5 -52.5t-155 -26.5t-183 -8.5t-176.5 3.5t-150.5 7t-92 4q-186 0 -332 -29t-282 -108q-155 -90 -250.5 -213.5t-106.5 -228.5
q-9 -91 46.5 -138.5t174.5 -29.5l-22 -31q-127 -10 -188.5 47.5t-55.5 159.5q8 124 111 268t276 250q280 172 688 172q79 0 212 -11.5t224.5 -18.5t202 8t191.5 61z" />
    <glyph glyph-name="G" unicode="G" horiz-adv-x="1402" 
d="M1143 330q101 202 188 362h189q-45 -84 -233 -442.5t-191 -366.5q-45 -93 -70.5 -144t-73.5 -139.5t-83.5 -140.5t-92 -126t-107 -117.5t-120.5 -94t-141.5 -77.5t-160.5 -45.5t-186 -18.5q-342 1 -534 175q-139 128 -158 307q-18 167 74 302q102 146 290 181
q52 10 109 10q179 0 319 -91.5t163 -234.5q15 -95 -30 -180.5t-132.5 -135.5t-190.5 -48q-68 2 -123.5 25.5t-87.5 56.5t-47 69.5t-10 67.5q5 25 24.5 41t51.5 16q43 0 65 -28.5t13 -63.5q-5 -27 -28.5 -44t-64.5 -17q79 -95 199 -95q166 0 244 98t55 242q-12 79 -55.5 139
t-104 93t-122.5 49t-123 16q-218 0 -336 -140q-97 -117 -90 -281q7 -170 121 -301q142 -163 389 -186q36 -3 73 -3q70 0 134.5 14.5t118 36t107.5 61.5t94 76t87 95.5t78 103.5t74 117t68.5 118.5t68.5 125.5t67 122q74 148 144 277q-218 -204 -443 -207q-107 0 -183 26.5
t-116 72.5t-56.5 109.5t-10 134t30 149.5t56.5 152.5t75 146.5q-93 20 -169.5 59.5t-124.5 88t-69.5 104.5t-13 108.5t52.5 101t121 80.5l37 -12q-150 -58 -165 -156q-13 -91 90 -177q106 -89 282 -128q94 135 204 255.5t243 228t285 171t298 62.5q128 -1 153 -97
q25 -97 -64 -242q-100 -163 -285 -287q-278 -186 -610 -186q-41 0 -83 3q-61 -105 -102 -207.5t-56.5 -196t-2 -165t67.5 -115t146 -45.5q111 -3 267.5 104t232.5 228zM1479 1497q-94 0 -197.5 -45.5t-195.5 -118t-180.5 -166.5t-156.5 -186.5t-120 -181.5q329 -30 608 143
q177 110 278 265q83 128 68 214q-14 76 -104 76z" />
    <glyph glyph-name="H" unicode="H" horiz-adv-x="2463" 
d="M2699 1380q127 104 243.5 139.5t198.5 -12t101 -178.5l-25 -31q-10 100 -58 145.5t-114 36.5t-142.5 -61.5t-145.5 -138.5h-2q-158 -200 -347 -618q-15 -33 -31.5 -71t-40 -95t-43.5 -111t-39.5 -113t-30.5 -108t-14.5 -89t7 -62.5t35.5 -22.5q67 0 168.5 138.5
t185.5 311.5h33q-40 -89 -83.5 -168.5t-95.5 -156.5t-107 -122.5t-103 -45.5q-334 0 -92 583q16 37 43 99q11 26 16 37q8 10 12 26h-401q-42 -93 -77 -163t-85 -151.5t-99.5 -140.5t-116.5 -116.5t-140 -93.5t-165.5 -58t-197.5 -22q-346 1 -539 177q-140 127 -159 307
q-18 168 74 303q101 148 289 185q56 11 116 11q117 0 220.5 -40.5t174 -116.5t86.5 -173q12 -71 -12 -139t-73.5 -117.5t-121 -78.5t-149.5 -27q-69 2 -125 24.5t-87 55.5t-45.5 69t-8.5 68q13 61 71 61q45 0 68.5 -29.5t15.5 -64.5q-3 -28 -29 -46t-67 -18q71 -92 197 -92
q87 0 151.5 27.5t100 75t48.5 108.5t1 131q-12 78 -55.5 137.5t-103 92t-121.5 48t-122 15.5q-221 0 -341 -140q-98 -116 -92 -281q7 -169 121 -300q142 -163 389 -186q38 -4 77 -4q83 0 157.5 21.5t132 53t114.5 89.5t96 108t87 134t77 141.5t75 154.5h-125l35 41h111
q34 71 51 107t51 102.5t56 104t58 95t66 93t71 80.5t80.5 74.5t88 58t100.5 47.5h-32q-341 -5 -623 -193q-188 -127 -289 -292q-89 -147 -63 -248q26 -99 159 -103q25 0 54 3l-23 -29q-161 -11 -220 92q-56 96 -2 244q62 169 232 309q248 203 610 246q86 10 177 10
q119 0 209 -23l-88 -32q-69 -29 -132 -82.5t-109 -111.5t-95.5 -145.5t-82.5 -155.5t-80 -172q-24 -53 -36 -79h406q84 184 198.5 356.5t249.5 290.5h2z" />
    <glyph glyph-name="I" unicode="I" horiz-adv-x="1855" 
d="M2251 1536q125 0 217 -20l-90 -33v0q-72 -30 -137.5 -87.5t-108 -107.5t-100 -155.5t-80 -154t-81.5 -180.5q-53 -118 -82 -179.5t-86.5 -167.5t-103 -164t-119 -133t-148 -113t-175.5 -66t-215 -28q-347 1 -540 177q-141 128 -160 309q-17 167 76 302q101 147 289 184
q55 11 114 11q183 0 321 -90.5t162 -237.5q16 -97 -29.5 -182t-133.5 -134t-193 -48q-69 2 -125.5 24t-89 54t-47 68.5t-6.5 68.5q10 63 71 63q48 0 71 -30t13 -66q-7 -26 -31 -45t-61 -19q66 -88 193 -88q171 0 249.5 97t55.5 243q-12 78 -55.5 137.5t-104 92t-123 48
t-123.5 15.5q-221 0 -340 -140q-98 -117 -91 -281q7 -170 121 -300q144 -164 394 -187q36 -3 74 -3q121 0 223 43t177.5 118t140.5 173t120.5 211t109 228.5t115.5 229.5t130 210.5t161.5 174t202.5 117.5h-30q-343 -4 -625 -191q-190 -126 -290 -291q-90 -147 -64 -247
q26 -99 156 -103q27 -1 59 3l-23 -33q-163 -11 -223 93q-56 97 -2 246q62 168 233 308q247 203 609 246q87 10 178 10z" />
    <glyph glyph-name="J" unicode="J" horiz-adv-x="937" 
d="M1579 1511l-76 -26v-2q-83 -34 -166 -123.5t-151.5 -203t-147.5 -273t-143 -305t-148.5 -327.5t-154.5 -314q90 -21 165 -59.5t123.5 -85t73 -100.5t19.5 -105.5t-43.5 -99.5t-108.5 -83q-5 -2 -11 -5.5t-7 -4.5l-35 14q10 3 20 10q143 63 142 164q-2 90 -115 173
q-104 75 -260 110q-70 -105 -152 -204.5t-186 -196t-211 -168t-230 -115.5t-239 -43q-129 1 -155 98q-28 99 57 245q96 165 279 290q272 187 602 189q41 0 83 -3q47 93 110.5 227t112.5 239t113 233t118.5 227.5t122 203t131.5 178.5t139 136t151 92q-7 0 -23 1t-24 1
q-338 -5 -618 -192q-187 -125 -287 -289q-88 -145 -62 -244q26 -98 158 -101q25 0 53 3l-25 -35q-159 -10 -217 93q-55 97 0 245q63 169 233 308q248 203 609 244q82 9 168 9q111 0 213 -25zM-467 -821q95 0 198.5 46.5t193 119.5t175.5 168.5t151 188.5t116 185
q-331 28 -605 -148q-173 -111 -270 -266q-81 -131 -63 -218q15 -76 104 -76z" />
    <glyph glyph-name="K" unicode="K" horiz-adv-x="2451" 
d="M2382 1481q-59 -25 -110.5 -62.5t-99 -97.5t-80 -104.5t-77.5 -134t-65 -132t-67 -148.5q-41 -93 -63 -140.5t-65.5 -133.5t-74 -133.5t-80.5 -118.5t-95 -110.5t-108 -87.5t-127.5 -72.5t-146 -41.5t-171.5 -17q-346 1 -540 176q-141 128 -160 309q-19 169 74 304
q102 148 290 185q55 11 115 11q117 0 221 -40t175 -116.5t85 -175.5q17 -96 -28 -181.5t-133 -135t-193 -47.5q-69 2 -125.5 25t-88.5 56.5t-46.5 70t-9.5 67.5q10 59 71 59q47 0 70.5 -28.5t15.5 -65.5q-15 -60 -96 -60q66 -90 199 -90q170 0 249 96.5t56 243.5
q-11 62 -42.5 113.5t-73.5 84.5t-93.5 55.5t-101 32t-97.5 9.5q-222 0 -341 -141q-98 -117 -91 -282q8 -169 123 -300q144 -164 391 -187q37 -3 76 -3q85 0 161 23.5t133 53.5t117.5 96t96.5 111t89 141.5t76.5 145t76.5 159.5q61 129 95 196.5t99 176.5t121 172t138.5 127
t174.5 97h-30q-340 -3 -622 -191q-188 -125 -288 -290q-89 -146 -65 -246q24 -98 152 -103q27 -1 59 3l-23 -33q-160 -11 -220 92q-55 96 -1 246q61 170 232 311q246 204 606 247q88 11 180 11q107 0 219 -22zM2957 1536q92 -2 154 -50t76 -151l-25 -35q-9 90 -52.5 136.5
t-107.5 46.5q-58 0 -126 -61.5t-137.5 -158.5t-141.5 -200t-161 -202t-173 -148q43 -49 56 -115.5t2 -133t-33 -136t-46 -128.5t-40 -106.5t-12 -74.5t36 -27q27 0 62.5 27.5t68.5 66.5t75.5 102.5t73 113.5t73.5 121q7 11 10 17h30q-242 -491 -395 -493q-79 -1 -122.5 20
t-53 56.5t-2 85t29.5 104t43 114.5t37 115t13 108t-31 91q-64 -30 -119.5 -39t-94 12.5t-38.5 77.5q-2 65 51.5 92t121.5 18.5t120 -38.5q64 60 128.5 149.5t111.5 170.5t106 166.5t116.5 147t139 100.5t176.5 38zM1913 702q0 -28 25 -36t61.5 1.5t79.5 30.5
q-29 29 -68 40.5t-67.5 1.5t-30.5 -38z" />
    <glyph glyph-name="L" unicode="L" horiz-adv-x="1839" 
d="M1620 442q135 -75 147 -200q11 -115 -85 -219q-110 -120 -298 -154q-277 -50 -590 113l-40 22q-267 -99 -461 -29q-115 41 -162 124q-39 71 -3 124q45 66 176 49q171 -22 423 -184q31 21 60.5 46.5t59 58.5t52.5 60.5t53 69.5t47.5 67t49 71.5t45.5 66.5
q-347 -11 -550 165q-147 127 -177 312q-28 173 56 316q88 151 262 197q66 18 140 18q172 0 302.5 -85.5t150.5 -221.5q21 -139 -83 -244t-249 -102q-65 2 -118 24t-83 54t-44 67t-9 66q24 55 70 55q42 0 64 -28.5t14 -59.5q-5 -26 -27 -43t-59 -17q65 -83 180 -83
q157 0 233 91.5t50 223.5q-10 73 -50.5 129.5t-97 87t-114.5 46t-115 15.5q-199 0 -317 -135q-102 -116 -104 -281q-2 -177 112 -315q147 -179 427 -212q75 -10 158 -7q29 42 93.5 149.5t123.5 205.5t142.5 216t159 203t163 143t164.5 58q98 0 100 -111q3 -127 -109 -328
q-123 -219 -300 -375q-185 -163 -359 -185q-12 -16 -60.5 -84t-62 -85t-54.5 -69.5t-64.5 -74.5t-64 -60t-81 -66t-88.5 -55q284 -106 545 -52q184 38 279 137q86 89 53 179q-24 66 -111 115zM1970 1501q-53 0 -132.5 -84t-161.5 -214t-152 -254t-130 -238t-71 -131
q191 40 392 273q155 179 246 383q77 174 50 238q-11 27 -41 27zM662 51z" />
    <glyph glyph-name="M" unicode="M" horiz-adv-x="3055" 
d="M2296 1432q-60 -25 -112.5 -61.5t-99.5 -96t-78.5 -102.5t-74 -132t-60.5 -129.5t-63 -146.5q-37 -88 -57 -133.5t-59.5 -128t-68 -128t-75.5 -113t-90 -105.5t-103.5 -83.5t-124 -68.5t-143.5 -39t-169 -16q-347 1 -542 177q-140 127 -161 307q-19 168 74 303
q100 147 286 185q56 11 117 11q181 0 321 -92t163 -238q15 -96 -31 -182.5t-134 -136t-192 -45.5q-70 2 -127 25t-89 56t-45.5 70t-4.5 68q3 26 20.5 43.5t47.5 17.5q46 0 71.5 -30t18.5 -62q-21 -66 -101 -66q76 -92 201 -92q115 0 189.5 48t100.5 124t9 168
q-10 64 -40 116.5t-71.5 85.5t-93 55.5t-101.5 32t-99 9.5q-219 0 -337 -141q-98 -117 -91 -283q8 -170 122 -301q144 -164 392 -187q36 -3 73 -3q85 0 159.5 21.5t132 54t112.5 89.5t93.5 110t82 133.5t72 142t70.5 153.5q42 94 65 143t67.5 135.5t78 135.5t86.5 115
t104.5 105.5t119.5 76.5t144 57q29 -10 45 -32zM2812 -8q46 0 113.5 72t128.5 170t112 206h29q-37 -87 -80 -168t-94 -156.5t-106.5 -121t-104.5 -45.5q-226 0 -199 243q19 169 182 523q25 56 78 166q139 296 175 406q60 188 -30 204q-9 2 -20 2q-79 0 -162 -75.5
t-155 -198.5q-78 -141 -160 -331t-176 -423.5t-152 -364.5h-202q114 264 181 421t155.5 385.5t117.5 340.5q17 52 10.5 98t-31.5 80.5t-80.5 53.5t-135.5 18q-341 -7 -621 -197q-189 -128 -288 -293q-89 -147 -61 -246q26 -99 160 -100q23 0 48 3l-25 -31q-158 -11 -217 91
q-55 97 0 246q62 170 233 310q247 204 608 246q84 10 173 10q369 0 399 -193q79 89 181.5 141t205.5 52q223 0 186 -268q-24 -178 -186 -549q-21 -49 -64 -144q-134 -299 -165 -405q-46 -174 39 -178z" />
    <glyph glyph-name="N" unicode="N" horiz-adv-x="2605" 
d="M3242 1536q176 0 211 -207l-29 -33q-16 197 -178 197q-66 0 -147 -68t-157.5 -175t-159 -253.5t-151 -287t-136 -292.5t-110 -254.5t-76.5 -187.5q-8 -19 -11 -28h-68h-98h-31q23 94 35.5 261.5t19.5 338t21.5 344.5t52.5 325t101 236q-74 -44 -137.5 -111.5t-120 -166
t-93.5 -174.5t-95 -205q-53 -120 -82 -182t-87.5 -169.5t-104.5 -166t-120.5 -134.5t-149.5 -114.5t-177 -66.5t-218 -28q-351 1 -547 178q-142 128 -163 309q-20 169 73 306q100 148 288 187q58 12 122 12q120 0 226 -40.5t177.5 -117t85.5 -174.5q24 -150 -87.5 -261
t-274.5 -108q-133 3 -209 76t-62 141q11 64 76 64q45 0 68.5 -30.5t15.5 -65.5q-7 -27 -30.5 -44.5t-63.5 -17.5q69 -92 195 -92q174 0 254.5 97.5t54.5 244.5q-12 79 -56.5 139.5t-105.5 94.5t-124 50.5t-124 16.5q-224 0 -344 -142q-100 -117 -94 -285q7 -171 122 -304
q143 -165 390 -191q41 -4 84 -4q123 0 226.5 43.5t179.5 119.5t142 175t122.5 213.5t111 231.5t117 232t132 212.5t164.5 176t206 118.5h-33q-347 -5 -632 -194q-192 -127 -293 -294q-90 -147 -64 -249q25 -100 155 -105q29 -2 62 2l-27 -30q-162 -11 -222 92q-57 96 -3 244
q61 170 231 312q246 205 608 251q95 12 195 12q121 0 213 -20q-37 -33 -64 -102.5t-42 -149.5t-27 -198t-17.5 -215.5t-14 -237t-15.5 -228.5q46 118 93 224.5t107.5 225t122 217t135.5 190.5t148 155t160 101t172 38z" />
    <glyph glyph-name="O" unicode="O" horiz-adv-x="1669" 
d="M1493 1415q269 0 343 -177q65 -157 -37 -406q-100 -243 -313 -465q-244 -253 -524 -358q-169 -64 -331 -62q-283 4 -372 193q-78 168 12 431q87 258 296 496q231 264 512 386q192 83 381 83q154 0 240 -47q-7 -3 -24.5 -11.5t-22.5 -9.5q-71 21 -191 21q-258 0 -522 -241
q-214 -196 -363 -481q-141 -272 -152 -485q-11 -210 117 -271q46 -21 107 -21q218 0 472 223q212 185 369 449q156 263 174 459q17 197 -120 242q-37 13 -86 13q-200 0 -359 -141q-113 -100 -154 -222q-38 -111 11 -164q28 -32 84 -32q41 0 80 19t66.5 49.5t46.5 68t19.5 74
t-13.5 68.5q-7 -32 -31.5 -42.5t-48 -1.5t-31.5 29q-11 34 5.5 63.5t68.5 29.5q63 2 81 -67q19 -76 -23 -170q-48 -105 -140 -143q-43 -17 -90 -16q-106 1 -136 90q-30 90 31 215q70 142 213 232q158 100 355 100z" />
    <glyph glyph-name="P" unicode="P" horiz-adv-x="2201" 
d="M2175 1536q274 -1 382 -152q87 -121 41 -297q-45 -172 -194 -313q-183 -173 -433 -211q-63 -10 -128 -10l23 55q181 0 340 156q131 129 190 304q60 178 6 296q-57 125 -227 125q-251 0 -507 -172q-188 -125 -302 -290q-109 -157 -90 -260q20 -109 182 -107q19 0 41 2
l-18 -31q-175 -12 -229 99q-50 102 18 260q73 171 244 312q236 194 541 228q59 6 120 6zM2343 1391q-70 -39 -134 -107t-113.5 -148.5t-101 -177t-96.5 -194t-100.5 -197.5t-112.5 -190t-133.5 -169t-162.5 -136.5t-200 -90t-245 -32.5q-347 0 -541 176q-140 127 -160 308
q-18 168 75 303q101 147 288 185q55 11 115 11q178 0 318 -93t163 -239q14 -95 -31.5 -180t-133.5 -134.5t-193 -47.5q-130 3 -204 75t-60 142q10 57 69 57q46 0 68.5 -28.5t17.5 -61.5q-5 -26 -30.5 -45t-63.5 -19q74 -94 193 -94q115 0 191 48.5t103.5 125t10.5 168.5
q-12 79 -55.5 139t-103.5 93t-122.5 49t-122.5 16q-221 0 -340 -140q-99 -116 -92 -281q7 -170 121 -300q143 -163 389 -187q37 -3 76 -3q120 0 223 40.5t181 111.5t146.5 163.5t127.5 199.5t116.5 217t122 218.5t133.5 201t161.5 168t197.5 115.5z" />
    <glyph glyph-name="Q" unicode="Q" horiz-adv-x="1943" 
d="M1698 440q138 -77 151 -204q12 -117 -84 -222q-111 -122 -302 -159q-281 -53 -602 107q-28 14 -56 30q-172 -68 -375 -32q-160 28 -241 103q-80 74 -28 149q3 4 7 9q30 39 83 49t110.5 -3t127 -41t122.5 -56t108 -58t74 -38q242 101 476 375q206 241 319 508
q111 264 70 412q-36 130 -185 130q-216 0 -467 -205q-203 -165 -349 -396q-145 -228 -152 -391q-8 -161 130 -192q29 -6 65 -6q193 0 347 138q109 98 148 216q35 108 -13 156q-27 27 -76 27q-65 0 -119.5 -45.5t-76.5 -108.5t-1 -112q9 33 33.5 44.5t47 2.5t28.5 -29
q11 -32 -4 -62.5t-64 -31.5q-60 -2 -77 66q-18 75 24 166q48 103 139 136q37 14 78 13q102 -1 130 -87q28 -88 -32 -209q-69 -138 -209 -224q-148 -91 -331 -91q-265 0 -332 160q-58 139 46 355q103 213 314 403q253 227 538 307q131 37 257 37q271 0 340 -183
q62 -165 -50 -430q-110 -258 -335 -498q-253 -269 -537 -388l-14 -6q285 -103 545 -47q184 40 279 140q85 91 51 183q-25 67 -111 117zM256 160q-28 -41 30 -98t166 -73.5t263 56.5q-133 74 -236 108.5t-154 33t-69 -26.5z" />
    <glyph glyph-name="R" unicode="R" horiz-adv-x="2531" 
d="M2628 440h38q-49 -94 -92 -168.5t-98.5 -155t-109.5 -125.5t-101 -46q-89 -1 -133.5 24.5t-48.5 71t11 101.5t40 122.5t44.5 128.5t18 124t-33.5 104q-45 -22 -87.5 -32t-78.5 -7t-58 27t-22 67q-1 47 27.5 74.5t71.5 32t90 -4t87 -28.5q44 42 86.5 102.5t75 130
t54 141.5t19.5 138t-25.5 117.5t-84 82.5t-153.5 31q-250 0 -507 -172q-188 -126 -303 -291q-110 -158 -92 -262q19 -109 179 -108q21 0 45 2l-23 -31q-175 -11 -229 100q-49 102 20 260q75 172 247 312q238 194 546 227q58 6 117 6q153 0 256.5 -46t146 -119t44 -166
t-39.5 -187.5t-115.5 -184.5t-172.5 -155q36 -40 53 -90t16 -99t-12 -101.5t-28.5 -101t-36 -93.5t-32.5 -82t-19.5 -65t4.5 -43t38 -15t63 27t70 70t74 102t74 117t71 120q6 11 9 16zM1939 682q-3 -42 56 -39q49 3 108 35q-16 16 -38.5 27t-44 14t-40 0.5t-30 -12.5
t-11.5 -25zM2333 1393q-67 -38 -126 -98.5t-113.5 -148t-93 -160.5t-95.5 -189q-44 -91 -68 -138t-71 -132t-79.5 -132.5t-86.5 -118.5t-101.5 -111t-113.5 -88t-133 -72.5t-151 -42t-175 -17.5q-347 0 -541 176q-140 129 -160 311q-18 168 75 305q101 147 286 184
q55 11 114 11q119 0 225 -41.5t177.5 -117.5t87.5 -171q14 -97 -32.5 -183t-134.5 -135t-192 -46q-70 1 -126.5 23t-88.5 54.5t-47 68t-10 67.5q17 63 76 63q44 0 67.5 -29.5t14.5 -64.5q-5 -28 -30.5 -48t-65.5 -20q80 -86 198 -86q115 0 191 47.5t103.5 124t10.5 170.5
q-12 78 -56.5 138t-105 93t-123.5 49.5t-124 16.5q-220 0 -338 -141q-99 -116 -92 -282q8 -171 122 -303q143 -165 390 -189q39 -4 80 -4q120 0 222.5 41t180.5 112.5t146.5 164.5t128 201t117 218.5t122.5 220.5t134.5 203t162 169.5t197.5 117.5z" />
    <glyph glyph-name="S" unicode="S" horiz-adv-x="1630" 
d="M2152 1536q66 0 106 -29.5t19 -93.5q-17 -52 -74.5 -102t-132.5 -86.5t-146.5 -62t-131.5 -38.5q-32 -74 -69 -181t-64.5 -196.5t-68 -195t-81.5 -188.5t-102.5 -163.5t-132.5 -134t-170 -86t-217 -32.5q-119 0 -221 24q-9 -162 73 -301l-18 -35q-96 154 -86 345
q-110 35 -194 102.5t-131.5 150t-67 178.5t-9 189.5t50.5 181.5t103 156.5t157 112.5t206 51q97 5 187 -20.5t162.5 -80t110.5 -129.5q203 153 389 238q79 172 175 268q155 158 378 158zM756 1069q-102 -7 -186.5 -48.5t-139.5 -106t-89.5 -147.5t-42.5 -170.5t9.5 -177.5
t58.5 -167t111.5 -139.5t161.5 -94.5q20 197 149 400q-89 28 -135 89t-35 114q18 61 72 61q47 0 70.5 -29t15.5 -65q-5 -27 -30.5 -45.5t-65.5 -18.5q53 -62 125 -80q136 207 358 390q-40 119 -155 181.5t-252 53.5zM1182 774q-2 2 -2 8q-188 -156 -328 -346q5 0 14 -1
t13 -1q169 0 247.5 98t55.5 242zM838 -16q84 0 157 27.5t126.5 73t102.5 115.5t83.5 142t71.5 166.5t63 175t61.5 182.5t65.5 174q-166 -84 -340 -217q1 -5 4.5 -16t6 -20.5t3.5 -18.5q16 -95 -29 -180.5t-133 -135.5t-194 -49q-25 0 -53 7q-142 -213 -162 -402
q102 -24 166 -24zM2216 1423q12 41 0.5 55.5t-51.5 14.5q-56 0 -124 -51t-130 -127q-60 -66 -88 -127q49 13 104 33t117 49.5t109 69.5t63 83z" />
    <glyph glyph-name="T" unicode="T" horiz-adv-x="1832" 
d="M887 2q124 0 227 41.5t177.5 113t138.5 165t118.5 200t108 215.5t117 214t135.5 193t172.5 155.5t220.5 97.5l43 -33q-93 -38 -171 -111t-135 -162.5t-110 -196t-103.5 -214.5t-107 -213t-129.5 -196t-162 -161t-213.5 -109.5t-275.5 -39.5q-345 0 -537 175
q-139 128 -158 308q-18 167 75 302q101 146 287 182q53 10 110 10q181 0 319.5 -91t161.5 -237q24 -146 -85 -255.5t-269 -106.5q-132 4 -206.5 76t-57.5 141q11 63 69 63q45 0 68.5 -30.5t15.5 -65.5q-14 -63 -94 -63q69 -88 194 -88q170 0 248.5 95.5t55.5 239.5
q-12 78 -56 137.5t-104 92t-122.5 48t-123.5 15.5q-219 0 -337 -140q-98 -116 -91 -280q8 -169 123 -299q144 -163 393 -185q34 -3 70 -3zM3113 1577q10 -50 -25.5 -85t-106.5 -52.5t-155 -27t-183 -9t-176.5 3t-151 6.5t-91.5 4q-187 0 -332 -28t-282 -107
q-154 -91 -250 -214.5t-105 -229.5q-10 -90 46.5 -137t177.5 -29l-25 -31q-126 -9 -188 48.5t-54 158.5q6 124 108.5 267.5t274.5 248.5q274 172 691 172q79 0 211.5 -11.5t223 -18t201 9t191.5 61.5z" />
    <glyph glyph-name="U" unicode="U" horiz-adv-x="2220" 
d="M2425 1380q125 105 241.5 140.5t199 -11t102.5 -174.5l-29 -32q-8 97 -54 141.5t-111 36t-141 -57.5t-145 -131q-160 -200 -354 -628q-101 -242 -131 -325q-122 -339 -27 -339q48 0 116 72.5t128.5 171.5t108.5 205h30q-30 -68 -62.5 -132t-73.5 -130.5t-81 -115
t-85 -79.5t-85 -31q-69 0 -113 26t-60.5 68t-15.5 101.5t15 118t39 126.5q-309 -443 -532 -440q-86 1 -146.5 17t-90.5 49t-44 71t-3 96.5t26.5 110t52 126.5t66.5 132t76 140q44 79 65.5 119.5t59 114t52 114t36 102.5t19.5 97.5t-6 81t-32 70.5t-67 49.5t-102.5 34.5
t-146.5 9q-184 -3 -335.5 -43.5t-253 -108t-166 -148.5t-91.5 -173q-27 -89 -18 -178t49.5 -160t110.5 -120t165.5 -59t213.5 23q57 17 111 50t101.5 80.5t71.5 116t13 145.5q-12 93 -60 156t-129 86.5t-192 -7.5q-120 -34 -162 -139q73 24 110 -33q18 -29 3 -64.5
t-58 -46.5q-49 -19 -84 35q-12 22 -13 51.5t12 62.5t37 64t65 58t92 43q74 26 148.5 17t136 -41t103.5 -89.5t52 -128.5q18 -145 -89.5 -273t-275.5 -173q-89 -26 -170.5 -26.5t-145.5 22t-117 61.5t-87 93.5t-52.5 116.5t-17.5 131.5t21 137.5q20 78 65 149t121 135.5
t176 111.5t238.5 75t300.5 29q476 4 514 -257q23 -163 -130 -469q-31 -62 -174 -320q-127 -230 -149 -328q-32 -139 90 -157q18 -3 38 -3q61 -1 142 55t165 150t160 197t147 216q200 489 502 762z" />
    <glyph glyph-name="V" unicode="V" horiz-adv-x="2242" 
d="M2501 1362q51 48 117 88.5t140 63t138.5 18.5t113.5 -55t64 -148l-29 -26q-10 98 -57 142.5t-112.5 35.5t-143 -61t-147.5 -138q-67 -86 -135 -201t-118.5 -220t-112 -221.5t-118 -214t-133.5 -187.5t-161 -152.5t-199.5 -99.5t-249.5 -37q-291 0 -311 174
q-15 123 112 377q16 33 153 289q140 259 171 390q50 215 -116 281q-84 33 -226 31q-188 -2 -341.5 -41.5t-256 -106t-167.5 -148t-93 -175.5q-23 -74 -21.5 -149.5t27 -140t71.5 -117.5t112 -82.5t149.5 -35t183.5 24.5q46 14 91.5 37t89 59.5t74.5 80.5t46 102.5t6 122.5
q-20 141 -124 211.5t-265 23.5q-121 -39 -166 -141q40 10 71 -0.5t42 -34.5q21 -27 5 -64.5t-61 -50.5q-55 -16 -84 39q-12 22 -13 51.5t11.5 63t36 65.5t65 60t93.5 45q76 25 151.5 15.5t137.5 -41.5t104.5 -90.5t52.5 -129.5q20 -146 -87.5 -273.5t-282.5 -181.5
q-89 -26 -171 -26.5t-146 22t-117.5 62.5t-88 95.5t-54 118t-18.5 132.5t21 139q28 101 95.5 188t176 158.5t274.5 113t370 42.5q476 2 513 -255q24 -161 -131 -463q-34 -66 -178 -321q-132 -232 -157 -332q-36 -145 86 -168q25 -5 57 -5q98 0 190 45t165.5 120.5t147 178
t134 212.5t128 230t127.5 225.5t133 202.5t145 158z" />
    <glyph glyph-name="W" unicode="W" horiz-adv-x="2965" 
d="M3219 1362q53 47 120.5 86.5t144 63t142 20t115 -53t62.5 -145.5l-26 -30q-9 98 -57 143t-114.5 35t-144 -63.5t-145.5 -141.5q-67 -85 -133.5 -199t-115 -218.5t-107 -220.5t-113.5 -213t-131 -187.5t-161.5 -153t-204 -100t-259.5 -37.5q-134 0 -196.5 52.5
t-55.5 186.5q11 76 62 226q-321 -470 -553 -465q-272 2 -288 170q-11 121 117 372q14 27 155 286q144 262 177 396q53 219 -117 287q-86 34 -231 33q-152 -2 -282 -28.5t-224.5 -70.5t-168 -104.5t-118.5 -127t-69 -140.5q-32 -112 -10 -221.5t92 -186t183 -107t263 14.5
q46 14 91 36.5t88.5 59t75.5 79.5t48 102t9 123q-23 144 -128.5 214.5t-267.5 20.5q-113 -29 -161 -139q38 11 66.5 0t41.5 -37q20 -29 6 -65.5t-61 -47.5q-49 -11 -86 35q-11 23 -11.5 53.5t12.5 64.5t37 66t66 59.5t95 43.5q76 27 151.5 17.5t137 -42t104 -91.5t51.5 -132
q21 -144 -87 -271.5t-282 -179.5q-91 -26 -173.5 -27t-147.5 22t-118 62.5t-87.5 95t-53.5 118t-19 133t20 139.5q23 79 68.5 149.5t122.5 135t178 111t241.5 75t306.5 29.5q482 3 520 -260q24 -164 -130 -471q-33 -65 -176 -322q-129 -232 -153 -331q-33 -141 89 -161
q18 -3 41 -3q52 -1 117.5 39t129.5 102.5t135.5 150t131 171t119.5 176.5q84 212 309 704h198q-13 -27 -86.5 -182t-101.5 -215t-89.5 -197t-92 -215.5t-64.5 -176.5t-49 -167q-2 -9 -6 -31t-5.5 -31.5t-3.5 -28t-0.5 -27.5t3.5 -23t9 -21t17 -14.5t25 -10.5t35 -3
q106 0 201.5 45.5t168 121.5t143 179.5t126.5 214.5t117.5 231.5t116.5 226.5t124 202.5t139 156.5z" />
    <glyph glyph-name="X" unicode="X" horiz-adv-x="1978" 
d="M2519 1532q82 0 136 -50.5t71 -152.5l-25 -29q-19 177 -161 177q-35 0 -77.5 -19t-96 -62t-101.5 -86.5t-118.5 -119t-122 -131.5t-137.5 -152t-140 -155q-19 -68 -49 -160t-51.5 -156.5t-43 -138t-27 -123t0 -92t34 -63.5t79.5 -21q37 0 75.5 19t69.5 44t66.5 70t58 77
t53 86t42 76l34.5 66h33q-27 -55 -38.5 -78.5t-45 -84.5t-56.5 -94t-61.5 -81t-72.5 -74t-77.5 -45.5t-87.5 -19.5q-92 0 -153 24.5t-91 65t-38 103t1 127.5t32 149q-235 -223 -453.5 -346t-433.5 -123q-99 0 -197 52.5t-133 138.5q-28 63 -4 112q26 53 84 37
q43 -11 59 -48.5t0 -66.5q-31 -50 -108 -30q36 -74 111.5 -116t160.5 -42q93 0 195.5 39t195 99t203.5 157.5t200 187.5t204 215q27 84 42 132.5t34.5 126.5t25 125t7 110.5t-13.5 101.5t-43 80.5t-74 65.5t-114 37.5t-157 13.5q-185 -3 -337 -42t-255.5 -105t-170 -145.5
t-97.5 -172.5q-25 -74 -25 -148.5t23 -138t67 -115.5t108.5 -81t147 -34t182.5 25q58 16 114 49t105.5 81t76 117.5t18.5 146.5q-9 92 -55.5 155.5t-127.5 87.5t-194 -10q-120 -35 -166 -139q42 9 69 0.5t40 -31.5q17 -32 2 -68t-58 -49q-61 -13 -86 39q-10 22 -11.5 50
t13.5 62t39 65t66 59t94 45q75 25 149.5 15.5t134.5 -41t101 -90t49 -130.5q15 -142 -95.5 -267.5t-283.5 -176.5q-78 -23 -150 -26.5t-130.5 11t-109 44t-86.5 70t-60.5 91.5t-35 107t-6.5 116.5t23 120.5q25 79 73 149t126.5 133.5t179.5 109.5t240.5 73.5t302.5 28.5
q147 1 255 -26t172.5 -73t100.5 -114.5t45 -142.5t0 -166q110 120 197 206t182 163.5t180 117t158 39.5z" />
    <glyph glyph-name="Y" unicode="Y" horiz-adv-x="2306" 
d="M2570 1352q52 50 119 92.5t144 67t144.5 21t120 -57.5t70.5 -158l-24 -31q-10 105 -61.5 154.5t-122.5 41.5t-154 -62.5t-156 -145.5q-89 -111 -188.5 -296t-176.5 -359t-183 -404.5t-189 -386.5q97 -22 177.5 -63.5t133 -91.5t78.5 -108t21 -113t-46 -108t-116 -92
q-9 -6 -21 -12l-41 19q13 3 23 10q151 68 152 175q0 95 -116 182q-113 84 -286 122q-73 -111 -160.5 -216.5t-198 -207t-225 -176.5t-245.5 -121t-255 -45q-137 1 -167 102t55 252q96 171 284 303q276 196 617 211q66 2 133 -2q36 72 109.5 226.5t113.5 234.5
q-278 -353 -473 -350q-74 1 -130.5 11.5t-91.5 33.5t-59.5 46.5t-27.5 65.5t-4 75.5t18.5 90t34 95t48.5 105.5t55.5 106.5t61.5 112.5q48 87 72 132t63.5 125.5t53.5 124.5t30 110t6.5 102t-31 80t-68.5 65.5t-119.5 36.5t-171.5 14q-159 -3 -296.5 -32.5t-238 -77
t-178 -112t-124.5 -135.5t-70 -149q-30 -96 -21.5 -191t51.5 -170.5t118 -128t178 -63t231 24.5q61 16 120.5 51.5t111 87.5t78 126t14.5 155q-21 157 -130.5 231t-283.5 22q-129 -36 -176 -151q45 9 74 0.5t42 -31.5q12 -22 12.5 -46.5t-18 -46t-49.5 -28.5q-60 -24 -88 37
q-14 24 -16 55.5t11 67t38.5 69t69.5 63t100 46.5q81 29 162 19.5t146.5 -43.5t110.5 -96t54 -138q21 -156 -94 -292.5t-299 -188.5q-95 -29 -182 -30t-155.5 23t-125 66t-93.5 100.5t-57 125.5t-19.5 142t21.5 148q31 106 103 197.5t188 168t292.5 121.5t393.5 46
q514 3 561 -261q29 -162 -121 -462q-34 -68 -174 -318q-126 -226 -150 -323q-33 -141 88 -165q23 -4 52 -5q210 -2 609 600q273 541 499 752zM786 -977q101 0 210.5 48.5t205 125.5t186.5 177.5t160.5 200t122.5 196.5q-347 33 -637 -146q-185 -114 -290 -278
q-88 -137 -74 -233q12 -84 102 -90q7 -1 14 -1z" />
    <glyph glyph-name="Z" unicode="Z" horiz-adv-x="2164" 
d="M2243 1536q97 0 130 -60q28 -54 -12 -114q-53 -78 -178 -98q-82 -13 -182 4q-44 -70 -123 -203t-140.5 -237t-149 -235.5t-163.5 -228.5t-168 -185t-178 -134q287 -111 553 -58q186 36 285 137q89 90 59 184q-23 71 -112 124l30 17q138 -78 150 -206q12 -117 -84 -222
q-110 -121 -299 -157q-278 -52 -594 109q-27 13 -55 29q-359 -104 -604 -22q-144 48 -200 141q-46 78 -6 139q47 73 180 70q233 -3 588 -232q8 -5 15 -10q86 56 176 166.5t173 246t163 273.5t174 284t178 242q-77 22 -203.5 75t-236 87.5t-209.5 34.5q-265 1 -439 -166
q-131 -127 -166 -304q-33 -169 39 -294q79 -138 252 -153q98 -9 216 24q55 15 108 46t99 77t69.5 113t12.5 141q-16 138 -115.5 205.5t-253.5 17.5q-109 -27 -156 -133q39 11 67.5 1.5t37.5 -32.5q20 -29 5.5 -64t-56.5 -48q-51 -10 -80 43q-12 21 -12.5 49t11 59t34.5 61
t61.5 56.5t87.5 42.5q73 24 145.5 15t132 -39.5t99.5 -87t47 -126.5q21 -137 -82 -259t-268 -169q-247 -74 -405 39q-120 85 -150 246q-31 169 51 333q92 182 289 272q154 71 352 71q75 0 185 -28.5t255.5 -75.5t222.5 -66q43 40 64.5 58.5t58.5 45t66 38.5t70 21t88 9z
M918 51zM2054 1339q134 -22 212 41q48 38 44 78q-9 36 -53 39q-33 0 -74 -29t-66.5 -56.5t-55.5 -63.5q-5 -6 -7 -9z" />
    <glyph glyph-name="bracketleft" unicode="[" horiz-adv-x="624" 
d="M862 1737l383 24l-16 -32l-260 -33q-420 -816 -899 -1932l231 -32l-14 -33l-361 25q456 1024 936 2013z" />
    <glyph glyph-name="backslash" unicode="\" horiz-adv-x="1312" 
d="M1171 -301h-92q-445 1009 -950 2062h102q290 -671 494.5 -1124.5t445.5 -937.5z" />
    <glyph glyph-name="bracketright" unicode="]" horiz-adv-x="933" 
d="M223 -276l-383 -25l17 33l260 32q420 816 899 1932l-232 33l15 32l360 -24q-456 -1024 -936 -2013z" />
    <glyph glyph-name="asciicircum" unicode="^" horiz-adv-x="1439" 
d="M1055 1331q97 -351 315 -493l-31 -19q-91 18 -213.5 94.5t-167.5 147.5q-369 -208 -700 -238l12 31q210 73 397 188t388 289z" />
    <glyph glyph-name="underscore" unicode="_" horiz-adv-x="1298" 
d="M-121 -301l64 76h1153l-62 -76h-1155z" />
    <glyph glyph-name="grave" unicode="`" horiz-adv-x="192" 
d="M168 1073q-13 -176 39 -254h-31q-27 24 -45.5 62t-25.5 68t-15 75z" />
    <glyph glyph-name="a" unicode="a" horiz-adv-x="956" 
d="M1061 444h31q-45 -86 -93 -162t-101.5 -144.5t-108 -109t-99.5 -40.5q-95 0 -134 42.5t-36 121.5q-147 -164 -301 -164q-165 0 -202 118q-33 105 41 254q75 148 209 247q138 102 282 102q64 0 97.5 -33t35.5 -92q9 17 29.5 54.5t27.5 53.5h191q-173 -311 -231 -463
q-79 -202 -5 -202q68 0 171 124.5t196 292.5zM229 27q147 0 297 178q8 51 32 115t43 103.5t56 111.5q5 48 -18.5 87.5t-75.5 39.5q-91 0 -211 -139q-109 -127 -166 -274q-60 -153 -11 -203q19 -19 54 -19z" />
    <glyph glyph-name="b" unicode="b" horiz-adv-x="866" 
d="M993 440h31q-76 -138 -230 -257t-288 -115q-140 -80 -287 -80q-158 0 -182 121q-17 83 35 235q58 154 159 367q45 91 148.5 296.5t157.5 315.5h186q-16 -33 -301 -612q-1 -3 -53 -115q131 113 256 113q161 0 199 -111q35 -101 -40 -246q-75 -144 -215 -246
q111 19 231.5 121.5t192.5 212.5zM262 25q56 0 141 75q-34 20 -73 76q-24 41 -17 78q5 20 23.5 35.5t42.5 15.5q39 0 58 -24.5t12 -51.5q-5 -27 -17.5 -40t-44.5 -13q22 -28 49 -43q113 113 191 268q82 163 51 233q-16 38 -66 38q-58 0 -116.5 -29t-92.5 -60t-77 -77
q-12 -26 -70 -164q-9 -18 -19 -43t-23.5 -63t-19 -73.5t-4.5 -67.5t19.5 -51t52.5 -19z" />
    <glyph glyph-name="c" unicode="c" horiz-adv-x="684" 
d="M793 442h32q-35 -60 -59 -100t-61 -92.5t-69.5 -86t-77.5 -70t-91.5 -57.5t-105.5 -34.5t-125 -13.5q-178 0 -218 121q-35 106 43 256q74 146 208 244q136 100 274 100q75 0 117.5 -25t49 -63.5t-6.5 -82t-46 -84t-73 -65.5q-41 -23 -80 -16q-21 5 -35 22.5t-14 44.5
q0 36 24 55t51 13q54 -11 54 -64q27 18 47.5 55t26 75t-18 66.5t-76.5 29.5q-84 0 -199 -128q-110 -123 -168 -268q-63 -158 -7 -217q27 -28 79 -28q84 0 164.5 36t147 99t117.5 130.5t96 147.5z" />
    <glyph glyph-name="d" unicode="d" horiz-adv-x="919" 
d="M682 29q67 0 167 121.5t198 291.5h34q-252 -454 -405 -454q-94 0 -136 45t-40 123q-156 -168 -310 -168q-163 0 -199 117q-33 104 42 254q75 148 209 247q139 103 284 103q52 0 85 -25t42 -68q7 18 23.5 51.5t19.5 41.5q46 97 148.5 301.5t152.5 310.5h189
q-58 -118 -165.5 -339.5t-133.5 -274.5q-105 -215 -168 -363q-27 -65 -44 -118t-26 -99.5t-1 -72t34 -25.5zM539 346q27 82 94 223q-5 38 -28 63t-62 25q-94 0 -217 -141q-110 -127 -167 -274q-58 -148 -10 -196q18 -17 50 -17q146 0 305 182q8 55 35 135z" />
    <glyph glyph-name="e" unicode="e" 
d="M823 440h31q-47 -82 -83.5 -138t-92.5 -120.5t-112.5 -103t-134.5 -64.5t-167 -26q-182 0 -222 121q-34 105 45 255q77 145 212 243q140 102 281 102q114 0 144 -69q27 -63 -32 -143q-72 -101 -224 -150q-104 -34 -226 -34q-21 -41 -34.5 -84.5t-18 -92t21.5 -79
t84 -30.5q289 0 528 413zM598 659q-78 0 -173 -92.5t-167 -220.5q177 -2 307 98q85 64 103 133q16 60 -35 77q-15 5 -35 5z" />
    <glyph glyph-name="f" unicode="f" horiz-adv-x="468" 
d="M756 1446q108 1 102 -114q-7 -120 -122 -300q-112 -175 -242 -275q-62 -48 -115 -65h174l-16 -37h-181q-11 -26 -89 -185t-134 -280q8 -62 13 -124.5t7.5 -153t-2.5 -169.5t-22 -161t-46 -140t-79 -95t-117 -37q-55 0 -86.5 31t-37.5 89t1 129.5t33 163t55 179t70 188.5
t75 180t73 164q-4 32 -9.5 68.5t-9 56.5t-5.5 43t-1 34t7 23.5t15.5 17t27.5 9t40.5 5.5t57.5 1q2 5 29 64.5t34 74.5t32.5 70.5t37.5 78.5t36 71t40.5 75.5t38.5 64.5t42.5 65.5t40.5 52.5q60 68 112.5 102.5t119.5 34.5zM-96 -649q50 0 89 33.5t61.5 87t37.5 126t20 145
t5 149t-3 133t-8 102.5q-315 -693 -227 -768q10 -8 25 -8zM98 496q18 39 43 91.5t31 67.5q-28 0 -44 -0.5t-27 -6t-15 -10.5t-4 -20t2 -28t6.5 -41.5t7.5 -52.5zM399 743q121 55 238 218t165.5 300.5t4.5 137.5q-50 -3 -129 -113q-39 -57 -87 -146t-80.5 -157.5t-69 -148
t-42.5 -91.5z" />
    <glyph glyph-name="g" unicode="g" horiz-adv-x="890" 
d="M1044 446h31q-36 -70 -70.5 -129t-87 -132.5t-105.5 -127t-121.5 -96.5t-139.5 -57q-12 -22 -34 -69.5t-41.5 -89t-50 -96.5t-61 -100t-73.5 -91t-87.5 -77.5t-102.5 -51t-121 -19.5q-65 0 -91.5 41.5t-5.5 99.5q30 87 166.5 210t310.5 228q37 74 95 205
q-132 -106 -242 -106q-160 0 -196 117q-31 105 45 255q75 149 209 248q136 101 276 101q100 0 125 -76q5 11 24 59h187q-1 -1 -65 -152.5t-144.5 -343t-102.5 -243.5q207 46 473 493zM-18 -647q43 0 89.5 40t98.5 124t82 140t81 159l9 18q-150 -96 -265.5 -202t-142.5 -177
q-20 -37 -7.5 -69.5t55.5 -32.5zM223 29q123 0 260 141q29 68 84 207.5t84 208.5q-5 33 -26.5 53t-55.5 20q-94 0 -216 -141q-110 -127 -168 -275q-59 -149 -11 -197q18 -17 49 -17z" />
    <glyph glyph-name="h" unicode="h" horiz-adv-x="923" 
d="M1067 440h33q-47 -85 -97 -160t-108.5 -143.5t-120.5 -108.5t-117 -40q-89 0 -133 47q-28 36 -24.5 91.5t26 112.5t55.5 120t64 115t51.5 97.5t18.5 67.5q0 23 -27 23q-66 0 -176.5 -90.5t-239.5 -237.5q-120 -265 -149 -334h-174q139 349 313 709q50 103 148.5 309
t148.5 309h186q-176 -371 -294 -616q-23 -47 -64.5 -135.5t-60.5 -126.5q234 260 383 260q63 0 96 -17q54 -24 56 -80t-33.5 -129t-78.5 -147t-78.5 -150.5t-33.5 -122.5q3 -36 31 -36q53 0 127 63.5t141.5 153t130.5 196.5z" />
    <glyph glyph-name="i" unicode="i" horiz-adv-x="442" 
d="M578 442h32q-43 -74 -76 -128t-79 -120t-85 -107.5t-83.5 -70t-83.5 -28.5q-321 0 -20 565q20 37 55 99q16 28 22 40h186q-229 -413 -264 -565q-22 -98 29 -98q63 0 165 122t202 291zM428 805q-41 0 -67.5 27.5t-26.5 66.5q0 40 26.5 68t67.5 28q38 0 66 -28t28 -68
q0 -38 -28 -66t-66 -28z" />
    <glyph glyph-name="j" unicode="j" horiz-adv-x="403" 
d="M549 444h33q-38 -72 -71.5 -129t-87 -131.5t-106 -127t-122 -96t-140.5 -56.5q-11 -21 -33 -69t-41 -89.5t-50 -97t-61.5 -100t-73.5 -90.5t-87.5 -77.5t-102.5 -51t-120 -19.5q-65 0 -91 41t-7 100q30 86 167.5 210t311.5 226q70 144 178.5 423.5t153.5 381.5h188
q-173 -404 -311 -741q60 14 124 59.5t113 98t100.5 124t79 116.5t56.5 95zM-514 -647q23 0 47 11.5t49.5 38t47 51t49 69t44.5 73t45 83t40 77.5t38 76q-146 -95 -262 -202t-145 -177q-18 -35 -6 -67.5t53 -32.5zM356 803q-38 0 -64 27.5t-26 64.5q0 40 26 67t64 27
q40 0 67.5 -27t27.5 -67q0 -37 -28 -64.5t-67 -27.5z" />
    <glyph glyph-name="k" unicode="k" horiz-adv-x="757" 
d="M907 440h31q-8 -14 -31 -55.5t-39 -70t-44 -73.5t-51.5 -76t-55.5 -67t-61.5 -58t-64.5 -37t-69 -15q-78 0 -132.5 20.5t-81.5 51.5t-38.5 74t-9 82.5t13.5 82.5q99 53 234 170q148 128 146 173q-1 17 -29 17q-51 0 -181.5 -96t-220.5 -215q-59 -125 -157 -348h-172
q102 267 321 735q71 144 283 578h186q-47 -98 -140.5 -291t-140.5 -291q-20 -42 -118 -252q96 101 199 165.5t173 64.5q136 0 138 -80q2 -70 -95 -167q-106 -105 -238 -153q-15 -6 -30 -10q-15 -27 -18.5 -72.5t5 -90.5t39 -78t77.5 -33q36 0 76 25.5t73.5 60.5t71.5 87.5
t61.5 91t52.5 88.5t37 62z" />
    <glyph glyph-name="l" unicode="l" horiz-adv-x="432" 
d="M203 27q120 0 366 413h31q-249 -452 -403 -452q-259 0 -140 358q63 164 162 363q50 102 150.5 305.5t150.5 306.5h187q-57 -118 -164 -335.5t-137 -278.5q-117 -247 -164 -363q-27 -64 -45 -118.5t-27 -100.5t-1 -72t34 -26z" />
    <glyph glyph-name="m" unicode="m" horiz-adv-x="1363" 
d="M1516 440h34q-43 -72 -78 -126.5t-83.5 -119.5t-91.5 -107t-93.5 -70.5t-97.5 -28.5q-98 0 -135 49q-41 51 -15.5 144.5t73 177t92 166.5t42.5 112q-3 22 -26 22q-69 0 -182 -94.5t-246 -247.5q-79 -171 -142 -317h-168q34 89 103 246t84 194q60 133 67 170q2 16 0 27
q0 22 -26 22q-69 0 -173.5 -92t-217.5 -239q-25 -56 -73 -164t-73 -164h-174q116 295 305 692h189q-36 -74 -68 -141.5t-39 -81.5q198 240 338 240q63 0 98 -17q32 -13 49 -38t18.5 -56.5t-7.5 -66.5t-27 -72q-2 -5 -7 -15.5t-7 -15.5q251 281 399 281q65 0 98 -17
q53 -25 54.5 -81.5t-34 -128.5t-78.5 -146t-78.5 -151t-33.5 -124q0 -34 31 -34q145 0 400 413z" />
    <glyph glyph-name="n" unicode="n" horiz-adv-x="854" 
d="M993 440h33q-258 -452 -442 -452q-95 0 -133 51q-28 35 -24.5 89.5t26 111t55.5 119t64 114t52 97t19 67.5q-3 22 -29 22q-115 0 -358 -266q-120 -258 -178 -393h-174q137 352 305 692h186q-40 -81 -92 -192q206 209 332 209q58 0 98 -19q53 -25 54.5 -81t-34 -128
t-78.5 -145t-78.5 -148.5t-33.5 -121.5q0 -39 31 -39q140 0 399 413z" />
    <glyph glyph-name="o" unicode="o" horiz-adv-x="845" 
d="M969 442h35q-77 -137 -229.5 -256t-282.5 -118q-124 -80 -246 -80q-180 0 -219 122q-35 105 44 255q76 146 210 244q146 106 292 100q161 0 199.5 -108t-30 -249t-195.5 -246q110 19 230.5 122t191.5 214zM225 27q63 0 152 77q-38 23 -68 74q-23 36 -16 78q5 20 23 34.5
t44 14.5q36 0 54 -24t12 -52q-5 -26 -17.5 -39.5t-43.5 -13.5q22 -25 43 -37q70 67 143 201q32 61 51.5 113.5t24 89.5t-1 63.5t-21 39.5t-39.5 13q-63 0 -152.5 -82.5t-168.5 -230.5q-32 -61 -51 -113.5t-24 -89.5t0 -63.5t19.5 -39.5t36.5 -13z" />
    <glyph glyph-name="p" unicode="p" horiz-adv-x="882" 
d="M991 442h33q-100 -184 -225.5 -318.5t-225.5 -135.5q-96 0 -133 53q-31 50 -17.5 110.5t55.5 136.5t88 141t80.5 124t31.5 84q0 22 -27 22q-66 0 -179 -92.5t-241 -238.5q-80 -171 -94 -201q-227 -477 -373 -817h-176q135 346 365 823q39 84 129.5 271.5t136.5 287.5h189
q-19 -41 -59.5 -124t-59.5 -124q243 265 381 265q61 0 100 -17q44 -21 48 -65.5t-22.5 -97.5t-67 -118t-81 -124t-69 -120t-27.5 -101q0 -39 33 -39q50 0 124 63.5t143.5 153t139.5 198.5z" />
    <glyph glyph-name="q" unicode="q" horiz-adv-x="948" 
d="M1118 444q-51 -92 -112.5 -176t-136 -161.5t-160.5 -132.5t-172 -74q-9 -17 -9 -19q19 -54 31.5 -124.5t13 -149.5t-14 -145t-57 -109t-108.5 -43q-58 0 -98.5 15t-59.5 42.5t-26.5 61.5t-0.5 77.5t18.5 85t30.5 88.5t35.5 84t34 76t25.5 60l23 47q6 13 15.5 32.5
t23.5 50t24 50.5q-113 -90 -221 -90q-162 0 -198 117q-33 105 44 255q75 148 209 246q137 101 279 101q61 0 96.5 -33.5t38.5 -91.5l51 108h187q-55 -120 -182.5 -368.5t-184.5 -376.5q133 29 284 176t246 321h31zM225 33q123 0 254 125q19 39 178 366q9 49 -13.5 92
t-72.5 43q-96 0 -218 -142q-110 -126 -167 -273q-58 -148 -10 -194q18 -17 49 -17zM420 -647q66 -1 94 101t21 216.5t-31 171.5q-104 -246 -126 -344q-32 -144 42 -145z" />
    <glyph glyph-name="r" unicode="r" horiz-adv-x="589" 
d="M715 438h33q-42 -72 -75 -126t-79.5 -119t-85.5 -106.5t-84.5 -70t-85.5 -28.5q-45 0 -77.5 11t-50 32t-27.5 47t-7.5 62t8 70.5t21.5 78.5t30 80t36 81.5t38 76.5t37 71q-59 16 -160 49l-135 -235h-33l142 245h-4q-84 27 -118 64.5t-32 79.5q2 46 43.5 86.5t90.5 52
t91 -7.5q38 -18 38.5 -80.5t-42.5 -142.5q39 -13 157 -41.5t165 -44.5q-119 -210 -197.5 -404t0.5 -194q119 0 363 413zM186 717q21 32 29.5 64t5 54t-17.5 29q-20 9 -55.5 -13t-36.5 -56q-3 -22 12 -40.5t63 -37.5z" />
    <glyph glyph-name="s" unicode="s" horiz-adv-x="555" 
d="M680 440h33q-51 -91 -112.5 -168t-140 -143t-176.5 -103.5t-204 -37.5q-57 0 -97.5 15t-60 38.5t-26 54t1 61.5t24.5 60t41 51q33 33 70 33q20 -2 37.5 -17t21.5 -40q7 -36 -13 -59t-48 -21q-18 1 -27.5 4t-19 14.5t-13.5 32.5q-28 -35 -30.5 -78.5t28.5 -76.5t92 -33
q153 0 242 147q37 62 38.5 126.5t-22.5 122.5t-52.5 113.5t-49.5 121t-16 124.5l-209 -348h-33l311 506l23 -12q-16 -55 -13 -106.5t22 -90t45 -79.5t55 -75.5t53 -77t39 -85t12 -99t-27 -118.5q129 105 201 243z" />
    <glyph glyph-name="t" unicode="t" horiz-adv-x="450" 
d="M567 440h33q-52 -92 -95.5 -160t-99 -140.5t-108.5 -112t-100 -39.5q-263 0 -140 356q45 130 133 311h-129l21 37h125q27 56 149 309h191q-110 -229 -150 -309h160l-22 -37h-156q-62 -128 -139 -313q-27 -65 -45 -118.5t-27 -99t-0.5 -71.5t35.5 -26q34 0 80.5 36.5
t96.5 100t95 130.5t92 146z" />
    <glyph glyph-name="u" unicode="u" horiz-adv-x="872" 
d="M999 440h31q-50 -90 -94.5 -160t-99 -141.5t-109 -111t-102.5 -39.5q-226 0 -150 268q-174 -268 -295 -268q-304 0 -53 501q7 14 103 192q3 6 6 11h188q-236 -425 -267 -575q-18 -90 31 -90q58 0 150.5 106.5t189.5 263.5q23 52 51.5 108t61 115t39.5 72h190
q-26 -46 -51.5 -92t-70.5 -131.5t-75 -155t-54.5 -138.5t-21.5 -108.5t36 -39.5q63 0 164 121.5t202 291.5z" />
    <glyph glyph-name="v" unicode="v" horiz-adv-x="894" 
d="M1020 440h33q-38 -69 -103 -140t-141 -128t-160.5 -86t-152.5 -12q-153 -86 -297 -86q-330 0 0 599q15 28 41 74q13 22 18 31h186q-24 -43 -51 -92t-70 -132t-74 -154.5t-55 -139.5t-21.5 -107.5t34.5 -39.5q103 0 213 82q-37 29 -62 69q-22 43 -14 78q3 20 22 34.5
t44 14.5q36 0 54.5 -24t10.5 -52q-3 -25 -16 -38t-45 -13q16 -21 41 -39q127 114 184.5 282t-0.5 288l197 51q34 -126 1.5 -249.5t-108.5 -227.5t-182 -177q61 -5 133 26.5t135.5 84t116.5 110.5t88 113z" />
    <glyph glyph-name="w" unicode="w" horiz-adv-x="1333" 
d="M1462 440h33q-38 -69 -102.5 -139.5t-139.5 -128t-159.5 -86.5t-153.5 -14q-155 -84 -295 -84q-222 0 -143 274q-85 -127 -159 -200.5t-140 -73.5q-315 0 -38 537q24 45 65 120q19 33 26 47h190q-27 -47 -51.5 -92t-70 -131t-75.5 -155t-55 -138t-21.5 -108t36.5 -39
q59 0 152.5 109t195.5 270q17 41 40.5 87.5t38.5 74t40.5 72t28.5 50.5h186q-368 -663 -238 -663q102 0 213 80q-35 25 -63 69q-24 41 -17 76q5 21 23 36t43 15q38 0 57 -24.5t11 -51.5q-5 -24 -18 -37.5t-44 -13.5q19 -25 41 -41q126 115 185 283.5t1 288.5l197 51
q47 -181 -38.5 -360t-252.5 -294q61 -4 133 28t135 84.5t115.5 110t87.5 111.5z" />
    <glyph glyph-name="x" unicode="x" horiz-adv-x="942" 
d="M1100 440h33q-7 -13 -28 -53.5t-33.5 -63.5t-35.5 -64.5t-42 -68t-45 -61.5t-50.5 -57t-53 -43t-59 -31t-61.5 -10q-162 0 -246 151q-203 -151 -360 -151q-127 0 -193 108q-22 40 -16 80q5 20 22.5 34.5t42.5 14.5q35 0 52.5 -24t11.5 -54q-8 -51 -62 -51q57 -63 144 -63
q135 6 321 188q-18 50 -35.5 119t-29 120.5t-26.5 99.5t-37.5 73.5t-53.5 25.5q-39 0 -77.5 -20t-65 -46t-52 -62t-36.5 -55.5t-21 -39.5l-33 2q57 106 82 140q95 131 236 131q69 0 121 -25.5t84.5 -73.5t51.5 -98t34 -119q129 187 129 316l182 51q-1 -114 -80 -250.5
t-203 -257.5q10 -54 19 -89t23.5 -68.5t35.5 -49.5t49 -16q34 0 72.5 24.5t69 56.5t68.5 85.5t59 88t53 89.5t39 67z" />
    <glyph glyph-name="y" unicode="y" horiz-adv-x="847" 
d="M1006 440h32q-255 -483 -528 -538q-13 -23 -47 -96.5t-62 -128t-78.5 -128.5t-101.5 -122t-126 -82.5t-158 -34.5q-66 0 -92 39t-5 96q30 87 167 211.5t310 226.5q93 194 168 389q-183 -284 -303 -284q-314 0 -29 544q22 43 63 116q17 31 24 44h186q-369 -665 -238 -665
q62 0 162.5 120t196.5 283q82 207 106 262h189q-10 -24 -83 -195.5t-139.5 -331t-89.5 -216.5q60 13 125.5 59.5t112.5 96.5t102 126t78.5 113.5t57.5 95.5zM-61 -647q26 0 55 17.5t54.5 42.5t55.5 68t52.5 79.5t52 91.5t47 90t43.5 88q-147 -97 -263.5 -204t-144.5 -177
q-16 -37 -4.5 -66.5t52.5 -29.5z" />
    <glyph glyph-name="z" unicode="z" horiz-adv-x="778" 
d="M913 453h31q-66 -112 -130.5 -204t-141 -168.5t-133.5 -88.5q-46 -9 -88.5 -1.5t-103.5 18t-118 19t-131.5 3t-144.5 -30.5h-59l628 553q-33 -2 -92 12t-112.5 27t-107 18t-90.5 -18t-48 -78q44 26 82 -12q20 -22 15.5 -53t-36.5 -52q-25 -11 -47 -7t-33 20
q-28 32 -28 73q2 83 45.5 142.5t122.5 76.5q49 8 117.5 0.5t128 -21t130 -13t123.5 23.5h66l-615 -530q82 19 151.5 11.5t109.5 -24.5t88 -33t88 -14q57 0 149 101.5t184 249.5z" />
    <glyph glyph-name="braceleft" unicode="{" horiz-adv-x="854" 
d="M395 911q56 27 103 78t79 111.5t64 132t58 140t61 135.5t72 118t92 87.5t121 45t159 -9.5l-24 -25q-70 9 -127.5 -15.5t-96 -72.5t-76 -114.5t-66.5 -139.5t-67.5 -149.5t-79.5 -142.5t-103 -121.5t-136 -83.5q57 -43 74 -104.5t-0.5 -130t-54.5 -146t-83 -155.5
t-91 -154.5t-75 -148t-38 -131.5t24 -108.5t107 -76.5l12 -31q-75 17 -127 44t-77.5 61.5t-36 73.5t-1 86.5t26 93.5t46.5 100.5t59.5 103t66.5 105.5q27 41 40 62t37 60t35 61t28.5 56t24 56t15 50.5t7 49t-5 43t-15.5 41t-31 33.5q-34 -11 -80.5 -19t-95 0.5t-51.5 42.5
q-7 59 65 57q66 -3 149 -42q8 -4 13 -7zM215 911q1 -28 34 -32.5t66 3.5t52 17q-49 29 -100 38q-54 10 -52 -26z" />
    <glyph glyph-name="bar" unicode="|" horiz-adv-x="663" 
d="M401 1325v-1769h-43v1769h43z" />
    <glyph glyph-name="braceright" unicode="}" horiz-adv-x="1200" 
d="M928 662q-56 -27 -103 -78t-79 -111.5t-64 -132t-58 -140t-61 -135.5t-72 -118t-92 -87.5t-121 -45t-159 9.5l24 24q63 -8 115 10.5t90 57.5t70.5 92.5t61.5 117.5t57.5 130.5t63.5 133t75 123t96.5 103.5t122.5 72q-57 43 -74 104.5t0.5 130t54.5 146t83 155.5t91 154.5
t75 148t38 131.5t-24 108.5t-107 76.5l-12 31q75 -17 127 -44t77.5 -61.5t36 -73.5t1 -86.5t-26 -93.5t-46.5 -100.5t-59.5 -103t-66.5 -105.5q-27 -41 -40 -62t-37 -60t-35 -61t-28.5 -56t-24 -56t-15 -50.5t-7 -49t5 -43t15.5 -41t31 -33.5q34 11 80.5 19t95 -0.5
t51.5 -42.5q7 -59 -65 -57q-66 3 -149 42q-8 4 -13 7zM1108 662q-1 28 -34 32.5t-66 -3.5t-52 -17q49 -29 100 -38q54 -10 52 26z" />
    <glyph glyph-name="asciitilde" unicode="~" horiz-adv-x="1323" 
d="M221 451q84 36 177 50.5t173.5 10.5t173.5 -9.5t176.5 -10.5t182.5 8l4 -17q-82 -33 -174.5 -47.5t-174 -12t-175.5 7t-178 8.5t-181 -7z" />
    <glyph glyph-name="exclamdown" unicode="&#xa1;" horiz-adv-x="823" 
d="M223 -12h-186l602 1208l43 -18zM727 1434q39 0 65.5 -27.5t26.5 -65.5q0 -40 -26 -67t-66 -27q-38 0 -65 27t-27 67q0 37 27 65t65 28z" />
    <glyph glyph-name="cent" unicode="&#xa2;" horiz-adv-x="823" 
d="M782 440h35q-32 -56 -55.5 -93.5t-58.5 -87t-65.5 -83t-72.5 -69.5t-84.5 -59t-96.5 -40t-114 -22q-92 -227 -164 -412h-81q2 5 174 412q-162 9 -194 130q-29 109 53 260q79 146 214 240q127 89 254 93q128 312 142 346h73q-69 -152 -151 -353q68 -10 96 -49.5t16.5 -88
t-46 -96.5t-81.5 -77q-40 -25 -79 -18q-21 5 -35.5 22.5t-14.5 42.5q0 38 23.5 56.5t54.5 13.5q24 -5 37.5 -19t13.5 -47q28 19 49 56.5t26 75.5t-19.5 66.5t-79.5 29.5q-82 1 -197 -128q-109 -124 -167 -269q-64 -159 -8 -218q26 -28 77 -28q86 0 167.5 36.5t147.5 99.5
t117 131t94 146z" />
    <glyph glyph-name="sterling" unicode="&#xa3;" horiz-adv-x="1929" 
d="M1855 1536q110 0 125 -91q17 -95 -68 -232q-95 -153 -254 -256q-144 -93 -300 -113q-2 -2 -18.5 -31t-45.5 -78.5t-51 -87.5h414l-72 -69h-383q-27 -58 -37 -68q-62 -91 -98.5 -140.5t-93.5 -114.5t-119.5 -114.5t-140.5 -93.5q283 -108 544 -56q182 37 279 136
q86 88 55 180q-23 68 -110 119l30 18q136 -76 149 -202q12 -115 -83 -218q-110 -119 -298 -153q-276 -49 -589 115q-20 10 -41 22q-266 -99 -461 -31q-115 41 -162 123q-40 71 -4 123q43 65 171 50q171 -21 423 -185q32 20 62.5 45.5t61 59t53.5 60t54 70t47 66.5t49 73
t44 66l12 20q12 19 17 30h-404l70 69h381q5 9 37 63t42.5 71t43 70t48 77.5t47 74t52 78t51 72t55 74t53.5 64.5t56 63q174 182 307 182zM1661 1348q-56 -71 -114 -170t-103 -186t-58 -107q209 39 374 212q116 121 157 248q34 107 -11 141q-16 11 -40 11q-87 0 -205 -149z
M555 53z" />
    <glyph glyph-name="currency" unicode="&#xa4;" horiz-adv-x="1705" 
d="M1460 1122q45 -61 51 -168q3 -83 -22 -166q-65 -209 -234 -327l193 -281l-37 -33l-197 281q-180 -119 -348 -119q-183 0 -299 119l-342 -264l-28 37l338 260q-46 68 -58 178q0 87 19 156q72 203 241 335l-190 277l35 29l190 -281q186 123 363 123q189 0 297 -117l337 262
l33 -37zM1432 795q30 89 24 163q-6 122 -96 197q-77 74 -230 74q-186 0 -352 -127q-169 -133 -223 -307q-20 -102 -20 -148q15 -125 96 -203q89 -86 237 -86q185 0 346 127q162 122 218 310z" />
    <glyph glyph-name="yen" unicode="&#xa5;" horiz-adv-x="1366" 
d="M1548 1329q-57 -5 -132.5 -58.5t-146 -130t-145.5 -175t-129.5 -180t-99.5 -156.5h309l-55 -70h-297q-17 -27 -55.5 -92.5t-61.5 -101.5h346l-53 -70h-340q-99 -142 -208 -224.5t-242 -82.5q-115 0 -180.5 55t-57.5 115q3 22 18 37t41 16q38 1 59 -22.5t15 -51.5
q-7 -54 -72 -59q31 -31 67.5 -41t96.5 -10q178 0 332 268h-270l53 70h252q52 114 74 194h-256l51 70h225q9 44 16 97.5t11.5 121.5t-2 130t-21.5 115.5t-49.5 86.5t-83.5 34q-55 1 -112 -32t-93.5 -83t-54 -108.5t5.5 -107.5q21 51 76 43q31 -8 44.5 -36t-1.5 -65
q-19 -42 -72 -34q-45 16 -71 63q-32 63 -25.5 128.5t47.5 127.5t97 110t124 77.5t127 29.5q81 0 133 -53.5t69.5 -134t18 -176t-13 -177.5t-33.5 -141q44 77 98.5 162.5t130 187.5t148 184.5t151.5 143.5t142 74z" />
    <glyph glyph-name="section" unicode="&#xa7;" horiz-adv-x="2269" 
d="M1911 1309q167 51 296 -50q88 -69 119 -173q28 -96 -15 -148q-30 -36 -89 -33q-40 1 -62.5 19t-23.5 42t4 48q7 24 34 34.5t55.5 -3.5t37.5 -52q22 79 -20 159q-44 84 -127 97q-131 22 -283 -155q-11 -13 -22 -27q-55 -69 -103 -161t-82 -184t-70 -196t-66 -201.5
t-71 -195t-85 -181t-107 -156.5t-137.5 -124t-177 -80.5t-224.5 -29.5q-100 0 -188 16q-166 -52 -294 47q-88 68 -120 172q-29 97 13 149q30 38 90 35t78 -36.5t3 -69.5q-6 -20 -23.5 -31t-37.5 -11.5t-39 16t-27 46.5q-14 -53 0.5 -111.5t55 -97.5t96.5 -51.5t135.5 32.5
t161.5 149q55 69 103.5 160t83 183.5t70.5 196.5t67 201t72 195t85.5 182t107.5 156.5t138 124t177.5 81t225.5 29.5q75 0 185 -12zM1810 1253l35 25h-63q-106 0 -194.5 -38.5t-153.5 -107t-119 -158t-97.5 -197.5t-82 -219t-79 -228t-82.5 -220.5t-98.5 -200.5t-121.5 -163
q-83 -83 -146 -119l-37 -20q10 0 31 -2t31 -2q106 0 195 38.5t154 107t119.5 158.5t98 198t82 219.5t79 228t82.5 220t98.5 199.5t121.5 161q66 77 147 120z" />
    <glyph glyph-name="dieresis" unicode="&#xa8;" horiz-adv-x="473" 
d="M158 1163q-35 0 -58.5 24t-23.5 58q0 35 23.5 59.5t58.5 24.5t59.5 -24.5t24.5 -59.5q0 -34 -24.5 -58t-59.5 -24zM395 1163q-36 0 -60 24t-24 58q0 36 24 60t60 24q34 0 58 -24.5t24 -59.5q0 -34 -24 -58t-58 -24z" />
    <glyph glyph-name="copyright" unicode="&#xa9;" horiz-adv-x="1763" 
d="M1300 324q3 16 13.5 51t13.5 49h23l-23 -168q-123 -70 -272 -70q-214 0 -335.5 112t-121.5 306q0 90 30.5 173t87.5 149t146.5 105.5t198.5 39.5q147 0 246 -45l4 -2l37 -158h-27l-27 74q-4 10 -14 21q-31 31 -89.5 54t-129.5 23q-98 0 -172.5 -61.5t-112 -157.5
t-37.5 -207q0 -81 18 -148.5t55 -121.5t100 -84.5t147 -30.5q121 0 209 64q19 14 32 33zM1020 1327q145 0 272 -53.5t216.5 -145t141.5 -218t52 -267.5q-5 -187 -102 -344.5t-258.5 -248.5t-350.5 -91q-181 0 -336 88.5t-245.5 240.5t-90.5 330q0 144 57 275.5t152 226
t224 151t268 56.5zM989 -6q190 0 339 87.5t230.5 234.5t86.5 327q0 177 -78.5 325t-221 236t-319.5 88q-137 0 -258 -53t-205.5 -142.5t-135 -208t-54.5 -247.5q0 -182 79 -330t220.5 -232.5t316.5 -84.5z" />
    <glyph glyph-name="guillemotleft" unicode="&#xab;" horiz-adv-x="1222" 
d="M688 918q-64 -120 -152 -220.5t-212 -199.5q35 -54 54 -161.5t5 -172.5l-23 -17q-35 193 -251 359q179 91 311.5 188.5t243.5 225.5zM1100 918q-64 -120 -152.5 -220t-212.5 -200q35 -54 54.5 -161.5t5.5 -172.5l-23 -17q-35 192 -252 359q179 91 311.5 188.5
t243.5 225.5z" />
    <glyph glyph-name="logicalnot" unicode="&#xac;" horiz-adv-x="1388" 
d="M1321 692l-324 -665l-90 -27l305 621h-1034l62 71h1081z" />
    <glyph glyph-name="registered" unicode="&#xae;" horiz-adv-x="1732" 
d="M1270 375q27 -49 47.5 -60.5t58.5 -11.5v-29h-139q-46 19 -68 64l-178 280q-17 31 -33 40t-49 6q-14 0 -14 -23v-303q0 -8 6 -15.5t12 -7.5q35 -10 88 -12h7v-29h-308v35l62 10q18 9 18 29v668q0 17 -18 20q-33 8 -62 11v38l306 5q100 0 167.5 -53.5t67.5 -143.5
q0 -74 -46 -127t-116 -78q-2 -2 0.5 -11.5t7.5 -17.5zM918 711q200 0 200 180q0 72 -46.5 112.5t-133.5 40.5h-20q-16 0 -19.5 -7t-3.5 -29v-289q0 -6 3 -7t20 -1zM969 1327q188 0 346.5 -90.5t251 -248.5t92.5 -347q0 -137 -54 -263t-145 -217.5t-217.5 -146.5t-265.5 -55
t-267.5 54.5t-222 146t-149 217t-55.5 260.5q0 141 55 269t147 220t219 146.5t265 54.5zM969 18q129 0 243.5 49.5t195 133.5t127 198.5t46.5 241.5q0 170 -78.5 314.5t-218 229.5t-307.5 85q-167 0 -308.5 -85t-222.5 -226.5t-81 -303.5q0 -174 79.5 -320t218.5 -231.5
t306 -85.5z" />
    <glyph glyph-name="degree" unicode="&#xb0;" horiz-adv-x="423" 
d="M254 1327q59 0 95 -37t36 -92q0 -52 -38.5 -89.5t-92.5 -37.5q-60 0 -94.5 36.5t-34.5 90.5t37.5 91.5t91.5 37.5zM254 1100q41 0 69.5 30.5t28.5 67.5q0 40 -28 68t-70 28q-39 0 -67.5 -28.5t-28.5 -69.5q0 -38 25.5 -67t70.5 -29z" />
    <glyph glyph-name="plusminus" unicode="&#xb1;" horiz-adv-x="1359" 
d="M944 641h416l-76 -68h-369l-159 -428h-101l166 428h-395l74 68h348l162 432h96zM330 72h860l-76 -68h-858z" />
    <glyph glyph-name="twosuperior" unicode="&#xb2;" horiz-adv-x="1374" 
d="M981 322q52 0 134.5 86t162.5 210h29q-89 -146 -190.5 -259.5t-174.5 -125.5q-37 -6 -117 1.5t-158 17.5t-177.5 6.5t-176.5 -29.5h-47q9 33 66 84t139.5 109t181 125t194.5 140.5t175 147.5t128.5 154t49.5 152q0 59 -46 106t-138 47q-212 0 -371 -150
q-112 -105 -151 -236q-34 -114 13 -169q27 -32 77 -32q48 0 92 31.5t69 75.5t24 95t-36 86q10 -33 -17.5 -47t-45.5 2q-9 10 -13.5 23t1 28.5t24.5 26.5q34 18 61 -2q45 -32 51 -93t-19.5 -119t-80.5 -100.5t-121 -41.5q-94 1 -123 90q-30 94 24 222q64 151 204 245
q148 98 338 98q173 0 264 -64.5t88 -150.5q-3 -55 -34.5 -112t-89 -113.5t-122.5 -108t-152 -108.5t-159.5 -101.5t-164 -100t-146.5 -91.5q87 10 183.5 -4t178 -33t119.5 -18z" />
    <glyph glyph-name="threesuperior" unicode="&#xb3;" horiz-adv-x="1185" 
d="M840 791q142 -76 174 -193q32 -113 -51 -211q-103 -120 -327 -151q-66 -9 -140 -9q-150 0 -231.5 73.5t-71.5 164.5q7 98 123 158q96 50 197 45q88 -4 101 -50q4 -14 0 -30q-11 -32 -33 -39t-40 6q-21 11 -14 42t40 30q-42 25 -90.5 15.5t-91 -36.5t-71.5 -71t-31 -89
q-8 -73 49 -127.5t155 -54.5q85 0 158 27t121.5 70.5t78 99t34 111t-17.5 108.5t-70 90q-17 -6 -30 -10.5t-45 -14t-54 -12.5t-45.5 -3.5t-32 10.5t-0.5 32q7 30 33.5 46.5t59 18t64.5 -4.5t54 -17q79 43 153 149q87 125 83 216q-6 105 -138 106q-177 0 -302 -110
q-84 -73 -100 -153q-14 -69 38 -90q16 -7 38 -7q69 0 111.5 62t21.5 122q-3 -23 -20 -30.5t-34 -1t-21 19.5q-7 22 3.5 42t41.5 23q51 1 63 -55q12 -61 -27 -128q-58 -82 -143 -87q-83 1 -104 68q-21 70 33 159q68 110 204 162q90 35 197 35q228 3 280 -105q40 -84 -36 -198
q-75 -113 -213 -186q-41 -22 -84 -37zM596 778q-5 -24 69 -11q71 12 95 30q-33 21 -94 16t-70 -35z" />
    <glyph glyph-name="acute" unicode="&#xb4;" horiz-adv-x="190" 
d="M129 1073l78 -49q-8 -45 -15 -75t-25.5 -68t-45.5 -62h-31q52 78 39 254z" />
    <glyph glyph-name="mu" unicode="&#xb5;" horiz-adv-x="847" 
d="M981 440h31q-247 -452 -402 -452q-223 0 -151 272q-170 -272 -295 -272q-53 0 -86 16q-228 -493 -320 -709h-176q131 332 367 838q103 206 270 559h187q-154 -332 -267 -559q-21 -38 -14.5 -71t45.5 -33q42 0 103.5 57t119 135t119.5 178q61 139 154 293h184
q-132 -245 -179 -346q-147 -317 -57 -317q65 0 167 122t200 289z" />
    <glyph glyph-name="paragraph" unicode="&#xb6;" horiz-adv-x="1218" 
d="M991 1536h479l-43 -90h-127l-694 -1458h-90l696 1458h-188l-694 -1458h-99l392 819q-252 9 -252 219q0 67 35 145q68 165 229 265q160 100 356 100z" />
    <glyph glyph-name="periodcentered" unicode="&#xb7;" horiz-adv-x="331" 
d="M168 176q-39 0 -65.5 27.5t-26.5 64.5q0 40 26 67t66 27q38 0 65 -27t27 -67q0 -37 -27 -64.5t-65 -27.5z" />
    <glyph glyph-name="cedilla" unicode="&#xb8;" horiz-adv-x="591" 
d="M446 -199q-6 -77 -98 -118q-76 -29 -164 -29q-29 0 -26 14q0 15 28 15q59 0 123 34q65 35 68 93q3 42 -55 69q1 3 8 14t25.5 40t35.5 55h49l-63 -99q72 -24 69 -88z" />
    <glyph glyph-name="onesuperior" unicode="&#xb9;" horiz-adv-x="872" 
d="M844 1321l67 -37q-59 -78 -132.5 -231t-121.5 -273.5t-121 -314.5t-90 -236h-174q9 22 46 114t57 140.5t59.5 141t70 156.5t71.5 142.5t79 141.5q-366 -283 -387 -354q26 26 51.5 10.5t20.5 -41.5q-5 -21 -23.5 -31.5t-50.5 0.5q-40 22 -30 62q7 33 48 86.5t93.5 107.5
t127.5 122.5t131 116.5t123 104.5t85 72.5z" />
    <glyph glyph-name="ordmasculine" unicode="&#xba;" horiz-adv-x="1005" 
d="M825 1319q152 0 181 -109q27 -98 -49 -234q-75 -134 -198 -216q-109 -72 -218 -72q-162 0 -194 112q-29 97 47 233q73 131 197 213q117 78 234 73zM805 993q30 54 47.5 100.5t22 79.5t-1 56.5t-19.5 35t-35 11.5q-56 0 -134 -72.5t-144 -202.5q-28 -53 -45.5 -99
t-22 -78.5t0 -55.5t17 -34t31.5 -11q56 0 135 70.5t148 199.5z" />
    <glyph glyph-name="guillemotright" unicode="&#xbb;" horiz-adv-x="1251" 
d="M545 147l-25 3q63 120 151.5 219.5t213.5 199.5q-35 54 -54.5 161.5t-5.5 172.5l23 17q35 -192 252 -359q-179 -91 -311.5 -188.5t-243.5 -225.5zM133 147l-24 3q64 120 152 219.5t212 199.5q-35 54 -54 161.5t-5 172.5l22 17q35 -192 252 -359q-179 -91 -311.5 -188.5
t-243.5 -225.5z" />
    <glyph glyph-name="onequarter" unicode="&#xbc;" horiz-adv-x="2318" 
d="M2357 674q8 -78 -49 -151.5t-137.5 -118t-157.5 -56.5q-8 -2 -28 -2q-107 -282 -130 -346h-174q11 28 61 152.5t83 201.5q-107 11 -143 14t-113 6.5t-136.5 -2.5t-127.5 -20l17 26q18 26 40 42q18 14 95.5 75t101.5 79.5t93.5 72.5t101 78.5t93 71.5t102 77t95 70.5
t104 76.5t99.5 71l71 -35q-118 -160 -299 -623h35q62 7 124 33.5t108.5 79.5t42.5 117q-17 -30 -46.5 -21t-31.5 33q-2 23 13.5 39t45.5 10q41 -11 47 -51zM1866 449q69 154 119.5 253t113.5 193l-641 -461q149 42 408 15zM969 1321l67 -37q-59 -78 -132.5 -231
t-121.5 -273.5t-121 -314.5t-90 -236h-174q9 22 46 114t57 140.5t59.5 141t70 156.5t71.5 142.5t79 141.5q-366 -283 -387 -354q26 26 51.5 10.5t20.5 -41.5q-5 -21 -23.5 -31.5t-50.5 0.5q-40 23 -31 62q8 39 59 102.5t135.5 143t151.5 139t158 136.5t105 89zM1612 1720
h106q-157 -314 -325.5 -677t-260.5 -571.5t-303 -692.5h-112q506 1053 895 1941z" />
    <glyph glyph-name="onehalf" unicode="&#xbd;" horiz-adv-x="2260" 
d="M1976 80q52 0 134.5 86t162.5 211h29q-89 -146 -190.5 -259.5t-174.5 -125.5q-37 -6 -116.5 1.5t-157.5 17.5t-177.5 6.5t-176.5 -29.5h-47q9 33 66 84t139.5 109t180.5 124.5t194 140.5t175 147.5t128.5 153.5t49.5 152q0 59 -46.5 106.5t-137.5 47.5q-211 0 -371 -150
q-112 -105 -151 -236q-34 -114 12 -170q27 -32 78 -32q48 0 92 31.5t69 76t24.5 95.5t-35.5 86q10 -33 -18 -47t-46 2q-9 10 -13.5 22.5t1 28t24.5 26.5q35 18 62 -2q45 -32 51 -93t-19.5 -119t-80.5 -100.5t-121 -41.5q-94 1 -123 90q-31 94 24 223q64 150 204 244
q147 98 337 98q173 0 264 -64.5t88 -150.5q-3 -55 -34.5 -112t-89 -113.5t-122.5 -108t-152 -108.5t-159.5 -101.5t-164 -100t-146.5 -91.5q87 10 183.5 -4t178 -33t119.5 -18zM965 1317l67 -37q-48 -64 -101.5 -167.5t-107.5 -232.5t-95.5 -234.5t-92 -241t-70.5 -185.5
h-174q4 10 29.5 74t35 88t36 88.5t42 100.5t42 97t47.5 104.5t47 97t52 100.5t52 90q-367 -287 -389 -354q19 17 36 15t28.5 -17t7.5 -31q-5 -22 -22.5 -32.5t-49.5 1.5q-39 20 -33 64q9 38 60 101.5t136 143.5t152 139.5t159 137.5t106 90zM1612 1718h108
q-159 -318 -322.5 -669t-273.5 -600.5t-299 -684.5h-114q473 977 901 1954z" />
    <glyph glyph-name="threequarters" unicode="&#xbe;" horiz-adv-x="2578" 
d="M2681 676q6 -59 -25 -117.5t-84 -101t-115 -72t-120 -39.5h-31q-64 -174 -131 -346h-172q13 31 39 99t52 132.5t52 122.5q-114 13 -183 18t-158 1.5t-179 -21.5q4 2 10 12t18 26.5t27 29.5q47 37 211.5 164t239 184t203 153t237.5 173l68 -37q-120 -159 -299 -627h37
q61 8 122 35.5t107.5 81.5t42.5 119q-18 -31 -46.5 -23t-31.5 35q0 21 15.5 36.5t42.5 14.5q48 -12 51 -53zM2187 446q51 112 78 169.5t70 136t86 143.5l-641 -465q161 49 407 16zM973 791q142 -76 174 -193q32 -113 -51 -211q-103 -120 -327 -151q-66 -9 -140 -9
q-150 0 -231.5 73.5t-71.5 164.5q7 98 122 158q96 50 198 45q90 -4 102 -50q4 -14 0 -30q-11 -32 -33.5 -39t-40.5 6q-21 11 -14 42t40 30q-42 25 -90.5 15.5t-91 -36.5t-71.5 -71t-31 -89q-8 -73 49.5 -127.5t155.5 -54.5q85 0 158 27t121 70.5t77.5 99t34 111t-17.5 108.5
t-70 90q-17 -6 -30 -10.5t-45 -14t-54 -12.5t-45.5 -3.5t-32 10.5t-0.5 32q7 30 33.5 46.5t59 18t64.5 -4.5t54 -17q79 43 153 149q87 125 83 216q-6 105 -138 106q-177 0 -302 -110q-84 -73 -100 -153q-14 -69 38 -90q16 -7 38 -7q69 0 112 62t22 122q-3 -23 -20 -30.5
t-34.5 -1t-21.5 19.5q-7 22 3.5 42t41.5 23q51 1 63 -55q12 -61 -27 -128q-58 -82 -143 -87q-83 1 -104 68q-21 70 33 159q68 110 204 162q90 35 197 35q228 3 280 -105q40 -84 -36 -198q-75 -113 -213 -186q-41 -22 -84 -37zM729 778q-5 -24 69 -11q71 12 95 30
q-33 21 -94 16t-70 -35zM1935 1720h105q-82 -162 -165.5 -335.5t-144 -302.5t-151 -331t-134 -301t-149.5 -340.5t-145 -330.5h-111q474 989 895 1941z" />
    <glyph glyph-name="questiondown" unicode="&#xbf;" horiz-adv-x="1099" 
d="M182 211q-19 79 14 163t99.5 156.5t151 143.5t169.5 134t153.5 118.5t104.5 105t21 86.5q-13 34 -69 35.5t-119 -41.5l-31 8q44 43 111 60.5t126.5 5t83.5 -50.5q22 -36 16 -77.5t-35.5 -82t-75 -86.5t-102 -91t-116 -95t-117.5 -98.5t-106.5 -102t-83 -106t-47 -109
t1.5 -111.5q18 -80 73.5 -120t139.5 -40q82 0 169 27.5t162 76t125 123.5t54 160q4 61 -22 104.5t-69.5 61t-94.5 18t-97 -17.5q-69 -25 -100 -74.5t-2 -109.5q6 26 25 34.5t36.5 1.5t22.5 -22t5 -30t-14 -27t-40 -12q-46 -2 -68 49q-26 60 7 125q33 68 116 98q54 21 114 21
t112.5 -20.5t85 -71.5t28.5 -123q-6 -95 -58 -176t-131.5 -133.5t-176 -81.5t-193.5 -29q-137 0 -233 55.5t-126 167.5zM983 1436q39 0 65.5 -27.5t26.5 -65.5q0 -40 -26 -67t-66 -27q-38 0 -65 27t-27 67q0 37 27 65t65 28z" />
    <glyph glyph-name="Agrave" unicode="&#xc0;" horiz-adv-x="2590" 
d="M2333 1872h159q25 -144 144 -230v-30q-108 21 -191 86q-92 76 -112 174zM2241 -2q48 0 116 74t127 170.5t111 203.5h35q-238 -487 -389 -487q-364 0 -34 704q3 7 5 11q7 18 12 26h-377q-36 -72 -63 -123.5t-66.5 -119t-74 -115t-81.5 -103.5t-94 -94t-107 -75.5
t-123.5 -60t-141 -36.5t-162.5 -14q-343 1 -535 175q-139 128 -158 307q-18 167 76 302q101 146 289 181q52 10 109 10q116 0 220 -39.5t174.5 -114t86.5 -168.5q15 -98 -29.5 -183.5t-131.5 -134.5t-191 -46q-134 3 -211 75t-58 138q4 26 21.5 43.5t52.5 17.5q44 0 67 -30
t15 -64q-7 -26 -31.5 -44.5t-62.5 -18.5q77 -86 194 -86q172 0 248.5 95t55.5 244q-12 76 -56.5 135t-105 91t-122 47.5t-120.5 15.5q-223 0 -342 -141q-99 -116 -91 -281q7 -168 121 -298q144 -163 392 -186q36 -3 74 -3q66 0 126.5 13t111 33.5t100 56.5t88 71t80 88.5
t71.5 98t67 109.5t62 113t60 119h-156l37 39h139q36 68 56 104.5t56.5 100t61.5 100.5t64.5 91.5t72 88t77.5 74.5t88 68t96 51t110 39l43 -35q-61 -26 -116 -65.5t-101.5 -92.5t-85.5 -107.5t-79 -126.5t-70.5 -132.5t-70.5 -142.5q-5 -10 -7 -15h375q22 43 72 136
q32 58 48 88.5t44.5 86.5t40 88t28.5 80.5t16.5 77t-2 65t-21.5 57t-48 40t-75 28t-108 7.5q-339 -4 -619 -191q-187 -125 -287 -289q-88 -146 -61 -246q27 -99 161 -101q24 -1 51 2l-25 -29q-160 -11 -220 92q-56 96 -2 243q62 169 232 308q246 202 606 244q86 10 175 10
q101 0 175 -15t119.5 -39.5t70.5 -63.5t31 -80t-4 -97t-27.5 -106.5t-46.5 -116t-56 -117.5t-60 -119t-53 -114q-151 -353 -185 -508q-36 -162 30 -162z" />
    <glyph glyph-name="Aacute" unicode="&#xc1;" horiz-adv-x="2478" 
d="M2210 -2q48 0 116 74t127 170.5t111 203.5h35q-238 -487 -389 -487q-364 0 -34 704q3 7 5 11q7 18 12 26h-376q-47 -94 -82 -159t-88.5 -149t-103 -140.5t-120 -116.5t-144.5 -95t-170.5 -58t-205.5 -23q-343 1 -535 175q-139 128 -158 307q-18 167 76 302
q101 146 289 181q52 10 109 10q116 0 220 -39.5t174.5 -114t86.5 -168.5q15 -98 -29.5 -183.5t-131.5 -134.5t-191 -46q-134 3 -210.5 75t-57.5 138q8 61 73 61q44 0 67 -30t15 -64q-7 -26 -31.5 -44.5t-62.5 -18.5q77 -86 195 -86q172 0 248 95t55 244q-12 76 -56.5 135
t-105 91t-122 47.5t-120.5 15.5q-223 0 -342 -141q-99 -116 -91 -281q7 -168 121 -298q144 -163 392 -186q36 -3 74 -3q66 0 126.5 13t111 33.5t100 56.5t88 71t80 88.5t71.5 98t67 109.5t62 113t60 119h-156l37 39h139q36 68 56 104.5t56.5 100t61.5 100.5t64.5 91.5t72 88
t77.5 74.5t88 68t96 51t110 39l43 -35q-61 -26 -116 -65.5t-101.5 -92.5t-85.5 -107.5t-79 -126.5t-70.5 -132.5t-70.5 -142.5q-5 -10 -7 -15h375q22 43 73 137q40 73 60 111t53 106.5t43 107.5t21 93t-4 84t-40.5 60t-79.5 43t-130 12q-339 -4 -619 -191
q-188 -125 -287 -289q-89 -146 -62 -246q27 -99 161 -101q24 -1 51 2l-25 -29q-160 -11 -220 92q-56 96 -2 243q62 169 232 308q246 202 606 244q86 10 175 10q101 0 175 -15t119.5 -39.5t70.5 -63.5t31 -80t-4 -97t-27.5 -106.5t-46.5 -116t-56 -117.5t-60 -119t-53 -114
q-151 -353 -185 -508q-36 -162 30 -162zM2501 1890h165q-45 -105 -149 -176q-95 -65 -215 -92l6 31q143 88 193 237z" />
    <glyph glyph-name="Acircumflex" unicode="&#xc2;" horiz-adv-x="2459" 
d="M2220 -2q48 0 116 74t127 170.5t111 203.5h35q-238 -487 -389 -487q-364 0 -34 704q3 7 5 11q5 13 13 26h-377q-47 -94 -82 -159t-88.5 -149t-103 -140.5t-120 -116.5t-144.5 -95t-170.5 -58t-205.5 -23q-343 1 -535 175q-139 128 -158 307q-18 167 76 302
q101 146 289 181q52 10 109 10q116 0 220 -39.5t175 -114t87 -168.5q15 -98 -30 -183.5t-132 -134.5t-191 -46q-134 3 -210.5 75t-57.5 138q4 26 21.5 43.5t52.5 17.5q44 0 67 -30t15 -64q-7 -26 -31.5 -44.5t-63.5 -18.5q77 -86 195 -86q172 0 248 95t55 244
q-12 76 -56.5 135t-105 91t-121.5 47.5t-120 15.5q-223 0 -342 -141q-99 -116 -92 -281q7 -168 121 -298q143 -163 390 -186q37 -3 76 -3q66 0 126.5 13t111 33.5t100 56.5t88 71t80 88.5t71.5 98t67 109.5t62 113t60 119h-155l36 39h140q36 68 56 104.5t56.5 100
t61.5 100.5t64.5 91.5t72 88t77.5 74.5t88 68t96 51t110 39l43 -35q-42 -18 -81.5 -44t-72 -51.5t-67.5 -66.5t-59 -70t-56.5 -83t-50.5 -84t-50.5 -93.5t-46 -92t-47.5 -97.5h375q22 43 73 137q40 73 60 111t53 106.5t43 107.5t21 93t-4 84t-40.5 60t-79.5 43t-130 12
q-339 -4 -619 -191q-188 -125 -287 -289q-89 -146 -62 -246q27 -99 161 -101q24 -1 51 2l-24 -29q-160 -11 -220 92q-56 96 -2 244q62 168 232 308q247 202 608 243q84 10 172 10q101 0 175 -15t120 -39.5t70.5 -63.5t30.5 -80t-3.5 -97t-27.5 -106.5t-47 -116t-55.5 -117.5
t-59.5 -119t-53 -114q-141 -330 -179 -480q-49 -190 23 -190zM2599 1921l10 -2q21 -214 113 -297l-21 -20q-44 11 -96.5 54.5t-69.5 86.5q-179 -123 -342 -139l9 30q102 43 195 112t202 175z" />
    <glyph glyph-name="Atilde" unicode="&#xc3;" horiz-adv-x="2590" 
d="M2241 -2q48 0 116 74t127 170.5t111 203.5h35q-238 -487 -389 -487q-364 0 -34 704q3 7 5 11q7 18 12 26h-377q-36 -72 -63 -123.5t-66.5 -119t-74 -115t-81.5 -103.5t-94 -94t-107 -75.5t-123.5 -60t-141 -36.5t-162.5 -14q-343 1 -535 175q-139 128 -158 307
q-18 167 76 302q101 146 289 181q52 10 109 10q116 0 220 -39.5t174.5 -114t86.5 -168.5q15 -98 -29.5 -183.5t-131.5 -134.5t-191 -46q-134 3 -211 75t-58 138q4 26 21.5 43.5t52.5 17.5q44 0 67 -30t15 -64q-7 -26 -31.5 -44.5t-62.5 -18.5q77 -86 194 -86q172 0 248.5 95
t55.5 244q-12 76 -56.5 135t-105 91t-122 47.5t-120.5 15.5q-223 0 -342 -141q-99 -116 -91 -281q7 -168 121 -298q144 -163 392 -186q36 -3 74 -3q66 0 126.5 13t111 33.5t100 56.5t88 71t80 88.5t71.5 98t67 109.5t62 113t60 119h-156l37 39h139q36 68 56 104.5t56.5 100
t61.5 100.5t64.5 91.5t72 88t77.5 74.5t88 68t96 51t110 39l43 -35q-61 -26 -116 -65.5t-101.5 -92.5t-85.5 -107.5t-79 -126.5t-70.5 -132.5t-70.5 -142.5q-5 -10 -7 -15h375q22 43 72 136q32 58 48 88.5t44.5 86.5t40 88t28.5 80.5t16.5 77t-2 65t-21.5 57t-48 40t-75 28
t-108 7.5q-339 -4 -619 -191q-187 -125 -287 -289q-88 -146 -61 -246q27 -99 161 -101q24 -1 51 2l-25 -29q-160 -11 -220 92q-56 96 -2 243q62 169 232 308q246 202 606 244q86 10 175 10q101 0 175 -15t119.5 -39.5t70.5 -63.5t31 -80t-4 -97t-27.5 -106.5t-46.5 -116
t-56 -117.5t-60 -119t-53 -114q-151 -353 -185 -508q-36 -162 30 -162zM2247 1645h-19q89 111 117 118l6 1q6 1 14.5 2.5t19 3.5t22.5 3t22 1h39q31 -5 106 -33q76 -27 97 -27q51 0 72 12t38 52h10q-11 -62 -63 -105t-119 -43q-22 0 -40 3t-43 10t-29 8l-142 43
q-31 0 -65 -21q-17 -8 -43 -28z" />
    <glyph glyph-name="Adieresis" unicode="&#xc4;" horiz-adv-x="2435" 
d="M2261 1661q-39 0 -65.5 27.5t-26.5 64.5q0 40 26 67t66 27q38 0 65 -27t27 -67q0 -37 -27 -64.5t-65 -27.5zM2546 1661q-39 0 -65.5 27.5t-26.5 64.5q0 40 26 67t66 27q38 0 65 -27t27 -67q0 -37 -27 -64.5t-65 -27.5zM2218 -2q48 0 116 74t127 170.5t111 203.5h35
q-238 -487 -389 -487q-364 0 -34 704q3 7 5 11q5 13 13 26h-377q-47 -94 -82 -159t-88.5 -149t-103 -140.5t-120 -116.5t-144.5 -95t-170.5 -58t-205.5 -23q-343 1 -535 175q-139 128 -158 307q-18 167 76 302q101 146 289 181q52 10 109 10q116 0 220 -39.5t175 -114
t87 -168.5q15 -98 -30 -183.5t-132 -134.5t-191 -46q-134 3 -210.5 75t-57.5 138q4 26 21.5 43.5t52.5 17.5q44 0 67 -30t15 -64q-7 -26 -31.5 -44.5t-63.5 -18.5q77 -86 195 -86q172 0 248 95t55 244q-12 76 -56.5 135t-105 91t-121.5 47.5t-120 15.5q-223 0 -342 -141
q-99 -116 -92 -281q7 -168 121 -298q143 -163 390 -186q37 -3 76 -3q66 0 126.5 13t111 33.5t100 56.5t88 71t80 88.5t71.5 98t67 109.5t62 113t60 119h-155l36 39h140q36 68 56 104.5t56.5 100t61.5 100.5t64.5 91.5t72 88t77.5 74.5t88 68t96 51t110 39l43 -35
q-42 -18 -81.5 -44t-72 -51.5t-67.5 -66.5t-59 -70t-56.5 -83t-50.5 -84t-50.5 -93.5t-46 -92t-47.5 -97.5h375q22 43 73 137q40 73 60 111t53 106.5t43 107.5t21 93t-4 84t-40.5 60t-79.5 43t-130 12q-339 -4 -619 -191q-188 -125 -287 -289q-89 -146 -62 -246
q27 -99 161 -101q24 -1 51 2l-24 -29q-160 -11 -220 92q-56 96 -2 244q62 168 232 308q247 202 608 243q84 10 172 10q101 0 175 -15t120 -39.5t70.5 -63.5t30.5 -80t-3.5 -97t-27.5 -106.5t-47 -116t-55.5 -117.5t-59.5 -119t-53 -114q-141 -330 -179 -480
q-49 -190 23 -190z" />
    <glyph glyph-name="Egrave" unicode="&#xc8;" horiz-adv-x="1370" 
d="M1049 1872h159q25 -144 144 -230v-30q-108 21 -191 86q-92 76 -112 174zM1282 1534q169 0 219 -84q40 -68 -18 -157q-65 -101 -215 -161q-219 -86 -500 -30q-22 -37 -38 -87.5t-19 -106.5t22 -93q74 38 165 59q140 32 135 -40q0 -9 -3 -19q-13 -47 -51.5 -74t-85 -31
t-92.5 3.5t-80 25.5q-106 -56 -205 -198q-112 -158 -131 -303q-23 -166 98 -219q50 -21 121 -21q254 0 444 149q128 101 177 225q43 110 -3 169q-31 41 -100 41t-126.5 -47.5t-81 -116t-3.5 -127.5q7 36 34 48.5t53.5 1.5t33.5 -34q13 -33 -3 -64t-66 -32q-69 -2 -90 71
q-22 77 21 174q47 108 141 151q48 21 102 20q110 -1 144 -91q35 -90 -23 -215q-67 -146 -220 -243q-185 -119 -434 -119q-300 0 -388 148q-69 114 7 280q71 155 231 279q90 70 191 114q-57 41 -77 107t-9.5 131t41.5 129q-81 26 -152 67.5t-117.5 95.5t-58 110t34 115
t150.5 107l35 -16q-107 -43 -149 -93.5t-27 -96t65.5 -90t116.5 -77.5t139 -57q95 148 280 235t365 87zM1327 1495q-155 0 -298.5 -86t-231.5 -244q296 -65 497 29q115 54 156 139q35 73 -8 121q-36 40 -115 41zM1004 809q5 20 -24 23q-55 5 -158 -33q-34 -13 -50 -23
q35 -27 87 -32t94 13t51 52z" />
    <glyph glyph-name="Eacute" unicode="&#xc9;" horiz-adv-x="1204" 
d="M1147 1534q170 0 220 -84q41 -70 -17 -159q-66 -102 -216 -161q-222 -88 -505 -32q-22 -37 -38 -88t-19 -107t22 -94q86 42 178 62q130 27 124 -44q0 -8 -3 -18q-13 -47 -51.5 -74t-85.5 -31t-93 3.5t-81 25.5q-107 -57 -207 -200q-112 -160 -132 -305q-22 -167 99 -220
q50 -22 123 -22q255 0 447 150q129 100 178 225q44 111 -2 170q-31 42 -101 42t-128 -47.5t-81.5 -116t-3.5 -128.5q7 36 34 48.5t53.5 1.5t33.5 -34q13 -33 -3.5 -64t-66.5 -32q-69 -2 -90 71q-21 77 21 174q47 109 142 151q48 22 103 21q110 -1 145 -90q35 -91 -23 -216
q-66 -146 -219 -244q-187 -121 -439 -121q-302 0 -391 148q-70 114 5 280q71 156 232 283q92 71 195 116q-57 41 -77 107.5t-9.5 132t41.5 129.5q-82 26 -153.5 68.5t-118.5 96.5t-59 110.5t33.5 116t151.5 107.5l35 -16q-107 -43 -149.5 -94t-27 -97t66.5 -91t117.5 -78.5
t140.5 -57.5q64 101 175.5 176.5t234 112.5t239.5 37zM1192 1493q-155 0 -300 -86.5t-233 -245.5q296 -65 498 28q117 54 159 140q36 73 -6 122q-37 41 -118 42zM866 803q5 20 -24 22q-54 6 -160 -33q-32 -12 -49 -22q36 -27 88 -32t94 13t51 52zM1151 1890h166
q-44 -104 -150 -176q-95 -65 -215 -92l6 31q143 88 193 237z" />
    <glyph glyph-name="Ecircumflex" unicode="&#xca;" horiz-adv-x="1345" 
d="M1290 1534q170 0 220 -84q41 -70 -17 -159q-66 -102 -216 -161q-222 -88 -505 -32q-22 -37 -38 -88t-19 -107t22 -94q86 42 178 62q130 27 124 -44q0 -8 -3 -18q-13 -47 -51.5 -74t-85.5 -31t-93 3.5t-81 25.5q-107 -57 -207 -200q-112 -160 -132 -305q-22 -167 99 -220
q50 -22 123 -22q255 0 447 150q129 100 178 225q44 111 -2 170q-31 42 -101 42t-127.5 -47.5t-81 -116t-3.5 -128.5q7 36 33.5 48.5t53 1.5t33.5 -34q13 -33 -3 -64t-66 -32q-69 -2 -90 71q-21 77 21 174q47 109 142 151q48 22 103 21q110 -1 145 -90q35 -91 -23 -216
q-67 -146 -220 -244q-187 -121 -439 -121q-302 0 -391 148q-70 114 5 280q71 156 232 283q92 71 195 116q-57 41 -77 107.5t-9.5 132t41.5 129.5q-82 26 -153.5 68.5t-118.5 96.5t-58.5 110.5t34 116t151.5 107.5l35 -16q-107 -43 -149.5 -94t-27.5 -97t66 -91t117.5 -78.5
t140.5 -57.5q64 101 175.5 176.5t234 112.5t239.5 37zM1335 1493q-155 0 -299.5 -86.5t-232.5 -245.5q297 -65 499 29q116 54 157 139q36 73 -6 122q-37 41 -118 42zM1010 803q5 19 -24 22q-54 6 -160 -33q-33 -12 -50 -22q36 -27 88.5 -32t94.5 13t51 52zM1382 1921l11 -2
q21 -215 112 -297l-20 -20q-44 11 -96.5 54.5t-69.5 86.5q-179 -123 -342 -139l8 30q102 43 195 112t202 175z" />
    <glyph glyph-name="Edieresis" unicode="&#xcb;" horiz-adv-x="1312" 
d="M1264 1534q170 0 220 -84q41 -69 -17 -158q-66 -102 -216 -162q-222 -88 -506 -32q-22 -37 -38 -88.5t-18.5 -107t22.5 -93.5q86 42 178 62q130 27 124 -44q0 -8 -3 -18q-13 -47 -51.5 -74t-85.5 -31t-93.5 3.5t-81.5 25.5q-107 -57 -207 -200q-112 -160 -131 -305
q-23 -167 99 -220q50 -22 123 -22q255 0 447 150q129 100 178 225q44 111 -2 170q-31 42 -101 42t-128 -47.5t-81.5 -116t-3.5 -128.5q7 36 34 48.5t53.5 1.5t33.5 -34q13 -33 -3.5 -64t-66.5 -32q-69 -2 -90 71q-21 77 21 174q47 109 142 151q48 22 103 21q110 -1 145 -90
q35 -91 -23 -216q-66 -146 -219 -244q-187 -121 -439 -121q-302 0 -391 148q-70 114 5 280q71 156 232 283q92 71 195 116q-57 41 -77 107.5t-9.5 132t41.5 129.5q-82 26 -153.5 68.5t-118.5 96.5t-59 110.5t33.5 116t151.5 107.5l35 -16q-107 -43 -149.5 -94t-27.5 -97
t66 -91t117.5 -78.5t140.5 -57.5q64 101 175.5 176.5t234.5 112.5t240 37zM1309 1493q-155 0 -300 -86.5t-233 -245.5q296 -65 498 28q117 54 159 140q36 73 -6 122q-37 41 -118 42zM983 803q5 20 -24 22q-54 6 -160 -33q-32 -12 -49 -22q36 -27 88 -32t94 13t51 52z
M1020 1661q-39 0 -65.5 27.5t-26.5 64.5q0 40 26 67t66 27q38 0 65 -27t27 -67q0 -37 -27 -64.5t-65 -27.5zM1305 1661q-39 0 -66 27.5t-27 64.5q0 40 26.5 67t66.5 27q38 0 65 -27t27 -67q0 -37 -27 -64.5t-65 -27.5z" />
    <glyph glyph-name="Igrave" unicode="&#xcc;" horiz-adv-x="1855" 
d="M2095 1872h160q25 -145 143 -230v-30q-106 21 -190 86q-93 77 -113 174zM2251 1536q125 0 217 -20l-90 -33q-72 -30 -137.5 -87.5t-108 -107.5t-100 -155.5t-80 -154t-81.5 -180.5q-53 -118 -82 -179.5t-86.5 -167.5t-103 -164t-119 -133t-148 -113t-175.5 -66t-215 -28
q-347 1 -540 177q-141 128 -160 309q-17 167 76 302q101 147 289 184q55 11 114 11q183 0 321 -90.5t162 -237.5q16 -97 -29.5 -182t-133.5 -134t-193 -48q-69 2 -125.5 24t-89 54t-47 68.5t-6.5 68.5q10 63 71 63q48 0 71 -30t13 -66q-7 -26 -31 -45t-61 -19
q66 -88 193 -88q171 0 249.5 97t55.5 243q-12 78 -55.5 137.5t-104 92t-123 48t-123.5 15.5q-221 0 -340 -140q-98 -117 -91 -281q7 -170 121 -300q144 -164 394 -187q36 -3 74 -3q121 0 223 43t177.5 118t140.5 173t120.5 211t109 228.5t115.5 229.5t130 210.5t161.5 174
t202.5 117.5h-30q-343 -4 -625 -191q-190 -126 -290 -291q-90 -147 -64 -247q26 -99 156 -103q27 -1 59 3l-23 -33q-163 -11 -223 93q-56 97 -2 246q62 168 233 308q247 203 609 246q87 10 178 10z" />
    <glyph glyph-name="Iacute" unicode="&#xcd;" horiz-adv-x="1744" 
d="M2218 1536q125 0 217 -20l-90 -33q-72 -30 -137.5 -87.5t-108 -107.5t-100 -155.5t-80 -154t-81.5 -180.5q-53 -118 -82 -179.5t-86.5 -167.5t-103 -164t-119 -133t-148 -113t-175.5 -66t-215 -28q-347 1 -540 177q-141 128 -160 309q-17 167 76 302q101 147 289 184
q55 11 114 11q183 0 321 -90.5t162 -237.5q16 -97 -29.5 -182t-133.5 -134t-193 -48q-69 2 -125.5 24t-89 54t-47 68.5t-6.5 68.5q10 63 71 63q48 0 71 -30t13 -66q-7 -26 -31 -45t-61 -19q66 -88 193 -88q171 0 249.5 97t55.5 243q-12 78 -55.5 137.5t-104 92t-123 48
t-123.5 15.5q-221 0 -340 -140q-98 -117 -91 -281q7 -170 121 -300q144 -164 394 -187q36 -3 74 -3q121 0 223 43t177.5 118t140.5 173t120.5 211t109.5 228.5t115.5 229.5t130 210.5t162 174t202.5 117.5h-31q-343 -4 -625 -191q-190 -126 -290 -291q-90 -147 -64 -247
q26 -99 156 -103q27 -1 59 3l-23 -33q-163 -11 -223 93q-56 97 -2 246q62 168 233 308q247 203 609 246q87 10 178 10zM2273 1890h166q-45 -105 -149 -176q-95 -65 -215 -92l6 31q141 87 192 237z" />
    <glyph glyph-name="Icircumflex" unicode="&#xce;" horiz-adv-x="1771" 
d="M2234 1536q125 0 217 -20l-90 -33v0q-94 -39 -174 -117.5t-138.5 -176.5t-113.5 -214.5t-107.5 -234.5t-110.5 -234t-133 -216.5t-165 -177t-216 -121t-277 -44.5q-347 1 -540 177q-141 128 -160 309q-17 167 76 302q101 147 289 184q55 11 114 11q183 0 321 -90.5
t162 -237.5q16 -97 -29.5 -182t-134 -134t-193.5 -48q-69 2 -125.5 24t-89 54t-47 68.5t-6.5 68.5q10 63 72 63q48 0 71 -30t13 -66q-7 -26 -31 -45t-61 -19q66 -88 192 -88q171 0 249.5 97t55.5 243q-9 63 -40 114.5t-73 84t-93.5 54.5t-101 31t-97.5 9q-221 0 -340 -140
q-98 -117 -91 -281q7 -170 121 -300q144 -164 394 -187q36 -3 74 -3q121 0 223 43t177.5 118t140.5 173t120.5 211t109 228.5t115.5 229.5t130 210.5t161.5 174t202.5 117.5h-31q-343 -4 -625 -191q-190 -126 -290 -291q-90 -147 -64 -247q26 -99 156 -103q27 -1 59 3
l-22 -33q-163 -11 -223 93q-56 97 -2 245q61 169 232 309q246 203 607 246q88 10 180 10zM2195 1884q48 -162 146 -223l-12 -10q-43 8 -99 42.5t-76 67.5q-175 -98 -319 -108l4 14q171 59 356 217z" />
    <glyph glyph-name="Idieresis" unicode="&#xcf;" horiz-adv-x="1792" 
d="M2249 1536q125 0 217 -20l-90 -33v0q-72 -30 -137.5 -87.5t-108 -107.5t-100 -155.5t-80 -154t-81.5 -180.5q-53 -118 -82 -179.5t-86.5 -167.5t-103 -164t-119 -133t-148 -113t-175.5 -66t-215 -28q-347 1 -540 177q-141 128 -160 309q-17 167 76 302q101 147 289 184
q55 11 114 11q183 0 321 -90.5t162 -237.5q16 -97 -29.5 -182t-133.5 -134t-193 -48q-69 2 -125.5 24t-89 54t-47 68.5t-6.5 68.5q10 63 71 63q48 0 71 -30t13 -66q-7 -26 -31 -45t-61 -19q66 -88 193 -88q171 0 249.5 97t55.5 243q-12 78 -55.5 137.5t-104 92t-123 48
t-123.5 15.5q-221 0 -340 -140q-98 -117 -91 -281q7 -170 121 -300q144 -164 394 -187q36 -3 74 -3q121 0 223 43t177.5 118t140.5 173t120.5 211t109 228.5t115.5 229.5t130 210.5t161.5 174t202.5 117.5h-30q-343 -4 -625 -191q-190 -126 -290 -291q-90 -147 -64 -247
q26 -99 156 -103q27 -1 59 3l-23 -33q-163 -11 -223 93q-56 97 -2 246q62 168 233 308q247 203 609 246q87 10 178 10zM1878 1661q-39 0 -65.5 27.5t-26.5 64.5q0 40 26 67t66 27q38 0 65 -27t27 -67q0 -37 -27 -64.5t-65 -27.5zM2163 1661q-39 0 -65.5 27.5t-26.5 64.5
q0 40 26 67t66 27q38 0 65 -27t27 -67q0 -37 -27 -64.5t-65 -27.5z" />
    <glyph glyph-name="Ograve" unicode="&#xd2;" horiz-adv-x="1667" 
d="M1354 1872h159q25 -144 144 -230v-30q-108 21 -191 86q-92 76 -112 174zM1495 1415q269 0 343 -177q65 -157 -37 -406q-100 -243 -313 -465q-244 -253 -524 -358q-169 -64 -331 -62q-283 4 -372 193q-78 168 12 431q87 258 296 496q231 264 512 386q192 83 381 83
q154 0 240 -47q-7 -3 -24.5 -11.5t-22.5 -9.5q-70 21 -191 21q-258 0 -522 -241q-214 -196 -363 -481q-141 -272 -152 -485q-11 -210 117 -271q46 -21 107 -21q218 0 472 223q212 185 369 449q156 263 174 459q17 197 -120 242q-37 13 -86 13q-200 0 -359 -141
q-113 -100 -154 -222q-38 -111 11 -164q28 -32 84 -32q41 0 80 19t66.5 49.5t46.5 68t19.5 74t-13.5 68.5q-7 -32 -31.5 -42.5t-48 -1.5t-31.5 29q-11 34 5.5 63.5t68.5 29.5q63 2 81 -67q19 -76 -23 -170q-48 -105 -140 -143q-43 -17 -90 -16q-106 1 -136 90q-30 90 31 215
q70 142 213 232q158 100 355 100z" />
    <glyph glyph-name="Oacute" unicode="&#xd3;" horiz-adv-x="1662" 
d="M1524 1415q269 0 343 -177q65 -157 -37 -406q-100 -243 -313 -465q-244 -253 -524 -358q-169 -64 -331 -62q-283 4 -372 193q-78 168 12 431q87 258 296 496q231 264 512 386q192 83 381 83q154 0 240 -47q-7 -3 -25 -11.5t-23 -9.5q-71 21 -190 21q-258 0 -522 -241
q-214 -196 -363 -481q-141 -272 -152 -485q-11 -210 117 -271q46 -21 107 -21q218 0 472 223q212 185 369 449q156 263 174 459q17 197 -120 242q-37 13 -86 13q-200 0 -359 -141q-113 -100 -154 -222q-38 -111 11 -164q28 -32 84 -32q41 0 80 19t66.5 49.5t46.5 68t19.5 74
t-13.5 68.5q-7 -32 -31.5 -42.5t-48 -1.5t-31.5 29q-11 34 5.5 63.5t68.5 29.5q63 2 81 -67q19 -76 -23 -170q-48 -105 -140 -143q-43 -17 -90 -16q-106 1 -136 90q-30 90 31 215q70 142 213 232q158 100 355 100zM1612 1890h166q-44 -104 -150 -176q-95 -65 -215 -92l6 31
q143 88 193 237z" />
    <glyph glyph-name="Ocircumflex" unicode="&#xd4;" horiz-adv-x="1634" 
d="M1509 1415q269 0 343 -177q65 -157 -37 -406q-100 -243 -313 -465q-244 -253 -524 -358q-169 -64 -331 -62q-283 4 -372 193q-78 168 12 431q88 257 296 495q231 264 512 386q193 84 382 84q153 0 239 -47q-7 -3 -24.5 -11.5t-22.5 -9.5q-71 21 -190 21q-258 0 -522 -241
q-214 -196 -363 -481q-141 -272 -152 -485q-11 -210 117 -271q46 -21 107 -21q218 0 472 223q212 185 369 449q156 263 174 459q17 197 -120 242q-37 13 -86 13q-200 0 -359 -141q-113 -100 -154 -222q-38 -111 11 -164q28 -32 84 -32q41 0 80 19t66.5 49.5t46.5 68t19 74
t-14 68.5q-7 -32 -31 -42.5t-47.5 -1.5t-31.5 29q-11 34 5.5 63.5t68.5 29.5q63 2 81 -67q19 -76 -23 -170q-48 -105 -140 -143q-43 -17 -90 -16q-106 1 -136 90q-30 90 30 214q69 142 213 233q157 100 355 100zM1638 1921l11 -2q21 -215 112 -297l-20 -20
q-44 11 -96.5 54.5t-69.5 86.5q-179 -123 -342 -139l8 30q102 43 195 112t202 175z" />
    <glyph glyph-name="Otilde" unicode="&#xd5;" horiz-adv-x="1667" 
d="M1290 1645h-18q89 111 117 118l6 1q6 1 14.5 2.5t19 3.5t22.5 3t22 1h38q33 -6 107 -33q76 -27 96 -27q51 0 72.5 12t38.5 52h10q-11 -62 -63 -105t-119 -43q-22 0 -40 3t-44 10t-29 8l-141 43q-31 0 -66 -21q-17 -8 -43 -28zM1495 1415q269 0 343 -177q65 -157 -37 -406
q-100 -243 -313 -465q-244 -253 -524 -358q-169 -64 -331 -62q-283 4 -372 193q-78 168 12 431q87 258 296 496q231 264 512 386q192 83 381 83q154 0 240 -47q-7 -3 -24.5 -11.5t-22.5 -9.5q-70 21 -191 21q-258 0 -522 -241q-214 -196 -363 -481q-141 -272 -152 -485
q-11 -210 117 -271q46 -21 107 -21q218 0 472 223q212 185 369 449q156 263 174 459q17 197 -120 242q-37 13 -86 13q-200 0 -359 -141q-113 -100 -154 -222q-38 -111 11 -164q28 -32 84 -32q41 0 80 19t66.5 49.5t46.5 68t19.5 74t-13.5 68.5q-7 -32 -31.5 -42.5t-48 -1.5
t-31.5 29q-11 34 5.5 63.5t68.5 29.5q63 2 81 -67q19 -76 -23 -170q-48 -105 -140 -143q-43 -17 -90 -16q-106 1 -136 90q-30 90 31 215q70 142 213 232q158 100 355 100z" />
    <glyph glyph-name="Odieresis" unicode="&#xd6;" horiz-adv-x="1644" 
d="M1520 1415q269 0 343 -177q65 -157 -38 -406q-99 -243 -312 -464q-244 -253 -524 -359q-170 -64 -332 -62q-283 4 -372 193q-78 168 12 431q88 257 296 495q231 264 512 386q193 84 382 84q153 0 239 -47q-7 -3 -24.5 -11.5t-22.5 -9.5q-71 21 -190 21q-258 0 -522 -241
q-214 -196 -363 -481q-141 -272 -152 -485q-11 -210 117 -271q46 -21 107 -21q218 0 472 223q212 185 369 449q156 263 174 459q17 197 -120 242q-37 13 -86 13q-200 0 -359 -141q-113 -100 -154 -222q-38 -111 11 -164q28 -32 84 -32q41 0 80 19t66.5 49.5t46.5 68t19.5 74
t-13.5 68.5q-7 -32 -31.5 -42.5t-48 -1.5t-31.5 29q-11 34 5.5 63.5t68.5 29.5q63 2 81 -67q19 -76 -23 -170q-48 -105 -140 -143q-43 -17 -90 -16q-106 1 -136 90q-30 90 31 215q70 142 213 232q158 100 355 100zM1360 1661q-39 0 -65.5 27.5t-26.5 64.5q0 40 26 67t66 27
q38 0 65 -27t27 -67q0 -37 -27 -64.5t-65 -27.5zM1645 1661q-39 0 -66 27.5t-27 64.5q0 40 26.5 67t66.5 27q38 0 65 -27t27 -67q0 -37 -27 -64.5t-65 -27.5z" />
    <glyph glyph-name="multiply" unicode="&#xd7;" horiz-adv-x="1136" 
d="M1198 997l-418 -372q100 -204 213 -414h-186l-145 307l-355 -307h-82q76 68 213.5 190.5l192.5 171.5l-209 424h164q15 -29 72 -140t92 -177q145 125 356 317h92z" />
    <glyph glyph-name="Ugrave" unicode="&#xd9;" horiz-adv-x="2220" 
d="M2425 1380q125 105 241.5 140.5t199 -11t102.5 -174.5l-29 -32q-8 97 -54 141.5t-111 36t-141 -57.5t-145 -131q-160 -200 -354 -628q-101 -242 -131 -325q-122 -339 -27 -339q48 0 116 72.5t128.5 171.5t108.5 205h30q-30 -68 -62.5 -132t-73.5 -130.5t-81 -115
t-85 -79.5t-85 -31q-69 0 -113 26t-60.5 68t-15.5 101.5t15 118t39 126.5q-309 -443 -532 -440q-86 1 -146.5 17t-90.5 49t-44 71t-3 96.5t26.5 110t52 126.5t66.5 132t76 140q44 79 65.5 119.5t59 114t52 114t36 102.5t19.5 97.5t-6 81t-32 70.5t-67 49.5t-102.5 34.5
t-146.5 9q-184 -3 -335.5 -43.5t-253 -108t-166 -148.5t-91.5 -173q-27 -89 -18 -178t49.5 -160t110.5 -120t165.5 -59t213.5 23q57 17 111 50t101.5 80.5t71.5 116t13 145.5q-12 93 -60 156t-129 86.5t-192 -7.5q-120 -34 -162 -139q73 24 110 -33q18 -29 3 -64.5
t-58 -46.5q-49 -19 -84 35q-12 22 -13 51.5t12 62.5t37 64t65 58t92 43q74 26 148.5 17t136 -41t103.5 -89.5t52 -128.5q18 -145 -89.5 -273t-275.5 -173q-89 -26 -170.5 -26.5t-145.5 22t-117 61.5t-87 93.5t-52.5 116.5t-17.5 131.5t21 137.5q20 78 65 149t121 135.5
t176 111.5t238.5 75t300.5 29q476 4 514 -257q23 -163 -130 -469q-31 -62 -174 -320q-127 -230 -149 -328q-32 -139 90 -157q18 -3 38 -3q61 -1 142 55t165 150t160 197t147 216q200 489 502 762zM1917 1872h160q25 -145 143 -230v-30q-106 21 -190 86q-93 77 -113 174z" />
    <glyph glyph-name="Uacute" unicode="&#xda;" horiz-adv-x="2220" 
d="M2425 1380q125 105 241.5 140.5t199 -11t102.5 -174.5l-29 -32q-8 97 -54 141.5t-111 36t-141 -57.5t-145 -131q-160 -200 -354 -628q-101 -242 -131 -325q-122 -339 -27 -339q48 0 116 72.5t128.5 171.5t108.5 205h30q-30 -68 -62.5 -132t-73.5 -130.5t-81 -115
t-85 -79.5t-85 -31q-69 0 -113 26t-60.5 68t-15.5 101.5t15 118t39 126.5q-309 -443 -532 -440q-86 1 -146.5 17t-90.5 49t-44 71t-3 96.5t26.5 110t52 126.5t66.5 132t76 140q44 79 65.5 119.5t59 114t52 114t36 102.5t19.5 97.5t-6 81t-32 70.5t-67 49.5t-102.5 34.5
t-146.5 9q-184 -3 -335.5 -43.5t-253 -108t-166 -148.5t-91.5 -173q-27 -89 -18 -178t49.5 -160t110.5 -120t165.5 -59t213.5 23q57 17 111 50t101.5 80.5t71.5 116t13 145.5q-12 93 -60 156t-129 86.5t-192 -7.5q-120 -34 -162 -139q73 24 110 -33q18 -29 3 -64.5
t-58 -46.5q-49 -19 -84 35q-12 22 -13 51.5t12 62.5t37 64t65 58t92 43q74 26 148.5 17t136 -41t103.5 -89.5t52 -128.5q18 -145 -89.5 -273t-275.5 -173q-89 -26 -170.5 -26.5t-145.5 22t-117 61.5t-87 93.5t-52.5 116.5t-17.5 131.5t21 137.5q20 78 65 149t121 135.5
t176 111.5t238.5 75t300.5 29q476 4 514 -257q23 -163 -130 -469q-31 -62 -174 -320q-127 -230 -149 -328q-32 -139 90 -157q18 -3 38 -3q61 -1 142 55t165 150t160 197t147 216q200 489 502 762zM2179 1890h166q-44 -104 -150 -176q-95 -65 -215 -92l7 31q141 87 192 237z
" />
    <glyph glyph-name="Udieresis" unicode="&#xdc;" horiz-adv-x="2203" 
d="M2503 1362q51 48 117 88.5t140 63t138.5 18.5t113.5 -55t64 -148l-29 -26q-10 98 -57 142.5t-112.5 35.5t-143 -61t-147.5 -138q-67 -86 -135 -201t-118.5 -220t-112 -221.5t-118 -214t-133.5 -187.5t-161 -152.5t-199.5 -99.5t-249.5 -37q-291 0 -311 174
q-15 123 112 377q16 33 153 289q140 259 171 390q50 215 -116 281q-84 33 -226 31q-188 -2 -341.5 -41.5t-256 -106t-167.5 -148t-93 -175.5q-23 -74 -21.5 -149.5t27 -140t71.5 -117.5t112 -82.5t149.5 -35t183.5 24.5q46 14 91.5 37t89 59.5t74.5 80.5t46 102.5t6 122.5
q-20 141 -124 211.5t-265 23.5q-121 -39 -166 -141q40 10 71 -0.5t42 -34.5q21 -27 5 -64.5t-61 -50.5q-55 -16 -84 39q-12 22 -13 51.5t11.5 63t36 65.5t65 60t93.5 45q76 25 151.5 15.5t137.5 -41.5t104.5 -90.5t52.5 -129.5q20 -146 -87.5 -273.5t-282.5 -181.5
q-89 -26 -171 -26.5t-146 22t-117.5 62.5t-88 95.5t-54 118t-18.5 132.5t21 139q28 101 95.5 188t176 158.5t274.5 113t370 42.5q476 2 513 -255q24 -161 -131 -463q-34 -66 -178 -321q-132 -232 -157 -332q-36 -145 86 -168q25 -5 57 -5q98 0 190 45t165.5 120.5t147 178
t134 212.5t128 230t127.5 225.5t133 202.5t145 158zM1954 1661q-39 0 -65.5 27.5t-26.5 64.5q0 40 26 67t66 27q38 0 65 -27t27 -67q0 -37 -27 -64.5t-65 -27.5zM2238 1661q-39 0 -65.5 27.5t-26.5 64.5q0 40 26 67t66 27q38 0 65.5 -27.5t27.5 -66.5q0 -37 -27.5 -64.5
t-65.5 -27.5z" />
    <glyph glyph-name="Yacute" unicode="&#xdd;" horiz-adv-x="2312" 
d="M2609 1352q54 50 122 93t145.5 68t144.5 21t119.5 -58t70.5 -159l-24 -29q-10 105 -61 154.5t-122 41.5t-154 -62t-157 -146q-89 -112 -188.5 -297t-176.5 -359t-183.5 -405.5t-190.5 -388.5q98 -21 179 -62t133.5 -91t78.5 -108t21.5 -113.5t-45 -108.5t-115.5 -91
q-2 0 -25 -8l-39 15q6 1 23 10q151 68 152 175q1 96 -117 184q-112 84 -285 122q-74 -112 -162 -218t-199 -207.5t-225.5 -176.5t-245.5 -121t-256 -45q-136 1 -166 101q-30 101 56 252q97 171 285 304q277 196 618 211q66 2 133 -2q39 77 113.5 233.5t109.5 227.5
q-282 -349 -479 -346q-292 5 -313 176q-14 120 111 365q16 33 153 281q140 254 171 383q51 214 -116 285q-95 40 -264 38q-198 -3 -360 -45.5t-270.5 -114t-177.5 -158t-99 -186.5q-37 -120 -14.5 -236t97 -196.5t196 -112.5t282.5 15q61 17 119.5 52.5t109.5 87.5t76.5 126
t13.5 156q-14 101 -65 169.5t-138 94.5t-208 -10q-130 -39 -176 -154q81 22 118 -31q21 -30 5.5 -70t-62.5 -51q-30 -11 -54 1t-36 38q-14 23 -15 54.5t12 67t38.5 69t69.5 63t100 47.5q81 29 162 19.5t147 -43.5t111 -96.5t55 -139.5q11 -78 -15 -155t-80 -139.5
t-131 -111.5t-165 -75q-95 -29 -183 -29.5t-156.5 23.5t-125.5 66t-94 100.5t-57.5 125t-20 141.5t21.5 148q24 84 73 160t131.5 144.5t190 119t256.5 80.5t324 31q515 3 562 -260q29 -161 -121 -459q-35 -68 -175 -318q-127 -224 -151 -321q-34 -142 88 -165q23 -5 53 -5
q62 -1 141 51t161 141.5t157.5 188.5t150.5 213q137 263 256 448.5t242 301.5zM825 -977q102 0 212 48t205.5 125.5t186.5 177.5t160.5 200.5t120.5 198.5q-345 31 -634 -148q-185 -115 -291 -278q-88 -137 -75 -233q11 -84 101 -90q7 -1 14 -1zM2322 1890h166
q-45 -105 -149 -176q-95 -65 -215 -92l6 31q141 87 192 237z" />
    <glyph glyph-name="germandbls" unicode="&#xdf;" horiz-adv-x="800" 
d="M1016 1266q24 -53 -21.5 -143t-134.5 -193q-49 -57 -115.5 -120t-112.5 -103.5t-52 -49.5q-10 -11 9.5 -47t50 -80t56 -111.5t23.5 -129.5q-2 -57 -35.5 -112t-85 -95t-114.5 -65t-122 -28.5t-110.5 21t-77.5 78.5q-18 50 -2 88q6 20 23 29.5t41 3.5q36 -4 48.5 -30.5
t0.5 -53.5q-22 -43 -74 -33q42 -63 106.5 -68t121 34t99 108.5t44.5 144.5q2 70 -21.5 138.5t-42.5 115.5t-12 74q4 21 38.5 64t104 119.5t107.5 121.5q71 86 112.5 164t40.5 129q0 55 -47 55q-40 0 -94 -32q-95 -64 -196.5 -214.5t-193 -337.5t-181.5 -377t-193.5 -372.5
t-196.5 -284.5q-141 -152 -303 -246.5t-321 -93.5q-105 1 -122 82q-19 84 61 204q94 142 261 235q218 121 470 102q28 55 91.5 190t119.5 254.5t137.5 270.5t156 266t164.5 211t172 133q31 18 84 31.5t105 13.5q100 0 133 -61zM-315 -307q93 121 141 211q-270 24 -489 -124
q-138 -94 -205 -218q-56 -104 -26 -161q20 -38 75 -38q128 0 259 93t245 237z" />
    <glyph glyph-name="agrave" unicode="&#xe0;" horiz-adv-x="956" 
d="M498 1040h159q25 -143 144 -229v-31q-108 21 -191 86q-92 76 -112 174zM1061 444h31q-45 -86 -93 -162t-101.5 -144.5t-108 -109t-99.5 -40.5q-95 0 -134 42.5t-36 121.5q-147 -164 -301 -164q-165 0 -202 118q-33 105 41 254q75 148 209 247q138 102 282 102
q64 0 97.5 -33t35.5 -92q9 17 29.5 54.5t27.5 53.5h191q-173 -311 -231 -463q-79 -202 -5 -202q68 0 171 124.5t196 292.5zM229 27q147 0 297 178q8 51 32 115t43 103.5t56 111.5q5 48 -18.5 87.5t-75.5 39.5q-91 0 -211 -139q-109 -127 -166 -274q-60 -153 -11 -203
q19 -19 54 -19z" />
    <glyph glyph-name="aacute" unicode="&#xe1;" horiz-adv-x="923" 
d="M1057 444h30q-45 -86 -92.5 -162t-101 -144.5t-108 -109t-99.5 -40.5q-95 0 -134 42.5t-36 121.5q-147 -164 -301 -164q-165 0 -202 118q-33 105 41 254q75 148 209 247q138 102 282 102q64 0 97.5 -33t35.5 -92q9 17 29.5 54.5t27.5 53.5h191q-173 -311 -231 -463
q-79 -202 -5 -202q68 0 171 124.5t196 292.5zM225 27q147 0 297 178q8 51 32 115t43 103.5t56 111.5q5 48 -18.5 87.5t-75.5 39.5q-91 0 -211 -139q-109 -127 -166 -274q-60 -153 -11 -203q19 -19 54 -19zM721 1044h166q-44 -104 -150 -176q-95 -65 -215 -92l6 31
q143 88 193 237z" />
    <glyph glyph-name="acircumflex" unicode="&#xe2;" horiz-adv-x="933" 
d="M1063 444h31q-45 -86 -93 -162t-101.5 -144.5t-108 -109t-99.5 -40.5q-95 0 -134 42.5t-36 121.5q-147 -164 -301 -164q-165 0 -202 118q-33 105 41 254q75 148 209 247q138 102 282 102q64 0 97.5 -33t35.5 -92q9 17 29.5 54.5t27.5 53.5h191q-173 -311 -231 -463
q-79 -202 -5 -202q68 0 171 124.5t196 292.5zM231 27q147 0 297 178q8 51 32 115t43 103.5t56 111.5q5 48 -18.5 87.5t-75.5 39.5q-91 0 -211 -139q-109 -127 -166 -274q-60 -153 -11 -203q19 -19 54 -19zM788 1075l11 -2q21 -215 112 -297l-20 -20q-44 11 -96.5 54.5
t-69.5 86.5q-179 -123 -342 -139l8 30q102 43 195 112t202 175z" />
    <glyph glyph-name="atilde" unicode="&#xe3;" horiz-adv-x="956" 
d="M414 829h-19q90 112 117 119l6 1q6 1 14.5 2.5t19 3t22.5 2.5t22 1h39q36 -6 106 -32q76 -27 97 -27q51 0 72 12t38 52h10q-11 -62 -63 -105t-119 -43q-22 0 -40 3t-43 10t-29 8l-142 43q-31 0 -65 -21q-13 -6 -43 -29zM1061 444h31q-45 -86 -93 -162t-101.5 -144.5
t-108 -109t-99.5 -40.5q-95 0 -134 42.5t-36 121.5q-147 -164 -301 -164q-165 0 -202 118q-33 105 41 254q75 148 209 247q138 102 282 102q64 0 97.5 -33t35.5 -92q9 17 29.5 54.5t27.5 53.5h191q-173 -311 -231 -463q-79 -202 -5 -202q68 0 171 124.5t196 292.5zM229 27
q147 0 297 178q8 51 32 115t43 103.5t56 111.5q5 48 -18.5 87.5t-75.5 39.5q-91 0 -211 -139q-109 -127 -166 -274q-60 -153 -11 -203q19 -19 54 -19z" />
    <glyph glyph-name="adieresis" unicode="&#xe4;" horiz-adv-x="942" 
d="M1067 444h31q-45 -86 -93 -162t-101.5 -144.5t-108 -109t-99.5 -40.5q-95 0 -134 42.5t-36 121.5q-147 -164 -301 -164q-165 0 -202 118q-33 105 41 254q75 148 209 247q138 102 282 102q64 0 97.5 -33t35.5 -92q9 17 29.5 54.5t27.5 53.5h191q-173 -311 -231 -463
q-79 -202 -5 -202q68 0 171 124.5t196 292.5zM236 27q146 0 296 178q8 51 33 116t43 101.5t56 112.5q5 48 -19 87.5t-76 39.5q-91 0 -211 -139q-109 -127 -166 -274q-59 -153 -10 -203q19 -19 54 -19zM535 887q-39 0 -66 27.5t-27 64.5q0 40 26.5 67t66.5 27q38 0 65 -27
t27 -67q0 -37 -27 -64.5t-65 -27.5zM819 887q-39 0 -65.5 27.5t-26.5 64.5q0 40 26 67t66 27q38 0 65 -27t27 -67q0 -37 -27 -64.5t-65 -27.5z" />
    <glyph glyph-name="ae" unicode="&#xe6;" horiz-adv-x="1208" 
d="M1081 709q116 0 146 -70q27 -64 -32 -144q-73 -101 -226 -150q-102 -32 -221 -32q-20 -42 -33.5 -84.5t-18.5 -91t20.5 -78.5t82.5 -30q87 0 168.5 36t147 98.5t116 130t94.5 146.5h33q-46 -82 -83.5 -139t-93 -121t-112 -102.5t-134 -64t-165.5 -25.5q-179 0 -221 118
q-145 -118 -299 -118q-115 0 -145 69q-27 63 32 143q73 101 226 150q103 33 223 33q15 32 27 65t19 74.5t2 72t-30.5 52t-71.5 21.5q-116 0 -229 -67.5t-174 -168.5h-35q74 125 194 201t277 76q173 0 219 -119q150 119 297 119zM231 37q79 0 173 93.5t163 223.5
q-174 1 -303 -99q-84 -66 -102 -135q-16 -62 35 -78q15 -5 34 -5zM1100 659q-76 0 -171.5 -95t-162.5 -222q175 -1 304 99q84 65 101 134q16 61 -35 79q-15 5 -36 5z" />
    <glyph glyph-name="ccedilla" unicode="&#xe7;" horiz-adv-x="684" 
d="M244 -12h-17l-28 -47q55 -19 55 -72q-6 -65 -80 -98q-67 -23 -135 -23q-24 0 -21 12q0 11 21 11q56 0 102 30q53 29 58 74q3 32 -47 59q12 16 34 58q-142 20 -166 138q-22 113 65 262q84 145 220 235q124 82 248 82q75 0 117.5 -25t49 -63.5t-7 -82t-46.5 -84t-74 -65.5
q-38 -25 -74 -18q-53 17 -53 69q0 35 24.5 53.5t51.5 12.5q27 -7 39 -19.5t12 -44.5q29 18 50 55t26.5 75t-18.5 66.5t-77 29.5q-83 1 -198 -128q-110 -122 -167 -266q-63 -159 -7 -218q27 -27 78 -27q286 0 524 411h33q-33 -58 -58.5 -99t-62 -92t-69.5 -85.5t-78.5 -70.5
t-92 -57t-106 -34.5t-125.5 -13.5z" />
    <glyph glyph-name="egrave" unicode="&#xe8;" 
d="M391 1040h160q25 -144 143 -229v-31q-106 21 -190 86q-93 77 -113 174zM823 440h31q-47 -82 -83.5 -138t-92.5 -120.5t-112.5 -103t-134.5 -64.5t-167 -26q-182 0 -222 121q-34 105 45 255q77 145 212 243q140 102 281 102q114 0 144 -69q27 -63 -32 -143
q-72 -101 -224 -150q-104 -34 -226 -34q-21 -41 -34.5 -84.5t-18 -92t21.5 -79t84 -30.5q289 0 528 413zM598 659q-78 0 -173 -92.5t-167 -220.5q177 -2 307 98q85 64 103 133q16 60 -35 77q-15 5 -35 5z" />
    <glyph glyph-name="eacute" unicode="&#xe9;" 
d="M823 440h31q-47 -82 -83.5 -138t-92.5 -120.5t-112.5 -103t-134.5 -64.5t-167 -26q-182 0 -222 121q-34 105 45 255q77 145 212 243q140 102 281 102q114 0 144 -69q27 -63 -32 -143q-72 -101 -224 -150q-104 -34 -226 -34q-21 -41 -34.5 -84.5t-18 -92t21.5 -79
t84 -30.5q289 0 528 413zM598 659q-78 0 -173 -92.5t-167 -220.5q177 -2 307 98q85 64 103 133q16 60 -35 77q-15 5 -35 5zM629 1044h166q-44 -104 -150 -176q-95 -65 -215 -92l6 31q143 88 193 237z" />
    <glyph glyph-name="ecircumflex" unicode="&#xea;" 
d="M721 1075l10 -2q21 -214 113 -297l-21 -20q-44 11 -96.5 54.5t-69.5 86.5q-179 -123 -342 -139l9 30q102 43 195 112t202 175zM823 440h31q-47 -82 -83.5 -138t-92.5 -120.5t-112.5 -103t-134.5 -64.5t-167 -26q-182 0 -222 121q-34 105 45 255q77 145 212 243
q140 102 281 102q114 0 144 -69q27 -63 -32 -143q-72 -101 -224 -150q-104 -34 -226 -34q-21 -41 -34.5 -84.5t-18 -92t21.5 -79t84 -30.5q289 0 528 413zM598 659q-78 0 -173 -92.5t-167 -220.5q177 -2 307 98q85 64 103 133q16 60 -35 77q-15 5 -35 5z" />
    <glyph glyph-name="edieresis" unicode="&#xeb;" 
d="M823 440h31q-47 -82 -83.5 -138t-92.5 -120.5t-112.5 -103t-134.5 -64.5t-167 -26q-182 0 -222 121q-34 105 45 255q77 145 212 243q140 102 281 102q114 0 144 -69q27 -63 -32 -143q-72 -101 -224 -150q-104 -34 -226 -34q-21 -41 -34.5 -84.5t-18 -92t21.5 -79
t84 -30.5q289 0 528 413zM598 659q-78 0 -173 -92.5t-167 -220.5q177 -2 307 98q85 64 103 133q16 60 -35 77q-15 5 -35 5zM420 887q-39 0 -65.5 27.5t-26.5 64.5q0 40 26 67t66 27q38 0 65 -27t27 -67q0 -37 -27 -64.5t-65 -27.5zM705 887q-39 0 -66 27.5t-27 64.5
q0 40 26.5 67t66.5 27q38 0 65 -27t27 -67q0 -37 -27 -64.5t-65 -27.5z" />
    <glyph glyph-name="igrave" unicode="&#xec;" horiz-adv-x="442" 
d="M578 442h32q-43 -74 -76 -128t-79 -120t-85 -107.5t-83.5 -70t-83.5 -28.5q-321 0 -20 565q20 37 55 99q16 28 22 40h186q-229 -413 -264 -565q-22 -98 29 -98q63 0 165 122t202 291zM188 1040h160q25 -143 144 -229v-31q-108 21 -191 86q-93 77 -113 174z" />
    <glyph glyph-name="iacute" unicode="&#xed;" horiz-adv-x="442" 
d="M578 442h32q-43 -74 -76 -128t-79 -120t-85 -107.5t-83.5 -70t-83.5 -28.5q-321 0 -20 565q20 37 55 99q16 28 22 40h186q-229 -413 -264 -565q-22 -98 29 -98q63 0 165 122t202 291zM461 1044h166q-44 -104 -150 -176q-95 -65 -215 -92l6 31q143 88 193 237z" />
    <glyph glyph-name="icircumflex" unicode="&#xee;" horiz-adv-x="450" 
d="M578 442h32q-43 -74 -76 -128t-79 -120t-85 -107.5t-83.5 -70t-83.5 -28.5q-321 0 -20 565q20 37 55 99q16 28 22 40h186q-229 -413 -264 -565q-22 -98 29 -98q63 0 165 122t202 291zM500 1067q48 -163 145 -223l-12 -10q-42 8 -98 42.5t-76 67.5q-175 -98 -320 -108
l4 14q172 59 357 217z" />
    <glyph glyph-name="idieresis" unicode="&#xef;" horiz-adv-x="442" 
d="M567 442h33q-43 -74 -76 -128t-79 -120t-85 -107.5t-83.5 -70t-83.5 -28.5q-321 0 -20 565q20 37 55 99q16 28 22 40h186q-229 -413 -264 -565q-22 -98 29 -98q63 0 164.5 122t201.5 291zM240 887q-39 0 -66 27.5t-27 64.5q0 40 26.5 67t66.5 27q38 0 65 -27t27 -67
q0 -37 -27 -64.5t-65 -27.5zM524 887q-39 0 -65.5 27.5t-26.5 64.5q0 40 26 67t66 27q38 0 65 -27t27 -67q0 -37 -27 -64.5t-65 -27.5z" />
    <glyph glyph-name="eth" unicode="&#xf0;" horiz-adv-x="1150" 
d="M741 1143l11 -2q49 -215 149 -297l-18 -21q-46 11 -104 55t-79 87q-169 -124 -325 -140l4 31q96 43 181 112.5t181 174.5zM1200 1161q86 -128 46.5 -329t-181.5 -398q-164 -228 -403.5 -340t-526.5 -98l23 39q244 0 410.5 94t308.5 303q125 186 181.5 386t16.5 317
q-22 61 -61 84.5t-96 23.5q-85 0 -172 -43.5t-154.5 -113.5t-117.5 -150t-69 -160t-2 -137q18 -58 73 -81t123.5 -10.5t135.5 41t117 71.5t61 83q-20 -18 -39 -15t-31.5 21.5t-6.5 36.5q5 25 27 37t55 -6q46 -27 36 -74q-12 -46 -69 -101.5t-137 -97.5t-163 -64.5t-157.5 -2
t-110.5 89.5q-24 46 -27 108t16.5 129t56 136t94 130.5t126.5 109.5t159 76t186 28q190 0 272 -123z" />
    <glyph glyph-name="ograve" unicode="&#xf2;" horiz-adv-x="845" 
d="M428 1040h160q25 -144 143 -229v-31q-106 21 -190 86q-93 77 -113 174zM969 442h35q-77 -137 -229.5 -256t-282.5 -118q-124 -80 -246 -80q-180 0 -219 122q-35 105 44 255q76 146 210 244q146 106 292 100q161 0 199.5 -108t-30 -249t-195.5 -246q110 19 230.5 122
t191.5 214zM225 27q63 0 152 77q-38 23 -68 74q-23 36 -16 78q5 20 23 34.5t44 14.5q36 0 54 -24t12 -52q-5 -26 -17.5 -39.5t-43.5 -13.5q22 -25 43 -37q70 67 143 201q32 61 51.5 113.5t24 89.5t-1 63.5t-21 39.5t-39.5 13q-63 0 -152.5 -82.5t-168.5 -230.5
q-32 -61 -51 -113.5t-24 -89.5t0 -63.5t19.5 -39.5t36.5 -13z" />
    <glyph glyph-name="oacute" unicode="&#xf3;" horiz-adv-x="825" 
d="M981 442h35q-77 -137 -229.5 -256t-282.5 -118q-124 -80 -246 -80q-180 0 -219 122q-34 105 44 255q76 146 211 244q146 106 292 100q161 0 199 -108t-30.5 -249t-195.5 -246q110 19 230.5 122t191.5 214zM238 27q62 0 151 77q-37 22 -67 74q-24 38 -17 78
q5 20 23.5 34.5t44.5 14.5q36 0 53.5 -24t11.5 -52q-5 -26 -17.5 -39.5t-43.5 -13.5q22 -25 43 -37q70 67 143 201q32 61 51.5 113t24.5 89.5t-0.5 64t-21 39.5t-39.5 13q-63 0 -153 -82.5t-169 -230.5q-32 -61 -50.5 -113.5t-23.5 -89.5t0 -63.5t19.5 -39.5t36.5 -13z
M682 1044h166q-44 -104 -150 -176q-95 -65 -215 -92l6 31q143 88 193 237z" />
    <glyph glyph-name="ocircumflex" unicode="&#xf4;" horiz-adv-x="829" 
d="M981 442h35q-77 -137 -229.5 -256t-282.5 -118q-124 -80 -246 -80q-180 0 -219 122q-34 105 44 255q76 146 211 244q146 106 292 100q161 0 199 -108t-30.5 -249t-195.5 -246q110 19 230.5 122t191.5 214zM238 27q62 0 151 77q-37 22 -67 74q-24 38 -17 78
q5 20 23.5 34.5t44.5 14.5q36 0 53.5 -24t11.5 -52q-5 -26 -17.5 -39.5t-43.5 -13.5q22 -25 43 -37q70 67 143 201q32 61 51.5 113t24.5 89.5t-0.5 64t-21 39.5t-39.5 13q-63 0 -153 -82.5t-169 -230.5q-32 -61 -50.5 -113.5t-23.5 -89.5t0 -63.5t19.5 -39.5t36.5 -13z
M721 1075l10 -2q21 -214 113 -297l-21 -20q-44 11 -96.5 54.5t-69.5 86.5q-179 -123 -342 -139l9 30q102 43 195 112t202 175z" />
    <glyph glyph-name="otilde" unicode="&#xf5;" horiz-adv-x="845" 
d="M389 829h-18q90 113 116 119l6 1q6 1 14.5 2.5t19 3t22.5 2.5t22 1h39q38 -7 107 -32q76 -27 96 -27q51 0 72.5 12t38.5 52h10q-11 -62 -63 -105t-119 -43q-22 0 -40 3t-44 10t-29 8l-141 43q-32 0 -66 -21q-13 -6 -43 -29zM969 442h35q-77 -137 -229.5 -256t-282.5 -118
q-124 -80 -246 -80q-180 0 -219 122q-35 105 44 255q76 146 210 244q146 106 292 100q161 0 199.5 -108t-30 -249t-195.5 -246q110 19 230.5 122t191.5 214zM225 27q63 0 152 77q-38 23 -68 74q-23 36 -16 78q5 20 23 34.5t44 14.5q36 0 54 -24t12 -52q-5 -26 -17.5 -39.5
t-43.5 -13.5q22 -25 43 -37q70 67 143 201q32 61 51.5 113.5t24 89.5t-1 63.5t-21 39.5t-39.5 13q-63 0 -152.5 -82.5t-168.5 -230.5q-32 -61 -51 -113.5t-24 -89.5t0 -63.5t19.5 -39.5t36.5 -13z" />
    <glyph glyph-name="odieresis" unicode="&#xf6;" horiz-adv-x="845" 
d="M981 442h35q-77 -137 -229.5 -256t-282.5 -118q-124 -80 -246 -80q-180 0 -219 122q-34 105 44 255q76 146 211 244q146 106 292 100q161 0 199 -108t-30.5 -249t-195.5 -246q110 19 230.5 122t191.5 214zM238 27q62 0 151 77q-37 22 -67 74q-24 38 -17 78
q5 20 23.5 34.5t44.5 14.5q36 0 53.5 -24t11.5 -52q-5 -26 -17.5 -39.5t-43.5 -13.5q22 -25 43 -37q70 67 143 201q32 61 51.5 113t24.5 89.5t-0.5 64t-21 39.5t-39.5 13q-63 0 -153 -82.5t-169 -230.5q-32 -61 -50.5 -113.5t-23.5 -89.5t0 -63.5t19.5 -39.5t36.5 -13z
M426 887q-39 0 -65.5 27.5t-26.5 64.5q0 40 26 67t66 27q38 0 65 -27t27 -67q0 -37 -27 -64.5t-65 -27.5zM711 887q-39 0 -66 27.5t-27 64.5q0 40 26.5 67t66.5 27q38 0 65 -27t27 -67q0 -37 -27 -64.5t-65 -27.5z" />
    <glyph glyph-name="divide" unicode="&#xf7;" horiz-adv-x="1157" 
d="M303 641h860l-76 -68h-858zM625 324q-39 0 -66 27.5t-27 64.5q0 40 26.5 67t66.5 27q38 0 65 -27t27 -67q0 -37 -27 -64.5t-65 -27.5zM739 707q-39 0 -65.5 27.5t-26.5 64.5q0 40 26 67t66 27q38 0 65 -27t27 -67q0 -37 -27 -64.5t-65 -27.5z" />
    <glyph glyph-name="ugrave" unicode="&#xf9;" horiz-adv-x="872" 
d="M389 1040h160q25 -144 143 -229v-31q-106 21 -190 86q-93 77 -113 174zM999 440h31q-50 -90 -94.5 -160t-99 -141.5t-109 -111t-102.5 -39.5q-226 0 -150 268q-174 -268 -295 -268q-304 0 -53 501q7 14 103 192q3 6 6 11h188q-236 -425 -267 -575q-18 -90 31 -90
q58 0 150.5 106.5t189.5 263.5q23 52 51.5 108t61 115t39.5 72h190q-26 -46 -51.5 -92t-70.5 -131.5t-75 -155t-54.5 -138.5t-21.5 -108.5t36 -39.5q63 0 164 121.5t202 291.5z" />
    <glyph glyph-name="uacute" unicode="&#xfa;" horiz-adv-x="894" 
d="M1014 440h30q-50 -90 -94.5 -160t-99 -141.5t-109 -111t-102.5 -39.5q-226 0 -150 268q-174 -268 -294 -268q-305 0 -53 503q6 11 103 192q3 5 5 9h188q-369 -665 -235 -665q58 0 150.5 106.5t189.5 263.5q23 52 51 107.5t61 116l39 71.5h191q-27 -47 -51.5 -92
t-70.5 -131.5t-75.5 -155.5t-54.5 -138.5t-22 -108.5t36 -39q63 0 164.5 122t202.5 291zM649 1044h166q-45 -105 -149 -176q-95 -65 -215 -92l6 31q141 87 192 237z" />
    <glyph glyph-name="ucircumflex" unicode="&#xfb;" horiz-adv-x="894" 
d="M1014 440h30q-50 -90 -94.5 -160t-99 -141.5t-109 -111t-102.5 -39.5q-226 0 -150 268q-174 -268 -294 -268q-305 0 -53 503q6 11 103 192q3 5 5 9h188q-369 -665 -235 -665q58 0 150.5 106.5t189.5 263.5q23 52 51 107.5t61 116l39 71.5h191q-27 -47 -51.5 -92
t-70.5 -131.5t-75.5 -155.5t-54.5 -138.5t-22 -108.5t36 -39q63 0 164.5 122t202.5 291zM672 1067q48 -163 145 -223l-12 -10q-42 8 -98 42.5t-76 67.5q-175 -98 -320 -108l4 14q172 59 357 217z" />
    <glyph glyph-name="udieresis" unicode="&#xfc;" horiz-adv-x="886" 
d="M1006 440h30q-50 -90 -94.5 -160t-99 -141.5t-109 -111t-102.5 -39.5q-226 0 -150 268q-174 -268 -295 -268q-304 0 -53 501q7 14 103 192q3 6 6 11h188q-369 -665 -235 -665q58 0 150.5 106.5t189.5 263.5q23 52 51 107.5t61 116l39 71.5h191q-27 -47 -51.5 -92
t-70.5 -131.5t-75.5 -155.5t-54.5 -138.5t-22 -108.5t36 -39q63 0 164.5 122t202.5 291zM475 887q-39 0 -65.5 27.5t-26.5 64.5q0 40 26 67t66 27q38 0 65 -27t27 -67q0 -37 -27 -64.5t-65 -27.5zM760 887q-39 0 -65.5 27.5t-26.5 64.5q0 40 26 67t66 27q38 0 65 -27t27 -67
q0 -37 -27 -64.5t-65 -27.5z" />
    <glyph glyph-name="yacute" unicode="&#xfd;" horiz-adv-x="901" 
d="M1014 440h33q-255 -483 -529 -538q-13 -24 -47 -97t-62 -129t-78 -130t-101.5 -123t-126.5 -84t-158 -35q-65 0 -91.5 41.5t-5.5 99.5q30 87 167.5 211.5t310.5 226.5q93 194 168 389q-181 -280 -301 -280q-314 0 -32 540q23 44 63 116q17 31 24 44h186
q-367 -661 -235 -661q62 0 161 118t195 281q70 176 107 262h188q-7 -18 -81.5 -194.5t-140.5 -334t-89 -214.5q44 10 90.5 37t84 58.5t80 80.5t70 84.5t63 89.5t49.5 77t38 64zM-53 -653q18 0 37.5 7.5t39.5 24.5t38 35t39 48t37.5 53.5t37.5 61.5t35 63t35 66.5t31.5 62.5
t29.5 61q-147 -97 -263 -204t-144 -177q-17 -37 -5.5 -69.5t52.5 -32.5zM633 1044h166q-44 -104 -150 -176q-95 -65 -215 -92l6 31q143 88 193 237z" />
    <glyph glyph-name="ydieresis" unicode="&#xff;" horiz-adv-x="823" 
d="M981 440h33q-255 -483 -529 -538q-13 -24 -47 -97t-62 -129t-78 -130t-101.5 -123t-126.5 -84t-158 -35q-65 0 -91 41.5t-5 99.5q30 87 167 211.5t310 226.5q93 194 168 389q-181 -280 -301 -280q-314 0 -32 540q23 44 63 116q17 31 24 44h186q-367 -661 -235 -661
q62 0 161 118t195 281q70 176 107 262h188q-7 -18 -81.5 -194.5t-140.5 -334t-89 -214.5q44 10 90.5 37t84 58.5t80 80.5t70 84.5t63 89.5t49.5 77t38 64zM-86 -653q18 0 37.5 7.5t39.5 24.5t38 35t39 48t37.5 53.5t37.5 61.5t35 63t35 66.5t31.5 62.5t29.5 61
q-147 -97 -263 -204t-144 -177q-17 -37 -5.5 -69.5t52.5 -32.5zM391 887q-39 0 -65.5 27.5t-26.5 64.5q0 40 26 67t66 27q38 0 65 -27t27 -67q0 -37 -27 -64.5t-65 -27.5zM676 887q-39 0 -65.5 27.5t-26.5 64.5q0 40 26 67t66 27q38 0 65 -27t27 -67q0 -37 -27 -64.5
t-65 -27.5z" />
    <glyph glyph-name="Abreve" unicode="&#x102;" horiz-adv-x="2590" 
d="M2241 -2q48 0 116 74t127 170.5t111 203.5h35q-238 -487 -389 -487q-364 0 -34 704q3 7 5 11q7 18 12 26h-377q-36 -72 -63 -123.5t-66.5 -119t-74 -115t-81.5 -103.5t-94 -94t-107 -75.5t-123.5 -60t-141 -36.5t-162.5 -14q-343 1 -535 175q-139 128 -158 307
q-18 167 76 302q101 146 289 181q52 10 109 10q116 0 220 -39.5t174.5 -114t86.5 -168.5q15 -98 -29.5 -183.5t-131.5 -134.5t-191 -46q-134 3 -211 75t-58 138q4 26 21.5 43.5t52.5 17.5q44 0 67 -30t15 -64q-7 -26 -31.5 -44.5t-62.5 -18.5q77 -86 194 -86q172 0 248.5 95
t55.5 244q-12 76 -56.5 135t-105 91t-122 47.5t-120.5 15.5q-223 0 -342 -141q-99 -116 -91 -281q7 -168 121 -298q144 -163 392 -186q36 -3 74 -3q66 0 126.5 13t111 33.5t100 56.5t88 71t80 88.5t71.5 98t67 109.5t62 113t60 119h-156l37 39h139q36 68 56 104.5t56.5 100
t61.5 100.5t64.5 91.5t72 88t77.5 74.5t88 68t96 51t110 39l43 -35q-61 -26 -116 -65.5t-101.5 -92.5t-85.5 -107.5t-79 -126.5t-70.5 -132.5t-70.5 -142.5q-5 -10 -7 -15h375q22 43 72 136q32 58 48 88.5t44.5 86.5t40 88t28.5 80.5t16.5 77t-2 65t-21.5 57t-48 40t-75 28
t-108 7.5q-339 -4 -619 -191q-187 -125 -287 -289q-88 -146 -61 -246q27 -99 161 -101q24 -1 51 2l-25 -29q-160 -11 -220 92q-56 96 -2 243q62 169 232 308q246 202 606 244q86 10 175 10q101 0 175 -15t119.5 -39.5t70.5 -63.5t31 -80t-4 -97t-27.5 -106.5t-46.5 -116
t-56 -117.5t-60 -119t-53 -114q-151 -353 -185 -508q-36 -162 30 -162zM2830 1835h62q-58 -98 -158 -160q-116 -73 -256 -73q-61 0 -106 50.5t-45 121.5v28q0 21 4 33h65v-49q0 -15 43 -45q50 -29 96 -29l25 -4q83 0 161 37.5t109 89.5z" />
    <glyph glyph-name="abreve" unicode="&#x103;" horiz-adv-x="956" 
d="M991 1008h62q-58 -98 -158 -160q-118 -74 -256 -74q-61 0 -106.5 50.5t-45.5 121.5v29q0 18 5 33h65v-50q0 -15 43 -45q48 -28 96 -28l25 -4q83 0 161 37.5t109 89.5zM1061 444h31q-45 -86 -93 -162t-101.5 -144.5t-108 -109t-99.5 -40.5q-95 0 -134 42.5t-36 121.5
q-147 -164 -301 -164q-165 0 -202 118q-33 105 41 254q75 148 209 247q138 102 282 102q64 0 97.5 -33t35.5 -92q9 17 29.5 54.5t27.5 53.5h191q-173 -311 -231 -463q-79 -202 -5 -202q68 0 171 124.5t196 292.5zM229 27q147 0 297 178q8 51 32 115t43 103.5t56 111.5
q5 48 -18.5 87.5t-75.5 39.5q-91 0 -211 -139q-109 -127 -166 -274q-60 -153 -11 -203q19 -19 54 -19z" />
    <glyph glyph-name="Cacute" unicode="&#x106;" horiz-adv-x="1236" 
d="M1446 1536q129 -1 155 -98q27 -99 -60 -244q-97 -163 -282 -287q-276 -186 -611 -186q-38 0 -75 2q-57 -104 -94.5 -207t-50.5 -198.5t2.5 -168.5t71 -117t147.5 -44q209 0 376 146q118 103 164 231q41 116 -5 173q-29 37 -90 37q-71 0 -132 -49t-85.5 -118.5t0.5 -124.5
q7 27 25 40.5t36.5 13t34.5 -10.5t20 -27q11 -35 -5 -66t-70 -32q-64 -1 -83 71q-21 78 22 175q48 110 144 152q48 21 103 19q110 -2 142 -94q32 -93 -29 -223q-70 -147 -216 -244q-171 -112 -389 -110q-108 1 -186 29.5t-120.5 75.5t-63 111t-17 135.5t23 150.5t50 153
t70.5 146q-91 19 -165.5 57t-122 84.5t-70.5 101t-16.5 106.5t46.5 101.5t111 85.5q12 8 20 10l31 -16q-3 -2 -10 -4t-11 -4q-135 -62 -143.5 -155t95 -176t274.5 -122q70 106 154.5 205t190 194t215 165.5t234.5 113t244 41.5zM1448 1493q-97 0 -201 -45.5t-194.5 -117.5
t-177 -165.5t-152 -186t-115.5 -183.5q333 -30 609 143q174 109 272 263q81 129 64 215q-15 77 -105 77zM1237 1935l96 -59q-7 -40 -13 -68t-18 -65t-30.5 -67t-44.5 -52h-37q64 97 47 311z" />
    <glyph glyph-name="cacute" unicode="&#x107;" horiz-adv-x="651" 
d="M782 442h33q-34 -60 -59 -100t-62 -92.5t-69.5 -86.5t-77.5 -70t-91.5 -57t-105.5 -34.5t-125 -13.5q-178 0 -218 121q-35 106 43 256q74 146 208 244q136 100 274 100q75 0 117.5 -25t49 -63.5t-6.5 -82t-46 -84t-73 -65.5q-41 -23 -79 -16q-21 5 -35.5 22.5t-14.5 44.5
q0 36 24.5 55.5t51.5 12.5q25 -5 39 -19t14 -45q27 18 47.5 55t26 75t-17.5 66.5t-76 29.5q-84 0 -199 -128q-110 -123 -168 -268q-63 -158 -7 -217q27 -28 79 -28q68 0 134.5 25t120.5 64.5t105.5 95t90 110.5t73.5 118zM483 1139l97 -60q-9 -54 -18 -91.5t-32 -84.5
t-57 -76h-37q65 97 47 312z" />
    <glyph glyph-name="ccaron" unicode="&#x10d;" horiz-adv-x="655" 
d="M786 442h33q-34 -60 -59 -100t-62 -92.5t-69.5 -86.5t-77.5 -70t-91.5 -57t-105.5 -34.5t-125 -13.5q-178 0 -218 121q-34 106 43 256q75 146 209 244q136 100 274 100q75 0 117.5 -25t49 -63.5t-6.5 -82t-46 -84t-73 -65.5q-41 -23 -80 -16q-21 5 -35 22.5t-14 44.5
q0 36 24 55t51 13q54 -11 54 -64q27 18 47.5 55t26 75t-18 66.5t-76.5 29.5q-84 0 -199 -128q-110 -123 -168 -268q-63 -158 -7 -217q27 -28 79 -28q68 0 134.5 25t120.5 64.5t105.5 95t90 110.5t73.5 118zM492 834q-48 162 -146 223l12 10q42 -8 98 -43t76 -68
q177 99 320 109l-4 -14q-171 -59 -356 -217z" />
    <glyph glyph-name="Dcaron" unicode="&#x10e;" horiz-adv-x="1976" 
d="M1632 1620q-48 163 -145 223l12 10q42 -8 98 -42.5t76 -67.5q175 98 320 108l-4 -14q-172 -59 -357 -217zM1098 1536q459 0 721 -227q195 -169 237 -424q39 -238 -66 -464q-105 -224 -314 -351q-204 -123 -464 -123q-205 0 -362 45q-294 -90 -503 -11q-124 47 -173 133
q-41 73 -3 126q46 66 180 49q185 -23 460 -201q71 48 129.5 110.5t98.5 128t74.5 139t64.5 146t62 144.5t72.5 140t90.5 127t122.5 110t162.5 86l38 -45q-83 -48 -143 -120.5t-95.5 -153t-66.5 -170.5t-68 -183t-87.5 -180.5t-138.5 -173t-207 -150.5q151 -59 313 -59
q265 0 448 185q155 157 202 395q48 247 -41 469q-96 240 -325 360q-190 100 -448 100q-397 0 -615 -192q-151 -133 -176 -322q-22 -167 62 -302q86 -136 241 -170q113 -25 244 13q46 14 90.5 37t87.5 59.5t74 80.5t46 102.5t7 122.5q-22 143 -125 213.5t-266 21.5
q-114 -29 -164 -141q44 12 71 2t40 -35q19 -30 6 -66.5t-57 -50.5q-60 -17 -86 41q-13 22 -14.5 51.5t11 63t36 65.5t64.5 60t93 45q77 25 153 15.5t138.5 -42t105.5 -92t54 -133.5q18 -142 -89.5 -269.5t-281.5 -181.5q-238 -69 -408 39q-132 84 -178 242q-49 172 24 343
q84 197 299 308q221 115 542 115zM743 51z" />
    <glyph glyph-name="Dcroat" unicode="&#x110;" horiz-adv-x="1951" 
d="M1061 1536q456 0 715 -225q194 -168 236 -421q38 -237 -67 -462q-105 -222 -314 -347q-200 -120 -455 -120q-204 0 -361 45q-291 -89 -498 -11q-122 46 -171 132q-41 72 -3 125q46 66 180 49q184 -23 455 -199q105 69 176 164t129 221h-139l45 66h123l33 78t34 80
t34.5 76.5t38.5 77t42.5 71t51 70t58 62t69 59.5t80 50t94.5 44l36 -43q-57 -33 -103 -78t-75.5 -89.5t-58.5 -106.5t-46 -110t-42.5 -121t-44.5 -120h166l-47 -66h-148q-60 -133 -154 -240t-245 -190q151 -59 311 -59q263 0 444 184q154 157 200 393q47 245 -42 465
q-97 238 -326 356q-187 97 -440 97q-394 0 -609 -190q-149 -133 -173 -320q-21 -166 63 -299q86 -135 242 -168q110 -23 238 14q57 17 112 50.5t102.5 82t72 118t14.5 147.5q-21 142 -123.5 211t-263.5 22q-112 -28 -162 -141q42 11 68.5 2t39.5 -33q19 -30 6 -66.5
t-57 -50.5q-29 -8 -51 4t-33 37q-13 22 -14 51.5t11 62.5t36 64.5t64.5 59.5t91.5 45q76 25 151.5 15t137 -42t104 -90.5t53.5 -132.5q18 -140 -88.5 -266t-278.5 -180q-237 -69 -406 39q-130 83 -175 240q-49 171 25 341q85 195 300 305q217 111 531 111zM711 66z" />
    <glyph glyph-name="dcroat" unicode="&#x111;" horiz-adv-x="919" 
d="M682 29q67 0 167 121.5t198 291.5h34q-252 -454 -405 -454q-94 0 -136 45t-40 123q-156 -168 -310 -168q-163 0 -199 117q-33 104 42 254q75 148 209 247q139 103 284 103q52 0 85 -25t42 -68q7 18 23.5 51.5t19.5 41.5q37 75 113 237h-191l15 35h194q130 255 170 340
h189q-25 -52 -84.5 -170t-85.5 -170h100l-16 -35h-99q-29 -58 -114 -239q-105 -215 -168 -363q-27 -65 -44 -118t-26 -99.5t-1 -72t34 -25.5zM539 346q27 82 94 223q-5 38 -28 63t-62 25q-94 0 -217 -141q-110 -127 -167 -274q-58 -148 -10 -196q18 -17 50 -17
q146 0 305 182q8 55 35 135z" />
    <glyph glyph-name="Ecaron" unicode="&#x11a;" horiz-adv-x="1302" 
d="M1257 1534q170 0 220 -84q41 -70 -17 -159q-66 -102 -216 -161q-222 -88 -505 -32q-22 -37 -38 -88.5t-18.5 -107t22.5 -93.5q86 42 178 62q130 27 124 -44q0 -8 -3 -18q-13 -47 -51.5 -74t-85.5 -31t-93.5 3.5t-81.5 25.5q-107 -57 -207 -200q-112 -160 -132 -305
q-22 -167 99 -220q50 -22 123 -22q255 0 448 150q128 100 178 225q44 111 -2 170q-31 42 -101 42t-128 -47.5t-81.5 -116t-3.5 -128.5q7 36 34 48.5t53.5 1.5t33.5 -34q13 -33 -3.5 -64t-66.5 -32q-69 -2 -90 71q-21 77 21 174q47 109 142 151q48 22 103 21q110 -1 145 -90
q35 -91 -23 -216q-67 -146 -220 -244q-187 -121 -439 -121q-302 0 -391 148q-70 114 5 280q71 156 232 283q92 71 195 116q-57 41 -77 107.5t-9.5 132t41.5 129.5q-82 26 -153.5 68.5t-118.5 96.5t-58.5 110.5t34 116t151.5 107.5l35 -16q-107 -43 -149.5 -94t-27.5 -97
t66 -91t117.5 -78.5t140.5 -57.5q64 101 175.5 176.5t234 112.5t239.5 37zM1303 1493q-155 0 -300 -86.5t-233 -245.5q296 -65 498 28q117 54 159 140q36 73 -6 122q-37 41 -118 42zM977 803q5 19 -24 22q-54 6 -160 -33q-33 -12 -50 -22q36 -27 88.5 -32t94.5 13t51 52z
M1077 1620q-48 163 -145 223l12 10q42 -8 98 -42.5t76 -67.5q175 98 320 108l-4 -14q-172 -59 -357 -217z" />
    <glyph glyph-name="ecaron" unicode="&#x11b;" horiz-adv-x="659" 
d="M795 440h30q-47 -82 -83.5 -138t-92.5 -120.5t-112 -103t-134 -64.5t-167 -26q-182 0 -222 121q-34 105 45 255q76 145 211 243q140 102 281 102q114 0 144 -69q27 -63 -32 -143q-72 -101 -224 -150q-104 -34 -226 -34q-21 -41 -34.5 -84.5t-18 -92t21.5 -79t84 -30.5
q86 0 167.5 36.5t148.5 101t117 130.5t96 145zM569 659q-78 0 -173 -92.5t-167 -220.5q177 -2 307 98q85 64 103 133q16 60 -35 77q-15 5 -35 5zM492 834q-48 162 -146 223l12 10q42 -8 98 -43t76 -68q177 99 320 109l-4 -14q-171 -59 -356 -217z" />
    <glyph glyph-name="Itilde" unicode="&#x128;" horiz-adv-x="1855" 
d="M1993 1645h-19q89 111 117 118l6 1q6 1 14.5 2.5t19 3.5t22.5 3t22 1h39q31 -5 106 -33q77 -27 97 -27q51 0 72 12t38 52h10q-11 -62 -63 -105t-119 -43q-22 0 -40 3t-43 10t-29 8l-142 43q-31 0 -65 -21q-17 -8 -43 -28zM2251 1536q125 0 217 -20l-90 -33
q-72 -30 -137.5 -87.5t-108 -107.5t-100 -155.5t-80 -154t-81.5 -180.5q-53 -118 -82 -179.5t-86.5 -167.5t-103 -164t-119 -133t-148 -113t-175.5 -66t-215 -28q-347 1 -540 177q-141 128 -160 309q-17 167 76 302q101 147 289 184q55 11 114 11q183 0 321 -90.5
t162 -237.5q16 -97 -29.5 -182t-133.5 -134t-193 -48q-69 2 -125.5 24t-89 54t-47 68.5t-6.5 68.5q10 63 71 63q48 0 71 -30t13 -66q-7 -26 -31 -45t-61 -19q66 -88 193 -88q171 0 249.5 97t55.5 243q-12 78 -55.5 137.5t-104 92t-123 48t-123.5 15.5q-221 0 -340 -140
q-98 -117 -91 -281q7 -170 121 -300q144 -164 394 -187q36 -3 74 -3q121 0 223 43t177.5 118t140.5 173t120.5 211t109 228.5t115.5 229.5t130 210.5t161.5 174t202.5 117.5h-30q-343 -4 -625 -191q-190 -126 -290 -291q-90 -147 -64 -247q26 -99 156 -103q27 -1 59 3
l-23 -33q-163 -11 -223 93q-56 97 -2 246q62 168 233 308q247 203 609 246q87 10 178 10z" />
    <glyph glyph-name="itilde" unicode="&#x129;" horiz-adv-x="442" 
d="M578 442h32q-43 -74 -76 -128t-79 -120t-85 -107.5t-83.5 -70t-83.5 -28.5q-321 0 -20 565q20 37 55 99q16 28 22 40h186q-229 -413 -264 -565q-22 -98 29 -98q63 0 165 122t202 291zM137 829h-18q90 112 117 119l6 1q5 1 14 2.5t19 3t22 2.5t22 1h39q38 -7 107 -32
q76 -27 96 -27q51 0 72.5 12t38.5 52h10q-11 -62 -63 -105t-119 -43q-22 0 -40 3t-44 10t-29 8l-141 43q-31 0 -66 -21q-13 -6 -43 -29z" />
    <glyph glyph-name="Lacute" unicode="&#x139;" horiz-adv-x="1871" 
d="M1645 442q135 -75 147 -200q10 -115 -85 -219q-110 -120 -298 -154q-276 -50 -589 112q-21 11 -42 23q-267 -99 -460 -29q-115 41 -162 124q-40 71 -3 124q45 65 175 49q171 -21 424 -184q35 24 72 58.5t63.5 64t64 79t56 76t58 85t52.5 77.5q-347 -11 -550 165
q-147 127 -177 312q-28 173 56 316q88 151 263 197q66 18 140 18q172 0 302.5 -85.5t150.5 -221.5q21 -139 -83 -244t-249 -102q-65 2 -118 24t-83 54t-44 67t-9 66q24 55 69 55q42 0 64 -28.5t14 -59.5q-5 -26 -27 -43t-59 -17q65 -83 180 -83q157 0 233 91.5t50 223.5
q-10 73 -50.5 129.5t-97 87t-114.5 46t-115 15.5q-199 0 -317 -135q-101 -116 -103 -281q-2 -177 112 -316q147 -178 428 -212q75 -9 157 -6q29 42 93.5 149.5t123.5 205.5t142.5 216t159 203t163 143t164.5 58q98 0 100 -111q3 -127 -109 -328q-123 -219 -300 -375
q-185 -163 -359 -185q-12 -16 -60.5 -84t-62 -85t-54.5 -69.5t-64.5 -74.5t-64 -60t-81 -66t-88.5 -55q284 -106 545 -52q184 38 279 137q86 89 53 179q-24 66 -111 115zM1995 1501q-53 0 -132.5 -84t-161.5 -214t-152 -254t-130 -238t-71 -131q191 40 392 273
q155 179 246 383q77 174 50 238q-11 27 -41 27zM686 51zM1624 1935l96 -59q-7 -40 -13 -68t-18 -65t-30.5 -67t-44.5 -52h-37q64 97 47 311z" />
    <glyph glyph-name="Lslash" unicode="&#x141;" horiz-adv-x="1488" 
d="M1520 1327q80 0 87 -70q7 -76 -69 -181q-90 -125 -228 -187q-67 -30 -136 -39q-18 -35 -76 -137h284l-51 -47h-264q-5 -13 -11.5 -24t-11 -17t-4.5 -7q-45 -65 -68.5 -96.5t-63 -77.5t-82.5 -79.5t-97 -63.5q210 -82 399 -34q130 33 186 109q52 72 0 138q-21 26 -57 47
l27 12q103 -58 102 -154q0 -89 -84 -161q-108 -91 -276 -90q-166 2 -342 100q-196 -72 -333 -13q-79 33 -104 94q-22 55 18 87q59 47 201 -4q90 -33 200 -104q29 20 57 46.5t56.5 62.5t47 60.5t50 71t43.5 62.5q10 20 20 35h-281l48 47h262q11 17 54 88t67.5 109.5t64.5 99
t77.5 108.5t74.5 86q62 60 112.5 91.5t100.5 31.5zM1384 1198q-39 -49 -78.5 -117.5t-70 -128.5t-39.5 -73q154 29 271 162q84 95 100 182q14 71 -32 79q-5 1 -11 1q-63 0 -140 -105zM618 305z" />
    <glyph glyph-name="Nacute" unicode="&#x143;" horiz-adv-x="2568" 
d="M3232 1536q176 0 211 -207l-29 -33q-16 197 -178 197q-66 0 -147 -68t-157.5 -175t-159 -253.5t-151 -287t-136 -292.5t-110 -254.5t-76.5 -187.5q-8 -19 -11 -28h-68h-98h-31q23 94 35 261.5t19.5 338t21.5 344.5t52 325t101 236q-74 -44 -136 -108.5t-123 -172
t-91 -168.5t-95 -208q-54 -120 -83 -182t-87 -169.5t-104.5 -166t-120.5 -134.5t-149 -114.5t-177 -66.5t-218 -28q-351 1 -547 178q-142 128 -163 309q-20 169 73 306q100 148 288 187q58 12 122 12q120 0 226 -40.5t177.5 -117t85.5 -174.5q24 -150 -87.5 -261
t-274.5 -108q-133 3 -209 76t-62 141q11 64 76 64q45 0 68.5 -30.5t15.5 -65.5q-7 -27 -30.5 -44.5t-63.5 -17.5q69 -92 194 -92q175 0 255.5 98t54.5 244q-12 79 -56.5 139.5t-105.5 94.5t-124 50.5t-124 16.5q-224 0 -344 -142q-100 -117 -94 -285q7 -171 122 -304
q143 -165 390 -191q41 -4 84 -4q123 0 226.5 43.5t179.5 119.5t142 175t122.5 213.5t111 231.5t117 232t132 212.5t164.5 176t206 118.5h-33q-347 -5 -632 -194q-192 -127 -293 -294q-90 -147 -64 -249q25 -100 155 -105q29 -2 62 2l-27 -30q-162 -11 -222 92q-57 96 -3 244
q61 170 231 312q246 205 608 251q95 12 195 12q121 0 213 -20q-37 -33 -64 -102.5t-42 -149.5t-27 -198t-17.5 -215.5t-14 -237t-15.5 -228.5q46 118 93 224.5t107.5 225t122 217t135.5 190.5t148 155t160 101t172 38zM2773 1935l96 -59q-7 -40 -13 -68t-18 -65t-30.5 -67
t-44.5 -52h-37q64 97 47 311z" />
    <glyph glyph-name="nacute" unicode="&#x144;" horiz-adv-x="854" 
d="M995 440h33q-258 -452 -442 -452q-95 0 -133 51q-28 35 -24.5 89.5t26 111t55.5 119t64 114t52 97t19 67.5q-3 22 -29 22q-115 0 -358 -266q-120 -258 -178 -393h-174q137 352 305 692h186q-40 -81 -92 -192q206 209 332 209q58 0 98 -19q53 -25 54.5 -81t-34 -128
t-78.5 -145t-78.5 -148.5t-33.5 -121.5q0 -39 31 -39q140 0 399 413zM549 1139l96 -60q-7 -40 -13 -68t-18 -65t-30.5 -67t-44.5 -52h-37q65 97 47 312z" />
    <glyph glyph-name="Ncaron" unicode="&#x147;" horiz-adv-x="2564" 
d="M3217 1536q177 0 211 -207l-28 -33q-16 197 -178 197q-324 0 -938 -1520q-8 -18 -11 -26h-67h-99h-30q23 94 35 261.5t19.5 338t21.5 344.5t52 325t101 236q-74 -44 -136 -108.5t-123 -172t-91 -168.5t-95 -208q-54 -120 -83 -182t-87 -169.5t-104.5 -166t-120.5 -134.5
t-149 -114.5t-177 -66.5t-218 -28q-351 1 -547 178q-143 128 -164 309q-19 169 73 306q100 148 288 187q58 12 122 12q120 0 226.5 -40.5t178 -117t85.5 -174.5q24 -150 -87.5 -261t-275.5 -108q-133 3 -208.5 76t-61.5 141q11 64 76 64q45 0 68.5 -30.5t15.5 -65.5
q-7 -27 -31 -44.5t-64 -17.5q69 -92 195 -92q174 0 254.5 97.5t54.5 244.5q-12 79 -56.5 139.5t-105 94.5t-123.5 50.5t-124 16.5q-224 0 -344 -142q-100 -117 -94 -285q7 -171 121 -303q142 -166 389 -192q42 -4 85 -4q123 0 226.5 43.5t179.5 119.5t142 175t122.5 213.5
t111 231.5t117 232t132 212.5t164.5 176t206 118.5h-33q-347 -5 -632 -194q-192 -127 -293 -294q-90 -147 -64 -249q25 -100 155 -105q29 -2 62 2l-26 -30q-162 -11 -222 92q-57 96 -3 244q61 170 231 312q246 205 608 251q95 12 195 12q121 0 213 -20q-43 -39 -73 -121.5
t-46.5 -211.5t-25 -239.5t-18.5 -286.5t-18 -272q46 118 93 224.5t107.5 225t122 217t135.5 190.5t148 155t160 101t172 38zM2728 1620q-48 163 -145 223l12 10q42 -8 98 -42.5t76 -67.5q175 98 319 108l-4 -14q-171 -59 -356 -217z" />
    <glyph glyph-name="ncaron" unicode="&#x148;" horiz-adv-x="866" 
d="M1004 440h32q-258 -452 -442 -452q-95 0 -133 51q-28 35 -24.5 89.5t26 111t55.5 119t64 114t52 97t19 67.5q-3 22 -28 22q-116 0 -359 -266q-120 -258 -178 -393h-174q137 352 305 692h187q-62 -126 -93 -192q206 209 332 209q58 0 98 -19q53 -25 54.5 -81t-34 -128
t-78.5 -145t-78.5 -148.5t-33.5 -121.5q0 -39 31 -39q141 0 400 413zM520 834q-48 163 -145 223l12 10q42 -8 98 -43t76 -68q177 99 320 109l-4 -14q-172 -59 -357 -217z" />
    <glyph glyph-name="OE" unicode="&#x152;" horiz-adv-x="2564" 
d="M2494 1532q168 0 217 -83q41 -69 -16 -157q-64 -101 -213 -161q-219 -87 -500 -31q-24 -36 -40 -88t-17.5 -105.5t21.5 -89.5q101 46 192 61q115 19 108 -46q-1 -7 -3 -15q-14 -49 -52 -76t-84.5 -30.5t-92.5 4.5t-83 26q-104 -58 -203 -201q-112 -162 -130 -306
q-22 -166 105 -216q47 -18 114 -18q254 0 445 150q128 100 176 224q42 110 -4 168q-32 40 -99 40q-70 0 -127.5 -47.5t-81 -115.5t-4.5 -128q7 35 34 47t53.5 1t35.5 -34q11 -35 -5.5 -65t-66.5 -31q-68 -2 -87 71q-22 78 21 176q47 109 140 150q46 20 98 19q112 -1 147 -91
t-22 -215q-66 -144 -218 -241q-185 -119 -433 -119q-129 0 -220.5 29t-137 77.5t-58.5 113t6.5 135t65.5 143.5q-188 -223 -431.5 -362.5t-490.5 -135.5q-281 4 -368 193q-78 167 12 428q88 255 294 490q231 262 511 381q188 80 372 79q147 0 240 -43q-23 -8 -49 -25
q-83 27 -191 27q-254 0 -514 -240q-212 -195 -358 -478q-141 -272 -151 -485q-10 -209 118 -267q44 -21 104 -21q217 0 470 222q210 184 365 447q154 261 170 455t-121 238q-36 12 -83 12q-198 0 -356 -139q-112 -99 -153 -220q-37 -110 12 -162q29 -30 84 -30
q66 0 122 47.5t78.5 113.5t-0.5 118q-9 -34 -34 -46.5t-48 -4t-30 27.5q-11 34 4 65t65 32q63 1 80 -70q19 -76 -24 -170q-48 -105 -140 -141q-41 -16 -86 -15q-106 1 -134 90q-30 89 32 213q69 141 213 231q155 97 348 97q115 0 195.5 -34.5t118.5 -95t46.5 -141.5
t-15 -174.5t-71.5 -193.5t-118 -199q131 137 297 207q-56 42 -75.5 107t-9.5 128t40 128l34 65q97 151 280 238.5t365 87.5zM2540 1491q-155 0 -298.5 -85.5t-228.5 -242.5q292 -66 493 27q115 53 157 138q36 73 -6 121q-35 42 -117 42zM2212 809q6 22 -29 23
q-57 3 -150 -34q-32 -13 -48 -24q33 -26 84 -30.5t93 13.5t50 52z" />
    <glyph glyph-name="oe" unicode="&#x153;" horiz-adv-x="1196" 
d="M1321 440h33q-46 -82 -83.5 -139t-93 -121t-112 -102.5t-134 -64t-165.5 -25.5q-183 0 -225 131q-148 -131 -310 -131q-180 0 -220 122q-35 105 43 255q76 146 211 244q146 106 292 100q90 0 141.5 -34t63.5 -95q155 129 317 129q116 0 145 -70q27 -63 -32 -144
q-73 -100 -225 -149q-102 -33 -222 -33q-16 -31 -28.5 -65t-19.5 -74.5t-2 -71.5t31 -52t73 -21q85 0 165.5 36.5t146 99t116 129.5t94.5 146zM1100 659q-77 0 -171.5 -93t-166.5 -222q175 -3 305 97q84 66 102 135q16 61 -35 78q-15 5 -34 5zM532 338q33 61 53 114t25 90.5
t-0.5 64t-21 39.5t-39.5 13q-64 0 -154.5 -82t-167.5 -231q-32 -61 -50.5 -113.5t-23.5 -89.5t0.5 -63t20.5 -38.5t37 -12.5q63 0 153 81t168 228z" />
    <glyph glyph-name="Racute" unicode="&#x154;" horiz-adv-x="2510" 
d="M2623 440h39q-49 -94 -92 -168.5t-98.5 -155t-109.5 -125.5t-101 -46q-89 -1 -133.5 24.5t-48.5 71t11 101.5t40 122.5t44.5 128.5t18 124t-33.5 104q-45 -22 -87.5 -32t-78.5 -7t-58 27t-22 67q-1 47 27.5 74.5t71.5 32t90 -4t87 -28.5q44 42 86.5 102.5t75 130
t54 141.5t19.5 138t-25.5 117.5t-84 82.5t-153.5 31q-250 0 -507 -172q-188 -126 -303 -291q-110 -158 -92 -262q19 -109 179 -108q21 0 45 2l-23 -31q-175 -11 -229 100q-49 102 20 260q75 172 247 312q238 194 546 227q58 6 117 6q153 0 256.5 -46t146 -119t43.5 -166
t-40 -187.5t-115.5 -184.5t-172.5 -155q36 -40 53 -90t16 -99t-12 -101.5t-28.5 -101t-35.5 -93.5t-32 -82t-19.5 -65t4.5 -43t38 -15q34 0 77 37t93 109t87.5 132.5t90.5 152.5zM1935 682q-3 -42 56 -39q49 3 108 35q-16 16 -38.5 27t-44 14t-40 0.5t-30 -12.5t-11.5 -25z
M2329 1393q-67 -38 -126 -98.5t-113.5 -148t-93 -160.5t-95.5 -189q-44 -91 -68 -138t-71 -132t-79.5 -132.5t-86.5 -118.5t-101.5 -111t-113.5 -88t-133 -72.5t-151 -42t-175 -17.5q-347 0 -541 176q-140 129 -160 311q-18 168 75 305q101 147 286 184q55 11 114 11
q119 0 225 -41.5t177.5 -117.5t87.5 -171q14 -97 -32.5 -183t-134.5 -135t-192 -46q-70 1 -126.5 23t-88.5 54.5t-47 68t-10 67.5q17 63 76 63q44 0 67.5 -29.5t14.5 -64.5q-5 -28 -30.5 -48t-66.5 -20q80 -86 199 -86q115 0 191 47.5t103.5 124t10.5 170.5
q-12 78 -56.5 138t-105 93t-123.5 49.5t-124 16.5q-220 0 -338 -141q-99 -116 -92 -282q7 -171 121 -303q143 -165 390 -189q39 -4 80 -4q120 0 222.5 41t180.5 112.5t146.5 164.5t128.5 201t117.5 218.5t122 220.5t134.5 203t162.5 169.5t197.5 117.5zM2324 1935l97 -59
q-9 -54 -18 -91.5t-32 -84.5t-57 -76h-37q64 97 47 311z" />
    <glyph glyph-name="racute" unicode="&#x155;" horiz-adv-x="684" 
d="M821 440h33q-51 -91 -96.5 -162t-102 -144t-113 -113.5t-106.5 -40.5q-57 0 -94.5 17t-52 50t-19 70.5t9 90.5t28 98t42.5 105t47 98t47 91q-17 4 -159 51l-142 -237h-32l147 248h-4q-160 49 -156 147q1 35 27 68.5t62 52t75.5 24.5t67.5 -12q38 -18 38.5 -81.5
t-42.5 -147.5q40 -13 159.5 -41.5t167.5 -44.5q-116 -198 -199 -404.5t-3 -206.5q47 0 116 68.5t129.5 156.5t124.5 199zM285 721q31 50 34.5 96.5t-18.5 56.5q-20 9 -57.5 -14t-38.5 -57q-8 -50 80 -82zM510 1139l96 -60q-7 -40 -13 -68t-18 -65t-30.5 -67t-44.5 -52h-37
q65 97 47 312z" />
    <glyph glyph-name="Rcaron" unicode="&#x158;" horiz-adv-x="2510" 
d="M2640 440h39q-255 -493 -402 -495q-89 -1 -133.5 24.5t-48.5 71t11 101.5t40 122.5t44.5 128.5t18 124t-33.5 104q-45 -22 -87.5 -32t-78.5 -7t-58 27t-22 67q-1 47 27.5 74.5t72 32t90.5 -4t87 -28.5q51 49 99 122.5t84 156.5t46.5 165.5t-6 149t-81 108t-171.5 41.5
q-250 0 -507 -172q-188 -126 -303 -291q-110 -158 -92 -262q19 -109 179 -108q21 0 45 2l-22 -31q-175 -11 -229 100q-49 102 20 259q74 172 245 312q237 194 544 228q60 6 120 6q153 0 256.5 -46t146 -119t44 -166t-39.5 -187.5t-115.5 -184.5t-172.5 -155q36 -40 53 -90
t16 -99t-12 -101.5t-28.5 -101t-36 -93.5t-32.5 -82t-19.5 -65t4.5 -43t38 -15t63 27t70 70t74 102t74 117t71 120q6 11 9 16zM1952 682q-3 -42 56 -39q49 3 108 35q-16 16 -38.5 27t-44 14t-40 0.5t-30 -12.5t-11.5 -25zM2345 1393q-67 -38 -126 -98.5t-113.5 -148
t-93 -160.5t-95.5 -189q-44 -91 -68 -138t-71 -132t-79.5 -132.5t-86.5 -118.5t-101.5 -111t-113.5 -88t-133 -72.5t-151 -42t-175 -17.5q-347 0 -540 176q-141 129 -160 311q-18 168 75 305q101 147 286 184q55 11 114 11q119 0 225 -41.5t177 -117.5t87 -171
q11 -73 -14 -141.5t-74.5 -117.5t-120.5 -78t-149 -27q-135 3 -210 73t-63 140q17 63 76 63q44 0 67.5 -29.5t14.5 -64.5q-5 -28 -30.5 -48t-65.5 -20q80 -86 198 -86q115 0 191.5 47.5t104 124t10.5 170.5q-12 78 -56.5 138t-105.5 93t-124 49.5t-124 16.5
q-220 0 -338 -141q-99 -116 -92 -282q8 -171 122 -303q143 -165 390 -189q39 -4 80 -4q120 0 222.5 41t180.5 112.5t146.5 164.5t128 201t117 218.5t122.5 220.5t134.5 203t162 169.5t197.5 117.5zM2249 1620q-48 162 -146 223l13 10q42 -8 98 -42.5t76 -67.5
q175 98 319 108l-4 -14q-171 -59 -356 -217z" />
    <glyph glyph-name="rcaron" unicode="&#x159;" horiz-adv-x="624" 
d="M743 440h33q-51 -91 -96.5 -162t-102 -144t-113 -113.5t-106.5 -40.5q-57 0 -94 16.5t-51.5 50t-19.5 70.5t9 91t28.5 98t42.5 104.5t47 98.5t47 91q-22 6 -160 51l-141 -237h-33l147 248h-4q-160 49 -156 147q1 35 27 68.5t62 52t75.5 24.5t67.5 -12q38 -18 38.5 -81.5
t-42.5 -147.5q40 -13 159.5 -41.5t167.5 -44.5q-116 -198 -199 -404.5t-3 -206.5q47 0 116 68.5t129.5 156.5t124.5 199zM207 721q31 50 34.5 96.5t-18.5 56.5q-20 9 -57.5 -14t-38.5 -57q-8 -50 80 -82zM403 834q-48 163 -145 223l12 10q42 -8 98 -43t76 -68
q177 99 320 109l-4 -14q-172 -59 -357 -217z" />
    <glyph glyph-name="Sacute" unicode="&#x15a;" horiz-adv-x="1593" 
d="M2103 1538q65 0 104.5 -29t18.5 -92q-17 -52 -74 -102t-131.5 -86t-145.5 -61t-130 -38q-32 -74 -68.5 -180t-64.5 -195.5t-68 -193.5t-80.5 -186.5t-101.5 -162.5t-131.5 -133t-169 -85.5t-215.5 -32.5q-116 0 -219 25q-9 -159 71 -299l-16 -35q-96 153 -86 342
q-110 35 -193 101.5t-130 148.5t-66.5 177.5t-9 188.5t50 180.5t102 155t155.5 111.5t204 51q147 8 273.5 -53.5t184.5 -173.5q197 148 385 235q79 171 174 266q153 156 377 156zM715 1075q-134 -9 -235.5 -78t-153.5 -169.5t-63 -221.5t21 -232.5t114 -205t202 -135.5
q20 192 148 395q-87 28 -133 89t-35 114q19 59 71 59q45 0 68.5 -28t15.5 -64q-5 -26 -30 -44.5t-64 -18.5q53 -63 123 -80q134 204 356 387q-40 118 -154 180t-251 53zM1139 782q-2 2 -2 9q-185 -153 -326 -345q5 0 14 -1t13 -1q167 0 245.5 97.5t55.5 240.5zM797 -2
q84 0 156 27.5t126 72.5t102.5 115t82.5 141.5t70.5 165.5t63 174t61.5 180.5t65 172.5q-172 -87 -338 -216q1 -5 4.5 -16t6 -20.5t3.5 -18.5q16 -94 -28.5 -178.5t-132.5 -134.5t-193 -49q-29 0 -53 6q-140 -206 -160 -397q106 -25 164 -25zM2165 1427q12 41 0.5 55.5
t-51.5 14.5q-54 0 -122 -51t-130 -127q-58 -67 -86 -125q49 13 102.5 32.5t115 48.5t108.5 69t63 83zM2142 1935l96 -59q-7 -40 -13 -67.5t-18 -64t-30.5 -66.5t-44.5 -52h-35q62 97 45 309z" />
    <glyph glyph-name="sacute" unicode="&#x15b;" horiz-adv-x="735" 
d="M856 440h33q-51 -91 -112.5 -168t-140 -143t-176.5 -103.5t-204 -37.5q-57 0 -97.5 15t-60 38.5t-26 54t1 61.5t24.5 60t41 51q33 33 70 33q20 -2 37.5 -17t21.5 -40q7 -36 -13 -59t-48 -21q-18 1 -27.5 4t-19 14.5t-13.5 32.5q-28 -35 -30.5 -78.5t29 -76.5t92.5 -33
q152 0 241 147q37 62 38.5 126.5t-22.5 122.5t-52.5 113.5t-49.5 121t-16 124.5l-209 -348h-33l311 506l23 -12q-16 -55 -13 -106.5t22 -90t45 -79.5t55 -75.5t53 -77t39 -85t12 -99t-27 -118.5q129 105 201 243zM512 1384l96 -59q-7 -40 -13 -68t-18 -65t-30.5 -67
t-44.5 -52h-37q64 97 47 311z" />
    <glyph glyph-name="Scaron" unicode="&#x160;" horiz-adv-x="1554" 
d="M2109 1538q66 0 106 -29.5t19 -93.5q-17 -51 -74 -101t-131.5 -86t-146 -61.5t-131.5 -38.5q-26 -61 -55 -142.5t-51.5 -153.5t-51.5 -156t-57 -155.5t-66 -146.5t-79 -134.5t-97 -113t-119.5 -89.5t-146 -57t-176.5 -21q-113 0 -219 25q-9 -159 74 -299l-19 -35
q-96 153 -86 342q-110 35 -193 101.5t-130 149t-66.5 177.5t-9 188t50 181t102.5 155.5t156.5 111.5t204.5 50q146 8 273 -53t184 -174q205 154 387 235q80 173 172 268q156 156 376 156zM723 1075q-102 -7 -185.5 -48.5t-139 -105.5t-89 -146.5t-41.5 -169.5t9.5 -176
t58 -165.5t110 -138.5t160.5 -94q20 192 150 397q-89 28 -135 88t-35 113q18 61 71 61q47 0 70.5 -29t15.5 -65q-5 -27 -30.5 -45.5t-65.5 -18.5q49 -58 123 -77q136 204 356 385q-40 119 -153.5 181.5t-249.5 53.5zM1145 780q-2 2 -2 8q-184 -152 -326 -342q5 0 14 -1
t13 -1q167 0 245.5 96.5t55.5 239.5zM803 -4q84 0 156.5 27.5t126 72.5t102.5 115t83 141.5t70.5 165.5t62.5 174t61.5 181.5t64.5 173.5q-156 -79 -338 -218q1 -2 7 -22t7 -31q16 -95 -28.5 -179.5t-132 -134t-193.5 -48.5q-29 0 -53 6q-141 -216 -160 -400
q102 -24 164 -24zM2173 1425q12 41 0.5 55.5t-51.5 14.5q-104 0 -252 -176q-60 -66 -88 -127q49 13 103.5 33t116 49t108.5 69t63 82zM2093 1622q-47 160 -143 221l12 10q41 -8 96.5 -42.5t75.5 -67.5q175 98 317 108l-4 -14q-93 -32 -176 -84t-178 -131z" />
    <glyph glyph-name="scaron" unicode="&#x161;" horiz-adv-x="714" 
d="M819 440h33q-51 -91 -112.5 -168t-140 -143t-176.5 -103.5t-204 -37.5q-57 0 -97.5 15t-60 38.5t-26 54t1 61.5t24.5 60t41 51q33 33 70 33q20 -2 37.5 -17t21.5 -40q7 -36 -13 -59t-48 -21q-17 1 -27 4t-19 14.5t-13 32.5q-28 -35 -30.5 -78.5t28.5 -76.5t92 -33
q152 0 241 147q37 62 38.5 126.5t-22.5 122.5t-52.5 113.5t-49.5 121t-16 124.5l-209 -348h-33l312 506l22 -12q-16 -55 -13 -106.5t22 -90t45 -79.5t55 -75.5t53 -77t39 -85t12 -99t-27 -118.5q129 105 201 243zM455 1092q-48 162 -146 223l13 10q42 -8 98 -43t76 -68
q177 99 319 109l-4 -14q-171 -59 -356 -217z" />
    <glyph glyph-name="Tcaron" unicode="&#x164;" horiz-adv-x="1966" 
d="M2286 1393q37 -16 43 -33q-94 -38 -173 -111t-136.5 -163.5t-111 -197.5t-104.5 -215.5t-108 -214.5t-130.5 -197.5t-163 -161.5t-215.5 -110t-278 -40q-346 0 -539 176q-140 128 -160 308q-18 168 75 303q100 148 287 185q56 11 116 11q118 0 222.5 -41t176 -118
t87.5 -175q15 -97 -31.5 -182t-135 -133t-192.5 -45q-68 2 -124 24.5t-88 54.5t-47 68.5t-9 67.5q16 61 74 61q45 0 69 -30.5t17 -65.5q-6 -26 -33.5 -45t-65.5 -19q69 -90 199 -90q111 0 186.5 48t104 124t14.5 168q-12 80 -56.5 140.5t-105.5 93t-122.5 48t-120.5 15.5
q-223 0 -343 -141q-98 -117 -92 -282q7 -169 121 -300q142 -163 389 -187q37 -3 76 -3q126 0 230.5 41.5t180 113.5t140 166t119.5 201.5t109 217t117.5 215.5t135.5 194.5t173.5 156.5t222.5 99zM3101 1573l10 -53q-66 -52 -149.5 -81.5t-182 -36t-181.5 -4.5t-202.5 8.5
t-189.5 6.5q-187 0 -334 -28.5t-285 -108.5q-186 -109 -288 -268q-87 -137 -68 -238q18 -94 124 -110q42 -6 97 2l-20 -35q-169 -12 -224 95q-51 98 13 251q71 170 244 310q52 41 110 77q286 174 692 174q80 0 214 -11.5t226 -18.5t203 8t191 61zM2576 1884
q48 -162 146 -223l-12 -10q-43 8 -99 42.5t-76 67.5q-175 -98 -319 -108l4 14q171 59 356 217z" />
    <glyph glyph-name="Utilde" unicode="&#x168;" horiz-adv-x="2220" 
d="M2425 1380q125 105 241.5 140.5t199 -11t102.5 -174.5l-29 -32q-8 97 -54 141.5t-111 36t-141 -57.5t-145 -131q-160 -200 -354 -628q-101 -242 -131 -325q-122 -339 -27 -339q48 0 116 72.5t128.5 171.5t108.5 205h30q-30 -68 -62.5 -132t-73.5 -130.5t-81 -115
t-85 -79.5t-85 -31q-69 0 -113 26t-60.5 68t-15.5 101.5t15 118t39 126.5q-309 -443 -532 -440q-86 1 -146.5 17t-90.5 49t-44 71t-3 96.5t26.5 110t52 126.5t66.5 132t76 140q44 79 65.5 119.5t59 114t52 114t36 102.5t19.5 97.5t-6 81t-32 70.5t-67 49.5t-102.5 34.5
t-146.5 9q-184 -3 -335.5 -43.5t-253 -108t-166 -148.5t-91.5 -173q-27 -89 -18 -178t49.5 -160t110.5 -120t165.5 -59t213.5 23q57 17 111 50t101.5 80.5t71.5 116t13 145.5q-12 93 -60 156t-129 86.5t-192 -7.5q-120 -34 -162 -139q73 24 110 -33q18 -29 3 -64.5
t-58 -46.5q-49 -19 -84 35q-12 22 -13 51.5t12 62.5t37 64t65 58t92 43q74 26 148.5 17t136 -41t103.5 -89.5t52 -128.5q18 -145 -89.5 -273t-275.5 -173q-89 -26 -170.5 -26.5t-145.5 22t-117 61.5t-87 93.5t-52.5 116.5t-17.5 131.5t21 137.5q20 78 65 149t121 135.5
t176 111.5t238.5 75t300.5 29q476 4 514 -257q23 -163 -130 -469q-31 -62 -174 -320q-127 -230 -149 -328q-32 -139 90 -157q18 -3 38 -3q61 -1 142 55t165 150t160 197t147 216q200 489 502 762zM1853 1645h-18q89 111 117 118l6 1q6 1 14.5 2.5t19 3.5t22.5 3t22 1h39
q31 -5 106 -33q77 -27 96 -27q51 0 72.5 12t38.5 52h10q-11 -62 -63 -105t-119 -43q-22 0 -40 3t-44 10t-29 8l-141 43q-32 0 -66 -21q-17 -8 -43 -28z" />
    <glyph glyph-name="utilde" unicode="&#x169;" horiz-adv-x="872" 
d="M344 829h-18q90 113 116 119l6 1q6 1 14.5 2.5t19 3t22.5 2.5t22 1h39q38 -7 107 -32q77 -27 96 -27q51 0 72.5 12t38.5 52h10q-11 -62 -63 -105t-119 -43q-22 0 -40 3t-44 10t-29 8l-141 43q-31 0 -66 -21q-13 -6 -43 -29zM999 440h31q-50 -90 -94.5 -160t-99 -141.5
t-109 -111t-102.5 -39.5q-226 0 -150 268q-174 -268 -295 -268q-304 0 -53 501q7 14 103 192q3 6 6 11h188q-236 -425 -267 -575q-18 -90 31 -90q58 0 150.5 106.5t189.5 263.5q23 52 51.5 108t61 115t39.5 72h190q-26 -46 -51.5 -92t-70.5 -131.5t-75 -155t-54.5 -138.5
t-21.5 -108.5t36 -39.5q63 0 164 121.5t202 291.5z" />
    <glyph glyph-name="Uring" unicode="&#x16e;" horiz-adv-x="2189" 
d="M2497 1362q51 48 117 88.5t140 63t138.5 18.5t113.5 -55t64 -148l-29 -26q-10 98 -57 142.5t-113 35.5t-143.5 -61t-147.5 -138q-67 -86 -135 -201t-118.5 -220t-111.5 -221.5t-117.5 -214t-133.5 -187.5t-161.5 -152.5t-199.5 -99.5t-249 -37q-291 0 -311 174
q-15 123 112 377q16 33 153 289q140 259 171 390q50 215 -116 281q-84 33 -226 31q-188 -2 -341.5 -41.5t-256 -106t-167.5 -148t-93 -175.5q-23 -74 -21.5 -149.5t27 -140t71.5 -117.5t112 -82.5t149.5 -35t183.5 24.5q46 14 91.5 37t89 59.5t74.5 80.5t46 102.5t6 122.5
q-20 141 -124 211.5t-265 23.5q-121 -39 -166 -141q40 10 71 -0.5t42 -34.5q21 -27 5 -64.5t-61 -50.5q-55 -16 -84 39q-12 22 -13 51.5t11.5 63t36 65.5t65 60t93.5 45q76 25 151.5 15.5t137.5 -41.5t104.5 -90.5t52.5 -129.5q20 -146 -87.5 -273.5t-282.5 -181.5
q-89 -26 -171 -26.5t-146 22t-117.5 62.5t-88 95.5t-54 118t-18.5 132.5t21 139q28 101 95.5 188t176 158.5t274.5 113t370 42.5q476 2 513 -255q24 -161 -131 -463q-34 -66 -178 -321q-132 -232 -157 -332q-36 -145 86 -168q25 -5 57 -5q98 0 190 45t165.5 120.5t147 178
t134 212.5t128 230t127.5 225.5t133 202.5t145 158zM2111 1620q-48 163 -145 223l12 10q42 -8 98 -42.5t76 -67.5q175 98 320 108l-4 -14q-172 -59 -357 -217z" />
    <glyph glyph-name="Ydieresis" unicode="&#x178;" horiz-adv-x="2351" 
d="M2605 1341q44 41 98.5 77t117 65t123 36.5t113.5 -6.5t92 -66t54 -140l-25 -29q-10 104 -61 153.5t-121 41.5t-152.5 -62t-156.5 -145q-89 -111 -188 -295.5t-175.5 -358t-182.5 -404t-189 -386.5q97 -21 178 -62t133 -90.5t78 -107.5t21.5 -113t-45 -108t-115.5 -91
q-6 -1 -14 -4l-9 -4l-39 15q6 1 23 10q151 69 151 175q0 96 -118 183q-112 83 -283 121q-73 -112 -160.5 -217t-197.5 -206t-224 -176t-245 -120.5t-255 -44.5q-135 1 -165 101q-30 101 55 251q96 170 284 303q276 195 617 209q64 2 129 -2q39 78 114 234.5t109 224.5
q-280 -347 -477 -344q-92 1 -157 18t-98 50t-49.5 71t-7 95.5t25 109.5t51.5 126t66.5 131t75.5 138q49 87 73 131t63.5 124t53.5 123.5t30 108.5t6.5 101t-31 79t-68.5 64.5t-119 36t-171 13.5q-159 -2 -295.5 -30.5t-236.5 -75.5t-177 -111t-124 -134.5t-70 -148.5
q-37 -120 -14.5 -236t96 -196t194 -111.5t281.5 15.5q61 17 119.5 52t109.5 86.5t76.5 125t13.5 155.5q-14 100 -65 168t-137.5 94t-206.5 -10q-130 -39 -176 -151q82 22 119 -31q21 -30 5 -70t-63 -51q-30 -11 -54 1t-36 38q-14 23 -15 54t12 66.5t38.5 68.5t69.5 62.5
t100 47.5q80 29 160.5 19.5t146.5 -43t111 -96t55 -138.5q21 -155 -93.5 -290t-297.5 -189q-95 -29 -182 -30t-155.5 23t-125 66t-93.5 100t-57 125t-19.5 141.5t21.5 147.5q24 84 73 159t131 143.5t189 118t255.5 79.5t322.5 31q512 3 559 -259q29 -160 -121 -457
q-34 -68 -174 -315q-126 -224 -150 -321q-33 -140 87 -163q23 -5 53 -5q62 -1 140.5 50.5t160.5 140.5t157 187t150 212q133 257 252.5 443.5t243.5 303.5zM829 -977q101 0 210.5 48t205 125t186 176.5t159.5 199.5t120 197q-344 31 -632 -147q-184 -114 -289 -277
q-89 -137 -76 -232q12 -84 104 -90h12zM1956 1661q-39 0 -65.5 27.5t-26.5 64.5q0 40 26 67t66 27q38 0 65 -27t27 -67q0 -37 -27 -64.5t-65 -27.5zM2241 1661q-39 0 -66 27.5t-27 64.5q0 40 26.5 67t66.5 27q38 0 65 -27t27 -67q0 -37 -27 -64.5t-65 -27.5z" />
    <glyph glyph-name="Zacute" unicode="&#x179;" horiz-adv-x="2193" 
d="M2312 1536q97 0 130 -60q29 -54 -12 -114q-53 -78 -179 -98q-81 -13 -180 4q-44 -70 -123 -203t-140.5 -237t-149 -235.5t-163.5 -228.5t-168 -185t-178 -134q287 -111 551 -59q187 37 286 138q89 89 59 183q-22 71 -112 125l31 17q138 -78 150 -206q12 -117 -84 -223
q-111 -121 -302 -156q-278 -51 -594 110q-27 13 -53 28q-359 -104 -604 -22q-143 48 -199 141q-46 77 -7 139q46 72 179 70q231 -2 584 -228q10 -7 21 -14q86 56 176 166.5t173 246t163 273.5t174 284t178 242q-77 22 -203.5 75t-236 87.5t-209.5 34.5q-265 1 -439 -166
q-132 -127 -166 -304q-33 -169 38 -294q79 -138 252 -153q97 -9 216 24q55 15 108 46t99 77t69.5 113t12.5 141q-16 138 -115 205.5t-253 17.5q-109 -27 -156 -133q39 11 67 1.5t37 -32.5q20 -29 5.5 -64t-56.5 -48q-51 -10 -80 43q-12 21 -12.5 49t11.5 59t34.5 61
t61.5 56.5t88 42.5q73 24 145.5 15t132 -39.5t99.5 -87t47 -126.5q21 -137 -82.5 -259t-268.5 -169q-246 -74 -404 38q-120 85 -150 246q-32 168 50 332q91 182 286 273q155 72 356 72q75 0 185 -28.5t255.5 -75.5t222.5 -66q44 40 64.5 58t58 45.5t66 38.5t69.5 20.5
t88 9.5zM987 51zM2124 1339q134 -22 212 41q48 38 44 78q-9 36 -53 39q-33 0 -74 -29t-66.5 -56.5t-55.5 -63.5q-5 -6 -7 -9zM1858 1935l96 -59q-9 -54 -18 -91.5t-32 -84.5t-57 -76h-37q65 99 48 311z" />
    <glyph glyph-name="zacute" unicode="&#x17a;" horiz-adv-x="829" 
d="M954 453h31q-66 -112 -130.5 -204t-141 -168.5t-133.5 -88.5q-46 -9 -88.5 -1.5t-103.5 18t-118 19t-131.5 3t-144.5 -30.5h-60l654 575q-62 -5 -181.5 28t-168.5 30q-105 -6 -125 -119q44 26 82 -12q20 -22 15.5 -53t-36.5 -52q-25 -11 -47 -7t-33 20q-28 32 -28 73
q2 83 45 142.5t122 76.5q49 8 117.5 3t128.5 -15t130.5 -7t123.5 26h66l-615 -547q82 19 151.5 11.5t109.5 -24.5t88 -33t88 -14q57 0 149 101.5t184 249.5zM498 1139l96 -60q-9 -54 -18 -91.5t-32 -84.5t-57 -76h-36q65 97 47 312z" />
    <glyph glyph-name="Zcaron" unicode="&#x17d;" horiz-adv-x="2174" 
d="M2300 1536q97 0 130 -60q28 -54 -12 -114q-53 -78 -178 -98q-82 -13 -182 4q-44 -70 -123 -203t-140.5 -237t-148.5 -235.5t-163 -228.5t-168 -185t-178 -134q287 -111 551 -59q187 37 286 138q89 89 59 183q-22 71 -112 125l31 17q138 -78 150 -206q12 -117 -84 -223
q-111 -121 -302 -156q-278 -51 -594 110q-27 13 -53 28q-359 -104 -604 -22q-144 48 -200 141q-46 78 -6 139q47 73 180 70q233 -3 588 -232q8 -5 15 -10q86 56 176 166.5t173.5 246t163.5 273.5t174 284t178 242q-76 21 -203 74.5t-237 88t-210 34.5q-265 1 -439 -166
q-131 -127 -166 -304q-33 -169 39 -294q79 -138 252 -153q98 -9 216 24q55 15 108 46t99 77t69.5 113t12.5 141q-16 138 -115.5 205.5t-253.5 17.5q-108 -27 -155 -133q39 11 67 1.5t37 -32.5q20 -29 5.5 -64t-56.5 -48q-51 -10 -80 43q-12 21 -12.5 49t11 59t34.5 61
t61.5 56.5t87.5 42.5q73 24 145.5 15t132 -39.5t99.5 -87t47 -126.5q21 -137 -82 -259t-268 -169q-247 -74 -405 39q-120 85 -150 246q-31 169 51 333q92 182 289 272q154 71 352 71q75 0 185.5 -28.5t256.5 -75.5t222 -66q44 40 64.5 58t58 45.5t66 38.5t69.5 20.5t88 9.5z
M975 51zM2111 1339q134 -22 212 41q48 38 44 78q-9 36 -53 39q-33 0 -74 -29t-66.5 -56.5t-55.5 -63.5q-5 -6 -7 -9zM1808 1620q-48 163 -145 223l12 10q42 -8 98 -42.5t76 -67.5q175 98 320 108l-4 -14q-172 -59 -357 -217z" />
    <glyph glyph-name="zcaron" unicode="&#x17e;" horiz-adv-x="811" 
d="M961 453h30q-66 -112 -130.5 -204t-141 -168.5t-133.5 -88.5q-46 -9 -88.5 -1.5t-103.5 18t-118 19t-131.5 3t-144.5 -30.5h-59l653 575q-62 -5 -181.5 28t-168.5 30q-105 -6 -125 -119q44 26 82 -12q20 -22 15.5 -53t-36.5 -52q-25 -11 -47 -7t-33 20q-28 32 -28 73
q2 83 45.5 142.5t122.5 76.5q49 8 117 3t128 -15t130.5 -7t123.5 26h66l-615 -547q82 19 151.5 11.5t109.5 -24.5t88 -33t88 -14q58 0 150 102t184 249zM426 834q-48 163 -145 223l12 10q42 -8 98 -43t76 -68q177 99 319 109l-4 -14q-171 -59 -356 -217z" />
    <glyph glyph-name="Ohorn" unicode="&#x1a0;" horiz-adv-x="1705" 
d="M1493 1415q202 0 297 -106q91 43 108 121q-23 40 -2 86q17 35 55 51.5t72 5.5q37 -13 46.5 -42t-3 -61t-38.5 -63q-69 -82 -211 -135q41 -68 41.5 -163.5t-33.5 -201.5t-99 -220t-152 -220.5t-197.5 -202.5t-229 -166.5t-253 -111.5t-263.5 -39q-283 4 -372 193
q-78 168 12 431q87 258 296 496q231 264 512 386q192 83 381 83q154 0 240 -47q-7 -3 -24.5 -11.5t-22.5 -9.5q-71 21 -191 21q-258 0 -522 -241q-214 -196 -363 -481q-141 -272 -152 -485q-11 -210 117 -271q46 -21 107 -21q218 0 472 223q212 185 369 449q156 263 174 459
q17 197 -120 242q-37 13 -86 13q-200 0 -359 -141q-113 -100 -154 -222q-38 -111 11 -164q28 -32 84 -32q41 0 80 19t66.5 49.5t46.5 68t19.5 74t-13.5 68.5q-7 -32 -31.5 -42.5t-48 -1.5t-31.5 29q-11 34 5.5 63.5t68.5 29.5q63 2 81 -67q19 -76 -23 -170
q-48 -105 -140 -143q-43 -17 -90 -16q-106 1 -136 90q-30 90 31 215q70 142 213 232q158 100 355 100z" />
    <glyph glyph-name="ohorn" unicode="&#x1a1;" horiz-adv-x="845" 
d="M969 442h35q-77 -137 -229.5 -256t-282.5 -118q-124 -80 -246 -80q-180 0 -219 122q-35 105 44 255q76 146 210 244q146 106 292 100q96 0 148 -40t61 -108q51 11 66 74q-19 36 -2 74q13 30 45.5 44t62.5 5q31 -11 39.5 -36.5t-3 -53.5t-34.5 -52q-75 -77 -172 -88
q0 -99 -66.5 -217.5t-170.5 -204.5q110 19 230.5 122t191.5 214zM225 27q63 0 152 77q-38 23 -68 74q-23 36 -16 78q5 20 23 34.5t44 14.5q36 0 54 -24t12 -52q-5 -26 -17.5 -39.5t-43.5 -13.5q22 -25 43 -37q70 67 143 201q32 61 51.5 113.5t24 89.5t-1 63.5t-21 39.5
t-39.5 13q-63 0 -152.5 -82.5t-168.5 -230.5q-32 -61 -51 -113.5t-24 -89.5t0 -63.5t19.5 -39.5t36.5 -13z" />
    <glyph glyph-name="Uhorn" unicode="&#x1af;" horiz-adv-x="2222" 
d="M2759 1573q28 -10 40.5 -29t9.5 -42.5t-15 -47.5t-31 -47q-85 -100 -279 -121l-350 -622q-101 -242 -131 -325q-122 -339 -27 -339q48 0 116 72.5t128.5 171.5t108.5 205h30q-30 -68 -62.5 -132t-73.5 -130.5t-81 -115t-85 -79.5t-85 -31q-69 0 -113 26t-60.5 68
t-15.5 101.5t15 118t39 126.5q-309 -443 -532 -440q-86 1 -146.5 17t-90.5 49t-44 71t-3 96.5t26.5 110t52 126.5t66.5 132t76 140q44 79 65.5 119.5t59 114t52 114t36 102.5t19.5 97.5t-6 81t-32 70.5t-67 49.5t-102.5 34.5t-146.5 9q-184 -3 -335.5 -43.5t-253 -108
t-166 -148.5t-91.5 -173q-27 -89 -18 -178t49.5 -160t110.5 -120t165.5 -59t213.5 23q57 17 111 50t101.5 80.5t71.5 116t13 145.5q-12 93 -60 156t-129 86.5t-192 -7.5q-120 -34 -162 -139q73 24 110 -33q18 -29 3 -64.5t-58 -46.5q-49 -19 -84 35q-12 22 -13 51.5t12 62.5
t37 64t65 58t92 43q74 26 148.5 17t136 -41t103.5 -89.5t52 -128.5q18 -145 -89.5 -273t-275.5 -173q-89 -26 -170.5 -26.5t-145.5 22t-117 61.5t-87 93.5t-52.5 116.5t-17.5 131.5t21 137.5q20 78 65 149t121 135.5t176 111.5t238.5 75t300.5 29q476 4 514 -257
q23 -163 -130 -469q-31 -62 -174 -320q-127 -230 -149 -328q-32 -139 90 -157q18 -3 38 -3q61 -1 142 55t165 150t160 197t147 216l508 846h154l-76 -133q54 11 84 31t41 68q-23 40 -2 86q17 35 55 51.5t72 5.5z" />
    <glyph glyph-name="uhorn" unicode="&#x1b0;" horiz-adv-x="878" 
d="M999 440h31q-50 -90 -94.5 -160t-99 -141.5t-109 -111t-102.5 -39.5q-226 0 -150 268q-174 -268 -295 -268q-304 0 -53 501q7 14 103 192q3 6 6 11h188q-236 -425 -267 -575q-18 -90 31 -90q58 0 150.5 106.5t189.5 263.5q23 52 51.5 108t61 115t39.5 72h190
q-7 -12 -18 -32l-27.5 -50t-29.5 -53q21 1 32 3t28.5 9t28.5 23.5t17 42.5q-19 36 -2 74q13 30 46 44t63 5q31 -11 39.5 -36.5t-3 -53.5t-34.5 -52q-38 -39 -81.5 -60.5t-74 -26t-76.5 -5.5q-243 -456 -161 -494q7 -3 16 -3q63 0 164 121.5t202 291.5z" />
    <glyph glyph-name="tilde" unicode="&#x2dc;" horiz-adv-x="1075" 
d="M236 1561q84 36 176.5 50.5t173.5 10.5t173.5 -9.5t176 -10.5t182.5 8l4 -17q-82 -33 -174.5 -47.5t-174 -12t-175 7t-177.5 8.5t-181 -7z" />
    <glyph glyph-name="hungarumlaut" unicode="&#x2dd;" horiz-adv-x="380" 
d="M188 1073l78 -49q-8 -45 -15 -75t-25.5 -68t-45.5 -62h-30q51 76 38 254zM319 1073l78 -49q-8 -45 -15 -75t-25.5 -68t-45.5 -62h-30q51 76 38 254z" />
    <glyph glyph-name="uni1EA0" unicode="&#x1ea0;" horiz-adv-x="2590" 
d="M2241 -2q48 0 116 74t127 170.5t111 203.5h35q-238 -487 -389 -487q-364 0 -34 704q3 7 5 11q7 18 12 26h-377q-36 -72 -63 -123.5t-66.5 -119t-74 -115t-81.5 -103.5t-94 -94t-107 -75.5t-123.5 -60t-141 -36.5t-162.5 -14q-343 1 -535 175q-139 128 -158 307
q-18 167 76 302q101 146 289 181q52 10 109 10q116 0 220 -39.5t174.5 -114t86.5 -168.5q15 -98 -29.5 -183.5t-131.5 -134.5t-191 -46q-134 3 -211 75t-58 138q4 26 21.5 43.5t52.5 17.5q44 0 67 -30t15 -64q-7 -26 -31.5 -44.5t-62.5 -18.5q77 -86 194 -86q172 0 248.5 95
t55.5 244q-12 76 -56.5 135t-105 91t-122 47.5t-120.5 15.5q-223 0 -342 -141q-99 -116 -91 -281q7 -168 121 -298q144 -163 392 -186q36 -3 74 -3q66 0 126.5 13t111 33.5t100 56.5t88 71t80 88.5t71.5 98t67 109.5t62 113t60 119h-156l37 39h139q36 68 56 104.5t56.5 100
t61.5 100.5t64.5 91.5t72 88t77.5 74.5t88 68t96 51t110 39l43 -35q-61 -26 -116 -65.5t-101.5 -92.5t-85.5 -107.5t-79 -126.5t-70.5 -132.5t-70.5 -142.5q-5 -10 -7 -15h375q22 43 72 136q32 58 48 88.5t44.5 86.5t40 88t28.5 80.5t16.5 77t-2 65t-21.5 57t-48 40t-75 28
t-108 7.5q-339 -4 -619 -191q-187 -125 -287 -289q-88 -146 -61 -246q27 -99 161 -101q24 -1 51 2l-25 -29q-160 -11 -220 92q-56 96 -2 243q62 169 232 308q246 202 606 244q86 10 175 10q101 0 175 -15t119.5 -39.5t70.5 -63.5t31 -80t-4 -97t-27.5 -106.5t-46.5 -116
t-56 -117.5t-60 -119t-53 -114q-151 -353 -185 -508q-36 -162 30 -162zM1608 -317q-39 0 -65.5 27.5t-26.5 64.5q0 40 26 67t66 27q38 0 65 -27t27 -67q0 -37 -27 -64.5t-65 -27.5z" />
    <glyph glyph-name="uni1EA1" unicode="&#x1ea1;" horiz-adv-x="956" 
d="M229 -272q-39 0 -65.5 27.5t-26.5 64.5q0 40 26 67t66 27q39 0 66 -27t27 -67q0 -37 -27.5 -64.5t-65.5 -27.5zM1061 444h31q-45 -86 -93 -162t-101.5 -144.5t-108 -109t-99.5 -40.5q-95 0 -134 42.5t-36 121.5q-147 -164 -301 -164q-165 0 -202 118q-33 105 41 254
q75 148 209 247q138 102 282 102q64 0 97.5 -33t35.5 -92q9 17 29.5 54.5t27.5 53.5h191q-173 -311 -231 -463q-79 -202 -5 -202q68 0 171 124.5t196 292.5zM229 27q147 0 297 178q8 51 32 115t43 103.5t56 111.5q5 48 -18.5 87.5t-75.5 39.5q-91 0 -211 -139
q-109 -127 -166 -274q-60 -153 -11 -203q19 -19 54 -19z" />
    <glyph glyph-name="uni1EA2" unicode="&#x1ea2;" horiz-adv-x="2590" 
d="M2241 -2q48 0 116 74t127 170.5t111 203.5h35q-238 -487 -389 -487q-364 0 -34 704q3 7 5 11q7 18 12 26h-377q-36 -72 -63 -123.5t-66.5 -119t-74 -115t-81.5 -103.5t-94 -94t-107 -75.5t-123.5 -60t-141 -36.5t-162.5 -14q-343 1 -535 175q-139 128 -158 307
q-18 167 76 302q101 146 289 181q52 10 109 10q116 0 220 -39.5t174.5 -114t86.5 -168.5q15 -98 -29.5 -183.5t-131.5 -134.5t-191 -46q-134 3 -211 75t-58 138q4 26 21.5 43.5t52.5 17.5q44 0 67 -30t15 -64q-7 -26 -31.5 -44.5t-62.5 -18.5q77 -86 194 -86q172 0 248.5 95
t55.5 244q-12 76 -56.5 135t-105 91t-122 47.5t-120.5 15.5q-223 0 -342 -141q-99 -116 -91 -281q7 -168 121 -298q144 -163 392 -186q36 -3 74 -3q66 0 126.5 13t111 33.5t100 56.5t88 71t80 88.5t71.5 98t67 109.5t62 113t60 119h-156l37 39h139q36 68 56 104.5t56.5 100
t61.5 100.5t64.5 91.5t72 88t77.5 74.5t88 68t96 51t110 39l43 -35q-61 -26 -116 -65.5t-101.5 -92.5t-85.5 -107.5t-79 -126.5t-70.5 -132.5t-70.5 -142.5q-5 -10 -7 -15h375q22 43 72 136q32 58 48 88.5t44.5 86.5t40 88t28.5 80.5t16.5 77t-2 65t-21.5 57t-48 40t-75 28
t-108 7.5q-339 -4 -619 -191q-187 -125 -287 -289q-88 -146 -61 -246q27 -99 161 -101q24 -1 51 2l-25 -29q-160 -11 -220 92q-56 96 -2 243q62 169 232 308q246 202 606 244q86 10 175 10q101 0 175 -15t119.5 -39.5t70.5 -63.5t31 -80t-4 -97t-27.5 -106.5t-46.5 -116
t-56 -117.5t-60 -119t-53 -114q-151 -353 -185 -508q-36 -162 30 -162zM2656 1905l10 2q11 -41 -12.5 -78.5t-66.5 -44.5q-26 -2 -46 10.5t-24 36.5q-17 60 20.5 107.5t104.5 58.5q57 8 104.5 -19.5t59.5 -74.5q22 -73 -43 -138q-54 -60 -142 -84q-23 -6 -38 -21t-19 -24
t-12 -30l-19 -4q12 40 22.5 60.5t29.5 31.5q174 128 147 241q-18 63 -80 54q-38 -6 -84 -64q-43 -58 -31 -98q11 -33 50 -33q37 6 58 40t11 71z" />
    <glyph glyph-name="uni1EA3" unicode="&#x1ea3;" horiz-adv-x="956" 
d="M735 1079l10 2q11 -41 -12.5 -78.5t-66.5 -44.5q-26 -2 -46 11t-24 37q-17 60 20 107t105 58q57 8 104.5 -19.5t59.5 -74.5q22 -72 -43 -137q-54 -60 -142 -84q-23 -6 -38 -21.5t-19 -24t-12 -30.5l-19 -4q12 40 22.5 60.5t29.5 31.5q174 128 147 242q-18 62 -80 53
q-38 -6 -84 -63q-43 -58 -31 -99q10 -32 50 -32q37 6 58 39.5t11 70.5zM1061 444h31q-45 -86 -93 -162t-101.5 -144.5t-108 -109t-99.5 -40.5q-95 0 -134 42.5t-36 121.5q-147 -164 -301 -164q-165 0 -202 118q-33 105 41 254q75 148 209 247q138 102 282 102q64 0 97.5 -33
t35.5 -92q9 17 29.5 54.5t27.5 53.5h191q-173 -311 -231 -463q-79 -202 -5 -202q68 0 171 124.5t196 292.5zM229 27q147 0 297 178q8 51 32 115t43 103.5t56 111.5q5 48 -18.5 87.5t-75.5 39.5q-91 0 -211 -139q-109 -127 -166 -274q-60 -153 -11 -203q19 -19 54 -19z" />
    <glyph glyph-name="uni1EA4" unicode="&#x1ea4;" horiz-adv-x="2459" 
d="M2220 -2q48 0 116 74t127 170.5t111 203.5h35q-238 -487 -389 -487q-364 0 -34 704q3 7 5 11q5 13 13 26h-377q-47 -94 -82 -159t-88.5 -149t-103 -140.5t-120 -116.5t-144.5 -95t-170.5 -58t-205.5 -23q-343 1 -535 175q-139 128 -158 307q-18 167 76 302
q101 146 289 181q52 10 109 10q116 0 220 -39.5t175 -114t87 -168.5q15 -98 -30 -183.5t-132 -134.5t-191 -46q-134 3 -210.5 75t-57.5 138q4 26 21.5 43.5t52.5 17.5q44 0 67 -30t15 -64q-7 -26 -31.5 -44.5t-63.5 -18.5q77 -86 195 -86q172 0 248 95t55 244
q-12 76 -56.5 135t-105 91t-121.5 47.5t-120 15.5q-223 0 -342 -141q-99 -116 -92 -281q7 -168 121 -298q143 -163 390 -186q37 -3 76 -3q66 0 126.5 13t111 33.5t100 56.5t88 71t80 88.5t71.5 98t67 109.5t62 113t60 119h-155l36 39h140q36 68 56 104.5t56.5 100
t61.5 100.5t64.5 91.5t72 88t77.5 74.5t88 68t96 51t110 39l43 -35q-42 -18 -81.5 -44t-72 -51.5t-67.5 -66.5t-59 -70t-56.5 -83t-50.5 -84t-50.5 -93.5t-46 -92t-47.5 -97.5h375q22 43 73 137q40 73 60 111t53 106.5t43 107.5t21 93t-4 84t-40.5 60t-79.5 43t-130 12
q-339 -4 -619 -191q-188 -125 -287 -289q-89 -146 -62 -246q27 -99 161 -101q24 -1 51 2l-24 -29q-160 -11 -220 92q-56 96 -2 244q62 168 232 308q247 202 608 243q84 10 172 10q101 0 175 -15t120 -39.5t70.5 -63.5t30.5 -80t-3.5 -97t-27.5 -106.5t-47 -116t-55.5 -117.5
t-59.5 -119t-53 -114q-141 -330 -179 -480q-49 -190 23 -190zM2599 1921l10 -2q21 -214 113 -297l-21 -20q-44 11 -96.5 54.5t-69.5 86.5q-179 -123 -342 -139l9 30q102 43 195 112t202 175zM2892 2095h166q-44 -104 -150 -176q-95 -65 -215 -92l6 31q143 88 193 237z" />
    <glyph glyph-name="uni1EA5" unicode="&#x1ea5;" horiz-adv-x="933" 
d="M1063 444h31q-45 -86 -93 -162t-101.5 -144.5t-108 -109t-99.5 -40.5q-95 0 -134 42.5t-36 121.5q-147 -164 -301 -164q-165 0 -202 118q-33 105 41 254q75 148 209 247q138 102 282 102q64 0 97.5 -33t35.5 -92q9 17 29.5 54.5t27.5 53.5h191q-173 -311 -231 -463
q-79 -202 -5 -202q68 0 171 124.5t196 292.5zM231 27q147 0 297 178q8 51 32 115t43 103.5t56 111.5q5 48 -18.5 87.5t-75.5 39.5q-91 0 -211 -139q-109 -127 -166 -274q-60 -153 -11 -203q19 -19 54 -19zM788 1075l11 -2q21 -215 112 -297l-20 -20q-44 11 -96.5 54.5
t-69.5 86.5q-179 -123 -342 -139l8 30q102 43 195 112t202 175zM1085 1249h166q-45 -105 -149 -176q-95 -65 -215 -92l6 31q141 87 192 237z" />
    <glyph glyph-name="uni1EA6" unicode="&#x1ea6;" horiz-adv-x="2459" 
d="M2220 -2q48 0 116 74t127 170.5t111 203.5h35q-238 -487 -389 -487q-364 0 -34 704q3 7 5 11q5 13 13 26h-377q-47 -94 -82 -159t-88.5 -149t-103 -140.5t-120 -116.5t-144.5 -95t-170.5 -58t-205.5 -23q-343 1 -535 175q-139 128 -158 307q-18 167 76 302
q101 146 289 181q52 10 109 10q116 0 220 -39.5t175 -114t87 -168.5q15 -98 -30 -183.5t-132 -134.5t-191 -46q-134 3 -210.5 75t-57.5 138q4 26 21.5 43.5t52.5 17.5q44 0 67 -30t15 -64q-7 -26 -31.5 -44.5t-63.5 -18.5q77 -86 195 -86q172 0 248 95t55 244
q-12 76 -56.5 135t-105 91t-121.5 47.5t-120 15.5q-223 0 -342 -141q-99 -116 -92 -281q7 -168 121 -298q143 -163 390 -186q37 -3 76 -3q66 0 126.5 13t111 33.5t100 56.5t88 71t80 88.5t71.5 98t67 109.5t62 113t60 119h-155l36 39h140q36 68 56 104.5t56.5 100
t61.5 100.5t64.5 91.5t72 88t77.5 74.5t88 68t96 51t110 39l43 -35q-42 -18 -81.5 -44t-72 -51.5t-67.5 -66.5t-59 -70t-56.5 -83t-50.5 -84t-50.5 -93.5t-46 -92t-47.5 -97.5h375q22 43 73 137q40 73 60 111t53 106.5t43 107.5t21 93t-4 84t-40.5 60t-79.5 43t-130 12
q-339 -4 -619 -191q-188 -125 -287 -289q-89 -146 -62 -246q27 -99 161 -101q24 -1 51 2l-24 -29q-160 -11 -220 92q-56 96 -2 244q62 168 232 308q247 202 608 243q84 10 172 10q101 0 175 -15t120 -39.5t70.5 -63.5t30.5 -80t-3.5 -97t-27.5 -106.5t-47 -116t-55.5 -117.5
t-59.5 -119t-53 -114q-141 -330 -179 -480q-49 -190 23 -190zM2599 1921l10 -2q21 -214 113 -297l-21 -20q-44 11 -96.5 54.5t-69.5 86.5q-179 -123 -342 -139l9 30q102 43 195 112t202 175zM2533 2126h160q25 -145 143 -230v-30q-106 21 -190 86q-93 77 -113 174z" />
    <glyph glyph-name="uni1EA7" unicode="&#x1ea7;" horiz-adv-x="933" 
d="M1063 444h31q-45 -86 -93 -162t-101.5 -144.5t-108 -109t-99.5 -40.5q-95 0 -134 42.5t-36 121.5q-147 -164 -301 -164q-165 0 -202 118q-33 105 41 254q75 148 209 247q138 102 282 102q64 0 97.5 -33t35.5 -92q9 17 29.5 54.5t27.5 53.5h191q-173 -311 -231 -463
q-79 -202 -5 -202q68 0 171 124.5t196 292.5zM231 27q147 0 297 178q8 51 32 115t43 103.5t56 111.5q5 48 -18.5 87.5t-75.5 39.5q-91 0 -211 -139q-109 -127 -166 -274q-60 -153 -11 -203q19 -19 54 -19zM788 1075l11 -2q21 -215 112 -297l-20 -20q-44 11 -96.5 54.5
t-69.5 86.5q-179 -123 -342 -139l8 30q102 43 195 112t202 175zM723 1280h160q25 -144 143 -229v-31q-106 21 -190 86q-93 77 -113 174z" />
    <glyph glyph-name="uni1EA8" unicode="&#x1ea8;" horiz-adv-x="2459" 
d="M2220 -2q48 0 116 74t127 170.5t111 203.5h35q-238 -487 -389 -487q-364 0 -34 704q3 7 5 11q5 13 13 26h-377q-47 -94 -82 -159t-88.5 -149t-103 -140.5t-120 -116.5t-144.5 -95t-170.5 -58t-205.5 -23q-343 1 -535 175q-139 128 -158 307q-18 167 76 302
q101 146 289 181q52 10 109 10q116 0 220 -39.5t175 -114t87 -168.5q15 -98 -30 -183.5t-132 -134.5t-191 -46q-134 3 -210.5 75t-57.5 138q4 26 21.5 43.5t52.5 17.5q44 0 67 -30t15 -64q-7 -26 -31.5 -44.5t-63.5 -18.5q77 -86 195 -86q172 0 248 95t55 244
q-12 76 -56.5 135t-105 91t-121.5 47.5t-120 15.5q-223 0 -342 -141q-99 -116 -92 -281q7 -168 121 -298q143 -163 390 -186q37 -3 76 -3q66 0 126.5 13t111 33.5t100 56.5t88 71t80 88.5t71.5 98t67 109.5t62 113t60 119h-155l36 39h140q36 68 56 104.5t56.5 100
t61.5 100.5t64.5 91.5t72 88t77.5 74.5t88 68t96 51t110 39l43 -35q-42 -18 -81.5 -44t-72 -51.5t-67.5 -66.5t-59 -70t-56.5 -83t-50.5 -84t-50.5 -93.5t-46 -92t-47.5 -97.5h375q22 43 73 137q40 73 60 111t53 106.5t43 107.5t21 93t-4 84t-40.5 60t-79.5 43t-130 12
q-339 -4 -619 -191q-188 -125 -287 -289q-89 -146 -62 -246q27 -99 161 -101q24 -1 51 2l-24 -29q-160 -11 -220 92q-56 96 -2 244q62 168 232 308q247 202 608 243q84 10 172 10q101 0 175 -15t120 -39.5t70.5 -63.5t30.5 -80t-3.5 -97t-27.5 -106.5t-47 -116t-55.5 -117.5
t-59.5 -119t-53 -114q-141 -330 -179 -480q-49 -190 23 -190zM2599 1921l10 -2q21 -214 113 -297l-21 -20q-44 11 -96.5 54.5t-69.5 86.5q-179 -123 -342 -139l9 30q102 43 195 112t202 175zM2806 2083l10 2q11 -41 -13 -78.5t-67 -44.5q-26 -2 -46 10.5t-24 36.5
q-17 60 20.5 107.5t104.5 58.5q57 8 104.5 -19.5t59.5 -74.5q22 -72 -43 -137q-54 -60 -141 -84q-23 -6 -38 -21t-19.5 -25t-12.5 -30l-18 -4q12 41 22 61t29 31q175 129 148 242q-18 62 -80 53q-38 -6 -84 -64q-43 -58 -31 -98q11 -33 49 -33q37 6 58.5 40t11.5 71z" />
    <glyph glyph-name="uni1EA9" unicode="&#x1ea9;" horiz-adv-x="933" 
d="M1063 444h31q-45 -86 -93 -162t-101.5 -144.5t-108 -109t-99.5 -40.5q-95 0 -134 42.5t-36 121.5q-147 -164 -301 -164q-165 0 -202 118q-33 105 41 254q75 148 209 247q138 102 282 102q64 0 97.5 -33t35.5 -92q9 17 29.5 54.5t27.5 53.5h191q-173 -311 -231 -463
q-79 -202 -5 -202q68 0 171 124.5t196 292.5zM231 27q147 0 297 178q8 51 32 115t43 103.5t56 111.5q5 48 -18.5 87.5t-75.5 39.5q-91 0 -211 -139q-109 -127 -166 -274q-60 -153 -11 -203q19 -19 54 -19zM788 1075l11 -2q21 -215 112 -297l-20 -20q-44 11 -96.5 54.5
t-69.5 86.5q-179 -123 -342 -139l8 30q102 43 195 112t202 175zM995 1237l11 2q11 -41 -13 -78.5t-67 -44.5q-26 -2 -46 10.5t-24 36.5q-17 60 20.5 107.5t104.5 58.5q57 8 104.5 -19.5t59.5 -74.5q22 -72 -43 -137q-54 -60 -141 -84q-23 -6 -38 -21t-19.5 -25t-12.5 -30
l-19 -4q12 40 22.5 60.5t29.5 31.5q174 128 147 242q-18 62 -80 53q-38 -6 -84 -64q-42 -57 -30 -98q11 -33 49 -33q37 6 58 40t11 71z" />
    <glyph glyph-name="uni1EAA" unicode="&#x1eaa;" horiz-adv-x="2459" 
d="M2220 -2q48 0 116 74t127 170.5t111 203.5h35q-238 -487 -389 -487q-364 0 -34 704q3 7 5 11q5 13 13 26h-377q-47 -94 -82 -159t-88.5 -149t-103 -140.5t-120 -116.5t-144.5 -95t-170.5 -58t-205.5 -23q-343 1 -535 175q-139 128 -158 307q-18 167 76 302
q101 146 289 181q52 10 109 10q116 0 220 -39.5t175 -114t87 -168.5q15 -98 -30 -183.5t-132 -134.5t-191 -46q-134 3 -210.5 75t-57.5 138q4 26 21.5 43.5t52.5 17.5q44 0 67 -30t15 -64q-7 -26 -31.5 -44.5t-63.5 -18.5q77 -86 195 -86q172 0 248 95t55 244
q-12 76 -56.5 135t-105 91t-121.5 47.5t-120 15.5q-223 0 -342 -141q-99 -116 -92 -281q7 -168 121 -298q143 -163 390 -186q37 -3 76 -3q66 0 126.5 13t111 33.5t100 56.5t88 71t80 88.5t71.5 98t67 109.5t62 113t60 119h-155l36 39h140q36 68 56 104.5t56.5 100
t61.5 100.5t64.5 91.5t72 88t77.5 74.5t88 68t96 51t110 39l43 -35q-42 -18 -81.5 -44t-72 -51.5t-67.5 -66.5t-59 -70t-56.5 -83t-50.5 -84t-50.5 -93.5t-46 -92t-47.5 -97.5h375q22 43 73 137q40 73 60 111t53 106.5t43 107.5t21 93t-4 84t-40.5 60t-79.5 43t-130 12
q-339 -4 -619 -191q-188 -125 -287 -289q-89 -146 -62 -246q27 -99 161 -101q24 -1 51 2l-24 -29q-160 -11 -220 92q-56 96 -2 244q62 168 232 308q247 202 608 243q84 10 172 10q101 0 175 -15t120 -39.5t70.5 -63.5t30.5 -80t-3.5 -97t-27.5 -106.5t-47 -116t-55.5 -117.5
t-59.5 -119t-53 -114q-141 -330 -179 -480q-49 -190 23 -190zM2599 1921l10 -2q21 -214 113 -297l-21 -20q-44 11 -96.5 54.5t-69.5 86.5q-179 -123 -342 -139l9 30q102 43 195 112t202 175zM2359 1987h-18q89 111 117 118l6 1q6 1 14.5 2.5t19 3.5t22.5 3t22 1h38
q33 -6 107 -33q77 -27 96 -27q51 0 72.5 12t38.5 52h10q-11 -62 -63 -105t-119 -43q-22 0 -40 3t-44 10t-29 8l-141 43q-32 0 -66 -21q-17 -8 -43 -28z" />
    <glyph glyph-name="uni1EAB" unicode="&#x1eab;" horiz-adv-x="933" 
d="M1063 444h31q-45 -86 -93 -162t-101.5 -144.5t-108 -109t-99.5 -40.5q-95 0 -134 42.5t-36 121.5q-147 -164 -301 -164q-165 0 -202 118q-33 105 41 254q75 148 209 247q138 102 282 102q64 0 97.5 -33t35.5 -92q9 17 29.5 54.5t27.5 53.5h191q-173 -311 -231 -463
q-79 -202 -5 -202q68 0 171 124.5t196 292.5zM231 27q147 0 297 178q8 51 32 115t43 103.5t56 111.5q5 48 -18.5 87.5t-75.5 39.5q-91 0 -211 -139q-109 -127 -166 -274q-60 -153 -11 -203q19 -19 54 -19zM788 1075l11 -2q21 -215 112 -297l-20 -20q-44 11 -96.5 54.5
t-69.5 86.5q-179 -123 -342 -139l8 30q102 43 195 112t202 175zM549 1143h-19q90 112 117 119l6 1q6 1 14.5 2.5t19 3t22.5 2.5t22 1h39q33 -6 107 -33q76 -27 96 -27q51 0 72 12t38 52h11q-11 -62 -63.5 -105t-119.5 -43q-22 0 -40 3t-43 10t-29 8l-142 43q-31 0 -65 -21
q-17 -9 -43 -28z" />
    <glyph glyph-name="uni1EAC" unicode="&#x1eac;" horiz-adv-x="2459" 
d="M2220 -2q48 0 116 74t127 170.5t111 203.5h35q-238 -487 -389 -487q-364 0 -34 704q3 7 5 11q5 13 13 26h-377q-47 -94 -82 -159t-88.5 -149t-103 -140.5t-120 -116.5t-144.5 -95t-170.5 -58t-205.5 -23q-343 1 -535 175q-139 128 -158 307q-18 167 76 302
q101 146 289 181q52 10 109 10q116 0 220 -39.5t175 -114t87 -168.5q15 -98 -30 -183.5t-132 -134.5t-191 -46q-134 3 -210.5 75t-57.5 138q4 26 21.5 43.5t52.5 17.5q44 0 67 -30t15 -64q-7 -26 -31.5 -44.5t-63.5 -18.5q77 -86 195 -86q172 0 248 95t55 244
q-12 76 -56.5 135t-105 91t-121.5 47.5t-120 15.5q-223 0 -342 -141q-99 -116 -92 -281q7 -168 121 -298q143 -163 390 -186q37 -3 76 -3q66 0 126.5 13t111 33.5t100 56.5t88 71t80 88.5t71.5 98t67 109.5t62 113t60 119h-155l36 39h140q36 68 56 104.5t56.5 100
t61.5 100.5t64.5 91.5t72 88t77.5 74.5t88 68t96 51t110 39l43 -35q-42 -18 -81.5 -44t-72 -51.5t-67.5 -66.5t-59 -70t-56.5 -83t-50.5 -84t-50.5 -93.5t-46 -92t-47.5 -97.5h375q22 43 73 137q40 73 60 111t53 106.5t43 107.5t21 93t-4 84t-40.5 60t-79.5 43t-130 12
q-339 -4 -619 -191q-188 -125 -287 -289q-89 -146 -62 -246q27 -99 161 -101q24 -1 51 2l-24 -29q-160 -11 -220 92q-56 96 -2 244q62 168 232 308q247 202 608 243q84 10 172 10q101 0 175 -15t120 -39.5t70.5 -63.5t30.5 -80t-3.5 -97t-27.5 -106.5t-47 -116t-55.5 -117.5
t-59.5 -119t-53 -114q-141 -330 -179 -480q-49 -190 23 -190zM2599 1921l10 -2q21 -214 113 -297l-21 -20q-44 11 -96.5 54.5t-69.5 86.5q-179 -123 -342 -139l9 30q102 43 195 112t202 175zM1608 -317q-39 0 -65.5 27.5t-26.5 64.5q0 40 26 67t66 27q38 0 65 -27t27 -67
q0 -37 -27 -64.5t-65 -27.5z" />
    <glyph glyph-name="uni1EAD" unicode="&#x1ead;" horiz-adv-x="933" 
d="M1063 444h31q-45 -86 -93 -162t-101.5 -144.5t-108 -109t-99.5 -40.5q-95 0 -134 42.5t-36 121.5q-147 -164 -301 -164q-165 0 -202 118q-33 105 41 254q75 148 209 247q138 102 282 102q64 0 97.5 -33t35.5 -92q9 17 29.5 54.5t27.5 53.5h191q-173 -311 -231 -463
q-79 -202 -5 -202q68 0 171 124.5t196 292.5zM231 27q147 0 297 178q8 51 32 115t43 103.5t56 111.5q5 48 -18.5 87.5t-75.5 39.5q-91 0 -211 -139q-109 -127 -166 -274q-60 -153 -11 -203q19 -19 54 -19zM788 1075l11 -2q21 -215 112 -297l-20 -20q-44 11 -96.5 54.5
t-69.5 86.5q-179 -123 -342 -139l8 30q102 43 195 112t202 175zM229 -272q-39 0 -65.5 27.5t-26.5 64.5q0 40 26 67t66 27q39 0 66 -27t27 -67q0 -37 -27.5 -64.5t-65.5 -27.5z" />
    <glyph glyph-name="uni1EAE" unicode="&#x1eae;" horiz-adv-x="2590" 
d="M2241 -2q48 0 116 74t127 170.5t111 203.5h35q-238 -487 -389 -487q-364 0 -34 704q3 7 5 11q7 18 12 26h-377q-36 -72 -63 -123.5t-66.5 -119t-74 -115t-81.5 -103.5t-94 -94t-107 -75.5t-123.5 -60t-141 -36.5t-162.5 -14q-343 1 -535 175q-139 128 -158 307
q-18 167 76 302q101 146 289 181q52 10 109 10q116 0 220 -39.5t174.5 -114t86.5 -168.5q15 -98 -29.5 -183.5t-131.5 -134.5t-191 -46q-134 3 -211 75t-58 138q4 26 21.5 43.5t52.5 17.5q44 0 67 -30t15 -64q-7 -26 -31.5 -44.5t-62.5 -18.5q77 -86 194 -86q172 0 248.5 95
t55.5 244q-12 76 -56.5 135t-105 91t-122 47.5t-120.5 15.5q-223 0 -342 -141q-99 -116 -91 -281q7 -168 121 -298q144 -163 392 -186q36 -3 74 -3q66 0 126.5 13t111 33.5t100 56.5t88 71t80 88.5t71.5 98t67 109.5t62 113t60 119h-156l37 39h139q36 68 56 104.5t56.5 100
t61.5 100.5t64.5 91.5t72 88t77.5 74.5t88 68t96 51t110 39l43 -35q-61 -26 -116 -65.5t-101.5 -92.5t-85.5 -107.5t-79 -126.5t-70.5 -132.5t-70.5 -142.5q-5 -10 -7 -15h375q22 43 72 136q32 58 48 88.5t44.5 86.5t40 88t28.5 80.5t16.5 77t-2 65t-21.5 57t-48 40t-75 28
t-108 7.5q-339 -4 -619 -191q-187 -125 -287 -289q-88 -146 -61 -246q27 -99 161 -101q24 -1 51 2l-25 -29q-160 -11 -220 92q-56 96 -2 243q62 169 232 308q246 202 606 244q86 10 175 10q101 0 175 -15t119.5 -39.5t70.5 -63.5t31 -80t-4 -97t-27.5 -106.5t-46.5 -116
t-56 -117.5t-60 -119t-53 -114q-151 -353 -185 -508q-36 -162 30 -162zM2830 1835h62q-58 -98 -158 -160q-116 -73 -256 -73q-61 0 -106 50.5t-45 121.5v28q0 21 4 33h65v-49q0 -15 43 -45q50 -29 96 -29l25 -4q83 0 161 37.5t109 89.5zM2724 2089h166q-44 -104 -150 -176
q-95 -65 -215 -92l6 30q142 87 193 238z" />
    <glyph glyph-name="uni1EAF" unicode="&#x1eaf;" horiz-adv-x="956" 
d="M991 1008h62q-58 -98 -158 -160q-118 -74 -256 -74q-61 0 -106.5 50.5t-45.5 121.5v29q0 18 5 33h65v-50q0 -15 43 -45q48 -28 96 -28l25 -4q83 0 161 37.5t109 89.5zM885 1262h166q-45 -106 -150 -177q-95 -65 -215 -92l6 31q142 87 193 238zM1061 444h31
q-45 -86 -93 -162t-101.5 -144.5t-108 -109t-99.5 -40.5q-95 0 -134 42.5t-36 121.5q-147 -164 -301 -164q-165 0 -202 118q-33 105 41 254q75 148 209 247q138 102 282 102q64 0 97.5 -33t35.5 -92q9 17 29.5 54.5t27.5 53.5h191q-173 -311 -231 -463q-79 -202 -5 -202
q68 0 171 124.5t196 292.5zM229 27q147 0 297 178q8 51 32 115t43 103.5t56 111.5q5 48 -18.5 87.5t-75.5 39.5q-91 0 -211 -139q-109 -127 -166 -274q-60 -153 -11 -203q19 -19 54 -19z" />
    <glyph glyph-name="uni1EB0" unicode="&#x1eb0;" horiz-adv-x="2590" 
d="M2241 -2q48 0 116 74t127 170.5t111 203.5h35q-238 -487 -389 -487q-364 0 -34 704q3 7 5 11q7 18 12 26h-377q-36 -72 -63 -123.5t-66.5 -119t-74 -115t-81.5 -103.5t-94 -94t-107 -75.5t-123.5 -60t-141 -36.5t-162.5 -14q-343 1 -535 175q-139 128 -158 307
q-18 167 76 302q101 146 289 181q52 10 109 10q116 0 220 -39.5t174.5 -114t86.5 -168.5q15 -98 -29.5 -183.5t-131.5 -134.5t-191 -46q-134 3 -211 75t-58 138q4 26 21.5 43.5t52.5 17.5q44 0 67 -30t15 -64q-7 -26 -31.5 -44.5t-62.5 -18.5q77 -86 194 -86q172 0 248.5 95
t55.5 244q-12 76 -56.5 135t-105 91t-122 47.5t-120.5 15.5q-223 0 -342 -141q-99 -116 -91 -281q7 -168 121 -298q144 -163 392 -186q36 -3 74 -3q66 0 126.5 13t111 33.5t100 56.5t88 71t80 88.5t71.5 98t67 109.5t62 113t60 119h-156l37 39h139q36 68 56 104.5t56.5 100
t61.5 100.5t64.5 91.5t72 88t77.5 74.5t88 68t96 51t110 39l43 -35q-61 -26 -116 -65.5t-101.5 -92.5t-85.5 -107.5t-79 -126.5t-70.5 -132.5t-70.5 -142.5q-5 -10 -7 -15h375q22 43 72 136q32 58 48 88.5t44.5 86.5t40 88t28.5 80.5t16.5 77t-2 65t-21.5 57t-48 40t-75 28
t-108 7.5q-339 -4 -619 -191q-187 -125 -287 -289q-88 -146 -61 -246q27 -99 161 -101q24 -1 51 2l-25 -29q-160 -11 -220 92q-56 96 -2 243q62 169 232 308q246 202 606 244q86 10 175 10q101 0 175 -15t119.5 -39.5t70.5 -63.5t31 -80t-4 -97t-27.5 -106.5t-46.5 -116
t-56 -117.5t-60 -119t-53 -114q-151 -353 -185 -508q-36 -162 30 -162zM2830 1835h62q-58 -98 -158 -160q-116 -73 -256 -73q-61 0 -106 50.5t-45 121.5v28q0 21 4 33h65v-49q0 -15 43 -45q50 -29 96 -29l25 -4q83 0 161 37.5t109 89.5zM2380 2079h160q25 -145 143 -230v-30
q-108 21 -191 86q-92 76 -112 174z" />
    <glyph glyph-name="uni1EB1" unicode="&#x1eb1;" horiz-adv-x="956" 
d="M991 1008h62q-58 -98 -158 -160q-118 -74 -256 -74q-61 0 -106.5 50.5t-45.5 121.5v29q0 18 5 33h65v-50q0 -15 43 -45q48 -28 96 -28l25 -4q83 0 161 37.5t109 89.5zM561 1272h160q25 -145 143 -230v-30q-106 21 -190 86q-93 77 -113 174zM1061 444h31q-45 -86 -93 -162
t-101.5 -144.5t-108 -109t-99.5 -40.5q-95 0 -134 42.5t-36 121.5q-147 -164 -301 -164q-165 0 -202 118q-33 105 41 254q75 148 209 247q138 102 282 102q64 0 97.5 -33t35.5 -92q9 17 29.5 54.5t27.5 53.5h191q-173 -311 -231 -463q-79 -202 -5 -202q68 0 171 124.5
t196 292.5zM229 27q147 0 297 178q8 51 32 115t43 103.5t56 111.5q5 48 -18.5 87.5t-75.5 39.5q-91 0 -211 -139q-109 -127 -166 -274q-60 -153 -11 -203q19 -19 54 -19z" />
    <glyph glyph-name="uni1EB2" unicode="&#x1eb2;" horiz-adv-x="2590" 
d="M2241 -2q48 0 116 74t127 170.5t111 203.5h35q-238 -487 -389 -487q-364 0 -34 704q3 7 5 11q7 18 12 26h-377q-36 -72 -63 -123.5t-66.5 -119t-74 -115t-81.5 -103.5t-94 -94t-107 -75.5t-123.5 -60t-141 -36.5t-162.5 -14q-343 1 -535 175q-139 128 -158 307
q-18 167 76 302q101 146 289 181q52 10 109 10q116 0 220 -39.5t174.5 -114t86.5 -168.5q15 -98 -29.5 -183.5t-131.5 -134.5t-191 -46q-134 3 -211 75t-58 138q4 26 21.5 43.5t52.5 17.5q44 0 67 -30t15 -64q-7 -26 -31.5 -44.5t-62.5 -18.5q77 -86 194 -86q172 0 248.5 95
t55.5 244q-12 76 -56.5 135t-105 91t-122 47.5t-120.5 15.5q-223 0 -342 -141q-99 -116 -91 -281q7 -168 121 -298q144 -163 392 -186q36 -3 74 -3q66 0 126.5 13t111 33.5t100 56.5t88 71t80 88.5t71.5 98t67 109.5t62 113t60 119h-156l37 39h139q36 68 56 104.5t56.5 100
t61.5 100.5t64.5 91.5t72 88t77.5 74.5t88 68t96 51t110 39l43 -35q-61 -26 -116 -65.5t-101.5 -92.5t-85.5 -107.5t-79 -126.5t-70.5 -132.5t-70.5 -142.5q-5 -10 -7 -15h375q22 43 72 136q32 58 48 88.5t44.5 86.5t40 88t28.5 80.5t16.5 77t-2 65t-21.5 57t-48 40t-75 28
t-108 7.5q-339 -4 -619 -191q-187 -125 -287 -289q-88 -146 -61 -246q27 -99 161 -101q24 -1 51 2l-25 -29q-160 -11 -220 92q-56 96 -2 243q62 169 232 308q246 202 606 244q86 10 175 10q101 0 175 -15t119.5 -39.5t70.5 -63.5t31 -80t-4 -97t-27.5 -106.5t-46.5 -116
t-56 -117.5t-60 -119t-53 -114q-151 -353 -185 -508q-36 -162 30 -162zM2830 1835h62q-58 -98 -158 -160q-116 -73 -256 -73q-61 0 -106 50.5t-45 121.5v28q0 21 4 33h65v-49q0 -15 43 -45q50 -29 96 -29l25 -4q83 0 161 37.5t109 89.5zM2705 2126l11 2q11 -41 -13 -78.5
t-67 -44.5q-26 -2 -46 10.5t-24 36.5q-17 60 20.5 107.5t104.5 58.5q57 8 104.5 -19.5t59.5 -74.5q22 -72 -43 -137q-54 -60 -141 -84q-23 -6 -38 -21t-19.5 -25t-12.5 -30l-18 -4q12 41 22 61t29 31q174 128 147 242q-18 62 -80 53q-38 -6 -84 -64q-42 -57 -30 -98
q11 -33 49 -33q37 6 58 40t11 71z" />
    <glyph glyph-name="uni1EB3" unicode="&#x1eb3;" horiz-adv-x="956" 
d="M991 1008h62q-58 -98 -158 -160q-118 -74 -256 -74q-61 0 -106.5 50.5t-45.5 121.5v29q0 18 5 33h65v-50q0 -15 43 -45q48 -28 96 -28l25 -4q83 0 161 37.5t109 89.5zM854 1307l10 2q11 -41 -13 -78.5t-67 -44.5q-26 -2 -45.5 10.5t-23.5 36.5q-17 60 20.5 107.5
t104.5 58.5q57 8 104.5 -19.5t59.5 -74.5q22 -73 -43 -138q-54 -60 -142 -84q-23 -6 -38 -21t-19 -24t-12 -30l-19 -4q12 41 22 61t29 31q175 128 148 241q-18 63 -80 54q-38 -6 -84 -64q-43 -58 -31 -98q11 -33 49 -33q37 6 58.5 40t11.5 71zM1061 444h31q-45 -86 -93 -162
t-101.5 -144.5t-108 -109t-99.5 -40.5q-95 0 -134 42.5t-36 121.5q-147 -164 -301 -164q-165 0 -202 118q-33 105 41 254q75 148 209 247q138 102 282 102q64 0 97.5 -33t35.5 -92q9 17 29.5 54.5t27.5 53.5h191q-173 -311 -231 -463q-79 -202 -5 -202q68 0 171 124.5
t196 292.5zM229 27q147 0 297 178q8 51 32 115t43 103.5t56 111.5q5 48 -18.5 87.5t-75.5 39.5q-91 0 -211 -139q-109 -127 -166 -274q-60 -153 -11 -203q19 -19 54 -19z" />
    <glyph glyph-name="uni1EB4" unicode="&#x1eb4;" horiz-adv-x="2590" 
d="M2241 -2q48 0 116 74t127 170.5t111 203.5h35q-238 -487 -389 -487q-364 0 -34 704q3 7 5 11q7 18 12 26h-377q-36 -72 -63 -123.5t-66.5 -119t-74 -115t-81.5 -103.5t-94 -94t-107 -75.5t-123.5 -60t-141 -36.5t-162.5 -14q-343 1 -535 175q-139 128 -158 307
q-18 167 76 302q101 146 289 181q52 10 109 10q116 0 220 -39.5t174.5 -114t86.5 -168.5q15 -98 -29.5 -183.5t-131.5 -134.5t-191 -46q-134 3 -211 75t-58 138q4 26 21.5 43.5t52.5 17.5q44 0 67 -30t15 -64q-7 -26 -31.5 -44.5t-62.5 -18.5q77 -86 194 -86q172 0 248.5 95
t55.5 244q-12 76 -56.5 135t-105 91t-122 47.5t-120.5 15.5q-223 0 -342 -141q-99 -116 -91 -281q7 -168 121 -298q144 -163 392 -186q36 -3 74 -3q66 0 126.5 13t111 33.5t100 56.5t88 71t80 88.5t71.5 98t67 109.5t62 113t60 119h-156l37 39h139q36 68 56 104.5t56.5 100
t61.5 100.5t64.5 91.5t72 88t77.5 74.5t88 68t96 51t110 39l43 -35q-61 -26 -116 -65.5t-101.5 -92.5t-85.5 -107.5t-79 -126.5t-70.5 -132.5t-70.5 -142.5q-5 -10 -7 -15h375q22 43 72 136q32 58 48 88.5t44.5 86.5t40 88t28.5 80.5t16.5 77t-2 65t-21.5 57t-48 40t-75 28
t-108 7.5q-339 -4 -619 -191q-187 -125 -287 -289q-88 -146 -61 -246q27 -99 161 -101q24 -1 51 2l-25 -29q-160 -11 -220 92q-56 96 -2 243q62 169 232 308q246 202 606 244q86 10 175 10q101 0 175 -15t119.5 -39.5t70.5 -63.5t31 -80t-4 -97t-27.5 -106.5t-46.5 -116
t-56 -117.5t-60 -119t-53 -114q-151 -353 -185 -508q-36 -162 30 -162zM2830 1835h62q-58 -98 -158 -160q-116 -73 -256 -73q-61 0 -106 50.5t-45 121.5v28q0 21 4 33h65v-49q0 -15 43 -45q50 -29 96 -29l25 -4q83 0 161 37.5t109 89.5zM2392 1931h-18q90 113 116 119l6 1
q6 1 14.5 2.5t19 3t22.5 2.5t22 1h39q38 -7 107 -32q76 -27 96 -27q51 0 72.5 11.5t38.5 51.5h10q-11 -62 -63 -104.5t-119 -42.5q-17 0 -34.5 2t-27.5 4.5t-27.5 7t-23.5 6.5l-141 43q-33 0 -66 -20q-13 -6 -43 -29z" />
    <glyph glyph-name="uni1EB5" unicode="&#x1eb5;" horiz-adv-x="956" 
d="M991 1008h62q-58 -98 -158 -160q-118 -74 -256 -74q-61 0 -106.5 50.5t-45.5 121.5v29q0 18 5 33h65v-50q0 -15 43 -45q48 -28 96 -28l25 -4q83 0 161 37.5t109 89.5zM561 1087h-18q90 113 116 119l6 1q6 1 14.5 3t19 3.5t22.5 2.5t22 1h39q33 -6 107 -33q76 -27 96 -27
q51 0 72.5 12t38.5 52h10q-11 -62 -63 -105t-119 -43q-22 0 -40 3t-44 10t-29 8l-141 43q-32 0 -66 -21q-13 -6 -43 -29zM1061 444h31q-45 -86 -93 -162t-101.5 -144.5t-108 -109t-99.5 -40.5q-95 0 -134 42.5t-36 121.5q-147 -164 -301 -164q-165 0 -202 118
q-33 105 41 254q75 148 209 247q138 102 282 102q64 0 97.5 -33t35.5 -92q9 17 29.5 54.5t27.5 53.5h191q-173 -311 -231 -463q-79 -202 -5 -202q68 0 171 124.5t196 292.5zM229 27q147 0 297 178q8 51 32 115t43 103.5t56 111.5q5 48 -18.5 87.5t-75.5 39.5
q-91 0 -211 -139q-109 -127 -166 -274q-60 -153 -11 -203q19 -19 54 -19z" />
    <glyph glyph-name="uni1EB6" unicode="&#x1eb6;" horiz-adv-x="2590" 
d="M2241 -2q48 0 116 74t127 170.5t111 203.5h35q-238 -487 -389 -487q-364 0 -34 704q3 7 5 11q7 18 12 26h-377q-36 -72 -63 -123.5t-66.5 -119t-74 -115t-81.5 -103.5t-94 -94t-107 -75.5t-123.5 -60t-141 -36.5t-162.5 -14q-343 1 -535 175q-139 128 -158 307
q-18 167 76 302q101 146 289 181q52 10 109 10q116 0 220 -39.5t174.5 -114t86.5 -168.5q15 -98 -29.5 -183.5t-131.5 -134.5t-191 -46q-134 3 -211 75t-58 138q4 26 21.5 43.5t52.5 17.5q44 0 67 -30t15 -64q-7 -26 -31.5 -44.5t-62.5 -18.5q77 -86 194 -86q172 0 248.5 95
t55.5 244q-12 76 -56.5 135t-105 91t-122 47.5t-120.5 15.5q-223 0 -342 -141q-99 -116 -91 -281q7 -168 121 -298q144 -163 392 -186q36 -3 74 -3q66 0 126.5 13t111 33.5t100 56.5t88 71t80 88.5t71.5 98t67 109.5t62 113t60 119h-156l37 39h139q36 68 56 104.5t56.5 100
t61.5 100.5t64.5 91.5t72 88t77.5 74.5t88 68t96 51t110 39l43 -35q-61 -26 -116 -65.5t-101.5 -92.5t-85.5 -107.5t-79 -126.5t-70.5 -132.5t-70.5 -142.5q-5 -10 -7 -15h375q22 43 72 136q32 58 48 88.5t44.5 86.5t40 88t28.5 80.5t16.5 77t-2 65t-21.5 57t-48 40t-75 28
t-108 7.5q-339 -4 -619 -191q-187 -125 -287 -289q-88 -146 -61 -246q27 -99 161 -101q24 -1 51 2l-25 -29q-160 -11 -220 92q-56 96 -2 243q62 169 232 308q246 202 606 244q86 10 175 10q101 0 175 -15t119.5 -39.5t70.5 -63.5t31 -80t-4 -97t-27.5 -106.5t-46.5 -116
t-56 -117.5t-60 -119t-53 -114q-151 -353 -185 -508q-36 -162 30 -162zM2830 1835h62q-58 -98 -158 -160q-116 -73 -256 -73q-61 0 -106 50.5t-45 121.5v28q0 21 4 33h65v-49q0 -15 43 -45q50 -29 96 -29l25 -4q83 0 161 37.5t109 89.5zM1608 -317q-39 0 -65.5 27.5
t-26.5 64.5q0 40 26 67t66 27q38 0 65 -27t27 -67q0 -37 -27 -64.5t-65 -27.5z" />
    <glyph glyph-name="uni1EB7" unicode="&#x1eb7;" horiz-adv-x="956" 
d="M991 1008h62q-58 -98 -158 -160q-118 -74 -256 -74q-61 0 -106.5 50.5t-45.5 121.5v29q0 18 5 33h65v-50q0 -15 43 -45q48 -28 96 -28l25 -4q83 0 161 37.5t109 89.5zM229 -272q-39 0 -65.5 27.5t-26.5 64.5q0 40 26 67t66 27q39 0 66 -27t27 -67q0 -37 -27.5 -64.5
t-65.5 -27.5zM1061 444h31q-45 -86 -93 -162t-101.5 -144.5t-108 -109t-99.5 -40.5q-95 0 -134 42.5t-36 121.5q-147 -164 -301 -164q-165 0 -202 118q-33 105 41 254q75 148 209 247q138 102 282 102q64 0 97.5 -33t35.5 -92q9 17 29.5 54.5t27.5 53.5h191
q-173 -311 -231 -463q-79 -202 -5 -202q68 0 171 124.5t196 292.5zM229 27q147 0 297 178q8 51 32 115t43 103.5t56 111.5q5 48 -18.5 87.5t-75.5 39.5q-91 0 -211 -139q-109 -127 -166 -274q-60 -153 -11 -203q19 -19 54 -19z" />
    <glyph glyph-name="uni1EB8" unicode="&#x1eb8;" horiz-adv-x="1370" 
d="M590 -317q-39 0 -65.5 27.5t-26.5 64.5q0 40 26 67t66 27q38 0 65 -27t27 -67q0 -37 -27 -64.5t-65 -27.5zM1282 1534q169 0 219 -84q40 -68 -18 -157q-65 -101 -215 -161q-219 -86 -500 -30q-22 -37 -38 -87.5t-19 -106.5t22 -93q74 38 165 59q140 32 135 -40
q0 -9 -3 -19q-13 -47 -51.5 -74t-85 -31t-92.5 3.5t-80 25.5q-106 -56 -205 -198q-112 -158 -131 -303q-23 -166 98 -219q50 -21 121 -21q254 0 444 149q128 101 177 225q43 110 -3 169q-31 41 -100 41t-126.5 -47.5t-81 -116t-3.5 -127.5q7 36 34 48.5t53.5 1.5t33.5 -34
q13 -33 -3 -64t-66 -32q-69 -2 -90 71q-22 77 21 174q47 108 141 151q48 21 102 20q110 -1 144 -91q35 -90 -23 -215q-67 -146 -220 -243q-185 -119 -434 -119q-300 0 -388 148q-69 114 7 280q71 155 231 279q90 70 191 114q-57 41 -77 107t-9.5 131t41.5 129
q-81 26 -152 67.5t-117.5 95.5t-58 110t34 115t150.5 107l35 -16q-107 -43 -149 -93.5t-27 -96t65.5 -90t116.5 -77.5t139 -57q95 148 280 235t365 87zM1327 1495q-155 0 -298.5 -86t-231.5 -244q296 -65 497 29q115 54 156 139q35 73 -8 121q-36 40 -115 41zM1004 809
q5 20 -24 23q-55 5 -158 -33q-34 -13 -50 -23q35 -27 87 -32t94 13t51 52z" />
    <glyph glyph-name="uni1EB9" unicode="&#x1eb9;" 
d="M201 -272q-39 0 -65.5 27.5t-26.5 64.5q0 40 26 67t66 27q38 0 65 -27t27 -67q0 -37 -27 -64.5t-65 -27.5zM823 440h31q-47 -82 -83.5 -138t-92.5 -120.5t-112.5 -103t-134.5 -64.5t-167 -26q-182 0 -222 121q-34 105 45 255q77 145 212 243q140 102 281 102
q114 0 144 -69q27 -63 -32 -143q-72 -101 -224 -150q-104 -34 -226 -34q-21 -41 -34.5 -84.5t-18 -92t21.5 -79t84 -30.5q289 0 528 413zM598 659q-78 0 -173 -92.5t-167 -220.5q177 -2 307 98q85 64 103 133q16 60 -35 77q-15 5 -35 5z" />
    <glyph glyph-name="uni1EBA" unicode="&#x1eba;" horiz-adv-x="1370" 
d="M1327 1905l10 2q11 -41 -13 -78.5t-67 -44.5q-26 -2 -45.5 10.5t-23.5 36.5q-17 60 20.5 107.5t104.5 58.5q57 8 104.5 -19.5t59.5 -74.5q22 -73 -43 -138q-54 -60 -142 -84q-23 -6 -38 -21t-19 -24t-12 -30l-19 -4q12 41 22 61t29 31q175 128 148 241q-18 63 -80 54
q-38 -6 -84 -64q-43 -58 -31 -98q11 -33 49 -33q37 6 58.5 40t11.5 71zM1282 1534q169 0 219 -84q40 -68 -18 -157q-65 -101 -215 -161q-219 -86 -500 -30q-22 -37 -38 -87.5t-19 -106.5t22 -93q74 38 165 59q140 32 135 -40q0 -9 -3 -19q-13 -47 -51.5 -74t-85 -31
t-92.5 3.5t-80 25.5q-106 -56 -205 -198q-112 -158 -131 -303q-23 -166 98 -219q50 -21 121 -21q254 0 444 149q128 101 177 225q43 110 -3 169q-31 41 -100 41t-126.5 -47.5t-81 -116t-3.5 -127.5q7 36 34 48.5t53.5 1.5t33.5 -34q13 -33 -3 -64t-66 -32q-69 -2 -90 71
q-22 77 21 174q47 108 141 151q48 21 102 20q110 -1 144 -91q35 -90 -23 -215q-67 -146 -220 -243q-185 -119 -434 -119q-300 0 -388 148q-69 114 7 280q71 155 231 279q90 70 191 114q-57 41 -77 107t-9.5 131t41.5 129q-81 26 -152 67.5t-117.5 95.5t-58 110t34 115
t150.5 107l35 -16q-107 -43 -149 -93.5t-27 -96t65.5 -90t116.5 -77.5t139 -57q95 148 280 235t365 87zM1327 1495q-155 0 -298.5 -86t-231.5 -244q296 -65 497 29q115 54 156 139q35 73 -8 121q-36 40 -115 41zM1004 809q5 20 -24 23q-55 5 -158 -33q-34 -13 -50 -23
q35 -27 87 -32t94 13t51 52z" />
    <glyph glyph-name="uni1EBB" unicode="&#x1ebb;" 
d="M659 1079l11 2q11 -41 -13 -78.5t-67 -44.5q-26 -2 -46 11t-24 37q-17 60 20 107t105 58q57 8 104.5 -19.5t59.5 -74.5q22 -72 -43 -137q-54 -60 -141 -84q-23 -6 -38 -21t-19.5 -25t-12.5 -30l-18 -4q12 41 22 61t29 31q174 128 147 242q-18 62 -80 53q-38 -6 -84 -63
q-42 -57 -30 -99q10 -32 49 -32q37 6 58 39.5t11 70.5zM823 440h31q-47 -82 -83.5 -138t-92.5 -120.5t-112.5 -103t-134.5 -64.5t-167 -26q-182 0 -222 121q-34 105 45 255q77 145 212 243q140 102 281 102q114 0 144 -69q27 -63 -32 -143q-72 -101 -224 -150
q-104 -34 -226 -34q-21 -41 -34.5 -84.5t-18 -92t21.5 -79t84 -30.5q289 0 528 413zM598 659q-78 0 -173 -92.5t-167 -220.5q177 -2 307 98q85 64 103 133q16 60 -35 77q-15 5 -35 5z" />
    </font>
</defs>
</svg>
